<svg xmlns="http://www.w3.org/2000/svg" viewBox="0 0 1200 1200"><defs><style>.cls-1,.cls-2{fill:none;stroke:#cfb886;stroke-linejoin:round;stroke-width:3.13px;}.cls-1{stroke-linecap:round;}</style></defs><g id="Graphic_elements" data-name="Graphic elements"><circle class="cls-1" cx="600" cy="600" r="518.73"/><circle class="cls-1" cx="600" cy="470.81" r="127.37" transform="translate(-157.18 562.16) rotate(-45)"/><circle class="cls-1" cx="600" cy="600" r="591.22"/><circle class="cls-1" cx="600" cy="600" r="566.92"/><circle class="cls-1" cx="600" cy="600" r="549.38"/><path class="cls-1" d="M50.7,590.66C116.87,561.54,343.61,470.81,600,470.81s483.13,90.73,549.3,119.85"/><path class="cls-1" d="M814.29,94C925.1,164.78,998.57,288.86,998.57,430.11c0,220.13-178.44,398.58-398.57,398.58S201.43,650.24,201.43,430.11c0-141,73.23-264.92,183.73-335.78"/><line class="cls-1" x1="600" y1="1149.38" x2="600" y2="50.62"/><line class="cls-1" x1="50.62" y1="600" x2="1149.38" y2="600"/><line class="cls-1" x1="874.33" y1="1076.09" x2="324.85" y2="124.35"/><line class="cls-1" x1="325.67" y1="1076.09" x2="875.15" y2="124.35"/><line class="cls-1" x1="1076.03" y1="326.09" x2="125.05" y2="875.14"/><line class="cls-1" x1="1075.45" y1="875.43" x2="123.42" y2="325.78"/><path class="cls-1" d="M1147,647.78c-51.71,104.27-204.17,332.84-547,332.84-343.12,0-495.54-229-547.11-333.14"/><polygon class="cls-1" points="212.83 627.02 205.29 629.55 203.71 621.75 202.13 629.55 194.59 627.02 200.55 632.28 194.59 637.55 202.13 635.02 203.71 642.81 205.29 635.02 212.83 637.55 206.87 632.28 212.83 627.02"/><polygon class="cls-1" points="170.52 506.04 162.99 508.57 161.41 500.78 159.83 508.57 152.29 506.04 158.25 511.31 152.29 516.57 159.83 514.04 161.41 521.84 162.99 514.04 170.52 516.57 164.56 511.31 170.52 506.04"/><polygon class="cls-1" points="469.6 535.77 462.06 538.3 460.48 530.5 458.9 538.3 451.36 535.77 457.32 541.03 451.36 546.3 458.9 543.77 460.48 551.56 462.06 543.77 469.6 546.3 463.64 541.03 469.6 535.77"/><polygon class="cls-1" points="432.82 477.46 425.28 479.99 423.7 472.19 422.12 479.99 414.58 477.46 420.54 482.72 414.58 487.99 422.12 485.46 423.7 493.25 425.28 485.46 432.82 487.99 426.86 482.72 432.82 477.46"/><polygon class="cls-1" points="451.05 426.24 443.51 428.77 441.94 420.98 440.36 428.77 432.82 426.24 438.78 431.51 432.82 436.77 440.36 434.24 441.94 442.03 443.51 434.24 451.05 436.77 445.09 431.51 451.05 426.24"/><polygon class="cls-1" points="357.05 568.7 349.51 571.23 347.93 563.44 346.35 571.23 338.81 568.7 344.77 573.97 338.81 579.23 346.35 576.7 347.93 584.49 349.51 576.7 357.05 579.23 351.09 573.97 357.05 568.7"/><polygon class="cls-1" points="379.78 713.63 372.24 716.16 370.66 708.36 369.08 716.16 361.55 713.63 367.5 718.89 361.55 724.16 369.08 721.63 370.66 729.42 372.24 721.63 379.78 724.16 373.82 718.89 379.78 713.63"/><polygon class="cls-1" points="314.9 719.79 307.37 722.32 305.79 714.52 304.21 722.32 296.67 719.79 302.63 725.05 296.67 730.32 304.21 727.79 305.79 735.58 307.37 727.79 314.9 730.32 308.94 725.05 314.9 719.79"/><polygon class="cls-1" points="375.28 843.58 367.75 846.11 366.17 838.32 364.59 846.11 357.05 843.58 363.01 848.85 357.05 854.11 364.59 851.58 366.17 859.38 367.75 851.58 375.28 854.11 369.32 848.85 375.28 843.58"/><polygon class="cls-1" points="404.88 823.42 397.34 825.95 395.76 818.16 394.18 825.95 386.64 823.42 392.6 828.69 386.64 833.95 394.18 831.42 395.76 839.21 397.34 831.42 404.88 833.95 398.92 828.69 404.88 823.42"/><polygon class="cls-1" points="381.67 888.5 374.14 891.03 372.56 883.24 370.98 891.03 363.44 888.5 369.4 893.77 363.44 899.03 370.98 896.5 372.56 904.3 374.14 896.5 381.67 899.03 375.71 893.77 381.67 888.5"/><polygon class="cls-1" points="269.86 950.18 262.32 952.71 260.74 944.92 259.16 952.71 251.63 950.18 257.58 955.45 251.63 960.71 259.16 958.18 260.74 965.98 262.32 958.18 269.86 960.71 263.9 955.45 269.86 950.18"/><polygon class="cls-1" points="556.57 895.78 549.03 898.31 547.46 890.52 545.88 898.31 538.34 895.78 544.3 901.04 538.34 906.31 545.88 903.78 547.46 911.57 549.03 903.78 556.57 906.31 550.61 901.04 556.57 895.78"/><polygon class="cls-1" points="585.54 1008.94 578 1011.47 576.43 1003.68 574.85 1011.47 567.31 1008.94 573.27 1014.21 567.31 1019.47 574.85 1016.94 576.43 1024.73 578 1016.94 585.54 1019.47 579.59 1014.21 585.54 1008.94"/><polygon class="cls-1" points="414.53 1032.23 406.99 1034.76 405.41 1026.96 403.83 1034.76 396.29 1032.23 402.25 1037.49 396.29 1042.76 403.83 1040.23 405.41 1048.02 406.99 1040.23 414.53 1042.76 408.57 1037.49 414.53 1032.23"/><polygon class="cls-1" points="711.37 1015.6 703.83 1018.13 702.25 1010.34 700.67 1018.13 693.13 1015.6 699.09 1020.86 693.13 1026.13 700.67 1023.6 702.25 1031.39 703.83 1023.6 711.37 1026.13 705.41 1020.86 711.37 1015.6"/><polygon class="cls-1" points="861.39 967.87 853.85 970.4 852.27 962.61 850.7 970.4 843.16 967.87 849.12 973.13 843.16 978.4 850.7 975.87 852.27 983.66 853.85 975.87 861.39 978.4 855.43 973.13 861.39 967.87"/><polygon class="cls-1" points="769.66 902.14 762.12 904.67 760.54 896.88 758.97 904.67 751.43 902.14 757.38 907.41 751.43 912.67 758.97 910.14 760.54 917.94 762.12 910.14 769.66 912.67 763.7 907.41 769.66 902.14"/><polygon class="cls-1" points="426.35 753.59 418.81 756.12 417.23 748.33 415.65 756.12 408.11 753.59 414.07 758.86 408.11 764.12 415.65 761.59 417.23 769.38 418.81 761.59 426.35 764.12 420.39 758.86 426.35 753.59"/><polygon class="cls-1" points="532.9 778.92 525.36 781.45 523.78 773.66 522.2 781.45 514.66 778.92 520.62 784.19 514.66 789.45 522.2 786.92 523.78 794.72 525.36 786.92 532.9 789.45 526.94 784.19 532.9 778.92"/><polygon class="cls-1" points="702.43 702.15 694.89 704.68 693.31 696.89 691.73 704.68 684.19 702.15 690.15 707.42 684.19 712.68 691.73 710.15 693.31 717.95 694.89 710.15 702.43 712.68 696.47 707.42 702.43 702.15"/><polygon class="cls-1" points="834.08 826.81 826.54 829.34 824.96 821.55 823.38 829.34 815.84 826.81 821.8 832.08 815.84 837.34 823.38 834.81 824.96 842.61 826.54 834.81 834.08 837.34 828.12 832.08 834.08 826.81"/><polygon class="cls-1" points="1007.69 678.65 1000.15 681.18 998.58 673.38 997 681.18 989.46 678.65 995.42 683.91 989.46 689.17 997 686.65 998.58 694.44 1000.15 686.65 1007.69 689.17 1001.73 683.91 1007.69 678.65"/><polygon class="cls-1" points="1072.81 559.66 1065.27 562.19 1063.69 554.4 1062.11 562.19 1054.57 559.66 1060.53 564.92 1054.57 570.19 1062.11 567.66 1063.69 575.45 1065.27 567.66 1072.81 570.19 1066.85 564.92 1072.81 559.66"/><polygon class="cls-1" points="1015.43 335 1007.89 337.53 1006.31 329.73 1004.74 337.53 997.2 335 1003.16 340.26 997.2 345.53 1004.74 343 1006.31 350.79 1007.89 343 1015.43 345.53 1009.47 340.26 1015.43 335"/><polygon class="cls-1" points="920.3 463.46 912.76 465.99 911.19 458.2 909.61 465.99 902.07 463.46 908.03 468.73 902.07 473.99 909.61 471.46 911.19 479.26 912.76 471.46 920.3 473.99 914.34 468.73 920.3 463.46"/><polygon class="cls-1" points="787.5 314.24 779.96 316.77 778.38 308.98 776.8 316.77 769.27 314.24 775.23 319.5 769.27 324.77 776.8 322.24 778.38 330.03 779.96 322.24 787.5 324.77 781.54 319.5 787.5 314.24"/><polygon class="cls-1" points="778.58 563.13 771.04 565.65 769.46 557.86 767.88 565.65 760.35 563.13 766.3 568.39 760.35 573.65 767.88 571.13 769.46 578.92 771.04 571.13 778.58 573.65 772.62 568.39 778.58 563.13"/><polygon class="cls-1" points="700.85 226.02 693.31 228.55 691.73 220.76 690.15 228.55 682.62 226.02 688.57 231.29 682.62 236.55 690.15 234.02 691.73 241.81 693.31 234.02 700.85 236.55 694.89 231.29 700.85 226.02"/><polygon class="cls-1" points="651.44 150.08 643.9 152.61 642.32 144.82 640.74 152.61 633.2 150.08 639.16 155.35 633.2 160.61 640.74 158.08 642.32 165.88 643.9 158.08 651.44 160.61 645.48 155.35 651.44 150.08"/><polygon class="cls-1" points="723.68 79.44 716.14 81.97 714.56 74.18 712.98 81.97 705.44 79.44 711.4 84.7 705.44 89.97 712.98 87.44 714.56 95.23 716.14 87.44 723.68 89.97 717.72 84.7 723.68 79.44"/><polygon class="cls-1" points="486.46 134.85 478.93 137.38 477.35 129.59 475.77 137.38 468.23 134.85 474.19 140.12 468.23 145.38 475.77 142.85 477.35 150.64 478.93 142.85 486.46 145.38 480.5 140.12 486.46 134.85"/><polygon class="cls-1" points="300.81 366.49 293.27 369.01 291.69 361.22 290.11 369.01 282.58 366.49 288.54 371.75 282.58 377.01 290.11 374.49 291.69 382.28 293.27 374.49 300.81 377.01 294.85 371.75 300.81 366.49"/><polygon class="cls-1" points="207.62 319.75 200.09 322.28 198.51 314.48 196.93 322.28 189.39 319.75 195.35 325.01 189.39 330.27 196.93 327.75 198.51 335.54 200.09 327.75 207.62 330.27 201.66 325.01 207.62 319.75"/><polygon class="cls-1" points="263.65 267.84 256.11 270.37 254.53 262.57 252.95 270.37 245.41 267.84 251.37 273.1 245.41 278.37 252.95 275.84 254.53 283.63 256.11 275.84 263.65 278.37 257.69 273.1 263.65 267.84"/><polygon class="cls-1" points="638.02 469.86 630.49 472.39 628.91 464.59 627.33 472.39 619.79 469.86 625.75 475.12 619.79 480.39 627.33 477.86 628.91 485.65 630.49 477.86 638.02 480.39 632.07 475.12 638.02 469.86"/><polygon class="cls-1" points="983.1 929.45 975.56 931.98 973.98 924.19 972.4 931.98 964.87 929.45 970.83 934.72 964.87 939.98 972.4 937.45 973.98 945.24 975.56 937.45 983.1 939.98 977.14 934.72 983.1 929.45"/><polygon class="cls-1" points="1016.41 852.23 1008.87 854.76 1007.29 846.97 1005.71 854.76 998.17 852.23 1004.13 857.5 998.17 862.76 1005.71 860.23 1007.29 868.02 1008.87 860.23 1016.41 862.76 1010.45 857.5 1016.41 852.23"/><polygon class="cls-1" points="1013.91 735.62 1006.37 738.14 1004.79 730.35 1003.21 738.14 995.67 735.62 1001.63 740.88 995.67 746.14 1003.21 743.62 1004.79 751.41 1006.37 743.62 1013.91 746.14 1007.95 740.88 1013.91 735.62"/><polygon class="cls-1" points="943.32 814.57 935.79 817.1 934.21 809.31 932.63 817.1 925.09 814.57 931.05 819.84 925.09 825.1 932.63 822.57 934.21 830.37 935.79 822.57 943.32 825.1 937.37 819.84 943.32 814.57"/><path class="cls-1" d="M506.78,603.81c0,3.37-3.56,4.85-3.56,4.85s3.56,1.48,3.56,4.85c0-3.37,3.57-4.85,3.57-4.85S506.78,607.18,506.78,603.81Z"/><path class="cls-1" d="M155.85,431c0,3.37-3.56,4.85-3.56,4.85s3.56,1.48,3.56,4.85c0-3.37,3.57-4.85,3.57-4.85S155.85,434.33,155.85,431Z"/><path class="cls-1" d="M109.44,461.05c0,3.37-3.57,4.85-3.57,4.85s3.57,1.48,3.57,4.85c0-3.37,3.56-4.85,3.56-4.85S109.44,464.42,109.44,461.05Z"/><path class="cls-1" d="M152.29,630.23c0,3.37-3.57,4.85-3.57,4.85s3.57,1.48,3.57,4.85c0-3.37,3.56-4.85,3.56-4.85S152.29,633.6,152.29,630.23Z"/><path class="cls-1" d="M159.42,712.24c0,3.37-3.57,4.85-3.57,4.85s3.57,1.48,3.57,4.85c0-3.37,3.56-4.85,3.56-4.85S159.42,715.61,159.42,712.24Z"/><path class="cls-1" d="M252.34,550.83c0,3.37-3.57,4.85-3.57,4.85s3.57,1.48,3.57,4.85c0-3.37,3.56-4.85,3.56-4.85S252.34,554.2,252.34,550.83Z"/><path class="cls-1" d="M275.79,574.27c0,3.37-3.56,4.85-3.56,4.85s3.56,1.48,3.56,4.85c0-3.37,3.57-4.85,3.57-4.85S275.79,577.64,275.79,574.27Z"/><path class="cls-1" d="M309.35,657.69c0,3.38-3.56,4.86-3.56,4.86s3.56,1.48,3.56,4.85c0-3.37,3.57-4.85,3.57-4.85S309.35,661.07,309.35,657.69Z"/><path class="cls-1" d="M285.49,863.53c0,3.37-3.57,4.85-3.57,4.85s3.57,1.48,3.57,4.85c0-3.37,3.56-4.85,3.56-4.85S285.49,866.9,285.49,863.53Z"/><path class="cls-1" d="M486.27,902.56c0,3.37-3.56,4.85-3.56,4.85s3.56,1.48,3.56,4.85c0-3.37,3.57-4.85,3.57-4.85S486.27,905.93,486.27,902.56Z"/><path class="cls-1" d="M734.67,920.15c0,3.37-3.57,4.85-3.57,4.85s3.57,1.48,3.57,4.85c0-3.37,3.56-4.85,3.56-4.85S734.67,923.52,734.67,920.15Z"/><path class="cls-1" d="M972.59,749.68c0,3.37-3.56,4.85-3.56,4.85s3.56,1.48,3.56,4.85c0-3.37,3.57-4.85,3.57-4.85S972.59,753.05,972.59,749.68Z"/><path class="cls-1" d="M1044,832.38c0,3.37-3.56,4.85-3.56,4.85s3.56,1.48,3.56,4.85c0-3.37,3.57-4.85,3.57-4.85S1044,835.75,1044,832.38Z"/><path class="cls-1" d="M1013.91,465.3c0,3.37-3.57,4.85-3.57,4.85s3.57,1.48,3.57,4.85c0-3.37,3.56-4.85,3.56-4.85S1013.91,468.67,1013.91,465.3Z"/><path class="cls-1" d="M869.86,375.94c0,3.37-3.57,4.85-3.57,4.85s3.57,1.48,3.57,4.85c0-3.37,3.56-4.85,3.56-4.85S869.86,379.31,869.86,375.94Z"/><path class="cls-1" d="M847.6,285.22c0,3.37-3.57,4.85-3.57,4.85s3.57,1.48,3.57,4.85c0-3.37,3.56-4.85,3.56-4.85S847.6,288.59,847.6,285.22Z"/><path class="cls-1" d="M773,371.86c0,3.37-3.57,4.85-3.57,4.85s3.57,1.48,3.57,4.85c0-3.37,3.56-4.85,3.56-4.85S773,375.23,773,371.86Z"/><path class="cls-1" d="M885.54,626.36c0,3.37-3.57,4.85-3.57,4.85s3.57,1.48,3.57,4.85c0-3.37,3.56-4.85,3.56-4.85S885.54,629.73,885.54,626.36Z"/><path class="cls-1" d="M815.84,649.37c0,3.37-3.56,4.85-3.56,4.85s3.56,1.48,3.56,4.85c0-3.37,3.57-4.85,3.57-4.85S815.84,652.74,815.84,649.37Z"/><path class="cls-1" d="M727.37,642.63c0,3.37-3.56,4.85-3.56,4.85s3.56,1.48,3.56,4.85c0-3.37,3.57-4.85,3.57-4.85S727.37,646,727.37,642.63Z"/><path class="cls-1" d="M783.15,452c0,3.37-3.56,4.85-3.56,4.85s3.56,1.48,3.56,4.85c0-3.37,3.57-4.85,3.57-4.85S783.15,455.35,783.15,452Z"/><path class="cls-1" d="M535.57,339.38c0,3.37-3.57,4.85-3.57,4.85s3.57,1.48,3.57,4.85c0-3.37,3.56-4.85,3.56-4.85S535.57,342.75,535.57,339.38Z"/><path class="cls-1" d="M522.86,387.41c0,3.38-3.57,4.86-3.57,4.86s3.57,1.48,3.57,4.85c0-3.37,3.56-4.85,3.56-4.85S522.86,390.79,522.86,387.41Z"/><path class="cls-1" d="M579.83,672.69c0,3.37-3.57,4.85-3.57,4.85s3.57,1.48,3.57,4.85c0-3.37,3.57-4.85,3.57-4.85S579.83,676.06,579.83,672.69Z"/><path class="cls-1" d="M622.81,651.16c0,3.37-3.57,4.85-3.57,4.85s3.57,1.48,3.57,4.85c0-3.37,3.56-4.85,3.56-4.85S622.81,654.53,622.81,651.16Z"/><path class="cls-1" d="M730.94,738.63c0,3.37-3.57,4.85-3.57,4.85s3.57,1.48,3.57,4.85c0-3.37,3.57-4.85,3.57-4.85S730.94,742,730.94,738.63Z"/><path class="cls-1" d="M740.72,714c0,3.37-3.56,4.85-3.56,4.85s3.56,1.48,3.56,4.85c0-3.37,3.57-4.85,3.57-4.85S740.72,717.41,740.72,714Z"/><path class="cls-1" d="M654.4,771.68c0,3.37-3.56,4.85-3.56,4.85s3.56,1.48,3.56,4.85c0-3.37,3.57-4.85,3.57-4.85S654.4,775.05,654.4,771.68Z"/><path class="cls-1" d="M490,680.28c0,3.37-3.56,4.85-3.56,4.85S490,686.61,490,690c0-3.37,3.57-4.85,3.57-4.85S490,683.65,490,680.28Z"/><path class="cls-1" d="M436.34,670.58c0,3.37-3.56,4.85-3.56,4.85s3.56,1.48,3.56,4.85c0-3.37,3.57-4.85,3.57-4.85S436.34,674,436.34,670.58Z"/><path class="cls-1" d="M400.1,646.31c0,3.37-3.56,4.85-3.56,4.85s3.56,1.48,3.56,4.85c0-3.37,3.57-4.85,3.57-4.85S400.1,649.68,400.1,646.31Z"/><path class="cls-1" d="M261.57,696.89c0,3.37-3.56,4.85-3.56,4.85s3.56,1.48,3.56,4.85c0-3.37,3.57-4.85,3.57-4.85S261.57,700.26,261.57,696.89Z"/><path class="cls-1" d="M309.35,777c0,3.37-3.56,4.85-3.56,4.85s3.56,1.48,3.56,4.85c0-3.37,3.57-4.85,3.57-4.85S309.35,780.4,309.35,777Z"/><path class="cls-1" d="M168.44,858.4c0,3.37-3.57,4.85-3.57,4.85s3.57,1.48,3.57,4.85c0-3.37,3.57-4.85,3.57-4.85S168.44,861.77,168.44,858.4Z"/><path class="cls-1" d="M273.74,970c0,3.37-3.56,4.85-3.56,4.85s3.56,1.48,3.56,4.85c0-3.37,3.57-4.85,3.57-4.85S273.74,973.38,273.74,970Z"/><path class="cls-1" d="M383.41,1078.75c0,3.37-3.57,4.85-3.57,4.85s3.57,1.48,3.57,4.85c0-3.37,3.57-4.85,3.57-4.85S383.41,1082.12,383.41,1078.75Z"/><path class="cls-1" d="M491.86,1073.72c0,3.37-3.57,4.85-3.57,4.85s3.57,1.48,3.57,4.85c0-3.37,3.57-4.85,3.57-4.85S491.86,1077.09,491.86,1073.72Z"/><path class="cls-1" d="M569.45,1064.5c0,3.37-3.57,4.85-3.57,4.85s3.57,1.48,3.57,4.85c0-3.37,3.56-4.85,3.56-4.85S569.45,1067.87,569.45,1064.5Z"/><path class="cls-1" d="M795.61,1047.57c0,3.37-3.56,4.85-3.56,4.85s3.56,1.48,3.56,4.85c0-3.37,3.57-4.85,3.57-4.85S795.61,1050.94,795.61,1047.57Z"/><path class="cls-1" d="M898.6,965c0,3.37-3.57,4.85-3.57,4.85s3.57,1.48,3.57,4.85c0-3.37,3.56-4.85,3.56-4.85S898.6,968.37,898.6,965Z"/><path class="cls-1" d="M922.25,936.17c0,3.37-3.57,4.85-3.57,4.85s3.57,1.48,3.57,4.85c0-3.37,3.56-4.85,3.56-4.85S922.25,939.54,922.25,936.17Z"/><path class="cls-1" d="M881.72,891c0,3.37-3.56,4.85-3.56,4.85s3.56,1.48,3.56,4.85c0-3.37,3.57-4.85,3.57-4.85S881.72,894.37,881.72,891Z"/><path class="cls-1" d="M338.64,949.85c0,3.37-3.56,4.85-3.56,4.85s3.56,1.48,3.56,4.85c0-3.37,3.57-4.85,3.57-4.85S338.64,953.22,338.64,949.85Z"/><path class="cls-1" d="M444.05,117.53c0,3.37-3.57,4.85-3.57,4.85s3.57,1.48,3.57,4.85c0-3.37,3.56-4.85,3.56-4.85S444.05,120.9,444.05,117.53Z"/><path class="cls-1" d="M731.05,176.13c0,3.37-3.57,4.85-3.57,4.85s3.57,1.48,3.57,4.85c0-3.37,3.56-4.85,3.56-4.85S731.05,179.5,731.05,176.13Z"/><path class="cls-1" d="M360.56,279.71c0,3.37-3.56,4.85-3.56,4.85s3.56,1.48,3.56,4.85c0-3.37,3.57-4.85,3.57-4.85S360.56,283.08,360.56,279.71Z"/><path class="cls-1" d="M297.39,314.65c0,3.37-3.57,4.85-3.57,4.85s3.57,1.48,3.57,4.85c0-3.37,3.56-4.85,3.56-4.85S297.39,318,297.39,314.65Z"/><path class="cls-1" d="M313.09,356.37c0,3.37-3.57,4.85-3.57,4.85s3.57,1.48,3.57,4.85c0-3.37,3.56-4.85,3.56-4.85S313.09,359.74,313.09,356.37Z"/><path class="cls-1" d="M360.19,426.66c0,3.37-3.56,4.85-3.56,4.85s3.56,1.48,3.56,4.85c0-3.37,3.57-4.85,3.57-4.85S360.19,430,360.19,426.66Z"/><path class="cls-1" d="M495.75,363.36c0,3.37-3.57,4.85-3.57,4.85s3.57,1.48,3.57,4.85c0-3.37,3.56-4.85,3.56-4.85S495.75,366.73,495.75,363.36Z"/><path class="cls-1" d="M248.77,902.56c0,3.37-3.56,4.85-3.56,4.85s3.56,1.48,3.56,4.85c0-3.37,3.57-4.85,3.57-4.85S248.77,905.93,248.77,902.56Z"/><line class="cls-2" x1="1165.57" y1="566.69" x2="1190.16" y2="565.27"/><line class="cls-2" x1="1163.19" y1="538.06" x2="1187.68" y2="535.4"/><line class="cls-2" x1="1158.28" y1="503.57" x2="1182.56" y2="499.41"/><line class="cls-2" x1="1152.71" y1="475.4" x2="1176.74" y2="470.01"/><line class="cls-2" x1="1144.03" y1="441.66" x2="1167.69" y2="434.79"/><line class="cls-2" x1="1135.33" y1="414.3" x2="1158.6" y2="406.23"/><line class="cls-2" x1="1122.99" y1="381.72" x2="1145.72" y2="372.22"/><line class="cls-2" x1="1111.27" y1="355.5" x2="1133.49" y2="344.86"/><line class="cls-2" x1="1095.18" y1="324.6" x2="1116.7" y2="312.61"/><line class="cls-2" x1="1080.55" y1="299.89" x2="1101.43" y2="286.82"/><line class="cls-2" x1="1061.14" y1="270.95" x2="1081.18" y2="256.63"/><line class="cls-2" x1="1043.86" y1="248.01" x2="1063.15" y2="232.69"/><line class="cls-2" x1="1021.43" y1="221.34" x2="1039.75" y2="204.87"/><line class="cls-2" x1="1001.72" y1="200.45" x2="1019.18" y2="183.07"/><line class="cls-2" x1="976.34" y1="176.56" x2="992.72" y2="158.15"/><line class="cls-2" x1="954.39" y1="158.03" x2="969.82" y2="138.82"/><line class="cls-2" x1="926.55" y1="137.09" x2="940.77" y2="116.97"/><line class="cls-2" x1="902.69" y1="121.1" x2="915.87" y2="100.29"/><line class="cls-2" x1="872.74" y1="103.3" x2="884.62" y2="81.71"/><line class="cls-2" x1="847.25" y1="90.07" x2="858.01" y2="67.91"/><line class="cls-2" x1="815.43" y1="75.89" x2="824.8" y2="53.1"/><line class="cls-2" x1="788.6" y1="65.65" x2="796.8" y2="42.42"/><line class="cls-2" x1="755.39" y1="55.13" x2="762.13" y2="31.44"/><line class="cls-2" x1="727.58" y1="47.98" x2="733.11" y2="23.98"/><line class="cls-2" x1="693.42" y1="41.18" x2="697.45" y2="16.88"/><line class="cls-2" x1="664.97" y1="37.2" x2="667.77" y2="12.73"/><line class="cls-2" x1="630.26" y1="34.2" x2="631.55" y2="9.6"/><line class="cls-2" x1="599.96" y1="33.42" x2="600.03" y2="8.78"/><line class="cls-2" x1="566.69" y1="34.43" x2="565.26" y2="9.84"/><line class="cls-2" x1="538.06" y1="36.81" x2="535.4" y2="12.32"/><line class="cls-2" x1="503.57" y1="41.72" x2="499.41" y2="17.44"/><line class="cls-2" x1="475.4" y1="47.29" x2="470.01" y2="23.26"/><line class="cls-2" x1="441.66" y1="55.97" x2="434.79" y2="32.31"/><line class="cls-2" x1="414.3" y1="64.67" x2="406.23" y2="41.4"/><line class="cls-2" x1="381.72" y1="77.01" x2="372.22" y2="54.28"/><line class="cls-2" x1="355.5" y1="88.73" x2="344.86" y2="66.51"/><line class="cls-2" x1="324.6" y1="104.82" x2="312.61" y2="83.3"/><line class="cls-2" x1="299.89" y1="119.45" x2="286.82" y2="98.57"/><line class="cls-2" x1="270.95" y1="138.86" x2="256.63" y2="118.82"/><line class="cls-2" x1="248.01" y1="156.14" x2="232.69" y2="136.85"/><line class="cls-2" x1="221.34" y1="178.57" x2="204.87" y2="160.25"/><line class="cls-2" x1="200.45" y1="198.28" x2="183.07" y2="180.82"/><line class="cls-2" x1="176.56" y1="223.66" x2="158.15" y2="207.28"/><line class="cls-2" x1="158.03" y1="245.61" x2="138.82" y2="230.18"/><line class="cls-2" x1="137.09" y1="273.45" x2="116.97" y2="259.23"/><line class="cls-2" x1="121.1" y1="297.31" x2="100.29" y2="284.13"/><line class="cls-2" x1="103.3" y1="327.26" x2="81.71" y2="315.38"/><line class="cls-2" x1="90.07" y1="352.75" x2="67.91" y2="341.99"/><line class="cls-2" x1="75.89" y1="384.57" x2="53.1" y2="375.2"/><line class="cls-2" x1="65.65" y1="411.4" x2="42.42" y2="403.2"/><line class="cls-2" x1="55.13" y1="444.61" x2="31.44" y2="437.87"/><line class="cls-2" x1="47.98" y1="472.42" x2="23.98" y2="466.89"/><line class="cls-2" x1="41.18" y1="506.58" x2="16.88" y2="502.55"/><line class="cls-2" x1="37.2" y1="535.03" x2="12.73" y2="532.23"/><line class="cls-2" x1="34.2" y1="569.74" x2="9.6" y2="568.45"/><line class="cls-2" x1="33.42" y1="599.99" x2="8.78" y2="599.92"/><line class="cls-2" x1="34.43" y1="633.31" x2="9.84" y2="634.74"/><line class="cls-2" x1="36.81" y1="661.94" x2="12.32" y2="664.6"/><line class="cls-2" x1="41.72" y1="696.43" x2="17.44" y2="700.59"/><line class="cls-2" x1="47.29" y1="724.6" x2="23.26" y2="729.99"/><line class="cls-2" x1="55.97" y1="758.34" x2="32.31" y2="765.21"/><line class="cls-2" x1="64.67" y1="785.7" x2="41.4" y2="793.77"/><line class="cls-2" x1="77.01" y1="818.28" x2="54.28" y2="827.78"/><line class="cls-2" x1="88.73" y1="844.5" x2="66.51" y2="855.14"/><line class="cls-2" x1="104.82" y1="875.4" x2="83.3" y2="887.39"/><line class="cls-2" x1="119.45" y1="900.11" x2="98.57" y2="913.18"/><line class="cls-2" x1="138.86" y1="929.05" x2="118.82" y2="943.37"/><line class="cls-2" x1="156.14" y1="951.99" x2="136.85" y2="967.31"/><line class="cls-2" x1="178.57" y1="978.66" x2="160.25" y2="995.13"/><line class="cls-2" x1="198.28" y1="999.55" x2="180.82" y2="1016.93"/><line class="cls-2" x1="223.66" y1="1023.44" x2="207.28" y2="1041.85"/><line class="cls-2" x1="245.61" y1="1041.97" x2="230.18" y2="1061.18"/><line class="cls-2" x1="273.45" y1="1062.91" x2="259.23" y2="1083.03"/><line class="cls-2" x1="297.31" y1="1078.9" x2="284.13" y2="1099.71"/><line class="cls-2" x1="327.26" y1="1096.7" x2="315.38" y2="1118.29"/><line class="cls-2" x1="352.75" y1="1109.93" x2="341.99" y2="1132.09"/><line class="cls-2" x1="384.57" y1="1124.11" x2="375.2" y2="1146.9"/><line class="cls-2" x1="411.4" y1="1134.34" x2="403.2" y2="1157.58"/><line class="cls-2" x1="444.61" y1="1144.87" x2="437.87" y2="1168.56"/><line class="cls-2" x1="472.42" y1="1152.02" x2="466.89" y2="1176.03"/><line class="cls-2" x1="506.58" y1="1158.82" x2="502.55" y2="1183.12"/><line class="cls-2" x1="535.03" y1="1162.8" x2="532.23" y2="1187.27"/><line class="cls-2" x1="569.74" y1="1165.8" x2="568.45" y2="1190.4"/><line class="cls-2" x1="599.74" y1="1166.58" x2="599.68" y2="1191.22"/><line class="cls-2" x1="633.31" y1="1165.57" x2="634.73" y2="1190.16"/><line class="cls-2" x1="661.94" y1="1163.19" x2="664.6" y2="1187.68"/><line class="cls-2" x1="696.43" y1="1158.28" x2="700.59" y2="1182.56"/><line class="cls-2" x1="724.6" y1="1152.71" x2="729.99" y2="1176.74"/><line class="cls-2" x1="758.34" y1="1144.03" x2="765.21" y2="1167.69"/><line class="cls-2" x1="785.7" y1="1135.33" x2="793.77" y2="1158.6"/><line class="cls-2" x1="818.28" y1="1122.99" x2="827.78" y2="1145.72"/><line class="cls-2" x1="844.5" y1="1111.27" x2="855.14" y2="1133.49"/><line class="cls-2" x1="875.4" y1="1095.18" x2="887.39" y2="1116.7"/><line class="cls-2" x1="900.11" y1="1080.55" x2="913.18" y2="1101.43"/><line class="cls-2" x1="929.05" y1="1061.14" x2="943.37" y2="1081.18"/><line class="cls-2" x1="951.99" y1="1043.86" x2="967.31" y2="1063.15"/><line class="cls-2" x1="978.66" y1="1021.43" x2="995.13" y2="1039.75"/><line class="cls-2" x1="999.55" y1="1001.72" x2="1016.93" y2="1019.18"/><line class="cls-2" x1="1023.44" y1="976.34" x2="1041.85" y2="992.72"/><line class="cls-2" x1="1041.97" y1="954.39" x2="1061.18" y2="969.82"/><line class="cls-2" x1="1062.91" y1="926.55" x2="1083.03" y2="940.77"/><line class="cls-2" x1="1078.9" y1="902.69" x2="1099.71" y2="915.87"/><line class="cls-2" x1="1096.7" y1="872.74" x2="1118.29" y2="884.62"/><line class="cls-2" x1="1109.93" y1="847.25" x2="1132.09" y2="858.01"/><line class="cls-2" x1="1124.11" y1="815.43" x2="1146.9" y2="824.8"/><line class="cls-2" x1="1134.34" y1="788.6" x2="1157.58" y2="796.8"/><line class="cls-2" x1="1144.87" y1="755.39" x2="1168.56" y2="762.14"/><line class="cls-2" x1="1152.02" y1="727.58" x2="1176.02" y2="733.11"/><line class="cls-2" x1="1158.82" y1="693.42" x2="1183.12" y2="697.45"/><line class="cls-2" x1="1162.8" y1="664.97" x2="1187.27" y2="667.77"/><line class="cls-2" x1="1165.8" y1="630.26" x2="1190.4" y2="631.55"/><line class="cls-2" x1="1166.58" y1="599.96" x2="1191.22" y2="600.02"/><line class="cls-2" x1="1149.66" y1="597.06" x2="1166.69" y2="596.97"/><line class="cls-2" x1="1149.72" y1="591.9" x2="1166.74" y2="591.66"/><line class="cls-2" x1="1149.42" y1="587.55" x2="1166.44" y2="587.17"/><line class="cls-2" x1="1149.48" y1="582.39" x2="1166.5" y2="581.85"/><line class="cls-2" x1="1149.18" y1="578.03" x2="1166.19" y2="577.36"/><line class="cls-2" x1="1149.24" y1="572.87" x2="1166.25" y2="572.04"/><line class="cls-2" x1="1148.78" y1="568.52" x2="1165.77" y2="567.56"/><line class="cls-2" x1="1148.57" y1="563.37" x2="1165.56" y2="562.25"/><line class="cls-2" x1="1148.05" y1="559.03" x2="1165.03" y2="557.78"/><line class="cls-2" x1="1147.85" y1="553.88" x2="1164.82" y2="552.47"/><line class="cls-2" x1="1147.33" y1="549.54" x2="1164.29" y2="548"/><line class="cls-2" x1="1147.13" y1="544.38" x2="1164.07" y2="542.68"/><line class="cls-2" x1="1146.42" y1="540.07" x2="1163.35" y2="538.24"/><line class="cls-2" x1="1145.96" y1="534.94" x2="1162.87" y2="532.94"/><line class="cls-2" x1="1145.22" y1="530.63" x2="1162.11" y2="528.5"/><line class="cls-2" x1="1144.76" y1="525.49" x2="1161.63" y2="523.21"/><line class="cls-2" x1="1144.02" y1="521.19" x2="1160.87" y2="518.77"/><line class="cls-2" x1="1143.55" y1="516.05" x2="1160.38" y2="513.47"/><line class="cls-2" x1="1142.59" y1="511.79" x2="1159.4" y2="509.08"/><line class="cls-2" x1="1141.88" y1="506.68" x2="1158.66" y2="503.81"/><line class="cls-2" x1="1140.92" y1="502.42" x2="1157.68" y2="499.42"/><line class="cls-2" x1="1140.2" y1="497.31" x2="1156.93" y2="494.15"/><line class="cls-2" x1="1139.25" y1="493.05" x2="1155.95" y2="489.76"/><line class="cls-2" x1="1138.47" y1="487.95" x2="1155.14" y2="484.5"/><line class="cls-2" x1="1137.3" y1="483.74" x2="1153.94" y2="480.16"/><line class="cls-2" x1="1136.33" y1="478.68" x2="1152.93" y2="474.94"/><line class="cls-2" x1="1135.16" y1="474.47" x2="1151.74" y2="470.6"/><line class="cls-2" x1="1134.19" y1="469.4" x2="1150.73" y2="465.37"/><line class="cls-2" x1="1133.02" y1="465.2" x2="1149.53" y2="461.04"/><line class="cls-2" x1="1131.92" y1="460.16" x2="1148.39" y2="455.84"/><line class="cls-2" x1="1130.55" y1="456.01" x2="1146.98" y2="451.56"/><line class="cls-2" x1="1129.32" y1="451" x2="1145.71" y2="446.4"/><line class="cls-2" x1="1127.95" y1="446.86" x2="1144.3" y2="442.12"/><line class="cls-2" x1="1126.72" y1="441.85" x2="1143.03" y2="436.96"/><line class="cls-2" x1="1125.35" y1="437.71" x2="1141.62" y2="432.69"/><line class="cls-2" x1="1123.94" y1="432.75" x2="1140.16" y2="427.57"/><line class="cls-2" x1="1122.36" y1="428.68" x2="1138.53" y2="423.37"/><line class="cls-2" x1="1120.88" y1="423.73" x2="1137.01" y2="418.28"/><line class="cls-2" x1="1119.31" y1="419.66" x2="1135.39" y2="414.08"/><line class="cls-2" x1="1117.83" y1="414.72" x2="1133.86" y2="408.98"/><line class="cls-2" x1="1116.24" y1="410.66" x2="1132.22" y2="404.79"/><line class="cls-2" x1="1114.53" y1="405.79" x2="1130.45" y2="399.78"/><line class="cls-2" x1="1112.75" y1="401.8" x2="1128.63" y2="395.66"/><line class="cls-2" x1="1111.03" y1="396.94" x2="1126.85" y2="390.65"/><line class="cls-2" x1="1109.26" y1="392.95" x2="1125.03" y2="386.53"/><line class="cls-2" x1="1107.54" y1="388.08" x2="1123.25" y2="381.52"/><line class="cls-2" x1="1105.68" y1="384.14" x2="1121.33" y2="377.45"/><line class="cls-2" x1="1103.72" y1="379.37" x2="1119.32" y2="372.53"/><line class="cls-2" x1="1101.75" y1="375.47" x2="1117.29" y2="368.51"/><line class="cls-2" x1="1099.8" y1="370.69" x2="1115.27" y2="363.58"/><line class="cls-2" x1="1097.83" y1="366.8" x2="1113.25" y2="359.57"/><line class="cls-2" x1="1095.88" y1="362.02" x2="1111.23" y2="354.64"/><line class="cls-2" x1="1093.74" y1="358.21" x2="1109.03" y2="350.71"/><line class="cls-2" x1="1091.56" y1="353.54" x2="1106.78" y2="345.9"/><line class="cls-2" x1="1089.4" y1="349.74" x2="1104.56" y2="341.98"/><line class="cls-2" x1="1087.22" y1="345.07" x2="1102.3" y2="337.16"/><line class="cls-2" x1="1085.07" y1="341.27" x2="1100.08" y2="333.25"/><line class="cls-2" x1="1082.82" y1="336.63" x2="1097.76" y2="328.46"/><line class="cls-2" x1="1080.48" y1="332.94" x2="1095.35" y2="324.65"/><line class="cls-2" x1="1078.08" y1="328.37" x2="1092.87" y2="319.95"/><line class="cls-2" x1="1075.74" y1="324.69" x2="1090.46" y2="316.15"/><line class="cls-2" x1="1073.33" y1="320.12" x2="1087.98" y2="311.44"/><line class="cls-2" x1="1070.99" y1="316.44" x2="1085.57" y2="307.64"/><line class="cls-2" x1="1068.44" y1="311.96" x2="1082.94" y2="303.02"/><line class="cls-2" x1="1065.93" y1="308.39" x2="1080.35" y2="299.34"/><line class="cls-2" x1="1063.31" y1="303.94" x2="1077.64" y2="294.76"/><line class="cls-2" x1="1060.79" y1="300.37" x2="1075.06" y2="291.08"/><line class="cls-2" x1="1058.17" y1="295.93" x2="1072.35" y2="286.5"/><line class="cls-2" x1="1055.64" y1="292.37" x2="1069.74" y2="282.83"/><line class="cls-2" x1="1052.81" y1="288.06" x2="1066.82" y2="278.39"/><line class="cls-2" x1="1050.13" y1="284.62" x2="1064.06" y2="274.83"/><line class="cls-2" x1="1047.29" y1="280.3" x2="1061.14" y2="270.39"/><line class="cls-2" x1="1044.61" y1="276.86" x2="1058.37" y2="266.84"/><line class="cls-2" x1="1041.78" y1="272.54" x2="1055.45" y2="262.4"/><line class="cls-2" x1="1039" y1="269.17" x2="1052.59" y2="258.92"/><line class="cls-2" x1="1035.97" y1="265.01" x2="1049.46" y2="254.62"/><line class="cls-2" x1="1033.12" y1="261.69" x2="1046.53" y2="251.2"/><line class="cls-2" x1="1030.08" y1="257.52" x2="1043.4" y2="246.91"/><line class="cls-2" x1="1027.24" y1="254.21" x2="1040.47" y2="243.49"/><line class="cls-2" x1="1024.2" y1="250.04" x2="1037.32" y2="239.2"/><line class="cls-2" x1="1021.19" y1="246.87" x2="1034.23" y2="235.92"/><line class="cls-2" x1="1017.96" y1="242.85" x2="1030.9" y2="231.78"/><line class="cls-2" x1="1014.96" y1="239.67" x2="1027.81" y2="228.51"/><line class="cls-2" x1="1011.73" y1="235.65" x2="1024.47" y2="224.36"/><line class="cls-2" x1="1008.73" y1="232.48" x2="1021.39" y2="221.09"/><line class="cls-2" x1="1005.41" y1="228.53" x2="1017.96" y2="217.02"/><line class="cls-2" x1="1002.26" y1="225.5" x2="1014.72" y2="213.9"/><line class="cls-2" x1="998.84" y1="221.64" x2="1011.19" y2="209.92"/><line class="cls-2" x1="995.69" y1="218.61" x2="1007.95" y2="206.8"/><line class="cls-2" x1="992.27" y1="214.75" x2="1004.42" y2="202.82"/><line class="cls-2" x1="989.13" y1="211.73" x2="1001.18" y2="199.7"/><line class="cls-2" x1="985.55" y1="208.01" x2="997.49" y2="195.88"/><line class="cls-2" x1="982.26" y1="205.14" x2="994.1" y2="192.91"/><line class="cls-2" x1="978.66" y1="201.44" x2="990.38" y2="189.1"/><line class="cls-2" x1="975.37" y1="198.57" x2="987" y2="186.14"/><line class="cls-2" x1="971.77" y1="194.87" x2="983.28" y2="182.33"/><line class="cls-2" x1="968.43" y1="192.06" x2="979.85" y2="179.43"/><line class="cls-2" x1="964.66" y1="188.54" x2="975.96" y2="175.8"/><line class="cls-2" x1="961.24" y1="185.83" x2="972.43" y2="173"/><line class="cls-2" x1="957.46" y1="182.31" x2="968.54" y2="169.38"/><line class="cls-2" x1="954.04" y1="179.6" x2="965.02" y2="166.58"/><line class="cls-2" x1="950.27" y1="176.07" x2="961.12" y2="162.96"/><line class="cls-2" x1="946.74" y1="173.5" x2="957.48" y2="160.3"/><line class="cls-2" x1="942.8" y1="170.17" x2="953.42" y2="156.87"/><line class="cls-2" x1="939.25" y1="167.62" x2="949.77" y2="154.24"/><line class="cls-2" x1="935.32" y1="164.29" x2="945.71" y2="150.8"/><line class="cls-2" x1="931.77" y1="161.74" x2="942.06" y2="148.18"/><line class="cls-2" x1="927.79" y1="158.46" x2="937.95" y2="144.8"/><line class="cls-2" x1="924.12" y1="156.09" x2="934.17" y2="142.35"/><line class="cls-2" x1="920.03" y1="152.95" x2="929.95" y2="139.11"/><line class="cls-2" x1="916.36" y1="150.57" x2="926.18" y2="136.66"/><line class="cls-2" x1="912.27" y1="147.43" x2="921.95" y2="133.42"/><line class="cls-2" x1="908.61" y1="145.06" x2="918.18" y2="130.98"/><line class="cls-2" x1="904.42" y1="142.06" x2="913.85" y2="127.89"/><line class="cls-2" x1="900.64" y1="139.86" x2="909.96" y2="125.62"/><line class="cls-2" x1="896.4" y1="136.92" x2="905.59" y2="122.59"/><line class="cls-2" x1="892.63" y1="134.72" x2="901.7" y2="120.32"/><line class="cls-2" x1="888.39" y1="131.78" x2="897.33" y2="117.29"/><line class="cls-2" x1="884.6" y1="129.61" x2="893.43" y2="115.05"/><line class="cls-2" x1="880.23" y1="126.88" x2="888.92" y2="112.24"/><line class="cls-2" x1="876.35" y1="124.87" x2="884.93" y2="110.16"/><line class="cls-2" x1="871.98" y1="122.13" x2="880.41" y2="107.34"/><line class="cls-2" x1="868.1" y1="120.12" x2="876.42" y2="105.27"/><line class="cls-2" x1="863.73" y1="117.38" x2="871.9" y2="102.45"/><line class="cls-2" x1="859.8" y1="115.48" x2="867.86" y2="100.49"/><line class="cls-2" x1="855.3" y1="112.97" x2="863.21" y2="97.89"/><line class="cls-2" x1="851.33" y1="111.15" x2="859.12" y2="96.01"/><line class="cls-2" x1="846.82" y1="108.63" x2="854.48" y2="93.42"/><line class="cls-2" x1="842.86" y1="106.81" x2="850.39" y2="91.54"/><line class="cls-2" x1="838.35" y1="104.29" x2="845.74" y2="88.95"/><line class="cls-2" x1="834.29" y1="102.67" x2="841.56" y2="87.27"/><line class="cls-2" x1="829.68" y1="100.37" x2="836.8" y2="84.91"/><line class="cls-2" x1="825.62" y1="98.75" x2="832.62" y2="83.23"/><line class="cls-2" x1="821" y1="96.45" x2="827.85" y2="80.86"/><line class="cls-2" x1="816.95" y1="94.83" x2="823.68" y2="79.19"/><line class="cls-2" x1="812.3" y1="92.61" x2="818.87" y2="76.91"/><line class="cls-2" x1="808.16" y1="91.19" x2="814.62" y2="75.43"/><line class="cls-2" x1="803.44" y1="89.12" x2="809.74" y2="73.31"/><line class="cls-2" x1="799.31" y1="87.7" x2="805.49" y2="71.83"/><line class="cls-2" x1="794.58" y1="85.63" x2="800.61" y2="69.71"/><line class="cls-2" x1="790.46" y1="84.21" x2="796.36" y2="68.24"/><line class="cls-2" x1="785.67" y1="82.3" x2="791.42" y2="66.28"/><line class="cls-2" x1="781.47" y1="81.09" x2="787.09" y2="65.01"/><line class="cls-2" x1="776.65" y1="79.25" x2="782.12" y2="63.13"/><line class="cls-2" x1="772.46" y1="78.04" x2="777.8" y2="61.87"/><line class="cls-2" x1="767.64" y1="76.2" x2="772.82" y2="59.99"/><line class="cls-2" x1="763.45" y1="74.98" x2="768.5" y2="58.73"/><line class="cls-2" x1="758.54" y1="73.4" x2="763.45" y2="57.09"/><line class="cls-2" x1="754.29" y1="72.39" x2="759.07" y2="56.04"/><line class="cls-2" x1="749.39" y1="70.8" x2="754" y2="54.41"/><line class="cls-2" x1="745.14" y1="69.79" x2="749.63" y2="53.36"/><line class="cls-2" x1="740.23" y1="68.19" x2="744.56" y2="51.73"/><line class="cls-2" x1="735.97" y1="67.26" x2="740.17" y2="50.76"/><line class="cls-2" x1="730.99" y1="65.91" x2="735.04" y2="49.38"/><line class="cls-2" x1="726.7" y1="65.12" x2="730.61" y2="48.55"/><line class="cls-2" x1="721.72" y1="63.77" x2="725.47" y2="47.17"/><line class="cls-2" x1="717.43" y1="62.98" x2="721.05" y2="46.34"/><line class="cls-2" x1="712.44" y1="61.63" x2="715.91" y2="44.96"/><line class="cls-2" x1="708.13" y1="60.97" x2="711.46" y2="44.27"/><line class="cls-2" x1="703.09" y1="59.88" x2="706.26" y2="43.15"/><line class="cls-2" x1="698.76" y1="59.3" x2="701.8" y2="42.55"/><line class="cls-2" x1="693.72" y1="58.2" x2="696.6" y2="41.42"/><line class="cls-2" x1="689.39" y1="57.63" x2="692.14" y2="40.82"/><line class="cls-2" x1="684.35" y1="56.53" x2="686.94" y2="39.7"/><line class="cls-2" x1="680" y1="56.14" x2="682.45" y2="39.29"/><line class="cls-2" x1="674.91" y1="55.3" x2="677.21" y2="38.43"/><line class="cls-2" x1="670.56" y1="54.94" x2="672.72" y2="38.05"/><line class="cls-2" x1="665.47" y1="54.1" x2="667.47" y2="37.19"/><line class="cls-2" x1="661.12" y1="53.74" x2="662.99" y2="36.82"/><line class="cls-2" x1="656.02" y1="52.91" x2="657.74" y2="35.97"/><line class="cls-2" x1="651.65" y1="52.77" x2="653.23" y2="35.82"/><line class="cls-2" x1="646.53" y1="52.19" x2="647.95" y2="35.22"/><line class="cls-2" x1="642.16" y1="52.05" x2="643.45" y2="35.07"/><line class="cls-2" x1="637.03" y1="51.47" x2="638.17" y2="34.48"/><line class="cls-2" x1="632.67" y1="51.32" x2="633.67" y2="34.33"/><line class="cls-2" x1="627.54" y1="50.78" x2="628.38" y2="33.78"/><line class="cls-2" x1="623.17" y1="50.86" x2="623.88" y2="33.85"/><line class="cls-2" x1="618.02" y1="50.54" x2="618.57" y2="33.52"/><line class="cls-2" x1="613.65" y1="50.62" x2="614.07" y2="33.6"/><line class="cls-2" x1="608.5" y1="50.3" x2="608.76" y2="33.28"/><line class="cls-2" x1="604.14" y1="50.38" x2="604.26" y2="33.36"/><line class="cls-2" x1="600.04" y1="50.11" x2="600.01" y2="33.08"/><line class="cls-2" x1="594.62" y1="50.41" x2="594.46" y2="33.39"/><line class="cls-2" x1="589.46" y1="50.35" x2="589.14" y2="33.33"/><line class="cls-2" x1="585.11" y1="50.65" x2="584.65" y2="33.63"/><line class="cls-2" x1="579.95" y1="50.59" x2="579.34" y2="33.58"/><line class="cls-2" x1="575.59" y1="50.89" x2="574.85" y2="33.88"/><line class="cls-2" x1="570.43" y1="50.89" x2="569.53" y2="33.89"/><line class="cls-2" x1="566.09" y1="51.42" x2="565.06" y2="34.42"/><line class="cls-2" x1="560.94" y1="51.62" x2="559.74" y2="34.63"/><line class="cls-2" x1="556.6" y1="52.14" x2="555.27" y2="35.16"/><line class="cls-2" x1="551.44" y1="52.34" x2="549.96" y2="35.38"/><line class="cls-2" x1="547.11" y1="52.86" x2="545.49" y2="35.91"/><line class="cls-2" x1="541.96" y1="53.15" x2="540.18" y2="36.22"/><line class="cls-2" x1="537.65" y1="53.89" x2="535.74" y2="36.97"/><line class="cls-2" x1="532.52" y1="54.35" x2="530.45" y2="37.45"/><line class="cls-2" x1="528.21" y1="55.09" x2="526.01" y2="38.21"/><line class="cls-2" x1="523.07" y1="55.55" x2="520.71" y2="38.69"/><line class="cls-2" x1="518.77" y1="56.29" x2="516.28" y2="39.45"/><line class="cls-2" x1="513.65" y1="56.88" x2="511" y2="40.06"/><line class="cls-2" x1="509.39" y1="57.83" x2="506.6" y2="41.04"/><line class="cls-2" x1="504.28" y1="58.55" x2="501.33" y2="41.78"/><line class="cls-2" x1="500.02" y1="59.51" x2="496.94" y2="42.76"/><line class="cls-2" x1="494.91" y1="60.23" x2="491.67" y2="43.51"/><line class="cls-2" x1="490.65" y1="61.18" x2="487.28" y2="44.49"/><line class="cls-2" x1="485.57" y1="62.08" x2="482.05" y2="45.42"/><line class="cls-2" x1="481.36" y1="63.25" x2="477.71" y2="46.62"/><line class="cls-2" x1="476.3" y1="64.22" x2="472.48" y2="47.63"/><line class="cls-2" x1="472.09" y1="65.39" x2="468.15" y2="48.82"/><line class="cls-2" x1="467.02" y1="66.36" x2="462.92" y2="49.84"/><line class="cls-2" x1="462.82" y1="67.52" x2="458.59" y2="51.03"/><line class="cls-2" x1="457.81" y1="68.74" x2="453.42" y2="52.29"/><line class="cls-2" x1="453.66" y1="70.11" x2="449.14" y2="53.7"/><line class="cls-2" x1="448.65" y1="71.34" x2="443.98" y2="54.97"/><line class="cls-2" x1="444.51" y1="72.71" x2="439.7" y2="56.38"/><line class="cls-2" x1="439.5" y1="73.94" x2="434.54" y2="57.65"/><line class="cls-2" x1="435.37" y1="75.37" x2="430.28" y2="59.12"/><line class="cls-2" x1="430.43" y1="76.84" x2="425.19" y2="60.64"/><line class="cls-2" x1="426.36" y1="78.42" x2="420.99" y2="62.26"/><line class="cls-2" x1="421.42" y1="79.89" x2="415.89" y2="63.79"/><line class="cls-2" x1="417.35" y1="81.47" x2="411.69" y2="65.41"/><line class="cls-2" x1="412.4" y1="82.94" x2="406.59" y2="66.93"/><line class="cls-2" x1="408.38" y1="84.64" x2="402.45" y2="68.69"/><line class="cls-2" x1="403.52" y1="86.36" x2="397.43" y2="70.46"/><line class="cls-2" x1="399.53" y1="88.13" x2="393.32" y2="72.28"/><line class="cls-2" x1="394.66" y1="89.85" x2="388.3" y2="74.06"/><line class="cls-2" x1="390.68" y1="91.62" x2="384.19" y2="75.88"/><line class="cls-2" x1="385.81" y1="93.34" x2="379.18" y2="77.66"/><line class="cls-2" x1="381.91" y1="95.32" x2="375.15" y2="79.69"/><line class="cls-2" x1="377.14" y1="97.27" x2="370.23" y2="81.7"/><line class="cls-2" x1="373.24" y1="99.24" x2="366.21" y2="83.73"/><line class="cls-2" x1="368.46" y1="101.19" x2="361.29" y2="85.75"/><line class="cls-2" x1="364.57" y1="103.15" x2="357.27" y2="87.77"/><line class="cls-2" x1="359.83" y1="105.19" x2="352.39" y2="89.88"/><line class="cls-2" x1="356.03" y1="107.35" x2="348.47" y2="92.1"/><line class="cls-2" x1="351.36" y1="109.53" x2="343.65" y2="94.35"/><line class="cls-2" x1="347.56" y1="111.69" x2="339.73" y2="96.57"/><line class="cls-2" x1="342.89" y1="113.87" x2="334.91" y2="98.83"/><line class="cls-2" x1="339.09" y1="116.03" x2="331" y2="101.05"/><line class="cls-2" x1="334.5" y1="118.37" x2="326.27" y2="103.47"/><line class="cls-2" x1="330.81" y1="120.72" x2="322.47" y2="105.88"/><line class="cls-2" x1="326.25" y1="123.12" x2="317.76" y2="108.36"/><line class="cls-2" x1="322.57" y1="125.46" x2="313.96" y2="110.77"/><line class="cls-2" x1="318" y1="127.86" x2="309.25" y2="113.26"/><line class="cls-2" x1="314.33" y1="130.23" x2="305.47" y2="115.69"/><line class="cls-2" x1="309.89" y1="132.85" x2="300.9" y2="118.4"/><line class="cls-2" x1="306.32" y1="135.37" x2="297.21" y2="120.98"/><line class="cls-2" x1="301.88" y1="137.99" x2="292.64" y2="123.69"/><line class="cls-2" x1="298.31" y1="140.5" x2="288.95" y2="126.28"/><line class="cls-2" x1="293.86" y1="143.13" x2="284.37" y2="128.99"/><line class="cls-2" x1="290.37" y1="145.75" x2="280.77" y2="131.69"/><line class="cls-2" x1="286.06" y1="148.58" x2="276.33" y2="134.61"/><line class="cls-2" x1="282.62" y1="151.26" x2="272.77" y2="137.37"/><line class="cls-2" x1="278.3" y1="154.1" x2="268.33" y2="140.3"/><line class="cls-2" x1="274.86" y1="156.78" x2="264.78" y2="143.06"/><line class="cls-2" x1="270.56" y1="159.63" x2="260.35" y2="146"/><line class="cls-2" x1="267.24" y1="162.48" x2="256.93" y2="148.93"/><line class="cls-2" x1="263.07" y1="165.51" x2="252.63" y2="152.07"/><line class="cls-2" x1="259.76" y1="168.36" x2="249.21" y2="154.99"/><line class="cls-2" x1="255.59" y1="171.4" x2="244.92" y2="158.13"/><line class="cls-2" x1="252.28" y1="174.24" x2="241.5" y2="161.06"/><line class="cls-2" x1="248.18" y1="177.37" x2="237.28" y2="164.29"/><line class="cls-2" x1="245.01" y1="180.38" x2="234.01" y2="167.38"/><line class="cls-2" x1="240.99" y1="183.61" x2="229.86" y2="170.72"/><line class="cls-2" x1="237.81" y1="186.61" x2="226.59" y2="173.81"/><line class="cls-2" x1="233.79" y1="189.84" x2="222.45" y2="177.14"/><line class="cls-2" x1="230.62" y1="192.84" x2="219.18" y2="180.23"/><line class="cls-2" x1="226.75" y1="196.24" x2="215.19" y2="183.74"/><line class="cls-2" x1="223.72" y1="199.39" x2="212.06" y2="186.98"/><line class="cls-2" x1="219.86" y1="202.81" x2="208.08" y2="190.51"/><line class="cls-2" x1="216.83" y1="205.96" x2="204.96" y2="193.75"/><line class="cls-2" x1="212.97" y1="209.38" x2="200.98" y2="197.29"/><line class="cls-2" x1="210" y1="212.59" x2="197.93" y2="200.59"/><line class="cls-2" x1="206.31" y1="216.19" x2="194.12" y2="204.3"/><line class="cls-2" x1="203.44" y1="219.48" x2="191.16" y2="207.69"/><line class="cls-2" x1="199.74" y1="223.08" x2="187.35" y2="211.4"/><line class="cls-2" x1="196.87" y1="226.36" x2="184.39" y2="214.79"/><line class="cls-2" x1="193.17" y1="229.97" x2="180.58" y2="218.51"/><line class="cls-2" x1="190.44" y1="233.38" x2="177.76" y2="222.02"/><line class="cls-2" x1="186.92" y1="237.15" x2="174.14" y2="225.91"/><line class="cls-2" x1="184.21" y1="240.57" x2="171.34" y2="229.43"/><line class="cls-2" x1="180.69" y1="244.35" x2="167.71" y2="233.33"/><line class="cls-2" x1="177.98" y1="247.77" x2="164.92" y2="236.85"/><line class="cls-2" x1="174.52" y1="251.59" x2="161.35" y2="240.8"/><line class="cls-2" x1="171.97" y1="255.14" x2="158.72" y2="244.45"/><line class="cls-2" x1="168.64" y1="259.08" x2="155.29" y2="248.51"/><line class="cls-2" x1="166.09" y1="262.63" x2="152.66" y2="252.17"/><line class="cls-2" x1="162.76" y1="266.57" x2="149.23" y2="256.23"/><line class="cls-2" x1="160.21" y1="270.11" x2="146.6" y2="259.88"/><line class="cls-2" x1="157.02" y1="274.16" x2="143.32" y2="264.06"/><line class="cls-2" x1="154.65" y1="277.83" x2="140.86" y2="267.84"/><line class="cls-2" x1="151.51" y1="281.92" x2="137.63" y2="272.06"/><line class="cls-2" x1="149.13" y1="285.59" x2="135.18" y2="275.83"/><line class="cls-2" x1="145.99" y1="289.68" x2="131.94" y2="280.06"/><line class="cls-2" x1="143.65" y1="293.36" x2="129.53" y2="283.85"/><line class="cls-2" x1="140.71" y1="297.6" x2="126.5" y2="288.22"/><line class="cls-2" x1="138.52" y1="301.37" x2="124.23" y2="292.11"/><line class="cls-2" x1="135.57" y1="305.61" x2="121.2" y2="296.48"/><line class="cls-2" x1="133.38" y1="309.39" x2="118.94" y2="300.37"/><line class="cls-2" x1="130.43" y1="313.63" x2="115.91" y2="304.75"/><line class="cls-2" x1="128.36" y1="317.47" x2="113.77" y2="308.71"/><line class="cls-2" x1="125.63" y1="321.84" x2="110.95" y2="313.22"/><line class="cls-2" x1="123.62" y1="325.72" x2="108.87" y2="317.21"/><line class="cls-2" x1="120.88" y1="330.09" x2="106.06" y2="321.72"/><line class="cls-2" x1="118.88" y1="333.97" x2="103.98" y2="325.72"/><line class="cls-2" x1="116.16" y1="338.36" x2="101.19" y2="330.25"/><line class="cls-2" x1="114.34" y1="342.33" x2="99.31" y2="334.34"/><line class="cls-2" x1="111.82" y1="346.83" x2="96.71" y2="338.98"/><line class="cls-2" x1="110" y1="350.8" x2="94.83" y2="343.07"/><line class="cls-2" x1="107.48" y1="355.3" x2="92.24" y2="347.72"/><line class="cls-2" x1="105.66" y1="359.27" x2="90.36" y2="351.8"/><line class="cls-2" x1="103.25" y1="363.83" x2="87.88" y2="356.5"/><line class="cls-2" x1="101.63" y1="367.88" x2="86.2" y2="360.68"/><line class="cls-2" x1="99.33" y1="372.5" x2="83.83" y2="365.45"/><line class="cls-2" x1="97.71" y1="376.55" x2="82.15" y2="369.62"/><line class="cls-2" x1="95.41" y1="381.17" x2="79.79" y2="374.39"/><line class="cls-2" x1="93.78" y1="385.22" x2="78.11" y2="378.57"/><line class="cls-2" x1="91.68" y1="389.93" x2="75.95" y2="383.42"/><line class="cls-2" x1="90.25" y1="394.06" x2="74.47" y2="387.68"/><line class="cls-2" x1="88.19" y1="398.78" x2="72.34" y2="392.55"/><line class="cls-2" x1="86.76" y1="402.91" x2="70.87" y2="396.8"/><line class="cls-2" x1="84.69" y1="407.64" x2="68.75" y2="401.68"/><line class="cls-2" x1="83.31" y1="411.78" x2="67.31" y2="405.95"/><line class="cls-2" x1="81.48" y1="416.6" x2="65.43" y2="410.92"/><line class="cls-2" x1="80.26" y1="420.79" x2="64.17" y2="415.24"/><line class="cls-2" x1="78.43" y1="425.61" x2="62.28" y2="420.21"/><line class="cls-2" x1="77.21" y1="429.8" x2="61.02" y2="424.53"/><line class="cls-2" x1="75.38" y1="434.63" x2="59.14" y2="429.51"/><line class="cls-2" x1="74.27" y1="438.85" x2="58" y2="433.87"/><line class="cls-2" x1="72.68" y1="443.75" x2="56.36" y2="438.92"/><line class="cls-2" x1="71.68" y1="448" x2="55.31" y2="443.3"/><line class="cls-2" x1="70.09" y1="452.91" x2="53.68" y2="448.37"/><line class="cls-2" x1="69.08" y1="457.16" x2="52.63" y2="452.74"/><line class="cls-2" x1="67.48" y1="462.07" x2="51" y2="457.81"/><line class="cls-2" x1="66.66" y1="466.36" x2="50.14" y2="462.23"/><line class="cls-2" x1="65.32" y1="471.34" x2="48.76" y2="467.37"/><line class="cls-2" x1="64.52" y1="475.63" x2="47.94" y2="471.79"/><line class="cls-2" x1="63.18" y1="480.61" x2="46.56" y2="476.93"/><line class="cls-2" x1="62.38" y1="484.9" x2="45.73" y2="481.35"/><line class="cls-2" x1="61.07" y1="489.89" x2="44.39" y2="486.5"/><line class="cls-2" x1="60.49" y1="494.22" x2="43.78" y2="490.96"/><line class="cls-2" x1="59.4" y1="499.26" x2="42.66" y2="496.16"/><line class="cls-2" x1="58.82" y1="503.59" x2="42.06" y2="500.62"/><line class="cls-2" x1="57.72" y1="508.63" x2="40.93" y2="505.82"/><line class="cls-2" x1="57.15" y1="512.96" x2="40.33" y2="510.28"/><line class="cls-2" x1="56.14" y1="518.02" x2="39.3" y2="515.5"/><line class="cls-2" x1="55.78" y1="522.37" x2="38.92" y2="519.99"/><line class="cls-2" x1="54.94" y1="527.46" x2="38.06" y2="525.24"/><line class="cls-2" x1="54.58" y1="531.81" x2="37.68" y2="529.72"/><line class="cls-2" x1="53.74" y1="536.91" x2="36.82" y2="534.97"/><line class="cls-2" x1="53.38" y1="541.25" x2="36.45" y2="539.45"/><line class="cls-2" x1="52.67" y1="546.36" x2="35.72" y2="544.72"/><line class="cls-2" x1="52.53" y1="550.73" x2="35.57" y2="549.22"/><line class="cls-2" x1="51.95" y1="555.86" x2="34.98" y2="554.51"/><line class="cls-2" x1="51.81" y1="560.22" x2="34.82" y2="559"/><line class="cls-2" x1="51.22" y1="565.35" x2="34.23" y2="564.29"/><line class="cls-2" x1="51.08" y1="569.71" x2="34.08" y2="568.79"/><line class="cls-2" x1="50.66" y1="574.85" x2="33.65" y2="574.08"/><line class="cls-2" x1="50.74" y1="579.22" x2="33.73" y2="578.59"/><line class="cls-2" x1="50.42" y1="584.37" x2="33.4" y2="583.89"/><line class="cls-2" x1="50.5" y1="588.74" x2="33.48" y2="588.39"/><line class="cls-2" x1="50.18" y1="593.89" x2="33.15" y2="593.7"/><line class="cls-2" x1="50.26" y1="598.71" x2="33.23" y2="598.65"/><line class="cls-2" x1="50.11" y1="603.41" x2="33.08" y2="603.51"/><line class="cls-2" x1="50.41" y1="607.77" x2="33.39" y2="608"/><line class="cls-2" x1="50.35" y1="612.93" x2="33.33" y2="613.32"/><line class="cls-2" x1="50.65" y1="617.28" x2="33.63" y2="617.81"/><line class="cls-2" x1="50.59" y1="622.44" x2="33.58" y2="623.13"/><line class="cls-2" x1="50.89" y1="626.8" x2="33.88" y2="627.61"/><line class="cls-2" x1="51.01" y1="631.95" x2="34.02" y2="632.93"/><line class="cls-2" x1="51.54" y1="636.29" x2="34.55" y2="637.4"/><line class="cls-2" x1="51.74" y1="641.45" x2="34.76" y2="642.71"/><line class="cls-2" x1="52.26" y1="645.78" x2="35.29" y2="647.18"/><line class="cls-2" x1="52.46" y1="650.94" x2="35.5" y2="652.5"/><line class="cls-2" x1="52.98" y1="655.27" x2="36.04" y2="656.96"/><line class="cls-2" x1="53.39" y1="660.41" x2="36.46" y2="662.26"/><line class="cls-2" x1="54.13" y1="664.72" x2="37.22" y2="666.7"/><line class="cls-2" x1="54.59" y1="669.85" x2="37.7" y2="672"/><line class="cls-2" x1="55.33" y1="674.16" x2="38.46" y2="676.43"/><line class="cls-2" x1="55.79" y1="679.3" x2="38.94" y2="681.73"/><line class="cls-2" x1="56.53" y1="683.6" x2="39.69" y2="686.16"/><line class="cls-2" x1="57.24" y1="688.7" x2="40.43" y2="691.43"/><line class="cls-2" x1="58.19" y1="692.97" x2="41.41" y2="695.82"/><line class="cls-2" x1="58.91" y1="698.08" x2="42.16" y2="701.09"/><line class="cls-2" x1="59.87" y1="702.33" x2="43.13" y2="705.48"/><line class="cls-2" x1="60.58" y1="707.45" x2="43.88" y2="710.75"/><line class="cls-2" x1="61.58" y1="711.69" x2="44.9" y2="715.13"/><line class="cls-2" x1="62.55" y1="716.76" x2="45.91" y2="720.35"/><line class="cls-2" x1="63.72" y1="720.96" x2="47.11" y2="724.69"/><line class="cls-2" x1="64.69" y1="726.03" x2="48.12" y2="729.92"/><line class="cls-2" x1="65.86" y1="730.24" x2="49.32" y2="734.25"/><line class="cls-2" x1="66.83" y1="735.31" x2="50.33" y2="739.48"/><line class="cls-2" x1="68.1" y1="739.48" x2="51.63" y2="743.79"/><line class="cls-2" x1="69.33" y1="744.49" x2="52.9" y2="748.95"/><line class="cls-2" x1="70.7" y1="748.63" x2="54.31" y2="753.23"/><line class="cls-2" x1="71.93" y1="753.65" x2="55.58" y2="758.39"/><line class="cls-2" x1="73.3" y1="757.79" x2="56.99" y2="762.67"/><line class="cls-2" x1="74.53" y1="762.8" x2="58.26" y2="767.83"/><line class="cls-2" x1="76.07" y1="766.89" x2="59.84" y2="772.05"/><line class="cls-2" x1="77.54" y1="771.83" x2="61.37" y2="777.15"/><line class="cls-2" x1="79.12" y1="775.9" x2="62.99" y2="781.35"/><line class="cls-2" x1="80.59" y1="780.85" x2="64.51" y2="786.44"/><line class="cls-2" x1="82.17" y1="784.91" x2="66.13" y2="790.64"/><line class="cls-2" x1="83.68" y1="789.85" x2="67.7" y2="795.73"/><line class="cls-2" x1="85.45" y1="793.84" x2="69.52" y2="799.84"/><line class="cls-2" x1="87.17" y1="798.7" x2="71.29" y2="804.86"/><line class="cls-2" x1="88.95" y1="802.69" x2="73.12" y2="808.97"/><line class="cls-2" x1="90.66" y1="807.56" x2="74.9" y2="813.99"/><line class="cls-2" x1="92.43" y1="811.54" x2="76.72" y2="818.1"/><line class="cls-2" x1="94.26" y1="816.37" x2="78.61" y2="823.07"/><line class="cls-2" x1="96.24" y1="820.27" x2="80.64" y2="827.09"/><line class="cls-2" x1="98.19" y1="825.04" x2="82.65" y2="832.02"/><line class="cls-2" x1="100.16" y1="828.94" x2="84.68" y2="836.03"/><line class="cls-2" x1="102.11" y1="833.71" x2="86.7" y2="840.96"/><line class="cls-2" x1="104.07" y1="837.61" x2="88.72" y2="844.97"/><line class="cls-2" x1="106.22" y1="842.3" x2="90.94" y2="849.81"/><line class="cls-2" x1="108.38" y1="846.09" x2="93.16" y2="853.73"/><line class="cls-2" x1="110.56" y1="850.77" x2="95.41" y2="858.54"/><line class="cls-2" x1="112.71" y1="854.56" x2="97.63" y2="862.46"/><line class="cls-2" x1="114.89" y1="859.24" x2="99.89" y2="867.28"/><line class="cls-2" x1="117.1" y1="863.01" x2="102.15" y2="871.16"/><line class="cls-2" x1="119.5" y1="867.57" x2="104.63" y2="875.87"/><line class="cls-2" x1="121.84" y1="871.26" x2="107.04" y2="879.67"/><line class="cls-2" x1="124.25" y1="875.82" x2="109.52" y2="884.37"/><line class="cls-2" x1="126.58" y1="879.51" x2="111.93" y2="888.18"/><line class="cls-2" x1="128.99" y1="884.08" x2="114.42" y2="892.88"/><line class="cls-2" x1="131.45" y1="887.68" x2="116.95" y2="896.6"/><line class="cls-2" x1="134.07" y1="892.12" x2="119.66" y2="901.18"/><line class="cls-2" x1="136.59" y1="895.69" x2="122.25" y2="904.86"/><line class="cls-2" x1="139.21" y1="900.14" x2="124.95" y2="909.44"/><line class="cls-2" x1="141.72" y1="903.7" x2="127.54" y2="913.12"/><line class="cls-2" x1="144.38" y1="908.13" x2="130.28" y2="917.68"/><line class="cls-2" x1="147.07" y1="911.58" x2="133.05" y2="921.24"/><line class="cls-2" x1="149.9" y1="915.89" x2="135.97" y2="925.68"/><line class="cls-2" x1="152.58" y1="919.33" x2="138.73" y2="929.23"/><line class="cls-2" x1="155.41" y1="923.65" x2="141.66" y2="933.68"/><line class="cls-2" x1="158.09" y1="927.09" x2="144.42" y2="937.23"/><line class="cls-2" x1="161.04" y1="931.32" x2="147.46" y2="941.59"/><line class="cls-2" x1="163.89" y1="934.64" x2="150.39" y2="945.01"/><line class="cls-2" x1="166.92" y1="938.81" x2="153.52" y2="949.31"/><line class="cls-2" x1="169.77" y1="942.12" x2="156.45" y2="952.72"/><line class="cls-2" x1="172.81" y1="946.29" x2="159.59" y2="957.02"/><line class="cls-2" x1="175.65" y1="949.6" x2="162.51" y2="960.44"/><line class="cls-2" x1="178.87" y1="953.63" x2="165.84" y2="964.58"/><line class="cls-2" x1="181.87" y1="956.8" x2="168.93" y2="967.86"/><line class="cls-2" x1="185.11" y1="960.82" x2="172.26" y2="972"/><line class="cls-2" x1="188.1" y1="963.99" x2="175.35" y2="975.27"/><line class="cls-2" x1="191.34" y1="968.02" x2="178.69" y2="979.42"/><line class="cls-2" x1="194.41" y1="971.12" x2="181.85" y2="982.62"/><line class="cls-2" x1="197.82" y1="974.98" x2="185.37" y2="986.6"/><line class="cls-2" x1="200.97" y1="978.01" x2="188.62" y2="989.72"/><line class="cls-2" x1="204.39" y1="981.88" x2="192.15" y2="993.7"/><line class="cls-2" x1="207.54" y1="984.9" x2="195.39" y2="996.82"/><line class="cls-2" x1="210.96" y1="988.77" x2="198.92" y2="1000.8"/><line class="cls-2" x1="214.25" y1="991.65" x2="202.3" y2="1003.78"/><line class="cls-2" x1="217.85" y1="995.34" x2="206.01" y2="1007.58"/><line class="cls-2" x1="221.14" y1="998.21" x2="209.4" y2="1010.55"/><line class="cls-2" x1="224.74" y1="1001.91" x2="213.12" y2="1014.35"/><line class="cls-2" x1="228.02" y1="1004.78" x2="216.5" y2="1017.32"/><line class="cls-2" x1="231.69" y1="1008.41" x2="220.28" y2="1021.05"/><line class="cls-2" x1="235.12" y1="1011.13" x2="223.81" y2="1023.86"/><line class="cls-2" x1="238.89" y1="1014.65" x2="227.7" y2="1027.48"/><line class="cls-2" x1="242.31" y1="1017.36" x2="231.23" y2="1030.28"/><line class="cls-2" x1="246.08" y1="1020.88" x2="235.12" y2="1033.9"/><line class="cls-2" x1="249.5" y1="1023.59" x2="238.64" y2="1036.7"/><line class="cls-2" x1="253.4" y1="1026.96" x2="242.67" y2="1040.17"/><line class="cls-2" x1="256.96" y1="1029.51" x2="246.32" y2="1042.8"/><line class="cls-2" x1="260.89" y1="1032.84" x2="250.38" y2="1046.24"/><line class="cls-2" x1="264.44" y1="1035.39" x2="254.04" y2="1048.86"/><line class="cls-2" x1="268.38" y1="1038.72" x2="258.1" y2="1052.3"/><line class="cls-2" x1="271.95" y1="1041.23" x2="261.78" y2="1054.88"/><line class="cls-2" x1="276.04" y1="1044.37" x2="266" y2="1058.12"/><line class="cls-2" x1="279.71" y1="1046.74" x2="269.78" y2="1060.57"/><line class="cls-2" x1="283.8" y1="1049.88" x2="274" y2="1063.8"/><line class="cls-2" x1="287.46" y1="1052.26" x2="277.77" y2="1066.25"/><line class="cls-2" x1="291.56" y1="1055.4" x2="282" y2="1069.49"/><line class="cls-2" x1="295.3" y1="1057.64" x2="285.86" y2="1071.81"/><line class="cls-2" x1="299.54" y1="1060.58" x2="290.23" y2="1074.83"/><line class="cls-2" x1="303.32" y1="1062.78" x2="294.12" y2="1077.1"/><line class="cls-2" x1="307.56" y1="1065.72" x2="298.49" y2="1080.13"/><line class="cls-2" x1="311.33" y1="1067.91" x2="302.37" y2="1082.4"/><line class="cls-2" x1="315.59" y1="1070.82" x2="306.77" y2="1085.39"/><line class="cls-2" x1="319.47" y1="1072.83" x2="310.77" y2="1087.47"/><line class="cls-2" x1="323.84" y1="1075.57" x2="315.28" y2="1090.28"/><line class="cls-2" x1="327.72" y1="1077.58" x2="319.28" y2="1092.36"/><line class="cls-2" x1="332.1" y1="1080.31" x2="323.79" y2="1095.17"/><line class="cls-2" x1="335.97" y1="1082.32" x2="327.78" y2="1097.25"/><line class="cls-2" x1="340.42" y1="1084.94" x2="332.37" y2="1099.94"/><line class="cls-2" x1="344.39" y1="1086.75" x2="336.46" y2="1101.82"/><line class="cls-2" x1="348.89" y1="1089.27" x2="341.1" y2="1104.41"/><line class="cls-2" x1="352.86" y1="1091.09" x2="345.19" y2="1106.29"/><line class="cls-2" x1="357.36" y1="1093.61" x2="349.84" y2="1108.89"/><line class="cls-2" x1="361.33" y1="1095.43" x2="353.93" y2="1110.76"/><line class="cls-2" x1="365.93" y1="1097.74" x2="358.68" y2="1113.14"/><line class="cls-2" x1="369.99" y1="1099.36" x2="362.86" y2="1114.82"/><line class="cls-2" x1="374.61" y1="1101.66" x2="367.62" y2="1117.19"/><line class="cls-2" x1="378.66" y1="1103.28" x2="371.8" y2="1118.87"/><line class="cls-2" x1="383.28" y1="1105.58" x2="376.57" y2="1121.23"/><line class="cls-2" x1="387.36" y1="1107.14" x2="380.77" y2="1122.84"/><line class="cls-2" x1="392.08" y1="1109.21" x2="385.64" y2="1124.96"/><line class="cls-2" x1="396.21" y1="1110.63" x2="389.9" y2="1126.44"/><line class="cls-2" x1="400.94" y1="1112.7" x2="394.77" y2="1128.57"/><line class="cls-2" x1="405.06" y1="1114.12" x2="399.02" y2="1130.04"/><line class="cls-2" x1="409.79" y1="1116.19" x2="403.9" y2="1132.16"/><line class="cls-2" x1="413.97" y1="1117.46" x2="408.21" y2="1133.48"/><line class="cls-2" x1="418.79" y1="1119.29" x2="413.18" y2="1135.37"/><line class="cls-2" x1="422.98" y1="1120.51" x2="417.5" y2="1136.63"/><line class="cls-2" x1="427.8" y1="1122.34" x2="422.48" y2="1138.51"/><line class="cls-2" x1="431.99" y1="1123.56" x2="426.8" y2="1139.77"/><line class="cls-2" x1="436.83" y1="1125.38" x2="431.78" y2="1141.64"/><line class="cls-2" x1="441.08" y1="1126.38" x2="436.16" y2="1142.68"/><line class="cls-2" x1="445.98" y1="1127.98" x2="441.22" y2="1144.32"/><line class="cls-2" x1="450.23" y1="1128.98" x2="445.6" y2="1145.37"/><line class="cls-2" x1="455.14" y1="1130.58" x2="450.67" y2="1147"/><line class="cls-2" x1="459.38" y1="1131.58" x2="455.04" y2="1148.05"/><line class="cls-2" x1="464.32" y1="1133.09" x2="460.13" y2="1149.59"/><line class="cls-2" x1="468.61" y1="1133.88" x2="464.56" y2="1150.42"/><line class="cls-2" x1="473.59" y1="1135.23" x2="469.7" y2="1151.8"/><line class="cls-2" x1="477.89" y1="1136.02" x2="474.12" y2="1152.63"/><line class="cls-2" x1="482.87" y1="1137.37" x2="479.26" y2="1154.01"/><line class="cls-2" x1="487.16" y1="1138.16" x2="483.68" y2="1154.83"/><line class="cls-2" x1="492.17" y1="1139.36" x2="488.86" y2="1156.06"/><line class="cls-2" x1="496.5" y1="1139.94" x2="493.32" y2="1156.66"/><line class="cls-2" x1="501.54" y1="1141.03" x2="498.52" y2="1157.78"/><line class="cls-2" x1="505.87" y1="1141.61" x2="502.98" y2="1158.39"/><line class="cls-2" x1="510.92" y1="1142.7" x2="508.18" y2="1159.51"/><line class="cls-2" x1="515.24" y1="1143.28" x2="512.64" y2="1160.11"/><line class="cls-2" x1="520.32" y1="1144.17" x2="517.87" y2="1161.02"/><line class="cls-2" x1="524.67" y1="1144.53" x2="522.36" y2="1161.4"/><line class="cls-2" x1="529.76" y1="1145.37" x2="527.61" y2="1162.26"/><line class="cls-2" x1="534.11" y1="1145.73" x2="532.09" y2="1162.64"/><line class="cls-2" x1="539.21" y1="1146.57" x2="537.34" y2="1163.49"/><line class="cls-2" x1="543.55" y1="1146.93" x2="541.83" y2="1163.87"/><line class="cls-2" x1="548.67" y1="1147.52" x2="547.11" y2="1164.48"/><line class="cls-2" x1="553.04" y1="1147.66" x2="551.61" y2="1164.63"/><line class="cls-2" x1="558.17" y1="1148.24" x2="556.89" y2="1165.22"/><line class="cls-2" x1="562.53" y1="1148.38" x2="561.39" y2="1165.37"/><line class="cls-2" x1="567.66" y1="1148.97" x2="566.68" y2="1165.96"/><line class="cls-2" x1="572.02" y1="1149.09" x2="571.17" y2="1166.09"/><line class="cls-2" x1="577.17" y1="1149.41" x2="576.47" y2="1166.42"/><line class="cls-2" x1="581.54" y1="1149.33" x2="580.98" y2="1166.34"/><line class="cls-2" x1="586.69" y1="1149.65" x2="586.28" y2="1166.67"/><line class="cls-2" x1="591.05" y1="1149.57" x2="590.78" y2="1166.59"/><line class="cls-2" x1="596.21" y1="1149.89" x2="596.09" y2="1166.92"/><line class="cls-2" x1="600.57" y1="1149.78" x2="600.59" y2="1166.81"/><line class="cls-2" x1="605.73" y1="1149.84" x2="605.9" y2="1166.87"/><line class="cls-2" x1="610.08" y1="1149.54" x2="610.39" y2="1166.56"/><line class="cls-2" x1="615.24" y1="1149.6" x2="615.71" y2="1166.62"/><line class="cls-2" x1="619.6" y1="1149.3" x2="620.2" y2="1166.31"/><line class="cls-2" x1="624.76" y1="1149.36" x2="625.52" y2="1166.37"/><line class="cls-2" x1="629.11" y1="1149.02" x2="630" y2="1166.02"/><line class="cls-2" x1="634.27" y1="1148.82" x2="635.31" y2="1165.81"/><line class="cls-2" x1="638.6" y1="1148.29" x2="639.78" y2="1165.28"/><line class="cls-2" x1="643.76" y1="1148.09" x2="645.1" y2="1165.07"/><line class="cls-2" x1="648.09" y1="1147.57" x2="649.56" y2="1164.53"/><line class="cls-2" x1="653.25" y1="1147.37" x2="654.88" y2="1164.32"/><line class="cls-2" x1="657.58" y1="1146.78" x2="659.34" y2="1163.72"/><line class="cls-2" x1="662.71" y1="1146.32" x2="664.63" y2="1163.24"/><line class="cls-2" x1="667.02" y1="1145.58" x2="669.07" y2="1162.48"/><line class="cls-2" x1="672.16" y1="1145.12" x2="674.37" y2="1162"/><line class="cls-2" x1="676.46" y1="1144.38" x2="678.8" y2="1161.24"/><line class="cls-2" x1="681.6" y1="1143.92" x2="684.1" y2="1160.76"/><line class="cls-2" x1="685.88" y1="1143.07" x2="688.52" y2="1159.89"/><line class="cls-2" x1="690.99" y1="1142.35" x2="693.78" y2="1159.15"/><line class="cls-2" x1="695.25" y1="1141.4" x2="698.18" y2="1158.17"/><line class="cls-2" x1="700.36" y1="1140.68" x2="703.45" y2="1157.42"/><line class="cls-2" x1="704.61" y1="1139.73" x2="707.84" y2="1156.44"/><line class="cls-2" x1="709.73" y1="1139.01" x2="713.11" y2="1155.7"/><line class="cls-2" x1="713.95" y1="1137.9" x2="717.46" y2="1154.55"/><line class="cls-2" x1="719.01" y1="1136.92" x2="722.68" y2="1153.55"/><line class="cls-2" x1="723.22" y1="1135.75" x2="727.02" y2="1152.35"/><line class="cls-2" x1="728.29" y1="1134.78" x2="732.25" y2="1151.34"/><line class="cls-2" x1="732.49" y1="1133.62" x2="736.58" y2="1150.14"/><line class="cls-2" x1="737.56" y1="1132.64" x2="741.81" y2="1149.12"/><line class="cls-2" x1="741.71" y1="1131.26" x2="746.09" y2="1147.71"/><line class="cls-2" x1="746.72" y1="1130.03" x2="751.25" y2="1146.44"/><line class="cls-2" x1="750.86" y1="1128.66" x2="755.53" y2="1145.03"/><line class="cls-2" x1="755.87" y1="1127.43" x2="760.69" y2="1143.76"/><line class="cls-2" x1="760.01" y1="1126.06" x2="764.96" y2="1142.35"/><line class="cls-2" x1="765.01" y1="1124.76" x2="770.11" y2="1141"/><line class="cls-2" x1="769.08" y1="1123.18" x2="774.31" y2="1139.38"/><line class="cls-2" x1="774.02" y1="1121.71" x2="779.41" y2="1137.86"/><line class="cls-2" x1="778.09" y1="1120.13" x2="783.61" y2="1136.24"/><line class="cls-2" x1="783.04" y1="1118.66" x2="788.71" y2="1134.71"/><line class="cls-2" x1="787.11" y1="1117.08" x2="792.9" y2="1133.09"/><line class="cls-2" x1="792" y1="1115.46" x2="797.95" y2="1131.41"/><line class="cls-2" x1="795.99" y1="1113.68" x2="802.07" y2="1129.59"/><line class="cls-2" x1="800.86" y1="1111.97" x2="807.08" y2="1127.82"/><line class="cls-2" x1="804.84" y1="1110.19" x2="811.19" y2="1125.99"/><line class="cls-2" x1="809.71" y1="1108.48" x2="816.21" y2="1124.21"/><line class="cls-2" x1="813.7" y1="1106.7" x2="820.32" y2="1122.39"/><line class="cls-2" x1="818.47" y1="1104.77" x2="825.25" y2="1120.39"/><line class="cls-2" x1="822.37" y1="1102.79" x2="829.27" y2="1118.36"/><line class="cls-2" x1="827.15" y1="1100.84" x2="834.19" y2="1116.34"/><line class="cls-2" x1="831.04" y1="1098.87" x2="838.21" y2="1114.32"/><line class="cls-2" x1="835.82" y1="1096.92" x2="843.13" y2="1112.3"/><line class="cls-2" x1="839.68" y1="1094.89" x2="847.11" y2="1110.21"/><line class="cls-2" x1="844.35" y1="1092.71" x2="851.93" y2="1107.95"/><line class="cls-2" x1="848.15" y1="1090.55" x2="855.85" y2="1105.73"/><line class="cls-2" x1="852.83" y1="1088.37" x2="860.67" y2="1103.48"/><line class="cls-2" x1="856.62" y1="1086.21" x2="864.58" y2="1101.26"/><line class="cls-2" x1="861.3" y1="1084.03" x2="869.4" y2="1099.01"/><line class="cls-2" x1="865.01" y1="1081.73" x2="873.23" y2="1096.64"/><line class="cls-2" x1="869.57" y1="1079.32" x2="877.93" y2="1094.15"/><line class="cls-2" x1="873.26" y1="1076.98" x2="881.74" y2="1091.75"/><line class="cls-2" x1="877.82" y1="1074.58" x2="886.44" y2="1089.26"/><line class="cls-2" x1="881.51" y1="1072.24" x2="890.24" y2="1086.86"/><line class="cls-2" x1="886.05" y1="1069.79" x2="894.92" y2="1084.32"/><line class="cls-2" x1="889.62" y1="1067.27" x2="898.61" y2="1081.73"/><line class="cls-2" x1="894.06" y1="1064.65" x2="903.18" y2="1079.03"/><line class="cls-2" x1="897.63" y1="1062.14" x2="906.87" y2="1076.44"/><line class="cls-2" x1="902.08" y1="1059.51" x2="911.44" y2="1073.73"/><line class="cls-2" x1="905.65" y1="1057" x2="915.12" y2="1071.14"/><line class="cls-2" x1="910.01" y1="1054.25" x2="919.62" y2="1068.3"/><line class="cls-2" x1="913.45" y1="1051.57" x2="923.18" y2="1065.54"/><line class="cls-2" x1="917.77" y1="1048.73" x2="927.62" y2="1062.62"/><line class="cls-2" x1="921.21" y1="1046.05" x2="931.17" y2="1059.86"/><line class="cls-2" x1="925.53" y1="1043.22" x2="935.62" y2="1056.93"/><line class="cls-2" x1="928.96" y1="1040.53" x2="939.16" y2="1054.17"/><line class="cls-2" x1="933.13" y1="1037.5" x2="943.46" y2="1051.04"/><line class="cls-2" x1="936.45" y1="1034.65" x2="946.88" y2="1048.11"/><line class="cls-2" x1="940.62" y1="1031.62" x2="951.17" y2="1044.97"/><line class="cls-2" x1="943.93" y1="1028.77" x2="954.59" y2="1042.04"/><line class="cls-2" x1="948.1" y1="1025.73" x2="958.89" y2="1038.91"/><line class="cls-2" x1="951.35" y1="1022.81" x2="962.23" y2="1035.9"/><line class="cls-2" x1="955.36" y1="1019.58" x2="966.38" y2="1032.56"/><line class="cls-2" x1="958.54" y1="1016.58" x2="969.65" y2="1029.48"/><line class="cls-2" x1="962.56" y1="1013.35" x2="973.79" y2="1026.14"/><line class="cls-2" x1="965.73" y1="1010.35" x2="977.07" y2="1023.05"/><line class="cls-2" x1="969.76" y1="1007.11" x2="981.21" y2="1019.71"/><line class="cls-2" x1="972.79" y1="1003.96" x2="984.34" y2="1016.47"/><line class="cls-2" x1="976.65" y1="1000.54" x2="988.31" y2="1012.94"/><line class="cls-2" x1="979.67" y1="997.39" x2="991.44" y2="1009.7"/><line class="cls-2" x1="983.54" y1="993.97" x2="995.42" y2="1006.17"/><line class="cls-2" x1="986.56" y1="990.83" x2="998.54" y2="1002.93"/><line class="cls-2" x1="990.36" y1="987.33" x2="1002.44" y2="999.32"/><line class="cls-2" x1="993.23" y1="984.04" x2="1005.41" y2="995.93"/><line class="cls-2" x1="996.92" y1="980.44" x2="1009.21" y2="992.22"/><line class="cls-2" x1="999.8" y1="977.15" x2="1012.18" y2="988.83"/><line class="cls-2" x1="1003.49" y1="973.55" x2="1015.99" y2="985.12"/><line class="cls-2" x1="1006.36" y1="970.26" x2="1018.95" y2="981.73"/><line class="cls-2" x1="1009.91" y1="966.52" x2="1022.6" y2="977.87"/><line class="cls-2" x1="1012.62" y1="963.1" x2="1025.4" y2="974.35"/><line class="cls-2" x1="1016.14" y1="959.32" x2="1029.02" y2="970.45"/><line class="cls-2" x1="1018.85" y1="955.9" x2="1031.82" y2="966.93"/><line class="cls-2" x1="1022.38" y1="952.13" x2="1035.45" y2="963.04"/><line class="cls-2" x1="1025.04" y1="948.67" x2="1038.19" y2="959.47"/><line class="cls-2" x1="1028.37" y1="944.73" x2="1041.63" y2="955.41"/><line class="cls-2" x1="1030.92" y1="941.18" x2="1044.26" y2="951.76"/><line class="cls-2" x1="1034.25" y1="937.25" x2="1047.69" y2="947.7"/><line class="cls-2" x1="1036.8" y1="933.7" x2="1050.32" y2="944.05"/><line class="cls-2" x1="1040.14" y1="929.76" x2="1053.75" y2="939.98"/><line class="cls-2" x1="1042.54" y1="926.12" x2="1056.24" y2="936.23"/><line class="cls-2" x1="1045.68" y1="922.03" x2="1059.48" y2="932.01"/><line class="cls-2" x1="1048.06" y1="918.36" x2="1061.93" y2="928.23"/><line class="cls-2" x1="1051.2" y1="914.27" x2="1065.16" y2="924.01"/><line class="cls-2" x1="1053.57" y1="910.61" x2="1067.61" y2="920.24"/><line class="cls-2" x1="1056.67" y1="906.48" x2="1070.8" y2="915.98"/><line class="cls-2" x1="1058.87" y1="902.7" x2="1073.07" y2="912.09"/><line class="cls-2" x1="1061.81" y1="898.46" x2="1076.1" y2="907.72"/><line class="cls-2" x1="1064" y1="894.69" x2="1078.36" y2="903.83"/><line class="cls-2" x1="1066.95" y1="890.45" x2="1081.39" y2="899.46"/><line class="cls-2" x1="1069.14" y1="886.68" x2="1083.66" y2="895.57"/><line class="cls-2" x1="1071.95" y1="882.36" x2="1086.55" y2="891.11"/><line class="cls-2" x1="1073.96" y1="878.48" x2="1088.63" y2="887.11"/><line class="cls-2" x1="1076.69" y1="874.1" x2="1091.44" y2="882.6"/><line class="cls-2" x1="1078.7" y1="870.23" x2="1093.52" y2="878.61"/><line class="cls-2" x1="1081.44" y1="865.85" x2="1096.34" y2="874.09"/><line class="cls-2" x1="1083.44" y1="861.98" x2="1098.4" y2="870.1"/><line class="cls-2" x1="1085.96" y1="857.48" x2="1101" y2="865.46"/><line class="cls-2" x1="1087.78" y1="853.5" x2="1102.88" y2="861.37"/><line class="cls-2" x1="1090.3" y1="849" x2="1105.47" y2="856.72"/><line class="cls-2" x1="1092.12" y1="845.04" x2="1107.35" y2="852.63"/><line class="cls-2" x1="1094.64" y1="840.53" x2="1109.94" y2="847.99"/><line class="cls-2" x1="1096.37" y1="836.52" x2="1111.73" y2="843.86"/><line class="cls-2" x1="1098.66" y1="831.91" x2="1114.09" y2="839.09"/><line class="cls-2" x1="1100.28" y1="827.85" x2="1115.77" y2="834.92"/><line class="cls-2" x1="1102.58" y1="823.23" x2="1118.14" y2="830.15"/><line class="cls-2" x1="1104.2" y1="819.18" x2="1119.81" y2="825.98"/><line class="cls-2" x1="1106.5" y1="814.56" x2="1122.18" y2="821.21"/><line class="cls-2" x1="1107.95" y1="810.44" x2="1123.68" y2="816.96"/><line class="cls-2" x1="1110.02" y1="805.71" x2="1125.8" y2="812.09"/><line class="cls-2" x1="1111.44" y1="801.59" x2="1127.28" y2="807.83"/><line class="cls-2" x1="1113.51" y1="796.86" x2="1129.4" y2="802.96"/><line class="cls-2" x1="1114.93" y1="792.73" x2="1130.87" y2="798.7"/><line class="cls-2" x1="1116.95" y1="787.98" x2="1132.95" y2="793.8"/><line class="cls-2" x1="1118.16" y1="783.79" x2="1134.21" y2="789.48"/><line class="cls-2" x1="1119.99" y1="778.97" x2="1136.09" y2="784.51"/><line class="cls-2" x1="1121.21" y1="774.77" x2="1137.35" y2="780.18"/><line class="cls-2" x1="1123.05" y1="769.95" x2="1139.24" y2="775.21"/><line class="cls-2" x1="1124.26" y1="765.76" x2="1140.5" y2="770.89"/><line class="cls-2" x1="1125.97" y1="760.89" x2="1142.25" y2="765.87"/><line class="cls-2" x1="1126.97" y1="756.64" x2="1143.29" y2="761.49"/><line class="cls-2" x1="1128.56" y1="751.74" x2="1144.93" y2="756.43"/><line class="cls-2" x1="1129.57" y1="747.49" x2="1145.98" y2="752.05"/><line class="cls-2" x1="1131.16" y1="742.58" x2="1147.61" y2="746.98"/><line class="cls-2" x1="1132.17" y1="738.34" x2="1148.65" y2="742.61"/><line class="cls-2" x1="1133.56" y1="733.37" x2="1150.08" y2="737.49"/><line class="cls-2" x1="1134.36" y1="729.08" x2="1150.91" y2="733.06"/><line class="cls-2" x1="1135.7" y1="724.1" x2="1152.29" y2="727.92"/><line class="cls-2" x1="1136.5" y1="719.81" x2="1153.12" y2="723.5"/><line class="cls-2" x1="1137.84" y1="714.82" x2="1154.5" y2="718.36"/><line class="cls-2" x1="1138.62" y1="710.53" x2="1155.3" y2="713.94"/><line class="cls-2" x1="1139.71" y1="705.49" x2="1156.43" y2="708.74"/><line class="cls-2" x1="1140.29" y1="701.16" x2="1157.03" y2="704.28"/><line class="cls-2" x1="1141.39" y1="696.12" x2="1158.15" y2="699.08"/><line class="cls-2" x1="1141.97" y1="691.8" x2="1158.76" y2="694.62"/><line class="cls-2" x1="1143.06" y1="686.75" x2="1159.88" y2="689.42"/><line class="cls-2" x1="1143.57" y1="682.42" x2="1160.41" y2="684.95"/><line class="cls-2" x1="1144.41" y1="677.33" x2="1161.27" y2="679.7"/><line class="cls-2" x1="1144.77" y1="672.98" x2="1161.65" y2="675.22"/><line class="cls-2" x1="1145.61" y1="667.89" x2="1162.51" y2="669.97"/><line class="cls-2" x1="1145.97" y1="663.54" x2="1162.88" y2="665.48"/><line class="cls-2" x1="1146.81" y1="658.44" x2="1163.74" y2="660.23"/><line class="cls-2" x1="1147.06" y1="654.09" x2="1164.01" y2="655.74"/><line class="cls-2" x1="1147.64" y1="648.96" x2="1164.6" y2="650.46"/><line class="cls-2" x1="1147.78" y1="644.6" x2="1164.75" y2="645.96"/><line class="cls-2" x1="1148.36" y1="639.47" x2="1165.35" y2="640.67"/><line class="cls-2" x1="1148.5" y1="635.11" x2="1165.5" y2="636.18"/><line class="cls-2" x1="1149.09" y1="629.98" x2="1166.09" y2="630.89"/><line class="cls-2" x1="1149.09" y1="625.61" x2="1166.1" y2="626.39"/><line class="cls-2" x1="1149.41" y1="620.46" x2="1166.42" y2="621.08"/><line class="cls-2" x1="1149.33" y1="616.09" x2="1166.35" y2="616.58"/><line class="cls-2" x1="1149.65" y1="610.94" x2="1166.67" y2="611.27"/><line class="cls-2" x1="1149.57" y1="606.58" x2="1166.59" y2="606.78"/><line class="cls-2" x1="1149.89" y1="601.42" x2="1166.92" y2="601.47"/></g></svg>