<svg xmlns="http://www.w3.org/2000/svg" viewBox="0 0 1080 1080"><defs><style>.cls-1{opacity:0.3;}.cls-2,.cls-3{fill:none;stroke:#d7b883;stroke-linejoin:round;stroke-width:2.81px;}.cls-2{stroke-linecap:round;}</style></defs><g id="circle_" data-name="circle();"><g class="cls-1"><circle class="cls-2" cx="540" cy="540" r="530.31"/><line class="cls-3" x1="1047.3" y1="510.12" x2="1069.36" y2="508.84"/><line class="cls-3" x1="1045.16" y1="484.44" x2="1067.13" y2="482.06"/><line class="cls-3" x1="1040.76" y1="453.5" x2="1062.54" y2="449.77"/><line class="cls-3" x1="1035.76" y1="428.24" x2="1057.33" y2="423.4"/><line class="cls-3" x1="1027.98" y1="397.98" x2="1049.2" y2="391.81"/><line class="cls-3" x1="1020.18" y1="373.43" x2="1041.05" y2="366.19"/><line class="cls-3" x1="1009.11" y1="344.21" x2="1029.5" y2="335.69"/><line class="cls-3" x1="998.6" y1="320.69" x2="1018.53" y2="311.14"/><line class="cls-3" x1="984.16" y1="292.97" x2="1003.46" y2="282.22"/><line class="cls-3" x1="971.04" y1="270.81" x2="989.77" y2="259.08"/><line class="cls-3" x1="953.63" y1="244.85" x2="971.61" y2="232"/><line class="cls-3" x1="938.13" y1="224.28" x2="955.43" y2="210.53"/><line class="cls-3" x1="918.02" y1="200.35" x2="934.45" y2="185.58"/><line class="cls-3" x1="900.33" y1="181.61" x2="916" y2="166.03"/><line class="cls-3" x1="877.57" y1="160.19" x2="892.26" y2="143.67"/><line class="cls-3" x1="857.88" y1="143.57" x2="871.72" y2="126.34"/><line class="cls-3" x1="832.91" y1="124.78" x2="845.66" y2="106.73"/><line class="cls-3" x1="811.51" y1="110.44" x2="823.33" y2="91.77"/><line class="cls-3" x1="784.65" y1="94.47" x2="795.3" y2="75.11"/><line class="cls-3" x1="761.78" y1="82.6" x2="771.43" y2="62.73"/><line class="cls-3" x1="733.24" y1="69.88" x2="741.64" y2="49.45"/><line class="cls-3" x1="709.17" y1="60.7" x2="716.52" y2="39.87"/><line class="cls-3" x1="679.38" y1="51.27" x2="685.43" y2="30.01"/><line class="cls-3" x1="654.44" y1="44.85" x2="659.39" y2="23.32"/><line class="cls-3" x1="623.79" y1="38.75" x2="627.41" y2="16.95"/><line class="cls-3" x1="598.28" y1="35.18" x2="600.79" y2="13.23"/><line class="cls-3" x1="567.14" y1="32.49" x2="568.3" y2="10.42"/><line class="cls-3" x1="539.97" y1="31.79" x2="540.02" y2="9.69"/><line class="cls-3" x1="510.12" y1="32.7" x2="508.84" y2="10.64"/><line class="cls-3" x1="484.44" y1="34.83" x2="482.06" y2="12.87"/><line class="cls-3" x1="453.5" y1="39.24" x2="449.77" y2="17.46"/><line class="cls-3" x1="428.24" y1="44.23" x2="423.4" y2="22.67"/><line class="cls-3" x1="397.98" y1="52.02" x2="391.81" y2="30.8"/><line class="cls-3" x1="373.43" y1="59.82" x2="366.19" y2="38.95"/><line class="cls-3" x1="344.21" y1="70.89" x2="335.69" y2="50.5"/><line class="cls-3" x1="320.69" y1="81.4" x2="311.14" y2="61.47"/><line class="cls-3" x1="292.97" y1="95.84" x2="282.22" y2="76.54"/><line class="cls-3" x1="270.81" y1="108.96" x2="259.08" y2="90.23"/><line class="cls-3" x1="244.85" y1="126.37" x2="232" y2="108.39"/><line class="cls-3" x1="224.28" y1="141.87" x2="210.53" y2="124.57"/><line class="cls-3" x1="200.35" y1="161.98" x2="185.58" y2="145.55"/><line class="cls-3" x1="181.61" y1="179.67" x2="166.03" y2="164"/><line class="cls-3" x1="160.19" y1="202.43" x2="143.67" y2="187.74"/><line class="cls-3" x1="143.57" y1="222.12" x2="126.34" y2="208.28"/><line class="cls-3" x1="124.78" y1="247.09" x2="106.73" y2="234.34"/><line class="cls-3" x1="110.44" y1="268.49" x2="91.77" y2="256.67"/><line class="cls-3" x1="94.47" y1="295.35" x2="75.11" y2="284.7"/><line class="cls-3" x1="82.6" y1="318.22" x2="62.73" y2="308.57"/><line class="cls-3" x1="69.88" y1="346.76" x2="49.45" y2="338.36"/><line class="cls-3" x1="60.7" y1="370.83" x2="39.87" y2="363.48"/><line class="cls-3" x1="51.27" y1="400.62" x2="30.01" y2="394.57"/><line class="cls-3" x1="44.85" y1="425.56" x2="23.32" y2="420.61"/><line class="cls-3" x1="38.75" y1="456.21" x2="16.95" y2="452.59"/><line class="cls-3" x1="35.18" y1="481.72" x2="13.23" y2="479.21"/><line class="cls-3" x1="32.49" y1="512.86" x2="10.42" y2="511.7"/><line class="cls-3" x1="31.79" y1="539.99" x2="9.69" y2="539.93"/><line class="cls-3" x1="32.7" y1="569.88" x2="10.64" y2="571.16"/><line class="cls-3" x1="34.83" y1="595.56" x2="12.87" y2="597.94"/><line class="cls-3" x1="39.24" y1="626.5" x2="17.46" y2="630.23"/><line class="cls-3" x1="44.23" y1="651.76" x2="22.67" y2="656.6"/><line class="cls-3" x1="52.02" y1="682.02" x2="30.8" y2="688.19"/><line class="cls-3" x1="59.82" y1="706.57" x2="38.95" y2="713.81"/><line class="cls-3" x1="70.89" y1="735.79" x2="50.5" y2="744.31"/><line class="cls-3" x1="81.4" y1="759.31" x2="61.47" y2="768.86"/><line class="cls-3" x1="95.84" y1="787.03" x2="76.54" y2="797.78"/><line class="cls-3" x1="108.96" y1="809.19" x2="90.23" y2="820.92"/><line class="cls-3" x1="126.37" y1="835.15" x2="108.39" y2="848"/><line class="cls-3" x1="141.87" y1="855.73" x2="124.56" y2="869.47"/><line class="cls-3" x1="161.98" y1="879.65" x2="145.55" y2="894.42"/><line class="cls-3" x1="179.67" y1="898.39" x2="164" y2="913.97"/><line class="cls-3" x1="202.43" y1="919.81" x2="187.74" y2="936.33"/><line class="cls-3" x1="222.12" y1="936.43" x2="208.28" y2="953.66"/><line class="cls-3" x1="247.09" y1="955.22" x2="234.34" y2="973.27"/><line class="cls-3" x1="268.49" y1="969.56" x2="256.67" y2="988.23"/><line class="cls-3" x1="295.35" y1="985.53" x2="284.7" y2="1004.89"/><line class="cls-3" x1="318.22" y1="997.4" x2="308.57" y2="1017.27"/><line class="cls-3" x1="346.76" y1="1010.12" x2="338.36" y2="1030.55"/><line class="cls-3" x1="370.83" y1="1019.3" x2="363.48" y2="1040.13"/><line class="cls-3" x1="400.62" y1="1028.73" x2="394.57" y2="1049.99"/><line class="cls-3" x1="425.56" y1="1035.15" x2="420.61" y2="1056.68"/><line class="cls-3" x1="456.21" y1="1041.25" x2="452.59" y2="1063.05"/><line class="cls-3" x1="481.72" y1="1044.82" x2="479.21" y2="1066.77"/><line class="cls-3" x1="512.86" y1="1047.51" x2="511.7" y2="1069.58"/><line class="cls-3" x1="539.77" y1="1048.21" x2="539.71" y2="1070.31"/><line class="cls-3" x1="569.88" y1="1047.3" x2="571.16" y2="1069.36"/><line class="cls-3" x1="595.56" y1="1045.16" x2="597.94" y2="1067.13"/><line class="cls-3" x1="626.5" y1="1040.76" x2="630.23" y2="1062.54"/><line class="cls-3" x1="651.76" y1="1035.76" x2="656.6" y2="1057.33"/><line class="cls-3" x1="682.02" y1="1027.98" x2="688.19" y2="1049.2"/><line class="cls-3" x1="706.57" y1="1020.18" x2="713.81" y2="1041.05"/><line class="cls-3" x1="735.79" y1="1009.11" x2="744.31" y2="1029.5"/><line class="cls-3" x1="759.31" y1="998.6" x2="768.86" y2="1018.53"/><line class="cls-3" x1="787.03" y1="984.16" x2="797.78" y2="1003.46"/><line class="cls-3" x1="809.19" y1="971.04" x2="820.92" y2="989.77"/><line class="cls-3" x1="835.15" y1="953.63" x2="848" y2="971.61"/><line class="cls-3" x1="855.72" y1="938.13" x2="869.47" y2="955.44"/><line class="cls-3" x1="879.65" y1="918.02" x2="894.42" y2="934.45"/><line class="cls-3" x1="898.39" y1="900.33" x2="913.97" y2="916"/><line class="cls-3" x1="919.81" y1="877.57" x2="936.33" y2="892.26"/><line class="cls-3" x1="936.43" y1="857.88" x2="953.66" y2="871.72"/><line class="cls-3" x1="955.22" y1="832.91" x2="973.27" y2="845.66"/><line class="cls-3" x1="969.56" y1="811.51" x2="988.23" y2="823.33"/><line class="cls-3" x1="985.53" y1="784.65" x2="1004.89" y2="795.3"/><line class="cls-3" x1="997.4" y1="761.78" x2="1017.27" y2="771.43"/><line class="cls-3" x1="1010.12" y1="733.24" x2="1030.55" y2="741.64"/><line class="cls-3" x1="1019.3" y1="709.17" x2="1040.13" y2="716.52"/><line class="cls-3" x1="1028.73" y1="679.38" x2="1049.99" y2="685.43"/><line class="cls-3" x1="1035.15" y1="654.44" x2="1056.68" y2="659.39"/><line class="cls-3" x1="1041.25" y1="623.79" x2="1063.05" y2="627.41"/><line class="cls-3" x1="1044.82" y1="598.28" x2="1066.77" y2="600.79"/><line class="cls-3" x1="1047.51" y1="567.14" x2="1069.58" y2="568.3"/><line class="cls-3" x1="1048.21" y1="539.96" x2="1070.31" y2="540.02"/></g></g><g id="astrolabe_" data-name="astrolabe();"><g class="cls-1"><circle class="cls-2" cx="540" cy="540" r="465.29"/><circle class="cls-2" cx="540" cy="424.12" r="114.25" transform="translate(-141.73 506.06) rotate(-45)"/><circle class="cls-2" cx="540" cy="540" r="508.51"/><circle class="cls-2" cx="540" cy="540" r="492.78"/><path class="cls-2" d="M47.29,531.62C106.64,505.5,310,424.12,540,424.12s433.36,81.38,492.71,107.5"/><path class="cls-2" d="M732.22,86.12c99.39,63.5,165.29,174.8,165.29,301.49,0,197.45-160.06,357.52-357.51,357.52S182.49,585.06,182.49,387.61c0-126.48,65.68-237.63,164.8-301.18"/><line class="cls-2" x1="540" y1="1032.78" x2="540" y2="47.22"/><line class="cls-2" x1="47.22" y1="540" x2="1032.78" y2="540"/><line class="cls-2" x1="786.07" y1="967.04" x2="293.19" y2="113.35"/><line class="cls-2" x1="293.93" y1="967.04" x2="786.81" y2="113.35"/><line class="cls-2" x1="966.99" y1="294.31" x2="113.98" y2="786.8"/><line class="cls-2" x1="966.47" y1="787.05" x2="112.52" y2="294.03"/><path class="cls-2" d="M1030.61,582.86C984.23,676.38,847.48,881.41,540,881.41,232.23,881.41,95.51,676,49.25,582.59"/><polygon class="cls-2" points="192.71 564.24 185.95 566.5 184.53 559.51 183.12 566.5 176.36 564.24 181.7 568.96 176.36 573.68 183.12 571.41 184.53 578.4 185.95 571.41 192.71 573.68 187.37 568.96 192.71 564.24"/><polygon class="cls-2" points="154.77 455.72 148.01 457.99 146.59 451 145.17 457.99 138.41 455.72 143.76 460.44 138.41 465.17 145.17 462.9 146.59 469.89 148.01 462.9 154.77 465.17 149.42 460.44 154.77 455.72"/><polygon class="cls-2" points="423.03 482.39 416.27 484.65 414.85 477.67 413.44 484.65 406.68 482.39 412.02 487.11 406.68 491.83 413.44 489.56 414.85 496.55 416.27 489.56 423.03 491.83 417.69 487.11 423.03 482.39"/><polygon class="cls-2" points="390.04 430.08 383.28 432.35 381.86 425.36 380.45 432.35 373.69 430.08 379.03 434.81 373.69 439.53 380.45 437.26 381.86 444.25 383.28 437.26 390.04 439.53 384.7 434.81 390.04 430.08"/><polygon class="cls-2" points="406.4 384.14 399.64 386.41 398.22 379.42 396.8 386.41 390.04 384.14 395.39 388.86 390.04 393.59 396.8 391.32 398.22 398.31 399.64 391.32 406.4 393.59 401.05 388.86 406.4 384.14"/><polygon class="cls-2" points="322.08 511.93 315.32 514.2 313.9 507.2 312.48 514.2 305.72 511.93 311.07 516.65 305.72 521.37 312.48 519.1 313.9 526.09 315.32 519.1 322.08 521.37 316.73 516.65 322.08 511.93"/><polygon class="cls-2" points="342.47 641.92 335.71 644.19 334.29 637.2 332.87 644.19 326.11 641.92 331.46 646.64 326.11 651.37 332.87 649.1 334.29 656.09 335.71 649.1 342.47 651.37 337.12 646.64 342.47 641.92"/><polygon class="cls-2" points="284.27 647.45 277.51 649.71 276.1 642.73 274.68 649.71 267.92 647.45 273.26 652.17 267.92 656.89 274.68 654.62 276.1 661.61 277.51 654.62 284.27 656.89 278.93 652.17 284.27 647.45"/><polygon class="cls-2" points="338.44 758.49 331.67 760.76 330.26 753.77 328.84 760.76 322.08 758.49 327.42 763.21 322.08 767.93 328.84 765.66 330.26 772.65 331.67 765.66 338.44 767.93 333.09 763.21 338.44 758.49"/><polygon class="cls-2" points="364.98 740.4 358.22 742.67 356.8 735.68 355.39 742.67 348.62 740.4 353.97 745.13 348.62 749.85 355.39 747.58 356.8 754.57 358.22 747.58 364.98 749.85 359.63 745.13 364.98 740.4"/><polygon class="cls-2" points="344.17 798.78 337.4 801.05 335.99 794.06 334.57 801.05 327.81 798.78 333.16 803.5 327.81 808.23 334.57 805.96 335.99 812.95 337.4 805.96 344.17 808.23 338.82 803.5 344.17 798.78"/><polygon class="cls-2" points="243.87 854.11 237.11 856.37 235.69 849.38 234.28 856.37 227.52 854.11 232.86 858.83 227.52 863.55 234.28 861.28 235.69 868.27 237.11 861.28 243.87 863.55 238.53 858.83 243.87 854.11"/><polygon class="cls-2" points="501.05 805.31 494.29 807.58 492.87 800.59 491.45 807.58 484.69 805.31 490.04 810.03 484.69 814.75 491.45 812.48 492.87 819.47 494.29 812.48 501.05 814.75 495.7 810.03 501.05 805.31"/><polygon class="cls-2" points="527.03 906.81 520.27 909.08 518.86 902.09 517.44 909.08 510.68 906.81 516.02 911.53 510.68 916.26 517.44 913.99 518.86 920.98 520.27 913.99 527.03 916.26 521.69 911.53 527.03 906.81"/><polygon class="cls-2" points="373.63 927.7 366.87 929.97 365.46 922.98 364.04 929.97 357.28 927.7 362.62 932.42 357.28 937.14 364.04 934.87 365.46 941.86 366.87 934.87 373.63 937.14 368.29 932.42 373.63 927.7"/><polygon class="cls-2" points="639.89 912.78 633.13 915.05 631.71 908.06 630.3 915.05 623.53 912.78 628.88 917.51 623.53 922.23 630.3 919.96 631.71 926.95 633.13 919.96 639.89 922.23 634.55 917.51 639.89 912.78"/><polygon class="cls-2" points="774.46 869.97 767.7 872.24 766.28 865.25 764.87 872.24 758.11 869.97 763.45 874.69 758.11 879.42 764.87 877.15 766.28 884.14 767.7 877.15 774.46 879.42 769.12 874.69 774.46 869.97"/><polygon class="cls-2" points="692.18 811.02 685.42 813.29 684 806.3 682.59 813.29 675.83 811.02 681.17 815.74 675.83 820.46 682.59 818.19 684 825.18 685.42 818.19 692.18 820.46 686.84 815.74 692.18 811.02"/><polygon class="cls-2" points="384.24 677.77 377.47 680.04 376.06 673.05 374.64 680.04 367.88 677.77 373.22 682.49 367.88 687.21 374.64 684.94 376.06 691.93 377.47 684.94 384.24 687.21 378.89 682.49 384.24 677.77"/><polygon class="cls-2" points="479.81 700.49 473.05 702.76 471.63 695.77 470.21 702.76 463.45 700.49 468.8 705.21 463.45 709.93 470.21 707.66 471.63 714.65 473.05 707.66 479.81 709.93 474.46 705.21 479.81 700.49"/><polygon class="cls-2" points="631.88 631.63 625.12 633.9 623.7 626.91 622.28 633.9 615.52 631.63 620.87 636.35 615.52 641.07 622.28 638.8 623.7 645.79 625.12 638.8 631.88 641.07 626.53 636.35 631.88 631.63"/><polygon class="cls-2" points="749.96 743.45 743.2 745.72 741.78 738.73 740.37 745.72 733.61 743.45 738.95 748.17 733.61 752.89 740.37 750.62 741.78 757.61 743.2 750.62 749.96 752.89 744.62 748.17 749.96 743.45"/><polygon class="cls-2" points="905.69 610.54 898.93 612.81 897.51 605.82 896.1 612.81 889.34 610.54 894.68 615.27 889.34 619.99 896.1 617.72 897.51 624.71 898.93 617.72 905.69 619.99 900.35 615.27 905.69 610.54"/><polygon class="cls-2" points="964.1 503.82 957.34 506.08 955.92 499.09 954.5 506.08 947.74 503.82 953.09 508.54 947.74 513.26 954.5 510.99 955.92 517.98 957.34 510.99 964.1 513.26 958.75 508.54 964.1 503.82"/><polygon class="cls-2" points="912.63 302.3 905.87 304.57 904.46 297.58 903.04 304.57 896.28 302.3 901.62 307.02 896.28 311.74 903.04 309.48 904.46 316.46 905.87 309.48 912.63 311.74 907.29 307.02 912.63 302.3"/><polygon class="cls-2" points="827.3 417.53 820.54 419.8 819.13 412.81 817.71 419.8 810.95 417.53 816.29 422.25 810.95 426.97 817.71 424.71 819.13 431.69 820.54 424.71 827.3 426.97 821.96 422.25 827.3 417.53"/><polygon class="cls-2" points="708.18 283.68 701.42 285.95 700.01 278.96 698.59 285.95 691.83 283.68 697.17 288.4 691.83 293.12 698.59 290.85 700.01 297.84 701.42 290.85 708.18 293.12 702.84 288.4 708.18 283.68"/><polygon class="cls-2" points="700.18 506.93 693.42 509.19 692 502.2 690.59 509.19 683.83 506.93 689.17 511.65 683.83 516.37 690.59 514.1 692 521.09 693.42 514.1 700.18 516.37 694.84 511.65 700.18 506.93"/><polygon class="cls-2" points="630.46 204.55 623.7 206.82 622.28 199.83 620.87 206.82 614.1 204.55 619.45 209.27 614.1 213.99 620.87 211.73 622.28 218.72 623.7 211.73 630.46 213.99 625.12 209.27 630.46 204.55"/><polygon class="cls-2" points="586.14 136.43 579.38 138.7 577.96 131.71 576.54 138.7 569.78 136.43 575.13 141.16 569.78 145.88 576.54 143.61 577.96 150.6 579.38 143.61 586.14 145.88 580.79 141.16 586.14 136.43"/><polygon class="cls-2" points="650.94 73.07 644.17 75.34 642.76 68.35 641.34 75.34 634.58 73.07 639.92 77.79 634.58 82.51 641.34 80.25 642.76 87.23 644.17 80.25 650.94 82.51 645.59 77.79 650.94 73.07"/><polygon class="cls-2" points="438.16 122.77 431.4 125.04 429.98 118.05 428.57 125.04 421.81 122.77 427.15 127.49 421.81 132.22 428.57 129.95 429.98 136.94 431.4 129.95 438.16 132.22 432.82 127.49 438.16 122.77"/><polygon class="cls-2" points="271.63 330.54 264.87 332.81 263.46 325.82 262.04 332.81 255.28 330.54 260.62 335.26 255.28 339.99 262.04 337.72 263.46 344.71 264.87 337.72 271.63 339.99 266.29 335.26 271.63 330.54"/><polygon class="cls-2" points="188.05 288.62 181.29 290.89 179.87 283.9 178.45 290.89 171.69 288.62 177.04 293.34 171.69 298.06 178.45 295.79 179.87 302.78 181.29 295.79 188.05 298.06 182.7 293.34 188.05 288.62"/><polygon class="cls-2" points="238.3 242.06 231.54 244.32 230.12 237.34 228.7 244.32 221.94 242.06 227.29 246.78 221.94 251.5 228.7 249.23 230.12 256.22 231.54 249.23 238.3 251.5 232.95 246.78 238.3 242.06"/><polygon class="cls-2" points="574.11 423.26 567.35 425.53 565.93 418.54 564.51 425.53 557.75 423.26 563.1 427.99 557.75 432.71 564.51 430.44 565.93 437.43 567.35 430.44 574.11 432.71 568.76 427.99 574.11 423.26"/><polygon class="cls-2" points="883.63 835.51 876.87 837.78 875.46 830.79 874.04 837.78 867.28 835.51 872.62 840.23 867.28 844.96 874.04 842.69 875.46 849.68 876.87 842.69 883.63 844.96 878.29 840.23 883.63 835.51"/><polygon class="cls-2" points="913.51 766.25 906.75 768.51 905.33 761.52 903.91 768.51 897.15 766.25 902.5 770.97 897.15 775.69 903.91 773.42 905.33 780.41 906.75 773.42 913.51 775.69 908.16 770.97 913.51 766.25"/><polygon class="cls-2" points="911.26 661.64 904.5 663.91 903.09 656.92 901.67 663.91 894.91 661.64 900.25 666.37 894.91 671.09 901.67 668.82 903.09 675.81 904.5 668.82 911.26 671.09 905.92 666.37 911.26 661.64"/><polygon class="cls-2" points="847.95 732.47 841.19 734.74 839.78 727.75 838.36 734.74 831.6 732.47 836.94 737.19 831.6 741.91 838.36 739.64 839.78 746.63 841.19 739.64 847.95 741.91 842.61 737.19 847.95 732.47"/><path class="cls-2" d="M456.39,543.42c0,3-3.2,4.35-3.2,4.35s3.2,1.33,3.2,4.35c0-3,3.2-4.35,3.2-4.35S456.39,546.44,456.39,543.42Z"/><path class="cls-2" d="M141.61,388.37c0,3-3.2,4.35-3.2,4.35s3.2,1.33,3.2,4.35c0-3,3.2-4.35,3.2-4.35S141.61,391.4,141.61,388.37Z"/><path class="cls-2" d="M100,415.37c0,3-3.2,4.35-3.2,4.35s3.2,1.32,3.2,4.35c0-3,3.19-4.35,3.19-4.35S100,418.39,100,415.37Z"/><path class="cls-2" d="M138.41,567.11c0,3-3.2,4.35-3.2,4.35s3.2,1.33,3.2,4.35c0-3,3.2-4.35,3.2-4.35S138.41,570.14,138.41,567.11Z"/><path class="cls-2" d="M144.81,640.67c0,3-3.2,4.36-3.2,4.36s3.2,1.32,3.2,4.35c0-3,3.2-4.35,3.2-4.35S144.81,643.7,144.81,640.67Z"/><path class="cls-2" d="M228.15,495.9c0,3-3.19,4.35-3.19,4.35s3.19,1.32,3.19,4.35c0-3,3.2-4.35,3.2-4.35S228.15,498.92,228.15,495.9Z"/><path class="cls-2" d="M249.19,516.92c0,3-3.19,4.35-3.19,4.35s3.19,1.33,3.19,4.35c0-3,3.2-4.35,3.2-4.35S249.19,519.94,249.19,516.92Z"/><path class="cls-2" d="M279.29,591.75c0,3-3.19,4.35-3.19,4.35s3.19,1.33,3.19,4.35c0-3,3.2-4.35,3.2-4.35S279.29,594.77,279.29,591.75Z"/><path class="cls-2" d="M257.89,776.38c0,3-3.2,4.35-3.2,4.35s3.2,1.33,3.2,4.35c0-3,3.2-4.35,3.2-4.35S257.89,779.4,257.89,776.38Z"/><path class="cls-2" d="M438,811.39c0,3-3.2,4.35-3.2,4.35s3.2,1.33,3.2,4.35c0-3,3.2-4.35,3.2-4.35S438,814.41,438,811.39Z"/><path class="cls-2" d="M660.8,827.16c0,3-3.2,4.35-3.2,4.35s3.2,1.33,3.2,4.36c0-3,3.19-4.36,3.19-4.36S660.8,830.19,660.8,827.16Z"/><path class="cls-2" d="M874.21,674.26c0,3-3.2,4.35-3.2,4.35s3.2,1.33,3.2,4.35c0-3,3.2-4.35,3.2-4.35S874.21,677.28,874.21,674.26Z"/><path class="cls-2" d="M938.22,748.44c0,3-3.19,4.35-3.19,4.35s3.19,1.33,3.19,4.35c0-3,3.2-4.35,3.2-4.35S938.22,751.46,938.22,748.44Z"/><path class="cls-2" d="M911.27,419.18c0,3-3.2,4.35-3.2,4.35s3.2,1.33,3.2,4.35c0-3,3.19-4.35,3.19-4.35S911.27,422.2,911.27,419.18Z"/><path class="cls-2" d="M782.05,339c0,3-3.19,4.35-3.19,4.35s3.19,1.32,3.19,4.35c0-3,3.2-4.35,3.2-4.35S782.05,342.05,782.05,339Z"/><path class="cls-2" d="M762.09,257.65c0,3-3.2,4.35-3.2,4.35s3.2,1.33,3.2,4.35c0-3,3.2-4.35,3.2-4.35S762.09,260.67,762.09,257.65Z"/><path class="cls-2" d="M695.2,335.36c0,3-3.2,4.36-3.2,4.36s3.2,1.32,3.2,4.35c0-3,3.2-4.35,3.2-4.35S695.2,338.39,695.2,335.36Z"/><path class="cls-2" d="M796.12,563.64c0,3-3.2,4.35-3.2,4.35s3.2,1.33,3.2,4.35c0-3,3.2-4.35,3.2-4.35S796.12,566.66,796.12,563.64Z"/><path class="cls-2" d="M733.61,584.28c0,3-3.2,4.35-3.2,4.35s3.2,1.33,3.2,4.36c0-3,3.19-4.36,3.19-4.36S733.61,587.31,733.61,584.28Z"/><path class="cls-2" d="M654.25,578.24c0,3-3.2,4.35-3.2,4.35s3.2,1.32,3.2,4.35c0-3,3.2-4.35,3.2-4.35S654.25,581.26,654.25,578.24Z"/><path class="cls-2" d="M704.28,407.23c0,3-3.19,4.35-3.19,4.35s3.19,1.33,3.19,4.35c0-3,3.2-4.35,3.2-4.35S704.28,410.25,704.28,407.23Z"/><path class="cls-2" d="M482.2,306.23c0,3-3.19,4.35-3.19,4.35s3.19,1.33,3.19,4.35c0-3,3.2-4.35,3.2-4.35S482.2,309.25,482.2,306.23Z"/><path class="cls-2" d="M470.8,349.32c0,3-3.2,4.35-3.2,4.35s3.2,1.32,3.2,4.35c0-3,3.2-4.35,3.2-4.35S470.8,352.34,470.8,349.32Z"/><path class="cls-2" d="M521.91,605.2c0,3-3.2,4.35-3.2,4.35s3.2,1.33,3.2,4.35c0-3,3.2-4.35,3.2-4.35S521.91,608.22,521.91,605.2Z"/><path class="cls-2" d="M560.46,585.89c0,3-3.2,4.35-3.2,4.35s3.2,1.33,3.2,4.35c0-3,3.19-4.35,3.19-4.35S560.46,588.91,560.46,585.89Z"/><path class="cls-2" d="M657.45,664.35c0,3-3.2,4.35-3.2,4.35s3.2,1.32,3.2,4.35c0-3,3.2-4.35,3.2-4.35S657.45,667.37,657.45,664.35Z"/><path class="cls-2" d="M666.22,642.29c0,3-3.19,4.35-3.19,4.35s3.19,1.33,3.19,4.35c0-3,3.2-4.35,3.2-4.35S666.22,645.32,666.22,642.29Z"/><path class="cls-2" d="M588.8,694c0,3-3.2,4.35-3.2,4.35s3.2,1.33,3.2,4.36c0-3,3.19-4.36,3.19-4.36S588.8,697,588.8,694Z"/><path class="cls-2" d="M441.31,612c0,3-3.2,4.35-3.2,4.35s3.2,1.33,3.2,4.35c0-3,3.2-4.35,3.2-4.35S441.31,615,441.31,612Z"/><path class="cls-2" d="M393.2,603.31c0,3-3.2,4.35-3.2,4.35s3.2,1.33,3.2,4.35c0-3,3.2-4.35,3.2-4.35S393.2,606.33,393.2,603.31Z"/><path class="cls-2" d="M360.7,581.54c0,3-3.2,4.35-3.2,4.35s3.2,1.32,3.2,4.35c0-3,3.19-4.35,3.19-4.35S360.7,584.56,360.7,581.54Z"/><path class="cls-2" d="M236.44,626.91c0,3-3.2,4.35-3.2,4.35s3.2,1.33,3.2,4.35c0-3,3.2-4.35,3.2-4.35S236.44,629.93,236.44,626.91Z"/><path class="cls-2" d="M279.29,698.79c0,3-3.19,4.35-3.19,4.35s3.19,1.33,3.19,4.35c0-3,3.2-4.35,3.2-4.35S279.29,701.82,279.29,698.79Z"/><path class="cls-2" d="M152.9,771.78c0,3-3.2,4.35-3.2,4.35s3.2,1.33,3.2,4.35c0-3,3.2-4.35,3.2-4.35S152.9,774.8,152.9,771.78Z"/><path class="cls-2" d="M247.36,871.89c0,3-3.2,4.35-3.2,4.35s3.2,1.33,3.2,4.35c0-3,3.19-4.35,3.19-4.35S247.36,874.91,247.36,871.89Z"/><path class="cls-2" d="M345.72,969.43c0,3-3.2,4.35-3.2,4.35s3.2,1.33,3.2,4.35c0-3,3.2-4.35,3.2-4.35S345.72,972.45,345.72,969.43Z"/><path class="cls-2" d="M443,964.91c0,3-3.2,4.35-3.2,4.35s3.2,1.33,3.2,4.36c0-3,3.2-4.36,3.2-4.36S443,967.94,443,964.91Z"/><path class="cls-2" d="M512.59,956.65c0,3-3.19,4.35-3.19,4.35s3.19,1.33,3.19,4.35c0-3,3.2-4.35,3.2-4.35S512.59,959.67,512.59,956.65Z"/><path class="cls-2" d="M715.46,941.46c0,3-3.2,4.35-3.2,4.35s3.2,1.33,3.2,4.35c0-3,3.2-4.35,3.2-4.35S715.46,944.48,715.46,941.46Z"/><path class="cls-2" d="M807.83,867.39c0,3-3.2,4.35-3.2,4.35s3.2,1.33,3.2,4.35c0-3,3.2-4.35,3.2-4.35S807.83,870.42,807.83,867.39Z"/><path class="cls-2" d="M829.05,841.53c0,3-3.2,4.35-3.2,4.35s3.2,1.33,3.2,4.35c0-3,3.2-4.35,3.2-4.35S829.05,844.56,829.05,841.53Z"/><path class="cls-2" d="M792.7,801c0,3-3.2,4.35-3.2,4.35s3.2,1.33,3.2,4.35c0-3,3.2-4.35,3.2-4.35S792.7,804,792.7,801Z"/><path class="cls-2" d="M305.57,853.81c0,3-3.2,4.35-3.2,4.35s3.2,1.33,3.2,4.35c0-3,3.2-4.35,3.2-4.35S305.57,856.83,305.57,853.81Z"/><path class="cls-2" d="M400.11,107.23c0,3-3.19,4.35-3.19,4.35s3.19,1.33,3.19,4.35c0-3,3.2-4.35,3.2-4.35S400.11,110.26,400.11,107.23Z"/><path class="cls-2" d="M657.54,159.8c0,3-3.19,4.35-3.19,4.35s3.19,1.33,3.19,4.35c0-3,3.2-4.35,3.2-4.35S657.54,162.82,657.54,159.8Z"/><path class="cls-2" d="M325.23,252.71c0,3-3.2,4.35-3.2,4.35s3.2,1.33,3.2,4.35c0-3,3.2-4.35,3.2-4.35S325.23,255.73,325.23,252.71Z"/><path class="cls-2" d="M268.56,284.05c0,3-3.2,4.35-3.2,4.35s3.2,1.33,3.2,4.35c0-3,3.2-4.35,3.2-4.35S268.56,287.07,268.56,284.05Z"/><path class="cls-2" d="M282.64,321.47c0,3-3.19,4.35-3.19,4.35s3.19,1.33,3.19,4.35c0-3,3.2-4.35,3.2-4.35S282.64,324.49,282.64,321.47Z"/><path class="cls-2" d="M324.9,384.51c0,3-3.2,4.35-3.2,4.35s3.2,1.33,3.2,4.35c0-3,3.2-4.35,3.2-4.35S324.9,387.54,324.9,384.51Z"/><path class="cls-2" d="M446.49,327.74c0,3-3.2,4.35-3.2,4.35s3.2,1.33,3.2,4.35c0-3,3.19-4.35,3.19-4.35S446.49,330.76,446.49,327.74Z"/><path class="cls-2" d="M225,811.39c0,3-3.2,4.35-3.2,4.35s3.2,1.33,3.2,4.35c0-3,3.19-4.35,3.19-4.35S225,814.41,225,811.39Z"/><line class="cls-3" x1="1033.03" y1="537.36" x2="1048.3" y2="537.28"/><line class="cls-3" x1="1033.09" y1="532.74" x2="1048.36" y2="532.52"/><line class="cls-3" x1="1032.82" y1="528.83" x2="1048.08" y2="528.49"/><line class="cls-3" x1="1032.87" y1="524.2" x2="1048.13" y2="523.72"/><line class="cls-3" x1="1032.6" y1="520.29" x2="1047.86" y2="519.69"/><line class="cls-3" x1="1032.66" y1="515.66" x2="1047.91" y2="514.92"/><line class="cls-3" x1="1032.24" y1="511.77" x2="1047.49" y2="510.9"/><line class="cls-3" x1="1032.06" y1="507.14" x2="1047.3" y2="506.14"/><line class="cls-3" x1="1031.59" y1="503.25" x2="1046.82" y2="502.13"/><line class="cls-3" x1="1031.41" y1="498.63" x2="1046.63" y2="497.36"/><line class="cls-3" x1="1030.94" y1="494.74" x2="1046.15" y2="493.36"/><line class="cls-3" x1="1030.77" y1="490.11" x2="1045.96" y2="488.59"/><line class="cls-3" x1="1030.13" y1="486.25" x2="1045.31" y2="484.6"/><line class="cls-3" x1="1029.71" y1="481.64" x2="1044.88" y2="479.85"/><line class="cls-3" x1="1029.05" y1="477.78" x2="1044.2" y2="475.87"/><line class="cls-3" x1="1028.64" y1="473.17" x2="1043.77" y2="471.12"/><line class="cls-3" x1="1027.98" y1="469.31" x2="1043.09" y2="467.14"/><line class="cls-3" x1="1027.55" y1="464.7" x2="1042.65" y2="462.39"/><line class="cls-3" x1="1026.69" y1="460.88" x2="1041.77" y2="458.44"/><line class="cls-3" x1="1026.05" y1="456.3" x2="1041.1" y2="453.72"/><line class="cls-3" x1="1025.19" y1="452.47" x2="1040.23" y2="449.78"/><line class="cls-3" x1="1024.55" y1="447.89" x2="1039.55" y2="445.05"/><line class="cls-3" x1="1023.69" y1="444.07" x2="1038.68" y2="441.12"/><line class="cls-3" x1="1022.99" y1="439.5" x2="1037.95" y2="436.4"/><line class="cls-3" x1="1021.95" y1="435.72" x2="1036.87" y2="432.5"/><line class="cls-3" x1="1021.07" y1="431.18" x2="1035.97" y2="427.82"/><line class="cls-3" x1="1020.03" y1="427.4" x2="1034.9" y2="423.93"/><line class="cls-3" x1="1019.15" y1="422.86" x2="1033.99" y2="419.24"/><line class="cls-3" x1="1018.11" y1="419.09" x2="1032.92" y2="415.35"/><line class="cls-3" x1="1017.12" y1="414.57" x2="1031.9" y2="410.69"/><line class="cls-3" x1="1015.89" y1="410.85" x2="1030.63" y2="406.86"/><line class="cls-3" x1="1014.79" y1="406.35" x2="1029.49" y2="402.22"/><line class="cls-3" x1="1013.56" y1="402.64" x2="1028.23" y2="398.39"/><line class="cls-3" x1="1012.46" y1="398.14" x2="1027.09" y2="393.75"/><line class="cls-3" x1="1011.23" y1="394.43" x2="1025.82" y2="389.92"/><line class="cls-3" x1="1009.96" y1="389.98" x2="1024.51" y2="385.34"/><line class="cls-3" x1="1008.54" y1="386.33" x2="1023.05" y2="381.57"/><line class="cls-3" x1="1007.22" y1="381.89" x2="1021.69" y2="377"/><line class="cls-3" x1="1005.81" y1="378.24" x2="1020.23" y2="373.23"/><line class="cls-3" x1="1004.49" y1="373.8" x2="1018.86" y2="368.66"/><line class="cls-3" x1="1003.06" y1="370.16" x2="1017.39" y2="364.9"/><line class="cls-3" x1="1001.52" y1="365.8" x2="1015.81" y2="360.41"/><line class="cls-3" x1="999.92" y1="362.22" x2="1014.17" y2="356.71"/><line class="cls-3" x1="998.39" y1="357.86" x2="1012.58" y2="352.21"/><line class="cls-3" x1="996.79" y1="354.28" x2="1010.94" y2="348.53"/><line class="cls-3" x1="995.26" y1="349.92" x2="1009.35" y2="344.03"/><line class="cls-3" x1="993.58" y1="346.38" x2="1007.62" y2="340.38"/><line class="cls-3" x1="991.83" y1="342.1" x2="1005.82" y2="335.96"/><line class="cls-3" x1="990.06" y1="338.6" x2="1004" y2="332.36"/><line class="cls-3" x1="988.31" y1="334.32" x2="1002.19" y2="327.94"/><line class="cls-3" x1="986.55" y1="330.82" x2="1000.37" y2="324.34"/><line class="cls-3" x1="984.8" y1="326.54" x2="998.56" y2="319.92"/><line class="cls-3" x1="982.88" y1="323.12" x2="996.59" y2="316.39"/><line class="cls-3" x1="980.92" y1="318.93" x2="994.57" y2="312.07"/><line class="cls-3" x1="978.98" y1="315.52" x2="992.58" y2="308.56"/><line class="cls-3" x1="977.03" y1="311.33" x2="990.55" y2="304.24"/><line class="cls-3" x1="975.09" y1="307.93" x2="988.56" y2="300.73"/><line class="cls-3" x1="973.08" y1="303.76" x2="986.48" y2="296.43"/><line class="cls-3" x1="970.98" y1="300.45" x2="984.32" y2="293.02"/><line class="cls-3" x1="968.82" y1="296.36" x2="982.09" y2="288.8"/><line class="cls-3" x1="966.73" y1="293.05" x2="979.94" y2="285.39"/><line class="cls-3" x1="964.57" y1="288.96" x2="977.71" y2="281.17"/><line class="cls-3" x1="962.47" y1="285.65" x2="975.55" y2="277.76"/><line class="cls-3" x1="960.18" y1="281.63" x2="973.18" y2="273.62"/><line class="cls-3" x1="957.93" y1="278.43" x2="970.86" y2="270.31"/><line class="cls-3" x1="955.57" y1="274.44" x2="968.44" y2="266.21"/><line class="cls-3" x1="953.32" y1="271.24" x2="966.11" y2="262.9"/><line class="cls-3" x1="950.97" y1="267.25" x2="963.68" y2="258.8"/><line class="cls-3" x1="948.7" y1="264.06" x2="961.35" y2="255.51"/><line class="cls-3" x1="946.16" y1="260.2" x2="958.73" y2="251.52"/><line class="cls-3" x1="943.75" y1="257.11" x2="956.25" y2="248.33"/><line class="cls-3" x1="941.21" y1="253.24" x2="953.63" y2="244.35"/><line class="cls-3" x1="938.81" y1="250.15" x2="951.15" y2="241.16"/><line class="cls-3" x1="936.26" y1="246.28" x2="948.53" y2="237.18"/><line class="cls-3" x1="933.78" y1="243.26" x2="945.96" y2="234.06"/><line class="cls-3" x1="931.05" y1="239.52" x2="943.16" y2="230.2"/><line class="cls-3" x1="928.5" y1="236.55" x2="940.53" y2="227.14"/><line class="cls-3" x1="925.78" y1="232.8" x2="937.72" y2="223.28"/><line class="cls-3" x1="923.23" y1="229.83" x2="935.09" y2="220.22"/><line class="cls-3" x1="920.49" y1="226.09" x2="932.27" y2="216.37"/><line class="cls-3" x1="917.8" y1="223.25" x2="929.5" y2="213.43"/><line class="cls-3" x1="914.9" y1="219.64" x2="926.51" y2="209.71"/><line class="cls-3" x1="912.21" y1="216.8" x2="923.74" y2="206.78"/><line class="cls-3" x1="909.31" y1="213.19" x2="920.74" y2="203.06"/><line class="cls-3" x1="906.62" y1="210.34" x2="917.97" y2="200.13"/><line class="cls-3" x1="903.64" y1="206.8" x2="914.9" y2="196.48"/><line class="cls-3" x1="900.82" y1="204.08" x2="911.99" y2="193.68"/><line class="cls-3" x1="897.75" y1="200.62" x2="908.83" y2="190.11"/><line class="cls-3" x1="894.93" y1="197.91" x2="905.92" y2="187.31"/><line class="cls-3" x1="891.86" y1="194.44" x2="902.75" y2="183.74"/><line class="cls-3" x1="889.04" y1="191.73" x2="899.85" y2="180.94"/><line class="cls-3" x1="885.83" y1="188.4" x2="896.54" y2="177.51"/><line class="cls-3" x1="882.88" y1="185.82" x2="893.5" y2="174.85"/><line class="cls-3" x1="879.65" y1="182.5" x2="890.17" y2="171.43"/><line class="cls-3" x1="876.7" y1="179.93" x2="887.13" y2="168.78"/><line class="cls-3" x1="873.47" y1="176.61" x2="883.79" y2="165.36"/><line class="cls-3" x1="870.47" y1="174.09" x2="880.71" y2="162.76"/><line class="cls-3" x1="867.09" y1="170.93" x2="877.22" y2="159.51"/><line class="cls-3" x1="864.02" y1="168.5" x2="874.06" y2="156.99"/><line class="cls-3" x1="860.64" y1="165.34" x2="870.57" y2="153.74"/><line class="cls-3" x1="857.57" y1="162.91" x2="867.41" y2="151.23"/><line class="cls-3" x1="854.18" y1="159.75" x2="863.92" y2="147.98"/><line class="cls-3" x1="851.01" y1="157.44" x2="860.65" y2="145.6"/><line class="cls-3" x1="847.48" y1="154.45" x2="857.01" y2="142.52"/><line class="cls-3" x1="844.3" y1="152.17" x2="853.74" y2="140.16"/><line class="cls-3" x1="840.77" y1="149.18" x2="850.09" y2="137.08"/><line class="cls-3" x1="837.59" y1="146.89" x2="846.82" y2="134.72"/><line class="cls-3" x1="834.02" y1="143.95" x2="843.13" y2="131.7"/><line class="cls-3" x1="830.73" y1="141.82" x2="839.74" y2="129.49"/><line class="cls-3" x1="827.06" y1="139" x2="835.96" y2="126.59"/><line class="cls-3" x1="823.77" y1="136.87" x2="832.57" y2="124.39"/><line class="cls-3" x1="820.1" y1="134.05" x2="828.78" y2="121.49"/><line class="cls-3" x1="816.82" y1="131.93" x2="825.4" y2="119.3"/><line class="cls-3" x1="813.05" y1="129.23" x2="821.52" y2="116.52"/><line class="cls-3" x1="809.67" y1="127.27" x2="818.03" y2="114.49"/><line class="cls-3" x1="805.86" y1="124.63" x2="814.11" y2="111.77"/><line class="cls-3" x1="802.48" y1="122.66" x2="810.62" y2="109.74"/><line class="cls-3" x1="798.68" y1="120.02" x2="806.7" y2="107.02"/><line class="cls-3" x1="795.28" y1="118.07" x2="803.2" y2="105.01"/><line class="cls-3" x1="791.36" y1="115.62" x2="799.16" y2="102.49"/><line class="cls-3" x1="787.88" y1="113.82" x2="795.57" y2="100.62"/><line class="cls-3" x1="783.96" y1="111.36" x2="791.52" y2="98.1"/><line class="cls-3" x1="780.48" y1="109.56" x2="787.94" y2="96.24"/><line class="cls-3" x1="776.56" y1="107.1" x2="783.89" y2="93.71"/><line class="cls-3" x1="773.03" y1="105.4" x2="780.26" y2="91.95"/><line class="cls-3" x1="769" y1="103.14" x2="776.1" y2="89.62"/><line class="cls-3" x1="765.43" y1="101.51" x2="772.43" y2="87.94"/><line class="cls-3" x1="761.4" y1="99.25" x2="768.26" y2="85.61"/><line class="cls-3" x1="757.84" y1="97.62" x2="764.59" y2="83.92"/><line class="cls-3" x1="753.8" y1="95.36" x2="760.42" y2="81.6"/><line class="cls-3" x1="750.16" y1="93.9" x2="756.68" y2="80.09"/><line class="cls-3" x1="746.02" y1="91.84" x2="752.4" y2="77.97"/><line class="cls-3" x1="742.38" y1="90.39" x2="748.66" y2="76.47"/><line class="cls-3" x1="738.24" y1="88.33" x2="744.38" y2="74.34"/><line class="cls-3" x1="734.6" y1="86.87" x2="740.64" y2="72.84"/><line class="cls-3" x1="730.42" y1="84.88" x2="736.32" y2="70.8"/><line class="cls-3" x1="726.72" y1="83.61" x2="732.51" y2="69.47"/><line class="cls-3" x1="722.48" y1="81.75" x2="728.13" y2="67.57"/><line class="cls-3" x1="718.78" y1="80.48" x2="724.32" y2="66.25"/><line class="cls-3" x1="714.54" y1="78.62" x2="719.94" y2="64.34"/><line class="cls-3" x1="710.84" y1="77.34" x2="716.13" y2="63.02"/><line class="cls-3" x1="706.54" y1="75.64" x2="711.7" y2="61.26"/><line class="cls-3" x1="702.78" y1="74.54" x2="707.82" y2="60.13"/><line class="cls-3" x1="698.45" y1="72.9" x2="703.36" y2="58.44"/><line class="cls-3" x1="694.69" y1="71.81" x2="699.48" y2="57.31"/><line class="cls-3" x1="690.37" y1="70.16" x2="695.02" y2="55.62"/><line class="cls-3" x1="686.61" y1="69.07" x2="691.14" y2="54.49"/><line class="cls-3" x1="682.21" y1="67.65" x2="686.61" y2="53.02"/><line class="cls-3" x1="678.4" y1="66.74" x2="682.68" y2="52.08"/><line class="cls-3" x1="674" y1="65.32" x2="678.14" y2="50.62"/><line class="cls-3" x1="670.19" y1="64.41" x2="674.21" y2="49.68"/><line class="cls-3" x1="665.78" y1="62.98" x2="669.67" y2="48.21"/><line class="cls-3" x1="661.96" y1="62.14" x2="665.73" y2="47.34"/><line class="cls-3" x1="657.5" y1="60.94" x2="661.12" y2="46.1"/><line class="cls-3" x1="653.65" y1="60.22" x2="657.15" y2="45.36"/><line class="cls-3" x1="649.18" y1="59.02" x2="652.55" y2="44.12"/><line class="cls-3" x1="645.33" y1="58.3" x2="648.58" y2="43.38"/><line class="cls-3" x1="640.86" y1="57.1" x2="643.97" y2="42.14"/><line class="cls-3" x1="636.99" y1="56.5" x2="639.98" y2="41.53"/><line class="cls-3" x1="632.47" y1="55.52" x2="635.32" y2="40.52"/><line class="cls-3" x1="628.59" y1="55" x2="631.31" y2="39.98"/><line class="cls-3" x1="624.06" y1="54.02" x2="626.65" y2="38.97"/><line class="cls-3" x1="620.18" y1="53.5" x2="622.65" y2="38.43"/><line class="cls-3" x1="615.66" y1="52.52" x2="617.98" y2="37.42"/><line class="cls-3" x1="611.76" y1="52.17" x2="613.96" y2="37.06"/><line class="cls-3" x1="607.19" y1="51.42" x2="609.25" y2="36.28"/><line class="cls-3" x1="603.29" y1="51.09" x2="605.23" y2="35.95"/><line class="cls-3" x1="598.72" y1="50.34" x2="600.52" y2="35.18"/><line class="cls-3" x1="594.82" y1="50.02" x2="596.5" y2="34.84"/><line class="cls-3" x1="590.25" y1="49.27" x2="591.79" y2="34.08"/><line class="cls-3" x1="586.33" y1="49.14" x2="587.75" y2="33.94"/><line class="cls-3" x1="581.73" y1="48.62" x2="583.01" y2="33.41"/><line class="cls-3" x1="577.82" y1="48.5" x2="578.98" y2="33.27"/><line class="cls-3" x1="573.22" y1="47.98" x2="574.23" y2="32.74"/><line class="cls-3" x1="569.31" y1="47.85" x2="570.2" y2="32.61"/><line class="cls-3" x1="564.7" y1="47.36" x2="565.45" y2="32.11"/><line class="cls-3" x1="560.78" y1="47.43" x2="561.42" y2="32.18"/><line class="cls-3" x1="556.16" y1="47.15" x2="556.66" y2="31.88"/><line class="cls-3" x1="552.25" y1="47.22" x2="552.62" y2="31.95"/><line class="cls-3" x1="547.63" y1="46.93" x2="547.86" y2="31.66"/><line class="cls-3" x1="543.71" y1="47" x2="543.83" y2="31.73"/><line class="cls-3" x1="540.04" y1="46.76" x2="540.01" y2="31.49"/><line class="cls-3" x1="535.18" y1="47.03" x2="535.03" y2="31.76"/><line class="cls-3" x1="530.55" y1="46.98" x2="530.26" y2="31.71"/><line class="cls-3" x1="526.64" y1="47.25" x2="526.23" y2="31.98"/><line class="cls-3" x1="522.01" y1="47.19" x2="521.46" y2="31.93"/><line class="cls-3" x1="518.11" y1="47.46" x2="517.44" y2="32.2"/><line class="cls-3" x1="513.48" y1="47.46" x2="512.67" y2="32.21"/><line class="cls-3" x1="509.58" y1="47.93" x2="508.66" y2="32.69"/><line class="cls-3" x1="504.96" y1="48.11" x2="503.89" y2="32.88"/><line class="cls-3" x1="501.07" y1="48.58" x2="499.88" y2="33.35"/><line class="cls-3" x1="496.45" y1="48.76" x2="495.11" y2="33.55"/><line class="cls-3" x1="492.56" y1="49.23" x2="491.11" y2="34.02"/><line class="cls-3" x1="487.94" y1="49.49" x2="486.35" y2="34.3"/><line class="cls-3" x1="484.08" y1="50.15" x2="482.36" y2="34.98"/><line class="cls-3" x1="479.47" y1="50.56" x2="477.61" y2="35.41"/><line class="cls-3" x1="475.61" y1="51.23" x2="473.63" y2="36.08"/><line class="cls-3" x1="471" y1="51.64" x2="468.88" y2="36.52"/><line class="cls-3" x1="467.14" y1="52.3" x2="464.9" y2="37.2"/><line class="cls-3" x1="462.54" y1="52.83" x2="460.17" y2="37.75"/><line class="cls-3" x1="458.72" y1="53.69" x2="456.22" y2="38.62"/><line class="cls-3" x1="454.14" y1="54.33" x2="451.5" y2="39.29"/><line class="cls-3" x1="450.32" y1="55.19" x2="447.56" y2="40.17"/><line class="cls-3" x1="445.73" y1="55.83" x2="442.83" y2="40.84"/><line class="cls-3" x1="441.92" y1="56.69" x2="438.89" y2="41.72"/><line class="cls-3" x1="437.36" y1="57.5" x2="434.2" y2="42.56"/><line class="cls-3" x1="433.59" y1="58.54" x2="430.31" y2="43.63"/><line class="cls-3" x1="429.04" y1="59.42" x2="425.62" y2="44.53"/><line class="cls-3" x1="425.27" y1="60.46" x2="421.73" y2="45.61"/><line class="cls-3" x1="420.72" y1="61.34" x2="417.04" y2="46.52"/><line class="cls-3" x1="416.95" y1="62.38" x2="413.15" y2="47.59"/><line class="cls-3" x1="412.46" y1="63.47" x2="408.52" y2="48.71"/><line class="cls-3" x1="408.74" y1="64.7" x2="404.68" y2="49.98"/><line class="cls-3" x1="404.25" y1="65.8" x2="400.05" y2="51.12"/><line class="cls-3" x1="400.53" y1="67.03" x2="396.22" y2="52.38"/><line class="cls-3" x1="396.03" y1="68.13" x2="391.58" y2="53.52"/><line class="cls-3" x1="392.33" y1="69.41" x2="387.77" y2="54.84"/><line class="cls-3" x1="387.9" y1="70.73" x2="383.2" y2="56.21"/><line class="cls-3" x1="384.25" y1="72.15" x2="379.43" y2="57.66"/><line class="cls-3" x1="379.82" y1="73.47" x2="374.86" y2="59.03"/><line class="cls-3" x1="376.17" y1="74.89" x2="371.09" y2="60.48"/><line class="cls-3" x1="371.73" y1="76.21" x2="366.52" y2="61.85"/><line class="cls-3" x1="368.12" y1="77.74" x2="362.8" y2="63.42"/><line class="cls-3" x1="363.76" y1="79.27" x2="358.3" y2="65.01"/><line class="cls-3" x1="360.18" y1="80.87" x2="354.61" y2="66.65"/><line class="cls-3" x1="355.82" y1="82.4" x2="350.11" y2="68.24"/><line class="cls-3" x1="352.24" y1="84" x2="346.42" y2="69.88"/><line class="cls-3" x1="347.88" y1="85.54" x2="341.93" y2="71.48"/><line class="cls-3" x1="344.38" y1="87.31" x2="338.32" y2="73.29"/><line class="cls-3" x1="340.1" y1="89.06" x2="333.9" y2="75.1"/><line class="cls-3" x1="336.6" y1="90.83" x2="330.3" y2="76.92"/><line class="cls-3" x1="332.32" y1="92.58" x2="325.88" y2="78.73"/><line class="cls-3" x1="328.83" y1="94.34" x2="322.28" y2="80.54"/><line class="cls-3" x1="324.57" y1="96.17" x2="317.9" y2="82.43"/><line class="cls-3" x1="321.17" y1="98.11" x2="314.38" y2="84.43"/><line class="cls-3" x1="316.97" y1="100.06" x2="310.06" y2="86.45"/><line class="cls-3" x1="313.57" y1="102" x2="306.55" y2="88.44"/><line class="cls-3" x1="309.37" y1="103.95" x2="302.22" y2="90.46"/><line class="cls-3" x1="305.97" y1="105.89" x2="298.72" y2="92.45"/><line class="cls-3" x1="301.86" y1="107.99" x2="294.47" y2="94.62"/><line class="cls-3" x1="298.55" y1="110.09" x2="291.06" y2="96.78"/><line class="cls-3" x1="294.45" y1="112.25" x2="286.84" y2="99.01"/><line class="cls-3" x1="291.15" y1="114.35" x2="283.43" y2="101.17"/><line class="cls-3" x1="287.05" y1="116.5" x2="279.21" y2="103.4"/><line class="cls-3" x1="283.76" y1="118.63" x2="275.82" y2="105.58"/><line class="cls-3" x1="279.78" y1="120.98" x2="271.71" y2="108.01"/><line class="cls-3" x1="276.58" y1="123.23" x2="268.41" y2="110.33"/><line class="cls-3" x1="272.59" y1="125.59" x2="264.3" y2="112.76"/><line class="cls-3" x1="269.39" y1="127.84" x2="261" y2="115.08"/><line class="cls-3" x1="265.4" y1="130.19" x2="256.89" y2="117.51"/><line class="cls-3" x1="262.27" y1="132.55" x2="253.66" y2="119.93"/><line class="cls-3" x1="258.4" y1="135.08" x2="249.68" y2="122.55"/><line class="cls-3" x1="255.31" y1="137.49" x2="246.49" y2="125.03"/><line class="cls-3" x1="251.45" y1="140.03" x2="242.5" y2="127.66"/><line class="cls-3" x1="248.36" y1="142.44" x2="239.32" y2="130.13"/><line class="cls-3" x1="244.5" y1="145" x2="235.34" y2="132.78"/><line class="cls-3" x1="241.53" y1="147.55" x2="232.27" y2="135.4"/><line class="cls-3" x1="237.78" y1="150.28" x2="228.42" y2="138.21"/><line class="cls-3" x1="234.81" y1="152.83" x2="225.35" y2="140.84"/><line class="cls-3" x1="231.07" y1="155.55" x2="221.5" y2="143.65"/><line class="cls-3" x1="228.1" y1="158.1" x2="218.44" y2="146.28"/><line class="cls-3" x1="224.43" y1="160.91" x2="214.65" y2="149.18"/><line class="cls-3" x1="221.58" y1="163.61" x2="211.71" y2="151.95"/><line class="cls-3" x1="217.97" y1="166.51" x2="208" y2="154.94"/><line class="cls-3" x1="215.13" y1="169.2" x2="205.06" y2="157.71"/><line class="cls-3" x1="211.52" y1="172.1" x2="201.34" y2="160.71"/><line class="cls-3" x1="208.67" y1="174.78" x2="198.41" y2="163.48"/><line class="cls-3" x1="205.2" y1="177.84" x2="194.83" y2="166.63"/><line class="cls-3" x1="202.49" y1="180.66" x2="192.03" y2="169.53"/><line class="cls-3" x1="199.02" y1="183.73" x2="188.46" y2="172.7"/><line class="cls-3" x1="196.31" y1="186.55" x2="185.66" y2="175.61"/><line class="cls-3" x1="192.84" y1="189.62" x2="182.09" y2="178.78"/><line class="cls-3" x1="190.18" y1="192.5" x2="179.35" y2="181.74"/><line class="cls-3" x1="186.87" y1="195.73" x2="175.94" y2="185.06"/><line class="cls-3" x1="184.29" y1="198.68" x2="173.28" y2="188.1"/><line class="cls-3" x1="180.98" y1="201.91" x2="169.86" y2="191.44"/><line class="cls-3" x1="178.4" y1="204.86" x2="167.2" y2="194.47"/><line class="cls-3" x1="175.08" y1="208.09" x2="163.79" y2="197.81"/><line class="cls-3" x1="172.64" y1="211.15" x2="161.26" y2="200.96"/><line class="cls-3" x1="169.48" y1="214.53" x2="158.01" y2="204.45"/><line class="cls-3" x1="167.05" y1="217.6" x2="155.5" y2="207.61"/><line class="cls-3" x1="163.89" y1="220.99" x2="152.25" y2="211.1"/><line class="cls-3" x1="161.46" y1="224.05" x2="149.74" y2="214.26"/><line class="cls-3" x1="158.35" y1="227.49" x2="146.54" y2="217.8"/><line class="cls-3" x1="156.07" y1="230.67" x2="144.18" y2="221.08"/><line class="cls-3" x1="153.08" y1="234.2" x2="141.1" y2="224.72"/><line class="cls-3" x1="150.8" y1="237.38" x2="138.75" y2="228"/><line class="cls-3" x1="147.8" y1="240.92" x2="135.67" y2="231.65"/><line class="cls-3" x1="145.52" y1="244.1" x2="133.31" y2="234.92"/><line class="cls-3" x1="142.66" y1="247.73" x2="130.37" y2="238.67"/><line class="cls-3" x1="140.53" y1="251.02" x2="128.17" y2="242.06"/><line class="cls-3" x1="137.71" y1="254.69" x2="125.26" y2="245.84"/><line class="cls-3" x1="135.58" y1="257.98" x2="123.07" y2="249.23"/><line class="cls-3" x1="132.76" y1="261.65" x2="120.16" y2="253.02"/><line class="cls-3" x1="130.66" y1="264.95" x2="118" y2="256.42"/><line class="cls-3" x1="128.03" y1="268.75" x2="115.28" y2="260.34"/><line class="cls-3" x1="126.06" y1="272.14" x2="113.25" y2="263.83"/><line class="cls-3" x1="123.42" y1="275.94" x2="110.53" y2="267.75"/><line class="cls-3" x1="121.45" y1="279.33" x2="108.5" y2="271.24"/><line class="cls-3" x1="118.81" y1="283.13" x2="105.78" y2="275.16"/><line class="cls-3" x1="116.95" y1="286.58" x2="103.86" y2="278.71"/><line class="cls-3" x1="114.5" y1="290.5" x2="101.33" y2="282.76"/><line class="cls-3" x1="112.7" y1="293.98" x2="99.47" y2="286.34"/><line class="cls-3" x1="110.24" y1="297.9" x2="96.95" y2="290.39"/><line class="cls-3" x1="108.44" y1="301.38" x2="95.09" y2="293.97"/><line class="cls-3" x1="106.01" y1="305.31" x2="92.58" y2="298.04"/><line class="cls-3" x1="104.37" y1="308.88" x2="90.89" y2="301.71"/><line class="cls-3" x1="102.11" y1="312.91" x2="88.56" y2="305.87"/><line class="cls-3" x1="100.48" y1="316.47" x2="86.88" y2="309.54"/><line class="cls-3" x1="98.22" y1="320.51" x2="84.55" y2="313.71"/><line class="cls-3" x1="96.59" y1="324.07" x2="82.87" y2="317.37"/><line class="cls-3" x1="94.42" y1="328.16" x2="80.64" y2="321.59"/><line class="cls-3" x1="92.97" y1="331.8" x2="79.13" y2="325.34"/><line class="cls-3" x1="90.91" y1="335.94" x2="77.01" y2="329.61"/><line class="cls-3" x1="89.45" y1="339.57" x2="75.5" y2="333.36"/><line class="cls-3" x1="87.39" y1="343.72" x2="73.38" y2="337.63"/><line class="cls-3" x1="85.94" y1="347.35" x2="71.88" y2="341.38"/><line class="cls-3" x1="84.05" y1="351.57" x2="69.94" y2="345.73"/><line class="cls-3" x1="82.77" y1="355.28" x2="68.61" y2="349.55"/><line class="cls-3" x1="80.91" y1="359.51" x2="66.7" y2="353.92"/><line class="cls-3" x1="79.64" y1="363.22" x2="65.38" y2="357.74"/><line class="cls-3" x1="77.78" y1="367.46" x2="63.48" y2="362.11"/><line class="cls-3" x1="76.54" y1="371.17" x2="62.19" y2="365.94"/><line class="cls-3" x1="74.9" y1="375.49" x2="60.5" y2="370.4"/><line class="cls-3" x1="73.81" y1="379.25" x2="59.37" y2="374.27"/><line class="cls-3" x1="72.16" y1="383.58" x2="57.68" y2="378.74"/><line class="cls-3" x1="71.07" y1="387.34" x2="56.55" y2="382.61"/><line class="cls-3" x1="69.42" y1="391.66" x2="54.86" y2="387.08"/><line class="cls-3" x1="68.44" y1="395.45" x2="53.83" y2="390.98"/><line class="cls-3" x1="67.01" y1="399.85" x2="52.37" y2="395.52"/><line class="cls-3" x1="66.11" y1="403.66" x2="51.43" y2="399.45"/><line class="cls-3" x1="64.68" y1="408.07" x2="49.96" y2="403.99"/><line class="cls-3" x1="63.77" y1="411.87" x2="49.02" y2="407.91"/><line class="cls-3" x1="62.34" y1="416.28" x2="47.56" y2="412.46"/><line class="cls-3" x1="61.61" y1="420.13" x2="46.79" y2="416.42"/><line class="cls-3" x1="60.4" y1="424.59" x2="45.55" y2="421.03"/><line class="cls-3" x1="59.69" y1="428.44" x2="44.81" y2="425"/><line class="cls-3" x1="58.48" y1="432.91" x2="43.57" y2="429.61"/><line class="cls-3" x1="57.77" y1="436.76" x2="42.83" y2="433.58"/><line class="cls-3" x1="56.59" y1="441.24" x2="41.63" y2="438.19"/><line class="cls-3" x1="56.07" y1="445.12" x2="41.08" y2="442.2"/><line class="cls-3" x1="55.09" y1="449.64" x2="40.08" y2="446.86"/><line class="cls-3" x1="54.57" y1="453.52" x2="39.54" y2="450.86"/><line class="cls-3" x1="53.59" y1="458.05" x2="38.53" y2="455.53"/><line class="cls-3" x1="53.07" y1="461.93" x2="37.99" y2="459.53"/><line class="cls-3" x1="52.17" y1="466.46" x2="37.06" y2="464.21"/><line class="cls-3" x1="51.84" y1="470.37" x2="36.72" y2="468.23"/><line class="cls-3" x1="51.09" y1="474.94" x2="35.95" y2="472.94"/><line class="cls-3" x1="50.77" y1="478.84" x2="35.61" y2="476.96"/><line class="cls-3" x1="50.02" y1="483.41" x2="34.84" y2="481.67"/><line class="cls-3" x1="49.69" y1="487.31" x2="34.51" y2="485.69"/><line class="cls-3" x1="49.05" y1="491.89" x2="33.85" y2="490.42"/><line class="cls-3" x1="48.93" y1="495.81" x2="33.72" y2="494.45"/><line class="cls-3" x1="48.41" y1="500.4" x2="33.19" y2="499.19"/><line class="cls-3" x1="48.28" y1="504.32" x2="33.05" y2="503.23"/><line class="cls-3" x1="47.76" y1="508.92" x2="32.52" y2="507.97"/><line class="cls-3" x1="47.63" y1="512.83" x2="32.38" y2="512"/><line class="cls-3" x1="47.25" y1="517.44" x2="32" y2="516.75"/><line class="cls-3" x1="47.33" y1="521.36" x2="32.07" y2="520.79"/><line class="cls-3" x1="47.04" y1="525.98" x2="31.77" y2="525.55"/><line class="cls-3" x1="47.11" y1="529.9" x2="31.84" y2="529.59"/><line class="cls-3" x1="46.82" y1="534.52" x2="31.55" y2="534.35"/><line class="cls-3" x1="46.89" y1="538.84" x2="31.62" y2="538.79"/><line class="cls-3" x1="46.76" y1="543.06" x2="31.49" y2="543.15"/><line class="cls-3" x1="47.03" y1="546.97" x2="31.76" y2="547.18"/><line class="cls-3" x1="46.98" y1="551.59" x2="31.71" y2="551.95"/><line class="cls-3" x1="47.25" y1="555.5" x2="31.98" y2="555.97"/><line class="cls-3" x1="47.19" y1="560.13" x2="31.93" y2="560.74"/><line class="cls-3" x1="47.46" y1="564.04" x2="32.21" y2="564.77"/><line class="cls-3" x1="47.57" y1="568.66" x2="32.32" y2="569.53"/><line class="cls-3" x1="48.04" y1="572.55" x2="32.8" y2="573.55"/><line class="cls-3" x1="48.22" y1="577.18" x2="32.99" y2="578.31"/><line class="cls-3" x1="48.69" y1="581.06" x2="33.47" y2="582.32"/><line class="cls-3" x1="48.87" y1="585.69" x2="33.66" y2="587.09"/><line class="cls-3" x1="49.33" y1="589.58" x2="34.14" y2="591.09"/><line class="cls-3" x1="49.7" y1="594.19" x2="34.52" y2="595.85"/><line class="cls-3" x1="50.37" y1="598.05" x2="35.2" y2="599.83"/><line class="cls-3" x1="50.78" y1="602.66" x2="35.63" y2="604.58"/><line class="cls-3" x1="51.44" y1="606.52" x2="36.31" y2="608.56"/><line class="cls-3" x1="51.85" y1="611.13" x2="36.74" y2="613.31"/><line class="cls-3" x1="52.52" y1="614.99" x2="37.42" y2="617.29"/><line class="cls-3" x1="53.15" y1="619.57" x2="38.08" y2="622.01"/><line class="cls-3" x1="54.01" y1="623.39" x2="38.96" y2="625.95"/><line class="cls-3" x1="54.65" y1="627.97" x2="39.63" y2="630.68"/><line class="cls-3" x1="55.51" y1="631.79" x2="40.5" y2="634.62"/><line class="cls-3" x1="56.15" y1="636.38" x2="41.17" y2="639.34"/><line class="cls-3" x1="57.05" y1="640.19" x2="42.09" y2="643.27"/><line class="cls-3" x1="57.92" y1="644.73" x2="43" y2="647.95"/><line class="cls-3" x1="58.97" y1="648.5" x2="44.07" y2="651.85"/><line class="cls-3" x1="59.84" y1="653.05" x2="44.97" y2="656.53"/><line class="cls-3" x1="60.89" y1="656.82" x2="46.05" y2="660.42"/><line class="cls-3" x1="61.76" y1="661.37" x2="46.96" y2="665.11"/><line class="cls-3" x1="62.9" y1="665.11" x2="48.12" y2="668.97"/><line class="cls-3" x1="64" y1="669.6" x2="49.26" y2="673.61"/><line class="cls-3" x1="65.23" y1="673.32" x2="50.53" y2="677.44"/><line class="cls-3" x1="66.33" y1="677.82" x2="51.66" y2="682.08"/><line class="cls-3" x1="67.56" y1="681.53" x2="52.93" y2="685.91"/><line class="cls-3" x1="68.66" y1="686.03" x2="54.07" y2="690.54"/><line class="cls-3" x1="70.04" y1="689.69" x2="55.49" y2="694.33"/><line class="cls-3" x1="71.36" y1="694.13" x2="56.86" y2="698.9"/><line class="cls-3" x1="72.78" y1="697.78" x2="58.31" y2="702.66"/><line class="cls-3" x1="74.1" y1="702.22" x2="59.68" y2="707.23"/><line class="cls-3" x1="75.52" y1="705.86" x2="61.13" y2="711"/><line class="cls-3" x1="76.87" y1="710.29" x2="62.54" y2="715.56"/><line class="cls-3" x1="78.46" y1="713.87" x2="64.17" y2="719.26"/><line class="cls-3" x1="80" y1="718.23" x2="65.76" y2="723.75"/><line class="cls-3" x1="81.6" y1="721.81" x2="67.4" y2="727.44"/><line class="cls-3" x1="83.13" y1="726.18" x2="68.99" y2="731.94"/><line class="cls-3" x1="84.73" y1="729.75" x2="70.63" y2="735.63"/><line class="cls-3" x1="86.36" y1="734.08" x2="72.33" y2="740.09"/><line class="cls-3" x1="88.13" y1="737.57" x2="74.14" y2="743.7"/><line class="cls-3" x1="89.88" y1="741.86" x2="75.95" y2="748.11"/><line class="cls-3" x1="91.65" y1="745.35" x2="77.77" y2="751.72"/><line class="cls-3" x1="93.4" y1="749.64" x2="79.58" y2="756.13"/><line class="cls-3" x1="95.16" y1="753.13" x2="81.4" y2="759.74"/><line class="cls-3" x1="97.09" y1="757.33" x2="83.38" y2="764.07"/><line class="cls-3" x1="99.02" y1="760.74" x2="85.37" y2="767.59"/><line class="cls-3" x1="100.98" y1="764.93" x2="87.39" y2="771.91"/><line class="cls-3" x1="102.91" y1="768.34" x2="89.39" y2="775.42"/><line class="cls-3" x1="104.87" y1="772.53" x2="91.41" y2="779.74"/><line class="cls-3" x1="106.85" y1="775.91" x2="93.44" y2="783.23"/><line class="cls-3" x1="109" y1="780" x2="95.67" y2="787.45"/><line class="cls-3" x1="111.1" y1="783.31" x2="97.83" y2="790.86"/><line class="cls-3" x1="113.26" y1="787.41" x2="100.05" y2="795.08"/><line class="cls-3" x1="115.36" y1="790.71" x2="102.21" y2="798.49"/><line class="cls-3" x1="117.51" y1="794.81" x2="104.44" y2="802.71"/><line class="cls-3" x1="119.72" y1="798.04" x2="106.72" y2="806.05"/><line class="cls-3" x1="122.07" y1="802.03" x2="109.14" y2="810.15"/><line class="cls-3" x1="124.33" y1="805.23" x2="111.47" y2="813.45"/><line class="cls-3" x1="126.68" y1="809.21" x2="113.9" y2="817.56"/><line class="cls-3" x1="128.94" y1="812.41" x2="116.22" y2="820.86"/><line class="cls-3" x1="131.32" y1="816.39" x2="118.68" y2="824.95"/><line class="cls-3" x1="133.73" y1="819.48" x2="121.15" y2="828.14"/><line class="cls-3" x1="136.27" y1="823.34" x2="123.78" y2="832.13"/><line class="cls-3" x1="138.68" y1="826.43" x2="126.25" y2="835.32"/><line class="cls-3" x1="141.22" y1="830.3" x2="128.88" y2="839.3"/><line class="cls-3" x1="143.62" y1="833.39" x2="131.35" y2="842.49"/><line class="cls-3" x1="146.26" y1="837.19" x2="134.08" y2="846.4"/><line class="cls-3" x1="148.82" y1="840.16" x2="136.71" y2="849.47"/><line class="cls-3" x1="151.54" y1="843.9" x2="139.52" y2="853.32"/><line class="cls-3" x1="154.09" y1="846.87" x2="142.15" y2="856.39"/><line class="cls-3" x1="156.82" y1="850.62" x2="144.96" y2="860.24"/><line class="cls-3" x1="159.36" y1="853.59" x2="147.58" y2="863.3"/><line class="cls-3" x1="162.26" y1="857.2" x2="150.57" y2="867.02"/><line class="cls-3" x1="164.95" y1="860.04" x2="153.34" y2="869.96"/><line class="cls-3" x1="167.85" y1="863.65" x2="156.33" y2="873.68"/><line class="cls-3" x1="170.54" y1="866.49" x2="159.1" y2="876.61"/><line class="cls-3" x1="173.44" y1="870.11" x2="162.09" y2="880.33"/><line class="cls-3" x1="176.19" y1="872.89" x2="164.93" y2="883.2"/><line class="cls-3" x1="179.26" y1="876.35" x2="168.09" y2="886.77"/><line class="cls-3" x1="182.08" y1="879.07" x2="171" y2="889.57"/><line class="cls-3" x1="185.15" y1="882.53" x2="174.16" y2="893.14"/><line class="cls-3" x1="187.97" y1="885.25" x2="177.07" y2="895.94"/><line class="cls-3" x1="191.04" y1="888.72" x2="180.24" y2="899.51"/><line class="cls-3" x1="193.99" y1="891.3" x2="183.27" y2="902.18"/><line class="cls-3" x1="197.22" y1="894.61" x2="186.6" y2="905.59"/><line class="cls-3" x1="200.17" y1="897.19" x2="189.64" y2="908.25"/><line class="cls-3" x1="203.4" y1="900.51" x2="192.97" y2="911.67"/><line class="cls-3" x1="206.35" y1="903.08" x2="196.01" y2="914.32"/><line class="cls-3" x1="209.63" y1="906.34" x2="199.4" y2="917.67"/><line class="cls-3" x1="212.71" y1="908.77" x2="202.57" y2="920.19"/><line class="cls-3" x1="216.09" y1="911.93" x2="206.06" y2="923.44"/><line class="cls-3" x1="219.16" y1="914.36" x2="209.22" y2="925.95"/><line class="cls-3" x1="222.54" y1="917.52" x2="212.71" y2="929.2"/><line class="cls-3" x1="225.61" y1="919.95" x2="215.87" y2="931.71"/><line class="cls-3" x1="229.11" y1="922.97" x2="219.48" y2="934.82"/><line class="cls-3" x1="232.3" y1="925.26" x2="222.76" y2="937.18"/><line class="cls-3" x1="235.83" y1="928.25" x2="226.4" y2="940.26"/><line class="cls-3" x1="239.01" y1="930.53" x2="229.68" y2="942.62"/><line class="cls-3" x1="242.54" y1="933.53" x2="233.32" y2="945.7"/><line class="cls-3" x1="245.75" y1="935.77" x2="236.63" y2="948.02"/><line class="cls-3" x1="249.42" y1="938.59" x2="240.41" y2="950.92"/><line class="cls-3" x1="252.71" y1="940.72" x2="243.8" y2="953.12"/><line class="cls-3" x1="256.38" y1="943.54" x2="247.58" y2="956.02"/><line class="cls-3" x1="259.66" y1="945.66" x2="250.97" y2="958.22"/><line class="cls-3" x1="263.33" y1="948.49" x2="254.76" y2="961.12"/><line class="cls-3" x1="266.7" y1="950.5" x2="258.22" y2="963.2"/><line class="cls-3" x1="270.5" y1="953.13" x2="262.14" y2="965.92"/><line class="cls-3" x1="273.88" y1="955.1" x2="265.63" y2="967.95"/><line class="cls-3" x1="277.68" y1="957.74" x2="269.55" y2="970.67"/><line class="cls-3" x1="281.07" y1="959.71" x2="273.04" y2="972.7"/><line class="cls-3" x1="284.89" y1="962.32" x2="276.98" y2="975.38"/><line class="cls-3" x1="288.37" y1="964.12" x2="280.57" y2="977.25"/><line class="cls-3" x1="292.29" y1="966.57" x2="284.61" y2="979.77"/><line class="cls-3" x1="295.77" y1="968.37" x2="288.2" y2="981.63"/><line class="cls-3" x1="299.7" y1="970.83" x2="292.25" y2="984.16"/><line class="cls-3" x1="303.17" y1="972.63" x2="295.83" y2="986.02"/><line class="cls-3" x1="307.16" y1="974.98" x2="299.94" y2="988.43"/><line class="cls-3" x1="310.72" y1="976.61" x2="303.61" y2="990.12"/><line class="cls-3" x1="314.76" y1="978.87" x2="307.77" y2="992.45"/><line class="cls-3" x1="318.32" y1="980.5" x2="311.44" y2="994.13"/><line class="cls-3" x1="322.36" y1="982.76" x2="315.61" y2="996.46"/><line class="cls-3" x1="325.91" y1="984.39" x2="319.28" y2="998.14"/><line class="cls-3" x1="330.05" y1="986.46" x2="323.54" y2="1000.28"/><line class="cls-3" x1="333.69" y1="987.92" x2="327.29" y2="1001.79"/><line class="cls-3" x1="337.83" y1="989.98" x2="331.56" y2="1003.91"/><line class="cls-3" x1="341.46" y1="991.43" x2="335.31" y2="1005.41"/><line class="cls-3" x1="345.61" y1="993.5" x2="339.59" y2="1007.53"/><line class="cls-3" x1="349.27" y1="994.89" x2="343.35" y2="1008.97"/><line class="cls-3" x1="353.5" y1="996.75" x2="347.72" y2="1010.88"/><line class="cls-3" x1="357.21" y1="998.02" x2="351.54" y2="1012.2"/><line class="cls-3" x1="361.45" y1="999.88" x2="355.91" y2="1014.11"/><line class="cls-3" x1="365.15" y1="1001.15" x2="359.73" y2="1015.43"/><line class="cls-3" x1="369.39" y1="1003.01" x2="364.11" y2="1017.34"/><line class="cls-3" x1="373.13" y1="1004.15" x2="367.97" y2="1018.52"/><line class="cls-3" x1="377.46" y1="1005.79" x2="372.43" y2="1020.21"/><line class="cls-3" x1="381.22" y1="1006.89" x2="376.3" y2="1021.34"/><line class="cls-3" x1="385.54" y1="1008.53" x2="380.77" y2="1023.04"/><line class="cls-3" x1="389.3" y1="1009.62" x2="384.64" y2="1024.16"/><line class="cls-3" x1="393.64" y1="1011.25" x2="389.11" y2="1025.84"/><line class="cls-3" x1="397.45" y1="1012.16" x2="393.04" y2="1026.78"/><line class="cls-3" x1="401.85" y1="1013.58" x2="397.58" y2="1028.24"/><line class="cls-3" x1="405.66" y1="1014.49" x2="401.51" y2="1029.18"/><line class="cls-3" x1="410.06" y1="1015.91" x2="406.05" y2="1030.65"/><line class="cls-3" x1="413.87" y1="1016.82" x2="409.98" y2="1031.58"/><line class="cls-3" x1="418.3" y1="1018.17" x2="414.54" y2="1032.97"/><line class="cls-3" x1="422.15" y1="1018.88" x2="418.51" y2="1033.71"/><line class="cls-3" x1="426.62" y1="1020.09" x2="423.12" y2="1034.95"/><line class="cls-3" x1="430.47" y1="1020.8" x2="427.09" y2="1035.69"/><line class="cls-3" x1="434.94" y1="1022.01" x2="431.7" y2="1036.93"/><line class="cls-3" x1="438.78" y1="1022.72" x2="435.66" y2="1037.67"/><line class="cls-3" x1="443.28" y1="1023.79" x2="440.31" y2="1038.77"/><line class="cls-3" x1="447.17" y1="1024.31" x2="444.31" y2="1039.31"/><line class="cls-3" x1="451.69" y1="1025.29" x2="448.97" y2="1040.32"/><line class="cls-3" x1="455.57" y1="1025.81" x2="452.97" y2="1040.86"/><line class="cls-3" x1="460.09" y1="1026.79" x2="457.64" y2="1041.87"/><line class="cls-3" x1="463.97" y1="1027.31" x2="461.64" y2="1042.4"/><line class="cls-3" x1="468.53" y1="1028.11" x2="466.33" y2="1043.22"/><line class="cls-3" x1="472.43" y1="1028.43" x2="470.36" y2="1043.56"/><line class="cls-3" x1="477" y1="1029.19" x2="475.07" y2="1044.33"/><line class="cls-3" x1="480.9" y1="1029.51" x2="479.09" y2="1044.67"/><line class="cls-3" x1="485.47" y1="1030.26" x2="483.8" y2="1045.44"/><line class="cls-3" x1="489.37" y1="1030.59" x2="487.82" y2="1045.78"/><line class="cls-3" x1="493.96" y1="1031.12" x2="492.56" y2="1046.32"/><line class="cls-3" x1="497.88" y1="1031.24" x2="496.59" y2="1046.46"/><line class="cls-3" x1="502.48" y1="1031.76" x2="501.33" y2="1046.99"/><line class="cls-3" x1="506.39" y1="1031.89" x2="505.37" y2="1047.13"/><line class="cls-3" x1="510.99" y1="1032.41" x2="510.11" y2="1047.66"/><line class="cls-3" x1="514.9" y1="1032.52" x2="514.14" y2="1047.77"/><line class="cls-3" x1="519.52" y1="1032.81" x2="518.9" y2="1048.07"/><line class="cls-3" x1="523.44" y1="1032.74" x2="522.94" y2="1048"/><line class="cls-3" x1="528.06" y1="1033.02" x2="527.7" y2="1048.29"/><line class="cls-3" x1="531.98" y1="1032.95" x2="531.73" y2="1048.22"/><line class="cls-3" x1="536.6" y1="1033.24" x2="536.49" y2="1048.51"/><line class="cls-3" x1="540.51" y1="1033.14" x2="540.53" y2="1048.41"/><line class="cls-3" x1="545.14" y1="1033.2" x2="545.29" y2="1048.47"/><line class="cls-3" x1="549.05" y1="1032.93" x2="549.32" y2="1048.19"/><line class="cls-3" x1="553.67" y1="1032.98" x2="554.09" y2="1048.24"/><line class="cls-3" x1="557.58" y1="1032.71" x2="558.12" y2="1047.97"/><line class="cls-3" x1="562.21" y1="1032.76" x2="562.89" y2="1048.02"/><line class="cls-3" x1="566.11" y1="1032.46" x2="566.91" y2="1047.71"/><line class="cls-3" x1="570.74" y1="1032.28" x2="571.67" y2="1047.52"/><line class="cls-3" x1="574.63" y1="1031.81" x2="575.68" y2="1047.04"/><line class="cls-3" x1="579.25" y1="1031.63" x2="580.45" y2="1046.85"/><line class="cls-3" x1="583.14" y1="1031.16" x2="584.46" y2="1046.37"/><line class="cls-3" x1="587.77" y1="1030.98" x2="589.23" y2="1046.18"/><line class="cls-3" x1="591.64" y1="1030.45" x2="593.23" y2="1045.64"/><line class="cls-3" x1="596.25" y1="1030.04" x2="597.97" y2="1045.21"/><line class="cls-3" x1="600.11" y1="1029.37" x2="601.96" y2="1044.53"/><line class="cls-3" x1="604.72" y1="1028.96" x2="606.71" y2="1044.1"/><line class="cls-3" x1="608.58" y1="1028.3" x2="610.69" y2="1043.42"/><line class="cls-3" x1="613.19" y1="1027.89" x2="615.44" y2="1042.99"/><line class="cls-3" x1="617.03" y1="1027.13" x2="619.4" y2="1042.21"/><line class="cls-3" x1="621.61" y1="1026.48" x2="624.12" y2="1041.54"/><line class="cls-3" x1="625.43" y1="1025.62" x2="628.06" y2="1040.67"/><line class="cls-3" x1="630.02" y1="1024.98" x2="632.79" y2="1040"/><line class="cls-3" x1="633.84" y1="1024.12" x2="636.73" y2="1039.12"/><line class="cls-3" x1="638.42" y1="1023.48" x2="641.45" y2="1038.45"/><line class="cls-3" x1="642.21" y1="1022.48" x2="645.36" y2="1037.42"/><line class="cls-3" x1="646.75" y1="1021.61" x2="650.04" y2="1036.52"/><line class="cls-3" x1="650.53" y1="1020.56" x2="653.94" y2="1035.45"/><line class="cls-3" x1="655.07" y1="1019.69" x2="658.62" y2="1034.54"/><line class="cls-3" x1="658.84" y1="1018.64" x2="662.51" y2="1033.46"/><line class="cls-3" x1="663.39" y1="1017.76" x2="667.2" y2="1032.55"/><line class="cls-3" x1="667.11" y1="1016.53" x2="671.04" y2="1031.28"/><line class="cls-3" x1="671.6" y1="1015.43" x2="675.67" y2="1030.15"/><line class="cls-3" x1="675.32" y1="1014.19" x2="679.5" y2="1028.88"/><line class="cls-3" x1="679.82" y1="1013.1" x2="684.14" y2="1027.74"/><line class="cls-3" x1="683.53" y1="1011.86" x2="687.97" y2="1026.48"/><line class="cls-3" x1="688.01" y1="1010.7" x2="692.59" y2="1025.27"/><line class="cls-3" x1="691.66" y1="1009.28" x2="696.36" y2="1023.81"/><line class="cls-3" x1="696.09" y1="1007.96" x2="700.93" y2="1022.45"/><line class="cls-3" x1="699.75" y1="1006.54" x2="704.69" y2="1020.99"/><line class="cls-3" x1="704.18" y1="1005.22" x2="709.27" y2="1019.62"/><line class="cls-3" x1="707.83" y1="1003.81" x2="713.03" y2="1018.17"/><line class="cls-3" x1="712.22" y1="1002.36" x2="717.56" y2="1016.67"/><line class="cls-3" x1="715.8" y1="1000.76" x2="721.25" y2="1015.03"/><line class="cls-3" x1="720.16" y1="999.22" x2="725.75" y2="1013.44"/><line class="cls-3" x1="723.74" y1="997.63" x2="729.44" y2="1011.8"/><line class="cls-3" x1="728.11" y1="996.09" x2="733.94" y2="1010.21"/><line class="cls-3" x1="731.68" y1="994.5" x2="737.62" y2="1008.57"/><line class="cls-3" x1="735.97" y1="992.76" x2="742.04" y2="1006.78"/><line class="cls-3" x1="739.46" y1="991" x2="745.65" y2="1004.96"/><line class="cls-3" x1="743.75" y1="989.25" x2="750.06" y2="1003.15"/><line class="cls-3" x1="747.24" y1="987.48" x2="753.67" y2="1001.33"/><line class="cls-3" x1="751.53" y1="985.73" x2="758.09" y2="999.52"/><line class="cls-3" x1="754.99" y1="983.9" x2="761.66" y2="997.64"/><line class="cls-3" x1="759.18" y1="981.95" x2="765.98" y2="995.62"/><line class="cls-3" x1="762.59" y1="980.01" x2="769.49" y2="993.63"/><line class="cls-3" x1="766.78" y1="978.06" x2="773.81" y2="991.61"/><line class="cls-3" x1="770.18" y1="976.12" x2="777.32" y2="989.62"/><line class="cls-3" x1="774.38" y1="974.17" x2="781.65" y2="987.6"/><line class="cls-3" x1="777.71" y1="972.1" x2="785.08" y2="985.47"/><line class="cls-3" x1="781.8" y1="969.94" x2="789.3" y2="983.25"/><line class="cls-3" x1="785.11" y1="967.84" x2="792.71" y2="981.09"/><line class="cls-3" x1="789.2" y1="965.69" x2="796.93" y2="978.86"/><line class="cls-3" x1="792.51" y1="963.59" x2="800.34" y2="976.7"/><line class="cls-3" x1="796.58" y1="961.39" x2="804.54" y2="974.43"/><line class="cls-3" x1="799.78" y1="959.13" x2="807.84" y2="972.11"/><line class="cls-3" x1="803.77" y1="956.78" x2="811.95" y2="969.68"/><line class="cls-3" x1="806.97" y1="954.53" x2="815.25" y2="967.36"/><line class="cls-3" x1="810.96" y1="952.17" x2="819.36" y2="964.93"/><line class="cls-3" x1="814.16" y1="949.92" x2="822.66" y2="962.61"/><line class="cls-3" x1="818.07" y1="947.45" x2="826.69" y2="960.06"/><line class="cls-3" x1="821.16" y1="945.04" x2="829.88" y2="957.58"/><line class="cls-3" x1="825.03" y1="942.5" x2="833.87" y2="954.96"/><line class="cls-3" x1="828.12" y1="940.1" x2="837.05" y2="952.48"/><line class="cls-3" x1="831.99" y1="937.56" x2="841.04" y2="949.86"/><line class="cls-3" x1="835.07" y1="935.15" x2="844.22" y2="947.38"/><line class="cls-3" x1="838.81" y1="932.43" x2="848.07" y2="944.57"/><line class="cls-3" x1="841.78" y1="929.87" x2="851.14" y2="941.94"/><line class="cls-3" x1="845.53" y1="927.15" x2="855" y2="939.13"/><line class="cls-3" x1="848.5" y1="924.6" x2="858.06" y2="936.5"/><line class="cls-3" x1="852.24" y1="921.87" x2="861.92" y2="933.69"/><line class="cls-3" x1="855.15" y1="919.25" x2="864.92" y2="930.99"/><line class="cls-3" x1="858.75" y1="916.35" x2="868.63" y2="928"/><line class="cls-3" x1="861.6" y1="913.66" x2="871.57" y2="925.23"/><line class="cls-3" x1="865.21" y1="910.76" x2="875.28" y2="922.24"/><line class="cls-3" x1="868.05" y1="908.07" x2="878.22" y2="919.47"/><line class="cls-3" x1="871.66" y1="905.17" x2="881.94" y2="916.47"/><line class="cls-3" x1="874.38" y1="902.35" x2="884.74" y2="913.56"/><line class="cls-3" x1="877.84" y1="899.28" x2="888.31" y2="910.4"/><line class="cls-3" x1="880.56" y1="896.45" x2="891.11" y2="907.49"/><line class="cls-3" x1="884.02" y1="893.39" x2="894.68" y2="904.33"/><line class="cls-3" x1="886.74" y1="890.56" x2="897.48" y2="901.42"/><line class="cls-3" x1="890.14" y1="887.43" x2="900.98" y2="898.18"/><line class="cls-3" x1="892.72" y1="884.47" x2="903.64" y2="895.14"/><line class="cls-3" x1="896.03" y1="881.25" x2="907.06" y2="891.81"/><line class="cls-3" x1="898.61" y1="878.3" x2="909.72" y2="888.78"/><line class="cls-3" x1="901.93" y1="875.07" x2="913.13" y2="885.44"/><line class="cls-3" x1="904.5" y1="872.12" x2="915.79" y2="882.41"/><line class="cls-3" x1="907.68" y1="868.76" x2="919.06" y2="878.94"/><line class="cls-3" x1="910.11" y1="865.69" x2="921.57" y2="875.78"/><line class="cls-3" x1="913.27" y1="862.3" x2="924.83" y2="872.29"/><line class="cls-3" x1="915.7" y1="859.24" x2="927.34" y2="869.13"/><line class="cls-3" x1="918.86" y1="855.85" x2="930.59" y2="865.63"/><line class="cls-3" x1="921.25" y1="852.75" x2="933.05" y2="862.44"/><line class="cls-3" x1="924.24" y1="849.22" x2="936.13" y2="858.8"/><line class="cls-3" x1="926.52" y1="846.03" x2="938.49" y2="855.52"/><line class="cls-3" x1="929.51" y1="842.5" x2="941.57" y2="851.88"/><line class="cls-3" x1="931.8" y1="839.32" x2="943.93" y2="848.6"/><line class="cls-3" x1="934.79" y1="835.79" x2="947.01" y2="844.96"/><line class="cls-3" x1="936.95" y1="832.52" x2="949.24" y2="841.59"/><line class="cls-3" x1="939.77" y1="828.85" x2="952.14" y2="837.81"/><line class="cls-3" x1="941.9" y1="825.56" x2="954.34" y2="834.42"/><line class="cls-3" x1="944.72" y1="821.89" x2="957.24" y2="830.63"/><line class="cls-3" x1="946.85" y1="818.61" x2="959.44" y2="827.25"/><line class="cls-3" x1="949.62" y1="814.91" x2="962.3" y2="823.43"/><line class="cls-3" x1="951.59" y1="811.52" x2="964.33" y2="819.94"/><line class="cls-3" x1="954.23" y1="807.72" x2="967.05" y2="816.02"/><line class="cls-3" x1="956.2" y1="804.33" x2="969.08" y2="812.53"/><line class="cls-3" x1="958.84" y1="800.53" x2="971.8" y2="808.61"/><line class="cls-3" x1="960.81" y1="797.15" x2="973.83" y2="805.12"/><line class="cls-3" x1="963.33" y1="793.27" x2="976.43" y2="801.12"/><line class="cls-3" x1="965.13" y1="789.79" x2="978.29" y2="797.53"/><line class="cls-3" x1="967.58" y1="785.86" x2="980.81" y2="793.49"/><line class="cls-3" x1="969.38" y1="782.39" x2="982.68" y2="789.91"/><line class="cls-3" x1="971.84" y1="778.46" x2="985.2" y2="785.86"/><line class="cls-3" x1="973.64" y1="774.99" x2="987.06" y2="782.27"/><line class="cls-3" x1="975.89" y1="770.95" x2="989.38" y2="778.11"/><line class="cls-3" x1="977.53" y1="767.39" x2="991.07" y2="774.44"/><line class="cls-3" x1="979.79" y1="763.35" x2="993.4" y2="770.28"/><line class="cls-3" x1="981.42" y1="759.79" x2="995.08" y2="766.61"/><line class="cls-3" x1="983.68" y1="755.75" x2="997.41" y2="762.44"/><line class="cls-3" x1="985.23" y1="752.16" x2="999.01" y2="758.73"/><line class="cls-3" x1="987.29" y1="748.01" x2="1001.13" y2="754.46"/><line class="cls-3" x1="988.74" y1="744.38" x2="1002.64" y2="750.72"/><line class="cls-3" x1="990.8" y1="740.24" x2="1004.76" y2="746.44"/><line class="cls-3" x1="992.26" y1="736.6" x2="1006.26" y2="742.7"/><line class="cls-3" x1="994.32" y1="732.46" x2="1008.38" y2="738.42"/><line class="cls-3" x1="995.62" y1="728.76" x2="1009.73" y2="734.61"/><line class="cls-3" x1="997.47" y1="724.52" x2="1011.63" y2="730.24"/><line class="cls-3" x1="998.75" y1="720.82" x2="1012.96" y2="726.42"/><line class="cls-3" x1="1000.61" y1="716.58" x2="1014.86" y2="722.05"/><line class="cls-3" x1="1001.88" y1="712.88" x2="1016.18" y2="718.23"/><line class="cls-3" x1="1003.69" y1="708.62" x2="1018.04" y2="713.84"/><line class="cls-3" x1="1004.78" y1="704.85" x2="1019.17" y2="709.96"/><line class="cls-3" x1="1006.42" y1="700.53" x2="1020.86" y2="705.5"/><line class="cls-3" x1="1007.52" y1="696.77" x2="1022" y2="701.62"/><line class="cls-3" x1="1009.16" y1="692.44" x2="1023.69" y2="697.16"/><line class="cls-3" x1="1010.25" y1="688.69" x2="1024.81" y2="693.28"/><line class="cls-3" x1="1011.78" y1="684.32" x2="1026.38" y2="688.78"/><line class="cls-3" x1="1012.68" y1="680.51" x2="1027.32" y2="684.85"/><line class="cls-3" x1="1014.11" y1="676.1" x2="1028.79" y2="680.31"/><line class="cls-3" x1="1015.01" y1="672.3" x2="1029.73" y2="676.38"/><line class="cls-3" x1="1016.44" y1="667.89" x2="1031.19" y2="671.84"/><line class="cls-3" x1="1017.35" y1="664.09" x2="1032.13" y2="667.92"/><line class="cls-3" x1="1018.59" y1="659.63" x2="1033.41" y2="663.32"/><line class="cls-3" x1="1019.31" y1="655.78" x2="1034.15" y2="659.35"/><line class="cls-3" x1="1020.51" y1="651.31" x2="1035.39" y2="654.74"/><line class="cls-3" x1="1021.22" y1="647.46" x2="1036.13" y2="650.78"/><line class="cls-3" x1="1022.43" y1="642.99" x2="1037.37" y2="646.17"/><line class="cls-3" x1="1023.13" y1="639.14" x2="1038.1" y2="642.2"/><line class="cls-3" x1="1024.11" y1="634.62" x2="1039.1" y2="637.54"/><line class="cls-3" x1="1024.63" y1="630.74" x2="1039.64" y2="633.53"/><line class="cls-3" x1="1025.61" y1="626.22" x2="1040.65" y2="628.87"/><line class="cls-3" x1="1026.13" y1="622.34" x2="1041.19" y2="624.87"/><line class="cls-3" x1="1027.11" y1="617.81" x2="1042.2" y2="620.2"/><line class="cls-3" x1="1027.57" y1="613.93" x2="1042.67" y2="616.2"/><line class="cls-3" x1="1028.32" y1="609.36" x2="1043.45" y2="611.49"/><line class="cls-3" x1="1028.65" y1="605.46" x2="1043.79" y2="607.47"/><line class="cls-3" x1="1029.4" y1="600.89" x2="1044.56" y2="602.76"/><line class="cls-3" x1="1029.72" y1="596.99" x2="1044.89" y2="598.74"/><line class="cls-3" x1="1030.48" y1="592.42" x2="1045.66" y2="594.03"/><line class="cls-3" x1="1030.7" y1="588.51" x2="1045.9" y2="590"/><line class="cls-3" x1="1031.22" y1="583.92" x2="1046.43" y2="585.26"/><line class="cls-3" x1="1031.35" y1="580" x2="1046.57" y2="581.22"/><line class="cls-3" x1="1031.87" y1="575.4" x2="1047.1" y2="576.48"/><line class="cls-3" x1="1032" y1="571.49" x2="1047.24" y2="572.45"/><line class="cls-3" x1="1032.52" y1="566.89" x2="1047.77" y2="567.71"/><line class="cls-3" x1="1032.52" y1="562.97" x2="1047.78" y2="563.67"/><line class="cls-3" x1="1032.81" y1="558.35" x2="1048.07" y2="558.91"/><line class="cls-3" x1="1032.74" y1="554.44" x2="1048" y2="554.87"/><line class="cls-3" x1="1033.02" y1="549.82" x2="1048.29" y2="550.11"/><line class="cls-3" x1="1032.95" y1="545.9" x2="1048.22" y2="546.08"/><line class="cls-3" x1="1033.24" y1="541.28" x2="1048.51" y2="541.31"/></g></g></svg>