<svg id="圖層_1" data-name="圖層 1" xmlns="http://www.w3.org/2000/svg" viewBox="0 0 500 455.39"><defs><style>.cls-1,.cls-2,.cls-3,.cls-5,.cls-7{fill:none;}.cls-1,.cls-2{stroke:#d2bb87;stroke-linecap:round;stroke-linejoin:round;}.cls-1{stroke-width:0.98px;}.cls-3,.cls-5,.cls-7{stroke:#c8b17d;stroke-miterlimit:10;}.cls-3{stroke-width:1.5px;}.cls-4{fill:#c8b17d;}.cls-5{stroke-width:0.68px;}.cls-6{fill:#fff;}.cls-7{stroke-width:1.82px;}</style></defs><path class="cls-1" d="M362.48,414.38a14.4,14.4,0,0,1-11.15-11.51,26.26,26.26,0,0,0-1.24-4.73h0a25.78,25.78,0,0,0-1.24,4.74,14.42,14.42,0,0,1-11.19,11.52l-2.39.52a23.9,23.9,0,0,0,3.1,1,14.42,14.42,0,0,1,10.54,11.4,25.43,25.43,0,0,0,1.18,4.41h0a25.43,25.43,0,0,0,1.18-4.41,14.42,14.42,0,0,1,10.54-11.4,24.4,24.4,0,0,0,3.1-1Z"/><path class="cls-2" d="M439,82.48a11.57,11.57,0,0,1-9-9.24,20.69,20.69,0,0,0-1-3.8h0a20.69,20.69,0,0,0-1,3.8,11.58,11.58,0,0,1-9,9.26l-1.91.42a18.57,18.57,0,0,0,2.49.78,11.56,11.56,0,0,1,8.46,9.16A20,20,0,0,0,429,96.4h0a20,20,0,0,0,1-3.54,11.57,11.57,0,0,1,8.47-9.16,18.89,18.89,0,0,0,2.48-.78Z"/><path class="cls-2" d="M73.5,60.42a10.08,10.08,0,0,1-7.8-8.05,18.21,18.21,0,0,0-.87-3.31h0A18.15,18.15,0,0,0,64,52.38a10.07,10.07,0,0,1-7.83,8l-1.67.37a17.21,17.21,0,0,0,2.17.68,10.09,10.09,0,0,1,7.37,8,19,19,0,0,0,.82,3.08h0a18,18,0,0,0,.83-3.08,10.08,10.08,0,0,1,7.37-8,17.74,17.74,0,0,0,2.17-.68Z"/><path class="cls-3" d="M119.1,258.89c-6.16-.71-10.12,25.29-11.81,36.48S99.37,326,90.16,325.59c-4.6-.21-9-8.75-12.26-17.22,7.7-6.59,17.26-16.83,11.81-19.63a4.8,4.8,0,0,0-1-.4c-2.86-.78-7.23,0-12,1.63-1.32.44-2.68.93-4,1.47l1.23-18.5s.59-1.6,1.5-4c8.34-5.47,19-15,16.48-20a3.44,3.44,0,0,0-2.88-1.57,18.24,18.24,0,0,0-5.33.35l.2-.47c2.73-6.16,3.27-22.35-1-22.89s-21.34,28.92-21.34,28.92l-1,2.61c-8.08,3.89-28.72,14.47-32.18,22.54-4.35,10.2,1.44,33.73,1.44,33.73l-.58,10.76c-.56,10.74,3.78,20.43,12.88,40.24s6.45,63.09,6.45,63.09,10,7.33,27,7.16a41.94,41.94,0,0,0,27.27-10.08L101.61,402s2.88-2,12.13-15.08,6.8-37.19,7.16-46.67,4.31-17.55,6.17-32.64S125.26,259.59,119.1,258.89Zm-69.6,24.4,3.83-2.1-1,17.33-.49,3c-1.57.88-2.5,1.43-2.5,1.43Z"/><path class="cls-4" d="M89.71,288.74a6.63,6.63,0,0,1-2.25,1c-1.6.45-12.52,4.05-10.84.27,4.82-1.59,9.19-2.41,12-1.63A4.8,4.8,0,0,1,89.71,288.74Z"/><path class="cls-4" d="M49.41,355.32A74,74,0,0,1,58,346.65,37.61,37.61,0,0,1,63,343a26.29,26.29,0,0,1,5.63-2.48,240.58,240.58,0,0,1,23.33-7c2-.45,4-.85,6-1.11a26.45,26.45,0,0,1,3.1-.23,12.59,12.59,0,0,1,1.61.12,6.58,6.58,0,0,1,.83.19,3.9,3.9,0,0,1,.82.4,3.25,3.25,0,0,1,1.22,1.37,3.6,3.6,0,0,1,.29,1.78,8,8,0,0,1-1,3.12,21.25,21.25,0,0,1-3.83,4.93A30.2,30.2,0,0,1,96.12,348a24.89,24.89,0,0,1-2.72,1.52l-2.72,1.32c-3.61,1.8-7.17,3.73-10.6,5.8h0l.16-.14L64.13,374.3l-.89-.79,15.89-18,.07-.08.09-.06h0c3.52-2.1,7.1-4,10.76-5.78l2.75-1.31a26.05,26.05,0,0,0,2.59-1.42,29,29,0,0,0,4.67-3.66,20.17,20.17,0,0,0,3.64-4.58,6.82,6.82,0,0,0,.87-2.61,2.06,2.06,0,0,0-.94-2.06,5.13,5.13,0,0,0-2.6-.54,24.67,24.67,0,0,0-3,.2c-2,.24-4,.61-5.92,1a237.81,237.81,0,0,0-23.28,6.75,25.23,25.23,0,0,0-5.48,2.35,37.13,37.13,0,0,0-4.88,3.5A74.69,74.69,0,0,0,50,355.78Z"/><path class="cls-3" d="M57.43,347.66s-3-11.42-3.67-11.65"/><path class="cls-4" d="M52.45,332.18a35.39,35.39,0,0,1,2.78-7A15.28,15.28,0,0,1,57.41,322a16,16,0,0,1,3.06-2.28c4.21-2.71,8.39-5.46,12.43-8.4a100,100,0,0,0,11.5-9.5,35,35,0,0,0,4.73-5.63,12.56,12.56,0,0,0,1.54-3.2,5.73,5.73,0,0,0,.14-3.27h0l.09.2a2.8,2.8,0,0,0-.63-.58,5.13,5.13,0,0,0-.85-.5,7.54,7.54,0,0,0-2-.56,14,14,0,0,0-4.28.12,36,36,0,0,0-8.41,2.81q-8.27,3.67-16.43,7.59c-5.42,2.63-10.84,5.29-16.06,8.3-1.29.76-2.57,1.55-3.8,2.41A11.45,11.45,0,0,0,36.81,311a19,19,0,0,0-1.3,1.81c-1.67,2.5-3.24,5.08-4.76,7.68l-.34-.18c1.49-2.64,3-5.24,4.66-7.79a18,18,0,0,1,1.31-1.87,11.06,11.06,0,0,1,1.74-1.56c1.23-.89,2.51-1.71,3.81-2.5,5.2-3.1,10.58-5.85,16-8.57s10.85-5.32,16.34-7.85a36.41,36.41,0,0,1,8.67-3,15.26,15.26,0,0,1,4.73-.2,6.73,6.73,0,0,1,4.5,2.23l.07.08,0,.12h0a7.19,7.19,0,0,1-.21,4.12A13.62,13.62,0,0,1,90.26,297a35.84,35.84,0,0,1-5,5.76,103.24,103.24,0,0,1-11.81,9.41c-4.11,2.87-8.36,5.55-12.62,8.18a15.6,15.6,0,0,0-3,2.14,14.17,14.17,0,0,0-2.15,3,33.82,33.82,0,0,0-2.86,6.86Z"/><path class="cls-4" d="M55.43,257.77c2.31-1.29,4.68-2.43,7.07-3.52s4.83-2.11,7.3-3,5-1.79,7.52-2.47a44.78,44.78,0,0,1,7.78-1.52l.06.38-1.89.51c-.63.17-1.25.39-1.87.57-1.25.37-2.49.78-3.72,1.22-2.47.85-4.91,1.78-7.35,2.71s-4.86,1.92-7.29,2.88l-7.29,2.94Z"/><path class="cls-4" d="M52.18,281.67c1.9-1.28,3.86-2.46,5.83-3.63s4-2.3,5.94-3.42,4-2.21,6-3.26l3-1.58,3-1.54.28.41c-1.87,1.38-3.82,2.57-5.77,3.78s-3.92,2.35-5.91,3.49-4,2.24-6,3.29-4.06,2.11-6.15,3.06Z"/><path class="cls-3" d="M83.64,353.73S98.57,368,93.29,388.58c0,0-2.46,9.83-5.06,14.94"/><path class="cls-4" d="M111.37,335.32a9.06,9.06,0,0,1,1.82.51,14.48,14.48,0,0,1,1.7.77,11.9,11.9,0,0,1,1.58,1,7.49,7.49,0,0,1,1.39,1.37,7,7,0,0,1-1.93-.31,12.51,12.51,0,0,1-1.73-.7,14.37,14.37,0,0,1-1.62-.92,9.7,9.7,0,0,1-1.48-1.18Z"/><path class="cls-4" d="M100.67,342.94c1.4.32,2.73.72,4.06,1.16s2.64.94,3.93,1.49a28.82,28.82,0,0,1,7.18,4.32l-.32.4a27.92,27.92,0,0,0-7.24-3.78c-1.28-.47-2.59-.88-3.91-1.23s-2.66-.67-4-.89Z"/><path class="cls-4" d="M94.66,336l5.61-1a8,8,0,0,0,2.64-.79,1,1,0,0,0,.56-.65.77.77,0,0,0-.54-.78,2.33,2.33,0,0,0-1-.06c-2.87.28-6.23.13-9,.91-.78.22-2.12.78-1.66,1.82S93.85,336.18,94.66,336Z"/><path class="cls-4" d="M88.91,247.38a1.44,1.44,0,0,1-.16.33,4.48,4.48,0,0,1-2.92,1.43l-7.6,1.55c-.67.12-3.33.82-3-.41a1,1,0,0,1,.4-.46C80.48,248.24,85.68,247,88.91,247.38Z"/><path class="cls-4" d="M64.58,414.42a7.77,7.77,0,0,1-5.5-14.53,7.68,7.68,0,0,1,3.49-.47,7.76,7.76,0,0,0,4.93,13A7.72,7.72,0,0,1,64.58,414.42Z"/><polygon class="cls-5" points="54.14 386.26 61.97 385.84 58.43 393.04 54.14 386.26"/><polygon class="cls-5" points="79.56 428.59 71.73 429.01 75.27 421.81 79.56 428.59"/><path class="cls-3" d="M101.93,407.84l0,.38c2.15-.15,3.79-.19,5-.17,3.72.05,4.08.63,4.11.78.28,1.61-14,6-35,9.68S40.3,423,40,421.41c-.13-.76,3-2.16,8.67-3.79v-.42c-5.62,1.63-9.24,3.17-9,4.27.12.72,1.82,1,4.6,1.09,6.7.1,19.68-1.51,32-3.68,17.42-3.08,35.7-7.68,35.27-10.11C111.32,407.76,108.1,407.45,101.93,407.84Z"/><path class="cls-4" d="M292,338.69l1.37.21a38,38,0,0,1,16.42,6.94,52.51,52.51,0,0,1,19.07,24.83,35,35,0,0,1,2.06,8.63,22,22,0,0,1,0,2.43c-1.42.83-2.72,1.62-4.06,2.35a119.32,119.32,0,0,1-19.43,8.31,165.62,165.62,0,0,1-31.67,7,199.73,199.73,0,0,1-34.48,1.33c-21.55-1-42.54-4.92-62.7-12.79-3.39-1.32-6.68-2.9-10-4.39a17.61,17.61,0,0,1-1.73-1c.05-1,0-1.88.14-2.78a43.3,43.3,0,0,1,6.27-17.57,51.43,51.43,0,0,1,19.28-18.87A34.57,34.57,0,0,1,205.09,339a7.21,7.21,0,0,0,.79-.22c-.6-.25-.95-.41-1.32-.55a62.9,62.9,0,0,1-11-5.16,34.69,34.69,0,0,1-7.25-5.62,18.91,18.91,0,0,1-5.19-9.34,9.24,9.24,0,0,1,1.71-8.21,1,1,0,0,0,.13-.31c-23-16.35-38.42-38-45.68-65.35a114.39,114.39,0,0,1,30.83-110.82A114.39,114.39,0,0,1,361.9,225.69C358.47,260.52,342.09,288.1,314,309c.12.15.26.33.41.5A7.87,7.87,0,0,1,316.5,314a13,13,0,0,1-1,6.4,21.1,21.1,0,0,1-5.46,7.8,42.56,42.56,0,0,1-11,7.19c-2,.94-4.07,1.74-6.1,2.6l-1,.43Zm68.48-123.6A112.43,112.43,0,1,0,248.06,327.78,112.35,112.35,0,0,0,360.44,215.09ZM329.55,380.72c-.08-.51-.12-.92-.2-1.32-.23-1.13-.43-2.28-.71-3.4a50.22,50.22,0,0,0-14.19-23.95A42,42,0,0,0,297,341.57a24.92,24.92,0,0,0-11.91-.8c-1.81.35-3.59.81-5.38,1.2a11.35,11.35,0,0,1-1.91.31c-.68,0-.83-.16-1.08-1.11a14.56,14.56,0,0,1,1.63-.65c2.14-.59,4.29-1.1,6.42-1.7a78,78,0,0,0,16.14-6.32A36.34,36.34,0,0,0,309.8,326a17.64,17.64,0,0,0,4.78-8.43,8.48,8.48,0,0,0-.28-5.22,4.6,4.6,0,0,0-1.89-2.42,112.9,112.9,0,0,1-63.81,19.88c-23.24.13-44.6-6.42-64.15-19.23a16.3,16.3,0,0,0-1.1,1.65,7.62,7.62,0,0,0-.66,4.68,16.41,16.41,0,0,0,3.31,7.49,26.1,26.1,0,0,0,5.56,5.24,49.35,49.35,0,0,0,10.1,5.54A119.15,119.15,0,0,0,233.4,343c3.95.48,7.94.7,11.91,1,.52.05,1,.17,1.46.24.24.59,0,.86-.32,1a5.34,5.34,0,0,1-1.3.21c-1.5,0-3,0-4.5-.09a132.24,132.24,0,0,1-25.71-4,26.09,26.09,0,0,0-13.53.15,40.64,40.64,0,0,0-16.52,9.26,50,50,0,0,0-16.14,27.45c-.26,1.19-.41,2.4-.62,3.63.6.29,1.07.55,1.56.77a181,181,0,0,0,20.27,7.6,208.2,208.2,0,0,0,73.51,8.55,179.56,179.56,0,0,0,30.61-4.43,129.44,129.44,0,0,0,34.63-13.19C329,381.09,329.23,380.92,329.55,380.72Z"/><path class="cls-4" d="M157,171.37c.38.68.05,1.15-.1,1.6-1,2.87-2.06,5.7-3,8.59a101,101,0,0,0-4.41,37.23A104.37,104.37,0,0,0,172.34,278,92.72,92.72,0,0,0,209,306.21a79.45,79.45,0,0,0,16.37,5,2.32,2.32,0,0,1,.59.15.85.85,0,0,1,.59,1.05.83.83,0,0,1-.9.67,4.12,4.12,0,0,1-.91-.15,91.39,91.39,0,0,1-47-26.14,107.17,107.17,0,0,1-30-78.87A94.34,94.34,0,0,1,155,175c.42-1,.9-1.91,1.38-2.85A5,5,0,0,1,157,171.37Z"/><path class="cls-4" d="M182.4,268.2c.89,0,1.1.56,1.4.94,1.71,2.12,3.32,4.33,5.12,6.37a78.11,78.11,0,0,0,30.18,21,87.2,87.2,0,0,0,37.21,6.18,75.23,75.23,0,0,0,17.11-2.81l.1,0c.86-.25,1.38-.08,1.53.48s-.21.92-1.12,1.17a83,83,0,0,1-22.11,3,87.85,87.85,0,0,1-44.08-11.56A71,71,0,0,1,185.1,273c-.84-1.16-1.57-2.39-2.32-3.61A6,6,0,0,1,182.4,268.2Z"/><path class="cls-4" d="M252.06,116.71c.58,0,1.18-.07,1.78,0a71.31,71.31,0,0,1,11.74,1.52c19.7,4.09,36.55,13.49,50.88,27.49a108.76,108.76,0,0,1,22.62,31.93c.22.46.43.92.61,1.4a.76.76,0,0,1-.5,1.13c-.7,0-.85-.6-1.1-1.07-1.66-3.16-3.19-6.4-5-9.48a105.75,105.75,0,0,0-44-41.72,96.82,96.82,0,0,0-32.7-9.83c-1.18-.14-2.37-.26-3.55-.44C252.42,117.55,251.84,117.55,252.06,116.71Z"/><path class="cls-4" d="M213.54,264.37a8.29,8.29,0,0,1,1.2.36c2,.87,4,1.82,6,2.65a73.72,73.72,0,0,0,20.9,4.92,90,90,0,0,0,15.31.18,77.23,77.23,0,0,0,14.48-2.41,9.71,9.71,0,0,1,1.3-.28.77.77,0,0,1,.88.54.78.78,0,0,1-.46,1,9.22,9.22,0,0,1-1.25.43,79.87,79.87,0,0,1-14.89,2.5,87.3,87.3,0,0,1-23.49-1.35A58.7,58.7,0,0,1,218.28,268c-1.36-.69-2.64-1.54-3.93-2.36a6.73,6.73,0,0,1-1-.93Z"/><path class="cls-4" d="M277.56,268.67a3.53,3.53,0,0,1,.77-.67c1.4-.69,2.82-1.33,4.24-2,.7-.31,1.24-.22,1.44.21s0,.93-.65,1.32A15.46,15.46,0,0,1,279,269.4C278.15,269.59,278,269.51,277.56,268.67Z"/><path class="cls-6" d="M203.88,385.7a3.37,3.37,0,0,1-3.07,3.22,2.8,2.8,0,0,1-2.91-2.66,3.24,3.24,0,0,1,3-3.33A2.92,2.92,0,0,1,203.88,385.7Z"/><path class="cls-6" d="M186.14,377.55a2.58,2.58,0,1,1,.07-5.16,2.58,2.58,0,0,1-.07,5.16Z"/><path class="cls-6" d="M267.55,351.84A2.7,2.7,0,0,1,270,349.1a2.34,2.34,0,0,1,2.37,2.3,2.72,2.72,0,0,1-2.48,2.75A2.4,2.4,0,0,1,267.55,351.84Z"/><path class="cls-6" d="M212.46,349.16a2.3,2.3,0,0,1,2.3-2.35,2.66,2.66,0,0,1,2.6,2.51,2.35,2.35,0,0,1-2.34,2.33A2.54,2.54,0,0,1,212.46,349.16Z"/><path class="cls-6" d="M235.57,354.71A2.3,2.3,0,0,1,238,357a2.43,2.43,0,0,1-2.33,2.38,2.57,2.57,0,0,1-2.56-2.41A2.25,2.25,0,0,1,235.57,354.71Z"/><path class="cls-6" d="M282.18,380.61a2.57,2.57,0,0,1,2.34,2.63,2.19,2.19,0,0,1-2.25,2.16,2.45,2.45,0,0,1-2.51-2.32A2.63,2.63,0,0,1,282.18,380.61Z"/><path class="cls-6" d="M236.58,390.77a2.38,2.38,0,0,1,2.35,2.34,2.23,2.23,0,0,1-2.08,2.33,2.49,2.49,0,0,1-2.54-2.27A2.36,2.36,0,0,1,236.58,390.77Z"/><path class="cls-6" d="M293.62,384.89a2.19,2.19,0,1,1,4.38,0,2.19,2.19,0,1,1-4.38,0Z"/><path class="cls-6" d="M311.35,358a2.34,2.34,0,0,1,2.25,2.41,2,2,0,0,1-2.06,2,2.53,2.53,0,0,1-2.39-2.45A2,2,0,0,1,311.35,358Z"/><path class="cls-6" d="M268.5,390.81a1.91,1.91,0,0,1-1.95,2,2.24,2.24,0,0,1-2.3-2.34,2.1,2.1,0,0,1,2.08-2.08A2.33,2.33,0,0,1,268.5,390.81Z"/><path class="cls-6" d="M262.7,366.91a2.09,2.09,0,0,1-1.91,2.23,2.27,2.27,0,0,1-2.18-2.36,2.05,2.05,0,0,1,2-2A2.12,2.12,0,0,1,262.7,366.91Z"/><path class="cls-6" d="M220.82,370.09a2,2,0,0,1-2,2.11,2.2,2.2,0,0,1-2.3-2.09,2.12,2.12,0,0,1,2.16-2.11A2.09,2.09,0,0,1,220.82,370.09Z"/><path class="cls-6" d="M193.52,354.28a1.86,1.86,0,0,1,1.91-1.94,2.24,2.24,0,0,1,2.12,2.2,1.85,1.85,0,0,1-1.88,1.89A2.2,2.2,0,0,1,193.52,354.28Z"/><path class="cls-6" d="M232.83,384.21a1.92,1.92,0,0,1-2,1.92,2,2,0,0,1-2-2,1.93,1.93,0,0,1,1.83-2.05A2.2,2.2,0,0,1,232.83,384.21Z"/><path class="cls-6" d="M317.6,377.39a2,2,0,0,1-1.94-2.05,1.93,1.93,0,0,1,2-1.78,2.07,2.07,0,0,1,1.83,2.08A1.79,1.79,0,0,1,317.6,377.39Z"/><path class="cls-6" d="M313.42,381.06A2,2,0,0,1,315.3,383a1.74,1.74,0,0,1-1.73,1.76,1.93,1.93,0,0,1-1.87-1.91A1.72,1.72,0,0,1,313.42,381.06Z"/><path class="cls-6" d="M284.75,372.38a1.78,1.78,0,0,1-1.68,1.82,1.49,1.49,0,0,1-1.51-1.57,1.66,1.66,0,0,1,1.53-1.82A1.61,1.61,0,0,1,284.75,372.38Z"/><path class="cls-6" d="M288.4,351.66a1.45,1.45,0,0,1-1.45-1.51,1.71,1.71,0,0,1,1.67-1.59A1.42,1.42,0,0,1,290,350,1.59,1.59,0,0,1,288.4,351.66Z"/><path class="cls-6" d="M255.63,356.35a1.5,1.5,0,0,1,1.49,1.59,1.47,1.47,0,0,1-1.55,1.41,1.49,1.49,0,0,1-1.5-1.58A1.51,1.51,0,0,1,255.63,356.35Z"/><path class="cls-6" d="M236.07,369.8a1.43,1.43,0,0,1-1.5,1.46,1.45,1.45,0,0,1-1.54-1.43c0-.86.53-1.4,1.49-1.43A1.4,1.4,0,0,1,236.07,369.8Z"/><path class="cls-6" d="M280.07,360a1.46,1.46,0,0,1-1.41,1.46,1.5,1.5,0,0,1-1.47-1.62,1.36,1.36,0,0,1,1.45-1.38A1.47,1.47,0,0,1,280.07,360Z"/><path class="cls-6" d="M199.55,369.21a1.51,1.51,0,0,1-1.44-1.55,1.45,1.45,0,0,1,1.55-1.42,1.49,1.49,0,0,1-.11,3Z"/><path class="cls-6" d="M301.16,368.05a1.39,1.39,0,0,1,1.46,1.37,1.42,1.42,0,0,1-1.37,1.37,1.37,1.37,0,0,1-1.38-1.34A1.29,1.29,0,0,1,301.16,368.05Z"/><path class="cls-6" d="M253.35,369a1.41,1.41,0,0,1-1.38,1.35,1.34,1.34,0,0,1-1.32-1.38,1.31,1.31,0,0,1,1.44-1.25A1.21,1.21,0,0,1,253.35,369Z"/><path class="cls-6" d="M217.09,386.8a1.35,1.35,0,1,1-1.34,1.35A1.34,1.34,0,0,1,217.09,386.8Z"/><path class="cls-6" d="M295.3,360.24a1.28,1.28,0,0,1-1.33,1.25,1.31,1.31,0,1,1,.09-2.61A1.33,1.33,0,0,1,295.3,360.24Z"/><path class="cls-6" d="M268.47,385.6a1.29,1.29,0,0,1,1.33-1.25,1.32,1.32,0,0,1,1.26,1.33,1.26,1.26,0,0,1-1.33,1.24A1.28,1.28,0,0,1,268.47,385.6Z"/><path class="cls-6" d="M246.55,384.38a1.23,1.23,0,0,1-1.19,1.27,1.2,1.2,0,0,1-1.23-1.22,1.24,1.24,0,0,1,1.25-1.31A1.18,1.18,0,0,1,246.55,384.38Z"/><path class="cls-6" d="M212,378.49a1.08,1.08,0,0,1-1.18-1.11,1.2,1.2,0,0,1,1.05-1.28,1.3,1.3,0,0,1,1.33,1.15A1.2,1.2,0,0,1,212,378.49Z"/><path class="cls-6" d="M269.65,376a1.09,1.09,0,0,1,1.13-1.15,1.17,1.17,0,1,1,0,2.34A1.18,1.18,0,0,1,269.65,376Z"/><path class="cls-6" d="M308.26,377.79a1.17,1.17,0,0,1-1.14,1.19,1.06,1.06,0,0,1-1.08-1.1,1.14,1.14,0,0,1,1.12-1.2A1.12,1.12,0,0,1,308.26,377.79Z"/><path class="cls-6" d="M218.09,356.84a1.13,1.13,0,1,1,0,2.26A1.05,1.05,0,0,1,217,358,1.09,1.09,0,0,1,218.09,356.84Z"/><path class="cls-6" d="M206.5,357.65a1.07,1.07,0,0,1-1.09-1.1,1,1,0,0,1,1.05-1.12,1.24,1.24,0,0,1,1.11,1.23A1,1,0,0,1,206.5,357.65Z"/><path class="cls-6" d="M253.32,393.72a1.09,1.09,0,0,1-1.06,1.14,1.07,1.07,0,1,1,0-2.14A1,1,0,0,1,253.32,393.72Z"/><path class="cls-6" d="M297,355.53a1.07,1.07,0,1,1,1.11-1A1.08,1.08,0,0,1,297,355.53Z"/><path class="cls-6" d="M294.06,375.21a1,1,0,1,1,.07-2.07,1,1,0,0,1,1,1.12A1,1,0,0,1,294.06,375.21Z"/><path class="cls-6" d="M256.83,378.77a1,1,0,0,1-1-1,1,1,0,1,1,2.09,0A1,1,0,0,1,256.83,378.77Z"/><path class="cls-6" d="M256.94,386.22a.93.93,0,0,1,.84,1,1,1,0,0,1-.95,1,.92.92,0,0,1-.83-1.06A.93.93,0,0,1,256.94,386.22Z"/><path class="cls-6" d="M242.6,375.81c.76.45,1,.77.81,1.26a.83.83,0,0,1-.91.65.86.86,0,0,1-.83-.76C241.58,376.41,241.76,376.17,242.6,375.81Z"/><path class="cls-4" d="M235.63,196.64c-.59-2.26-1.19-4.5-1.76-6.74l-7.62-30.21a9.67,9.67,0,0,1-.29-1.4,9.82,9.82,0,0,1,0-1.2c.67.09.76.53.87.89.45,1.39.9,2.78,1.28,4.2q4.45,16.51,8.9,33c.1.39.21.77.3,1.07l11.91-1.16c0-.49,0-1.06,0-1.62q-.49-19.62-1-39.24c-.06-2.15,0-4.29,0-6.44a9,9,0,0,1,.17-1.28c.6-.3.88-.12,1,.32a5.93,5.93,0,0,1,.15,1.11c.15,3.1.32,6.2.41,9.29.29,10.29.54,20.58.81,30.86q.08,3.12.16,6.24c0,.26.05.53.08.93A73.77,73.77,0,0,1,264.56,197c.14-.43.27-.8.37-1.18q4-15.26,8-30.53c.49-1.84,1.06-3.66,1.61-5.48.12-.41.22-.86.74-1a1.66,1.66,0,0,1,.12,1.58c-.79,3.45-1.56,6.91-2.41,10.35-2.13,8.56-4.3,17.11-6.45,25.66-.07.3-.13.6-.22,1,1.83.58,3.64,1.11,5.42,1.74s3.5,1.34,5.35,2.06c.2-.32.42-.65.61-1l14.33-25.35c.56-1,1.16-1.93,1.77-2.87a5.73,5.73,0,0,1,.78-.78,1.32,1.32,0,0,1-.12,1.47c-.85,1.7-1.7,3.41-2.61,5.09q-6.27,11.59-12.58,23.17c-.18.32-.34.65-.48.92l10.46,6.38c.15-.18.42-.47.66-.77q11.47-14.72,23-29.41c1.33-1.69,2.71-3.33,4.09-5,.3-.36.59-.87,1.27-.68a1.62,1.62,0,0,1-.49,1.3c-1.16,1.64-2.32,3.29-3.54,4.88q-11.39,14.91-22.79,29.79l-.76,1c2.53,2.4,5,4.73,7.52,7.13l1.09-.82q10.08-7.84,20.16-15.7c.72-.56,1.49-1.07,2.25-1.59.47-.32.48-.3,1.13-.2.09.54-.33.79-.65,1.06-1.41,1.23-2.83,2.46-4.29,3.63Q309,209.94,300.11,217l-.95.77c.27.36.5.68.75,1a54.79,54.79,0,0,1,7.91,13.07,2.28,2.28,0,0,1-.3,2.53A54.59,54.59,0,0,1,295,246.17a74,74,0,0,1-25.31,11.09,89.7,89.7,0,0,1-26,2.35,87.83,87.83,0,0,1-38.24-10.67,73.37,73.37,0,0,1-13.86-10.07,3.05,3.05,0,0,1-.95-3.77,58.69,58.69,0,0,1,10.65-18.26l.84-1-1-.81-18.64-14.65c-1.07-.85-2.1-1.74-3.12-2.65a6,6,0,0,1-.71-.91c.61-.41,1-.08,1.33.16,1.25.88,2.52,1.75,3.73,2.68q9.28,7.14,18.54,14.3l.85.63,7.84-6.91c-.24-.33-.51-.68-.77-1q-12-15.55-24.08-31.13c-.85-1.1-1.65-2.25-2.45-3.39a9.63,9.63,0,0,1-.56-1.16.9.9,0,0,1,1.17.37c.6.65,1.19,1.32,1.74,2L209,202.18c1,1.26,2,2.53,3,3.79.19.24.39.46.54.63l10.71-6c-.17-.32-.37-.7-.58-1.08q-7.26-13.22-14.5-26.43c-.41-.74-.78-1.51-1.13-2.28a5.74,5.74,0,0,1-.25-1l.23-.15a2.77,2.77,0,0,1,.62.5c.43.61.85,1.24,1.22,1.89l15.41,26.85.64,1.08Zm69.87,34.55.18-.15c-.19-.38-.37-.77-.58-1.15a59.62,59.62,0,0,0-29.76-27.44,63.82,63.82,0,0,0-31.26-5,61.75,61.75,0,0,0-28.4,9.5,56.19,56.19,0,0,0-22.25,26.24c-.18.42-.33.86-.55,1.46a5.64,5.64,0,0,0,.57-.24c.9-.6,1.79-1.24,2.72-1.82a75.68,75.68,0,0,1,18.65-8.19,124.36,124.36,0,0,1,31.3-5,137.5,137.5,0,0,1,35.33,3.15A89.64,89.64,0,0,1,305,231,3.17,3.17,0,0,0,305.5,231.19Zm-27-7.52a28.64,28.64,0,0,1-3.08,14.86A28.55,28.55,0,0,1,251,254a27.38,27.38,0,0,1-18-5.85c-7.71-6-11.29-14-11.23-23.78-.4.07-.7.1-1,.18a92.85,92.85,0,0,0-15.59,5.18,58,58,0,0,0-11.67,6.7c-.29.22-.55.47-.82.69a3.55,3.55,0,0,0,.24.36c.36.36.73.72,1.1,1.06a65.27,65.27,0,0,0,10.52,7.75,85,85,0,0,0,38.62,11.47,88.41,88.41,0,0,0,20.16-1.05,78,78,0,0,0,25.22-8.59,57.5,57.5,0,0,0,16.82-13.77c.25-.31.48-.63.77-1A99.14,99.14,0,0,0,278.54,223.67Zm-54.68.18a26.09,26.09,0,0,0,13,24.67A26.56,26.56,0,0,0,267.2,246a25.85,25.85,0,0,0,8.5-13.07,24.46,24.46,0,0,0,.9-9.6c-3.57-.67-7.06-1.19-10.68-1.52a7.9,7.9,0,0,0,.1.9,15.81,15.81,0,0,1,.14,6.39,15.85,15.85,0,1,1-31.12-6c.07-.32.08-.64.14-1.08A109,109,0,0,0,223.86,223.85Zm13.46-2.1c-1.65,3.63-1.2,10.93,4.42,15.42a14.26,14.26,0,0,0,17.77,0,13.83,13.83,0,0,0,4.26-15.59A141.66,141.66,0,0,0,237.32,221.75Z"/><path class="cls-6" d="M305.5,231.19l.18-.15c-.19-.38-.37-.77-.58-1.15a59.62,59.62,0,0,0-29.76-27.44,63.82,63.82,0,0,0-31.26-5,61.75,61.75,0,0,0-28.4,9.5,56.19,56.19,0,0,0-22.25,26.24c-.18.42-.33.86-.55,1.46a5.64,5.64,0,0,0,.57-.24c.9-.6,1.79-1.24,2.72-1.82a75.68,75.68,0,0,1,18.65-8.19,124.36,124.36,0,0,1,31.3-5,137.5,137.5,0,0,1,35.33,3.15A89.64,89.64,0,0,1,305,231,3.17,3.17,0,0,0,305.5,231.19Z"/><line class="cls-7" x1="69.29" y1="165.22" x2="122.17" y2="177.68"/><line class="cls-7" x1="90.46" y1="113.11" x2="137.11" y2="139.17"/><line class="cls-7" x1="128.83" y1="71.82" x2="162.77" y2="111.19"/><line class="cls-7" x1="187.02" y1="41.69" x2="202.37" y2="90.01"/><line class="cls-7" x1="334.7" y1="49.08" x2="306.82" y2="92.55"/><line class="cls-7" x1="384.93" y1="82.92" x2="344.65" y2="117.14"/><line class="cls-7" x1="417.09" y1="128.23" x2="366.54" y2="147.54"/><line class="cls-7" x1="429.02" y1="176.71" x2="375.14" y2="185.24"/><line class="cls-7" x1="257.57" y1="30.8" x2="256.6" y2="81.21"/><path class="cls-3" d="M371.24,307.63c1.86,15.09,5.8,23.16,6.17,32.64s-2.08,33.63,7.16,46.67S396.71,402,396.71,402l-1.21,21.32a41.89,41.89,0,0,0,27.26,10.08c17.08.17,27-7.16,27-7.16s-2.65-43.27,6.45-63.09,13.44-29.5,12.88-40.24l-.58-10.76s5.79-23.53,1.44-33.73c-3.45-8.07-24.1-18.65-32.18-22.54l-1-2.61s-17.1-29.45-21.34-28.92-3.7,16.73-1,22.89c.07.14.14.31.21.47a18.31,18.31,0,0,0-5.34-.35,3.42,3.42,0,0,0-2.87,1.57c-2.56,5,8.13,14.51,16.47,20,.91,2.41,1.5,4,1.5,4l1.24,18.5c-1.37-.54-2.73-1-4.05-1.47-4.82-1.59-9.19-2.41-12.05-1.63a4.8,4.8,0,0,0-1,.4c-5.45,2.8,4.11,13,11.81,19.63-3.25,8.47-7.65,17-12.26,17.22-9.21.43-15.43-19-17.12-30.22s-5.66-37.19-11.82-36.48S369.37,292.55,371.24,307.63Zm77.7-4.7s-.92-.55-2.5-1.43l-.49-3-1-17.33,3.83,2.1Z"/><path class="cls-4" d="M408.6,288.74a6.72,6.72,0,0,0,2.25,1c1.6.45,12.52,4.05,10.84.27-4.82-1.59-9.19-2.41-12.05-1.63A4.8,4.8,0,0,0,408.6,288.74Z"/><path class="cls-4" d="M448.34,355.78a73.89,73.89,0,0,0-8.55-8.51,37.71,37.71,0,0,0-4.87-3.5,25.31,25.31,0,0,0-5.49-2.35,238.43,238.43,0,0,0-23.27-6.75c-2-.43-4-.8-5.93-1a24.64,24.64,0,0,0-3-.2,5.14,5.14,0,0,0-2.61.54,2.06,2.06,0,0,0-.94,2.06,6.82,6.82,0,0,0,.87,2.61,19.94,19.94,0,0,0,3.65,4.58,28.9,28.9,0,0,0,4.66,3.66,26.05,26.05,0,0,0,2.59,1.42l2.75,1.31c3.66,1.79,7.25,3.68,10.77,5.78h0l.09.06.07.08,15.89,18-.89.79-16.11-17.77.16.14h0c-3.42-2.07-7-4-10.6-5.8l-2.72-1.32a24.89,24.89,0,0,1-2.72-1.52,29.69,29.69,0,0,1-4.85-3.86,21.29,21.29,0,0,1-3.84-4.93,8,8,0,0,1-1-3.12,3.6,3.6,0,0,1,.29-1.78A3.25,3.25,0,0,1,394,333a3.9,3.9,0,0,1,.82-.4,6.58,6.58,0,0,1,.83-.19,12.73,12.73,0,0,1,1.61-.12,26.45,26.45,0,0,1,3.1.23c2,.26,4,.66,6,1.11a240.58,240.58,0,0,1,23.33,7,26.29,26.29,0,0,1,5.63,2.48,37.71,37.71,0,0,1,5,3.62,74,74,0,0,1,8.58,8.67Z"/><path class="cls-3" d="M440.88,347.66s3-11.42,3.68-11.65"/><path class="cls-4" d="M445.48,332.28a34.43,34.43,0,0,0-2.87-6.86,14.17,14.17,0,0,0-2.15-3,15.6,15.6,0,0,0-3-2.14c-4.26-2.63-8.51-5.31-12.62-8.18a102.27,102.27,0,0,1-11.8-9.41,35.41,35.41,0,0,1-5-5.76,13.62,13.62,0,0,1-1.77-3.51,7.19,7.19,0,0,1-.21-4.12h0l0-.12.07-.08a6.77,6.77,0,0,1,4.5-2.23,15.26,15.26,0,0,1,4.73.2,36.41,36.41,0,0,1,8.67,3q8.24,3.8,16.34,7.85c5.4,2.72,10.78,5.47,16,8.57,1.29.79,2.57,1.61,3.81,2.5a11,11,0,0,1,1.73,1.56,18,18,0,0,1,1.31,1.87c1.64,2.55,3.17,5.15,4.66,7.79l-.33.18c-1.52-2.6-3.1-5.18-4.77-7.68a17.37,17.37,0,0,0-1.3-1.81,11.45,11.45,0,0,0-1.65-1.43c-1.23-.86-2.5-1.65-3.8-2.41-5.22-3-10.64-5.67-16.06-8.3s-10.92-5.14-16.43-7.59a36,36,0,0,0-8.41-2.81,14,14,0,0,0-4.28-.12,7.65,7.65,0,0,0-2,.56,5.13,5.13,0,0,0-.85.5,2.8,2.8,0,0,0-.63.58l.1-.2h0a5.72,5.72,0,0,0,.13,3.27,12.27,12.27,0,0,0,1.55,3.2,34.89,34.89,0,0,0,4.72,5.63,100,100,0,0,0,11.5,9.5c4,2.94,8.22,5.69,12.43,8.4A15.7,15.7,0,0,1,440.9,322a15.28,15.28,0,0,1,2.18,3.13,34.79,34.79,0,0,1,2.78,7Z"/><path class="cls-4" d="M442.56,258.43l-7.28-2.94c-2.44-1-4.86-2-7.3-2.88s-4.88-1.86-7.35-2.71c-1.23-.44-2.47-.85-3.71-1.22-.63-.18-1.25-.4-1.88-.57s-1.26-.33-1.89-.51l.06-.38a44.78,44.78,0,0,1,7.78,1.52c2.56.68,5.05,1.55,7.52,2.47s4.91,1.94,7.3,3,4.76,2.23,7.07,3.52Z"/><path class="cls-4" d="M445.8,282.27c-2.09-.95-4.12-2-6.15-3.06s-4-2.17-6-3.29-4-2.28-5.91-3.49-3.9-2.4-5.77-3.78l.28-.41,3,1.54,3,1.58c2,1.05,4,2.15,6,3.26s4,2.24,5.95,3.42,3.92,2.35,5.83,3.63Z"/><path class="cls-3" d="M414.67,353.73S399.75,368,405,388.58c0,0,2.47,9.83,5.06,14.94"/><path class="cls-4" d="M387.21,335.85a9.7,9.7,0,0,1-1.48,1.18,14.37,14.37,0,0,1-1.62.92,12.51,12.51,0,0,1-1.73.7,7,7,0,0,1-1.92.31,7.45,7.45,0,0,1,1.38-1.37,11.9,11.9,0,0,1,1.58-1,14.48,14.48,0,0,1,1.7-.77,9.06,9.06,0,0,1,1.82-.51Z"/><path class="cls-4" d="M397.92,344.41c-1.31.22-2.66.54-4,.89s-2.63.76-3.91,1.23a27.92,27.92,0,0,0-7.24,3.78l-.32-.4a28.82,28.82,0,0,1,7.18-4.32c1.29-.55,2.6-1,3.93-1.49s2.67-.84,4.06-1.16Z"/><path class="cls-4" d="M403.65,336l-5.6-1a8.12,8.12,0,0,1-2.65-.79,1,1,0,0,1-.56-.65.78.78,0,0,1,.54-.78,2.33,2.33,0,0,1,1-.06c2.87.28,6.23.13,9,.91.79.22,2.12.78,1.67,1.82S404.46,336.18,403.65,336Z"/><path class="cls-4" d="M409.4,247.38a1.44,1.44,0,0,0,.16.33,4.48,4.48,0,0,0,2.92,1.43l7.6,1.55c.67.12,3.33.82,3-.41a1,1,0,0,0-.4-.46C417.83,248.24,412.63,247,409.4,247.38Z"/><path class="cls-4" d="M433.73,414.42a7.77,7.77,0,1,0,5.5-14.53,7.68,7.68,0,0,0-3.49-.47,7.76,7.76,0,0,1-4.93,13A7.72,7.72,0,0,0,433.73,414.42Z"/><polygon class="cls-5" points="444.17 386.26 436.34 385.84 439.88 393.04 444.17 386.26"/><polygon class="cls-5" points="418.75 428.59 426.58 429.01 423.04 421.81 418.75 428.59"/><path class="cls-3" d="M386.82,408.77c-.44,2.43,17.84,7,35.27,10.11,12.3,2.17,25.28,3.78,32,3.68,2.77-.05,4.47-.37,4.59-1.09.2-1.1-3.42-2.64-9-4.27v.42c5.63,1.63,8.79,3,8.66,3.79-.29,1.59-15.2.8-36.15-2.9s-35.24-8.07-35-9.68c0-.15.38-.73,4.1-.78,1.26,0,2.91,0,5.06.17l0-.38C390.21,407.45,387,407.76,386.82,408.77Z"/><path class="cls-2" d="M155.58,346.46a9.25,9.25,0,0,1-7.16-7.39,16.41,16.41,0,0,0-.79-3h0a16.31,16.31,0,0,0-.79,3,9.29,9.29,0,0,1-7.19,7.4l-1.53.33a14.48,14.48,0,0,0,2,.63,9.25,9.25,0,0,1,6.76,7.32,16.46,16.46,0,0,0,.76,2.83h0a16.46,16.46,0,0,0,.76-2.83,9.25,9.25,0,0,1,6.77-7.32,14.78,14.78,0,0,0,2-.63Z"/></svg>