<svg id="圖層_1" data-name="圖層 1" xmlns="http://www.w3.org/2000/svg" viewBox="0 0 500 410.86"><defs><style>.cls-1{fill:#c8b17d;}.cls-2,.cls-3,.cls-4{fill:none;stroke:#d2bb87;stroke-linecap:round;stroke-linejoin:round;}.cls-2{stroke-width:0.66px;}.cls-4{stroke-width:0.75px;}</style></defs><path class="cls-1" d="M465.31,217.72a5.5,5.5,0,1,1-5.5,5.49A5.49,5.49,0,0,1,465.31,217.72Z"/><path class="cls-1" d="M419.38,157a5.5,5.5,0,1,1-5.5,5.49A5.5,5.5,0,0,1,419.38,157Z"/><path class="cls-1" d="M323.82,101.33a5.5,5.5,0,1,1-5.5,5.5A5.49,5.49,0,0,1,323.82,101.33Z"/><path class="cls-1" d="M293.87,210.87a5.5,5.5,0,1,1-5.5,5.5A5.49,5.49,0,0,1,293.87,210.87Z"/><path class="cls-1" d="M188.32,205.37a5.5,5.5,0,1,1-5.5,5.5A5.5,5.5,0,0,1,188.32,205.37Z"/><path class="cls-1" d="M164.64,286.38a5.5,5.5,0,1,1-5.49,5.5A5.5,5.5,0,0,1,164.64,286.38Z"/><path class="cls-1" d="M266.48,135.48A5.5,5.5,0,1,1,261,141,5.5,5.5,0,0,1,266.48,135.48Z"/><path class="cls-1" d="M177.32,146a5.5,5.5,0,1,1-5.49,5.5A5.5,5.5,0,0,1,177.32,146Z"/><path class="cls-1" d="M118.85,126a5.5,5.5,0,1,1-5.5,5.5A5.49,5.49,0,0,1,118.85,126Z"/><path class="cls-1" d="M34.69,122.57a5.5,5.5,0,1,1-5.49,5.5A5.5,5.5,0,0,1,34.69,122.57Z"/><path class="cls-1" d="M334.81,256.72a5.5,5.5,0,1,1-5.5,5.5A5.5,5.5,0,0,1,334.81,256.72Z"/><path class="cls-1" d="M426.66,312a5.5,5.5,0,1,1-5.49,5.49A5.49,5.49,0,0,1,426.66,312Z"/><rect class="cls-1" x="76.32" y="87.67" width="0.91" height="84.22" transform="translate(-55.99 201.27) rotate(-87.7)"/><rect class="cls-1" x="147.63" y="110.58" width="0.91" height="61.79" transform="translate(-33.67 235.87) rotate(-71.14)"/><rect class="cls-1" x="177.02" y="145.77" width="89.77" height="0.91" transform="translate(-15.55 26.9) rotate(-6.7)"/><rect class="cls-1" x="261.78" y="123.45" width="66.74" height="0.91" transform="translate(-21.83 168.5) rotate(-30.78)"/><rect class="cls-1" x="371.14" y="79.35" width="0.91" height="110.57" transform="translate(68.25 388) rotate(-59.79)"/><rect class="cls-1" x="441.89" y="154.75" width="0.91" height="76.17" transform="translate(-26.83 305.65) rotate(-37.08)"/><rect class="cls-1" x="380.28" y="236.26" width="0.91" height="107.21" transform="matrix(0.52, -0.86, 0.86, 0.52, -63.98, 466.52)"/><rect class="cls-1" x="313.88" y="208.56" width="0.91" height="61.47" transform="translate(-79.49 270.36) rotate(-41.79)"/><rect class="cls-1" x="252.06" y="161.14" width="113.56" height="0.91" transform="translate(71.51 416.88) rotate(-74.71)"/><rect class="cls-1" x="240.64" y="160.77" width="0.91" height="105.69" transform="translate(15.31 443.36) rotate(-87.04)"/><rect class="cls-1" x="182.37" y="150.95" width="0.91" height="60.42" transform="translate(-29.96 36.37) rotate(-10.5)"/><rect class="cls-1" x="134.28" y="250.92" width="84.4" height="0.91" transform="translate(-114.31 350.25) rotate(-73.71)"/><path class="cls-2" d="M86.18,299.62a7.64,7.64,0,0,1-5.92-6.11A13.61,13.61,0,0,0,79.6,291h0a13.55,13.55,0,0,0-.65,2.52,7.66,7.66,0,0,1-6,6.11l-1.26.28a12.07,12.07,0,0,0,1.64.52,7.64,7.64,0,0,1,5.6,6.05,13.61,13.61,0,0,0,.62,2.34h0a13.57,13.57,0,0,0,.63-2.34,7.63,7.63,0,0,1,5.59-6.05,12.21,12.21,0,0,0,1.65-.52Z"/><path class="cls-3" d="M440.47,77.71a11.59,11.59,0,0,1-9-9.25,20.75,20.75,0,0,0-1-3.79h0a20.69,20.69,0,0,0-1,3.8,11.58,11.58,0,0,1-9,9.26l-1.92.42a18.57,18.57,0,0,0,2.49.78,11.59,11.59,0,0,1,8.47,9.16,19.23,19.23,0,0,0,.94,3.54h0a20,20,0,0,0,1-3.54,11.59,11.59,0,0,1,8.47-9.16,18.89,18.89,0,0,0,2.48-.78S441.63,78,440.47,77.71Z"/><path class="cls-4" d="M184.79,74.5a8.73,8.73,0,0,1-6.75-7,15.55,15.55,0,0,0-.75-2.86h0a15.67,15.67,0,0,0-.75,2.87,8.71,8.71,0,0,1-6.78,7c-.86.18-1.44.32-1.44.32a15.13,15.13,0,0,0,1.87.59,8.73,8.73,0,0,1,6.39,6.9,14.68,14.68,0,0,0,.71,2.67h0a14.68,14.68,0,0,0,.71-2.67,8.73,8.73,0,0,1,6.39-6.9,15.13,15.13,0,0,0,1.87-.59Z"/><path class="cls-3" d="M324.29,331.06a11.57,11.57,0,0,1-9-9.24,20.69,20.69,0,0,0-1-3.8h0a20.65,20.65,0,0,0-1,3.8,11.58,11.58,0,0,1-9,9.26c-1.14.24-1.91.42-1.91.42a18.89,18.89,0,0,0,2.48.78,11.57,11.57,0,0,1,8.47,9.16,20,20,0,0,0,.95,3.54h0a19.23,19.23,0,0,0,.94-3.54,11.59,11.59,0,0,1,8.47-9.16,18.57,18.57,0,0,0,2.49-.78S325.45,331.31,324.29,331.06Z"/></svg>