<?xml version="1.0" encoding="utf-8"?>
<!-- Generator: Adobe Illustrator 25.0.0, SVG Export Plug-In . SVG Version: 6.00 Build 0)  -->
<svg version="1.1" id="圖層_1" xmlns="http://www.w3.org/2000/svg" xmlns:xlink="http://www.w3.org/1999/xlink" x="0px" y="0px"
	 viewBox="0 0 500 500" style="enable-background:new 0 0 500 500;" xml:space="preserve">
<style type="text/css">
	.st0{fill:none;stroke:#D2BB87;stroke-width:0.98;stroke-linecap:round;stroke-linejoin:round;}
	.st1{fill:none;stroke:#D2BB87;stroke-linecap:round;stroke-linejoin:round;}
	.st2{fill:none;stroke:#C8B17D;stroke-width:1.5;stroke-miterlimit:10;}
	.st3{fill:#C8B17D;}
	.st4{fill:none;stroke:#C8B17D;stroke-width:0.68;stroke-miterlimit:10;}
	.st5{fill:#3A3A3A;}
	.st6{fill:none;stroke:#C8B17D;stroke-width:1.82;stroke-miterlimit:10;}
</style>
<path class="st0" d="M362.48,426.86c-5.7-1.23-10.1-5.78-11.15-11.52c-0.27-1.61-0.68-3.19-1.24-4.72l0,0
	c-0.56,1.53-0.98,3.12-1.24,4.73c-1.04,5.76-5.47,10.31-11.19,11.53l-2.39,0.52c1.01,0.4,2.05,0.74,3.1,1
	c5.44,1.42,9.55,5.87,10.54,11.4c0.26,1.5,0.66,2.98,1.18,4.41l0,0c0.52-1.43,0.92-2.91,1.18-4.41c0.99-5.53,5.1-9.98,10.54-11.4
	c1.05-0.26,2.09-0.6,3.1-1L362.48,426.86z"/>
<path class="st1" d="M439,95c-4.6-0.97-8.16-4.63-9-9.25c-0.21-1.29-0.55-2.56-1-3.79l0,0c-0.45,1.23-0.79,2.5-1,3.8
	c-0.85,4.62-4.41,8.27-9,9.24l-1.91,0.42c0.81,0.31,1.64,0.57,2.49,0.78c4.37,1.14,7.67,4.72,8.46,9.16
	c0.21,1.21,0.53,2.39,0.95,3.54l0,0c0.44-1.15,0.77-2.33,1-3.54c0.79-4.44,4.1-8.02,8.47-9.16c0.84-0.21,1.67-0.47,2.48-0.78
	C440.94,95.42,440.13,95.21,439,95z"/>
<path class="st1" d="M73.5,72.9c-3.99-0.86-7.07-4.04-7.8-8.05c-0.18-1.13-0.47-2.24-0.87-3.31l0,0c-0.38,1.07-0.66,2.18-0.83,3.31
	c-0.73,4.03-3.82,7.21-7.83,8.06l-1.67,0.37c0.71,0.27,1.43,0.5,2.17,0.68c3.81,1,6.68,4.12,7.37,8c0.18,1.03,0.44,2.05,0.79,3.04
	l0,0c0.37-1,0.65-2.04,0.83-3.09c0.71-3.83,3.57-6.92,7.34-7.91c0.74-0.18,1.46-0.41,2.17-0.68L73.5,72.9z"/>
<path class="st2" d="M119.1,271.36c-6.16-0.7-10.12,25.3-11.81,36.49s-7.92,30.65-17.13,30.22c-4.6-0.22-9-8.75-12.26-17.22
	c7.7-6.59,17.26-16.83,11.81-19.63c-0.32-0.17-0.65-0.31-1-0.41c-2.86-0.77-7.23,0.05-12,1.64c-1.32,0.44-2.68,0.93-4,1.47
	l1.23-18.5c0,0,0.59-1.6,1.5-4c8.34-5.48,19-15,16.48-20c-0.63-0.98-1.72-1.57-2.88-1.57c-1.78-0.14-3.58-0.03-5.33,0.34l0.2-0.47
	c2.73-6.15,3.27-22.34-1-22.88s-21.34,28.92-21.34,28.92l-1,2.6c-8.08,3.9-28.72,14.47-32.18,22.55
	c-4.35,10.2,1.44,33.72,1.44,33.72l-0.58,10.77c-0.56,10.74,3.78,20.43,12.88,40.24s6.45,63.09,6.45,63.09s10,7.33,27,7.16
	c10-0.01,19.67-3.59,27.27-10.09l-1.21-21.31c0,0,2.88-2.05,12.13-15.09s6.8-37.18,7.16-46.66s4.31-17.55,6.17-32.64
	S125.26,272.06,119.1,271.36z M49.5,295.77l3.83-2.1l-1,17.33l-0.49,3c-1.57,0.89-2.5,1.44-2.5,1.44L49.5,295.77z"/>
<path class="st3" d="M89.71,301.22c-0.68,0.47-1.44,0.81-2.25,1c-1.6,0.45-12.52,4.05-10.84,0.27c4.82-1.59,9.19-2.41,12-1.64
	C89,300.93,89.36,301.06,89.71,301.22z"/>
<path class="st3" d="M49.41,367.8c2.62-3.12,5.5-6.03,8.59-8.68c1.56-1.34,3.23-2.55,5-3.61c1.75-1.05,3.63-1.9,5.58-2.51
	c7.65-2.73,15.44-5.07,23.33-7c2-0.45,4-0.85,6-1.12c1.03-0.13,2.06-0.21,3.1-0.22c0.54,0,1.08,0.04,1.61,0.12
	c0.28,0.05,0.56,0.11,0.83,0.19c0.29,0.1,0.56,0.24,0.82,0.4c0.53,0.33,0.96,0.8,1.22,1.37c0.25,0.56,0.35,1.16,0.29,1.77
	c-0.11,1.1-0.45,2.16-1,3.12c-1.02,1.83-2.31,3.49-3.83,4.93c-1.48,1.46-3.11,2.75-4.86,3.87c-0.87,0.58-1.76,1.1-2.69,1.57
	l-2.72,1.32c-3.61,1.8-7.17,3.72-10.6,5.8l0,0l0.16-0.13l-16.11,17.79l-0.89-0.8l15.89-18l0.07-0.08l0.09-0.06l0,0
	c3.52-2.1,7.1-4,10.76-5.78l2.75-1.32c0.89-0.42,1.76-0.89,2.59-1.42c1.68-1.05,3.25-2.27,4.67-3.65c1.43-1.35,2.66-2.89,3.64-4.59
	c0.47-0.8,0.76-1.69,0.87-2.61c0.14-0.81-0.23-1.63-0.94-2.05c-0.8-0.41-1.7-0.6-2.6-0.54c-1,0-2,0.07-3,0.19c-2,0.25-4,0.62-5.92,1
	c-7.87,1.85-15.64,4.1-23.28,6.75c-1.91,0.56-3.75,1.35-5.48,2.35c-1.72,1.03-3.35,2.2-4.88,3.5c-3.05,2.63-5.89,5.5-8.47,8.59
	L49.41,367.8z"/>
<path class="st2" d="M57.43,360.14c0,0-3-11.42-3.67-11.65"/>
<path class="st3" d="M52.45,344.66c0.68-2.42,1.61-4.77,2.78-7c0.6-1.13,1.33-2.18,2.18-3.13c0.93-0.88,1.95-1.64,3.06-2.28
	c4.21-2.71,8.39-5.45,12.43-8.39c4.06-2.88,7.91-6.05,11.5-9.5c1.77-1.71,3.36-3.6,4.73-5.64c0.66-0.98,1.18-2.06,1.54-3.19
	c0.36-1.05,0.41-2.19,0.14-3.27l0,0l0.09,0.2c-0.18-0.22-0.39-0.42-0.63-0.58c-0.27-0.19-0.55-0.35-0.85-0.49
	c-0.64-0.28-1.31-0.47-2-0.56c-1.42-0.18-2.87-0.14-4.28,0.12c-2.91,0.59-5.73,1.53-8.41,2.81c-5.51,2.45-10.99,4.98-16.43,7.59
	c-5.42,2.63-10.84,5.29-16.06,8.3c-1.29,0.76-2.57,1.55-3.8,2.4c-0.59,0.43-1.14,0.9-1.65,1.43c-0.47,0.58-0.9,1.19-1.3,1.82
	c-1.67,2.5-3.24,5.08-4.76,7.68l-0.34-0.19c1.49-2.63,3-5.23,4.66-7.78c0.4-0.65,0.83-1.28,1.31-1.87c0.52-0.58,1.11-1.1,1.74-1.56
	c1.23-0.89,2.51-1.71,3.81-2.5c5.2-3.11,10.58-5.86,16-8.57s10.85-5.32,16.34-7.86c2.76-1.35,5.67-2.36,8.67-3
	c1.56-0.3,3.15-0.37,4.73-0.2c1.73,0.14,3.34,0.94,4.5,2.23l0.07,0.09v0.11l0,0c0.33,1.36,0.26,2.79-0.21,4.11
	c-0.42,1.25-1.01,2.44-1.77,3.52c-1.46,2.09-3.13,4.02-5,5.76c-3.7,3.42-7.65,6.56-11.81,9.4c-4.11,2.88-8.36,5.56-12.62,8.19
	c-1.08,0.59-2.09,1.31-3,2.13c-0.84,0.9-1.56,1.91-2.15,3c-1.2,2.18-2.16,4.48-2.86,6.87L52.45,344.66z"/>
<path class="st3" d="M55.43,270.25c2.31-1.29,4.68-2.43,7.07-3.52s4.83-2.11,7.3-3s5-1.79,7.52-2.48c2.55-0.73,5.15-1.23,7.78-1.52
	l0.06,0.39c-0.63,0.18-1.26,0.35-1.89,0.51c-0.63,0.17-1.25,0.39-1.87,0.57c-1.25,0.37-2.49,0.78-3.72,1.22
	c-2.47,0.85-4.91,1.77-7.35,2.71S65.47,267,63,268l-7.29,2.94L55.43,270.25z"/>
<path class="st3" d="M52.18,294.14c1.9-1.27,3.86-2.45,5.83-3.62s4-2.31,5.94-3.42s4-2.21,6-3.26l3-1.58l3-1.55l0.28,0.41
	c-1.87,1.39-3.82,2.58-5.77,3.79s-3.92,2.35-5.91,3.49s-4,2.23-6,3.29s-4.06,2.1-6.15,3.06L52.18,294.14z"/>
<path class="st2" d="M83.64,366.21c0,0,14.93,14.29,9.65,34.85c0,0-2.46,9.83-5.06,14.94"/>
<path class="st3" d="M111.37,347.8c0.62,0.11,1.23,0.28,1.82,0.51c0.58,0.22,1.15,0.48,1.7,0.77c0.55,0.29,1.08,0.63,1.58,1
	c0.52,0.39,0.99,0.85,1.39,1.37c-0.66-0.02-1.3-0.12-1.93-0.32c-0.6-0.18-1.18-0.42-1.73-0.7c-0.56-0.27-1.1-0.57-1.62-0.91
	c-0.53-0.34-1.03-0.74-1.48-1.19L111.37,347.8z"/>
<path class="st3" d="M100.67,355.42c1.37,0.32,2.73,0.7,4.06,1.16c1.33,0.44,2.64,0.94,3.93,1.49c2.59,1.08,5.01,2.53,7.18,4.32
	l-0.32,0.4c-2.22-1.61-4.66-2.88-7.24-3.79c-1.28-0.46-2.59-0.87-3.91-1.23s-2.66-0.66-4-0.88L100.67,355.42z"/>
<path class="st3" d="M94.66,348.51l5.61-1c0.92-0.11,1.81-0.38,2.64-0.79c0.27-0.12,0.48-0.36,0.56-0.65
	c0.02-0.35-0.2-0.67-0.54-0.78c-0.33-0.09-0.67-0.11-1-0.06c-2.87,0.27-6.23,0.13-9,0.91c-0.78,0.22-2.12,0.78-1.66,1.82
	S93.85,348.65,94.66,348.51z"/>
<path class="st3" d="M88.91,259.86c-0.04,0.11-0.09,0.22-0.16,0.32c-0.76,0.83-1.8,1.34-2.92,1.44l-7.6,1.54
	c-0.67,0.13-3.33,0.83-3-0.41c0.08-0.19,0.22-0.34,0.4-0.45C80.48,260.72,85.68,259.44,88.91,259.86z"/>
<path class="st3" d="M64.58,426.9c-4.05,1.43-8.48-0.69-9.91-4.74c-1.38-3.92,0.56-8.23,4.41-9.79c1.11-0.42,2.31-0.59,3.49-0.47
	c-2.91,3.14-2.73,8.05,0.41,10.97c1.24,1.15,2.83,1.87,4.52,2.03C66.69,425.78,65.69,426.46,64.58,426.9z"/>
<polygon class="st4" points="54.14,398.74 61.97,398.32 58.43,405.52 "/>
<polygon class="st4" points="79.56,441.07 71.73,441.49 75.27,434.29 "/>
<path class="st2" d="M101.93,420.32v0.37c2.15-0.14,3.79-0.18,5-0.16c3.72,0.05,4.08,0.63,4.11,0.78c0.28,1.6-14,6-35,9.67
	S40.3,435.47,40,433.89c-0.13-0.76,3-2.16,8.67-3.8v-0.42c-5.62,1.64-9.24,3.18-9,4.28c0.12,0.71,1.82,1,4.6,1.09
	c6.7,0.1,19.68-1.51,32-3.69c17.42-3.08,35.7-7.67,35.27-10.1C111.32,420.24,108.1,419.93,101.93,420.32z"/>
<path class="st3" d="M292,351.17l1.37,0.21c5.95,0.97,11.58,3.35,16.42,6.94c8.73,6.15,15.39,14.81,19.07,24.83
	c1.05,2.77,1.74,5.67,2.06,8.62c0.04,0.81,0.04,1.63,0,2.44c-1.42,0.82-2.72,1.62-4.06,2.35c-6.22,3.34-12.72,6.11-19.43,8.3
	c-10.3,3.37-20.91,5.72-31.67,7c-11.43,1.44-22.97,1.88-34.48,1.33c-21.55-1-42.54-4.91-62.7-12.78c-3.39-1.33-6.68-2.91-10-4.4
	c-0.6-0.3-1.17-0.63-1.73-1c0.05-1,0-1.88,0.14-2.78c0.79-6.24,2.93-12.24,6.27-17.57c4.63-7.9,11.29-14.41,19.28-18.87
	c3.89-2.22,8.17-3.66,12.61-4.25c0.27-0.06,0.53-0.14,0.79-0.23c-0.6-0.24-0.95-0.4-1.32-0.54c-3.82-1.37-7.51-3.09-11-5.16
	c-2.65-1.55-5.09-3.44-7.25-5.62c-2.59-2.55-4.39-5.8-5.19-9.35c-0.78-2.85-0.14-5.9,1.71-8.2c0.06-0.1,0.1-0.2,0.13-0.31
	c-23-16.35-38.42-38-45.68-65.35c-10.39-39.8,1.38-82.11,30.83-110.83c45.26-44.07,117.68-43.11,161.76,2.15
	c23.29,23.92,34.97,56.82,31.97,90.07c-3.43,34.82-19.81,62.4-47.87,83.27c0.12,0.15,0.26,0.33,0.41,0.49
	c1.17,1.26,1.89,2.87,2.06,4.58c0.21,2.18-0.13,4.39-1,6.4c-1.2,2.98-3.07,5.65-5.46,7.8c-3.27,2.95-6.98,5.38-11,7.2
	c-2,0.94-4.07,1.74-6.1,2.6l-1,0.43L292,351.17z M360.48,227.57c-0.14-62.09-50.6-112.31-112.69-112.17
	c-62.09,0.14-112.31,50.6-112.17,112.69c0.14,62,50.44,112.18,112.44,112.17c62.04,0.02,112.36-50.26,112.38-112.3
	c0-0.13,0-0.26,0-0.39H360.48z M329.55,393.19c-0.08-0.51-0.12-0.91-0.2-1.31c-0.23-1.14-0.43-2.28-0.71-3.4
	c-2.37-9.18-7.29-17.5-14.19-24c-4.88-4.85-10.87-8.43-17.45-10.43c-3.85-1.23-7.93-1.5-11.91-0.8c-1.81,0.35-3.59,0.81-5.38,1.2
	c-0.63,0.15-1.27,0.25-1.91,0.31c-0.68,0-0.83-0.16-1.08-1.11c0.53-0.25,1.07-0.47,1.63-0.65c2.14-0.59,4.29-1.1,6.42-1.7
	c5.6-1.49,11.02-3.61,16.15-6.3c3.27-1.7,6.26-3.89,8.88-6.49c2.35-2.31,4-5.23,4.78-8.43c0.46-1.73,0.36-3.55-0.28-5.22
	c-0.33-1-1-1.85-1.89-2.42c-18.78,12.91-41.02,19.83-63.81,19.86c-23.24,0.13-44.6-6.42-64.15-19.24c-0.4,0.53-0.76,1.08-1.1,1.65
	c-0.71,1.45-0.94,3.09-0.66,4.68c0.45,2.74,1.59,5.32,3.31,7.49c1.58,2.02,3.46,3.78,5.56,5.25c3.14,2.23,6.53,4.09,10.1,5.54
	c10.18,4.24,20.85,6.52,31.74,7.85c3.95,0.48,7.94,0.7,11.91,1.05c0.52,0.05,1,0.17,1.46,0.24c0.24,0.59,0,0.85-0.32,1
	c-0.42,0.12-0.86,0.19-1.3,0.21c-1.5,0-3,0-4.5-0.09c-8.68-0.48-17.29-1.82-25.71-4c-4.44-1.14-9.11-1.09-13.53,0.15
	c-6.16,1.74-11.82,4.91-16.52,9.26c-8.23,7.15-13.9,16.79-16.14,27.45c-0.26,1.19-0.41,2.4-0.62,3.63c0.6,0.29,1.07,0.55,1.56,0.77
	c6.6,2.94,13.37,5.47,20.27,7.6c23.8,7.22,48.69,10.11,73.51,8.54c10.31-0.59,20.55-2.06,30.61-4.42
	c12.12-2.72,23.78-7.16,34.63-13.2C329,393.57,329.23,393.39,329.55,393.19z"/>
<path class="st3" d="M157,183.84c0.38,0.69,0.05,1.16-0.1,1.61c-1,2.87-2.06,5.7-3,8.59c-3.78,12.03-5.28,24.65-4.41,37.23
	c1.26,21.63,9.22,42.34,22.78,59.24c9.66,12.35,22.3,22.05,36.73,28.18c5.26,2.26,10.75,3.93,16.37,5c0.2,0.03,0.4,0.09,0.59,0.16
	c0.45,0.13,0.72,0.59,0.59,1.05c0,0,0,0,0,0c-0.08,0.42-0.47,0.71-0.9,0.67c-0.31-0.02-0.61-0.07-0.91-0.15
	c-17.93-3.8-34.31-12.91-47-26.14c-20.36-21.08-31.21-49.58-30-78.87c0.42-11.32,2.88-22.48,7.26-32.93c0.42-1,0.9-1.91,1.38-2.85
	C156.56,184.35,156.77,184.08,157,183.84z"/>
<path class="st3" d="M182.4,280.68c0.89,0,1.1,0.56,1.4,0.93c1.71,2.13,3.32,4.34,5.12,6.38c8.25,9.3,18.59,16.5,30.18,21
	c11.81,4.75,24.5,6.85,37.21,6.18c5.79-0.27,11.53-1.22,17.11-2.81h0.1c0.86-0.24,1.38-0.07,1.53,0.49s-0.21,0.92-1.12,1.17
	c-7.2,1.99-14.64,3-22.11,3c-15.46,0.09-30.66-3.9-44.08-11.57c-8.89-4.93-16.61-11.71-22.64-19.88c-0.84-1.15-1.57-2.38-2.32-3.6
	C182.61,281.56,182.48,281.12,182.4,280.68z"/>
<path class="st3" d="M252.06,129.19c0.58,0,1.18-0.07,1.78-0.05c3.95,0.19,7.87,0.7,11.74,1.53c19.7,4.09,36.55,13.48,50.88,27.48
	c9.4,9.19,17.07,20.01,22.62,31.93c0.22,0.47,0.43,0.93,0.61,1.41c0.21,0.36,0.09,0.83-0.27,1.04c-0.07,0.04-0.15,0.07-0.23,0.09
	c-0.7,0-0.85-0.6-1.1-1.07c-1.66-3.16-3.19-6.41-5-9.48c-10.28-17.9-25.58-32.41-44-41.72c-10.23-5.19-21.3-8.52-32.7-9.83
	c-1.18-0.14-2.37-0.26-3.55-0.44C252.42,130,251.84,130,252.06,129.19z"/>
<path class="st3" d="M213.54,276.84c0.41,0.1,0.81,0.22,1.2,0.37c2,0.87,4,1.82,6,2.64c6.69,2.65,13.73,4.32,20.9,4.93
	c5.09,0.49,10.21,0.55,15.31,0.18c4.89-0.35,9.74-1.16,14.48-2.41c0.43-0.13,0.86-0.22,1.3-0.28c0.39-0.08,0.77,0.16,0.88,0.54
	c0.15,0.4-0.06,0.85-0.46,1c-0.41,0.17-0.82,0.32-1.25,0.43c-4.88,1.31-9.86,2.14-14.9,2.5c-7.85,0.62-15.76,0.16-23.49-1.34
	c-5.27-0.94-10.39-2.6-15.21-4.92c-1.36-0.69-2.64-1.54-3.93-2.36c-0.36-0.28-0.7-0.59-1-0.93L213.54,276.84z"/>
<path class="st3" d="M277.56,281.14c0.22-0.26,0.48-0.48,0.77-0.66c1.4-0.69,2.82-1.33,4.24-2c0.7-0.32,1.24-0.22,1.44,0.2
	s0,0.94-0.65,1.33c-1.36,0.84-2.84,1.46-4.39,1.84C278.15,282.06,278,282,277.56,281.14z"/>
<path class="st5" d="M203.88,398.18c-0.06,1.69-1.38,3.07-3.07,3.21c-1.53,0.06-2.83-1.12-2.91-2.65c-0.06-1.74,1.27-3.21,3-3.33
	C202.48,395.38,203.8,396.6,203.88,398.18z"/>
<path class="st5" d="M186.14,390c-1.42,0-2.58-1.16-2.58-2.58c0-1.42,1.16-2.58,2.58-2.58c1.42,0,2.57,1.15,2.58,2.57
	c0.03,1.4-1.09,2.56-2.49,2.59C186.2,390,186.17,390,186.14,390z"/>
<path class="st5" d="M267.55,364.31c-0.03-1.42,1.06-2.62,2.48-2.73c1.29-0.02,2.35,1,2.37,2.29c0,0,0,0.01,0,0.01
	c0.02,1.42-1.06,2.62-2.48,2.74C268.64,366.61,267.59,365.59,267.55,364.31z"/>
<path class="st5" d="M212.46,361.63c-0.03-1.26,0.98-2.31,2.24-2.34c0.02,0,0.04,0,0.06,0c1.39,0.03,2.52,1.12,2.6,2.5
	c-0.01,1.29-1.05,2.33-2.34,2.34C213.63,364.14,212.49,363.02,212.46,361.63z"/>
<path class="st5" d="M235.57,367.18c1.28-0.04,2.34,0.95,2.39,2.23c0,0.01,0,0.03,0,0.04c-0.03,1.28-1.05,2.32-2.33,2.38
	c-1.36,0-2.48-1.06-2.56-2.41c0-1.25,1.02-2.26,2.27-2.25C235.41,367.17,235.49,367.17,235.57,367.18z"/>
<path class="st5" d="M282.18,393.09c1.35,0.12,2.38,1.27,2.34,2.63c-0.02,1.2-1,2.17-2.21,2.15c-0.01,0-0.03,0-0.04,0
	c-1.33,0.04-2.44-0.99-2.51-2.31C279.84,394.25,280.87,393.19,282.18,393.09z"/>
<path class="st5" d="M236.58,403.24c1.28,0.03,2.32,1.06,2.35,2.34c0.06,1.22-0.86,2.26-2.08,2.34c-1.31,0.03-2.42-0.96-2.54-2.27
	C234.29,404.36,235.29,403.29,236.58,403.24z"/>
<path class="st5" d="M293.62,397.37c0-1.21,0.98-2.19,2.19-2.19s2.19,0.98,2.19,2.19l0,0c0,1.21-0.98,2.19-2.19,2.19
	S293.62,398.58,293.62,397.37z"/>
<path class="st5" d="M311.35,370.5c1.28,0.05,2.29,1.12,2.25,2.41c0,1.1-0.89,2-2,2c-0.02,0-0.04,0-0.06,0
	c-1.32-0.07-2.36-1.14-2.39-2.46c0.02-1.1,0.94-1.98,2.04-1.96C311.24,370.49,311.3,370.49,311.35,370.5z"/>
<path class="st5" d="M268.5,403.29c0.06,1.05-0.75,1.94-1.8,2c-0.05,0-0.1,0-0.15,0c-1.23,0.04-2.26-0.93-2.3-2.16
	c0-0.06,0-0.12,0-0.17c0.01-1.15,0.93-2.07,2.08-2.08C267.59,400.97,268.55,402.03,268.5,403.29z"/>
<path class="st5" d="M262.7,379.38c0.09,1.14-0.77,2.14-1.91,2.24c-1.26-0.05-2.23-1.11-2.18-2.37c0.01-1.11,0.89-2.01,2-2.05
	c1.18,0.02,2.11,0.99,2.09,2.17C262.7,379.37,262.7,379.38,262.7,379.38z"/>
<path class="st5" d="M220.82,382.57c0.06,1.1-0.78,2.05-1.89,2.11c-0.04,0-0.08,0-0.11,0c-1.21,0.06-2.24-0.88-2.3-2.09
	c0.01-1.17,0.96-2.12,2.13-2.11c0.01,0,0.02,0,0.03,0c1.15-0.03,2.11,0.89,2.14,2.04C220.82,382.54,220.82,382.55,220.82,382.57z"/>
<path class="st5" d="M193.52,366.76c-0.04-1.03,0.75-1.89,1.78-1.94c0.04,0,0.09,0,0.13,0c1.18,0.06,2.11,1.02,2.12,2.2
	c0.02,1.02-0.78,1.86-1.8,1.88c-0.03,0-0.05,0-0.08,0C194.5,368.88,193.55,367.93,193.52,366.76z"/>
<path class="st5" d="M232.83,396.69c0,1.07-0.87,1.93-1.94,1.92c-0.02,0-0.04,0-0.06,0c-1.1,0-2-0.9-2-2
	c-0.07-1.06,0.73-1.97,1.78-2.05c0.02,0,0.03,0,0.05,0C231.84,394.58,232.79,395.51,232.83,396.69z"/>
<path class="st5" d="M317.6,389.86c-1.08-0.03-1.94-0.92-1.94-2c0.08-1.03,0.96-1.82,2-1.78c1.05,0.12,1.84,1.02,1.83,2.08
	c-0.04,0.98-0.86,1.74-1.83,1.7C317.64,389.86,317.62,389.86,317.6,389.86z"/>
<path class="st5" d="M313.42,393.54c1.02,0.06,1.84,0.89,1.88,1.91c0.01,0.96-0.76,1.75-1.72,1.76c0,0-0.01,0-0.01,0
	c-1.03-0.03-1.86-0.87-1.87-1.91c-0.02-0.95,0.73-1.74,1.68-1.76C313.39,393.54,313.41,393.54,313.42,393.54z"/>
<path class="st5" d="M284.75,384.86c0.02,0.96-0.72,1.76-1.68,1.81c-0.82,0.02-1.49-0.63-1.51-1.45c0-0.04,0-0.08,0-0.12
	c-0.09-0.92,0.59-1.73,1.51-1.82c0.01,0,0.02,0,0.02,0C283.98,383.26,284.73,383.96,284.75,384.86
	C284.75,384.86,284.75,384.86,284.75,384.86z"/>
<path class="st5" d="M288.4,364.13c-0.79,0.01-1.44-0.62-1.45-1.41c0-0.03,0-0.06,0-0.09c0.06-0.88,0.78-1.58,1.67-1.59
	c0.78,0.02,1.4,0.67,1.38,1.46c0,0,0,0.01,0,0.01c0.02,0.87-0.67,1.6-1.54,1.62C288.44,364.13,288.42,364.13,288.4,364.13z"/>
<path class="st5" d="M255.63,368.82c0.83,0.01,1.5,0.69,1.49,1.53c0,0.02,0,0.05,0,0.07c-0.03,0.81-0.72,1.44-1.53,1.41
	c-0.01,0-0.02,0-0.02,0c-0.82,0.01-1.5-0.65-1.5-1.48c0-0.03,0-0.07,0-0.1C254.12,369.43,254.81,368.8,255.63,368.82z"/>
<path class="st5" d="M236.07,382.28c-0.14,0.83-0.92,1.39-1.75,1.25c-0.64-0.11-1.15-0.61-1.25-1.25c0-0.86,0.53-1.4,1.49-1.43
	c0.77-0.06,1.45,0.51,1.51,1.29C236.07,382.18,236.07,382.23,236.07,382.28z"/>
<path class="st5" d="M280.07,372.48c0,0.79-0.63,1.43-1.41,1.46c-0.83-0.01-1.49-0.7-1.47-1.52c0-0.03,0-0.06,0-0.1
	c-0.02-0.75,0.57-1.36,1.32-1.38c0.04,0,0.09,0,0.13,0c0.81,0.02,1.45,0.68,1.43,1.49C280.07,372.45,280.07,372.46,280.07,372.48z"
	/>
<path class="st5" d="M199.55,381.69c-0.82-0.04-1.46-0.74-1.44-1.56c0.02-0.8,0.69-1.43,1.49-1.41c0.02,0,0.04,0,0.06,0
	c0.82,0.05,1.43,0.76,1.38,1.57c0,0.01,0,0.01,0,0.02C200.98,381.09,200.33,381.69,199.55,381.69z"/>
<path class="st5" d="M301.16,380.53c0.77-0.04,1.42,0.55,1.46,1.32c0,0.02,0,0.03,0,0.05c-0.03,0.75-0.62,1.34-1.37,1.37
	c-0.75,0.01-1.37-0.6-1.38-1.35c-0.06-0.71,0.48-1.33,1.19-1.39C301.09,380.53,301.13,380.53,301.16,380.53z"/>
<path class="st5" d="M253.35,381.5c-0.03,0.74-0.64,1.33-1.38,1.35c-0.75-0.02-1.34-0.63-1.32-1.38c0,0,0-0.01,0-0.01
	c0.04-0.73,0.65-1.29,1.38-1.25c0.02,0,0.04,0,0.06,0c0.67-0.03,1.23,0.49,1.26,1.16C253.35,381.41,253.35,381.46,253.35,381.5z"/>
<path class="st5" d="M217.09,399.28c0.72-0.02,1.32,0.56,1.34,1.28c0,0.02,0,0.04,0,0.06c0.01,0.73-0.58,1.34-1.31,1.35
	c-0.01,0-0.02,0-0.03,0c-0.72,0.02-1.32-0.56-1.34-1.28c0-0.02,0-0.05,0-0.07c-0.01-0.73,0.59-1.33,1.32-1.34
	C217.08,399.28,217.08,399.28,217.09,399.28z"/>
<path class="st5" d="M295.3,372.72c0,0.71-0.57,1.28-1.28,1.28c-0.01,0-0.01,0-0.02,0c-0.72,0.03-1.34-0.53-1.37-1.25
	c-0.03-0.72,0.53-1.34,1.25-1.37c0.07,0,0.14,0,0.21,0.01C294.78,371.45,295.3,372.03,295.3,372.72z"/>
<path class="st5" d="M268.47,398.08c0.02-0.71,0.62-1.27,1.33-1.25c0,0,0,0,0,0c0.71,0.03,1.27,0.62,1.26,1.33
	c-0.01,0.69-0.58,1.24-1.27,1.23c-0.02,0-0.04,0-0.06,0c-0.7-0.01-1.27-0.58-1.26-1.28C268.47,398.1,268.47,398.09,268.47,398.08z"
	/>
<path class="st5" d="M246.55,396.85c0.02,0.68-0.51,1.25-1.19,1.28c-0.67,0.01-1.22-0.52-1.23-1.19c0-0.01,0-0.02,0-0.03
	c-0.04-0.68,0.48-1.27,1.17-1.31c0.03,0,0.05,0,0.08,0c0.65,0,1.17,0.52,1.17,1.17C246.55,396.79,246.55,396.82,246.55,396.85z"/>
<path class="st5" d="M212,391c-0.6,0.05-1.13-0.4-1.18-1c0-0.04,0-0.08,0-0.11c-0.05-0.64,0.41-1.2,1.05-1.28
	c0.67-0.02,1.25,0.48,1.33,1.15c0.02,0.66-0.5,1.22-1.16,1.24C212.03,391,212.01,391,212,391z"/>
<path class="st5" d="M269.65,388.51c-0.03-0.61,0.43-1.13,1.04-1.16c0.03,0,0.06,0,0.09,0c0.67-0.01,1.21,0.53,1.22,1.2
	c0,0.01,0,0.01,0,0.02c-0.04,0.64-0.57,1.13-1.21,1.12C270.15,389.67,269.64,389.15,269.65,388.51z"/>
<path class="st5" d="M308.26,390.27c0.01,0.64-0.5,1.17-1.14,1.19c-0.59,0.01-1.07-0.45-1.08-1.04c0-0.02,0-0.04,0-0.06
	c-0.03-0.63,0.45-1.17,1.08-1.2c0.01,0,0.03,0,0.04,0C307.77,389.17,308.25,389.66,308.26,390.27z"/>
<path class="st5" d="M218.09,369.31c0.61-0.04,1.14,0.43,1.18,1.04c0,0.02,0,0.05,0,0.07c0.02,0.62-0.46,1.14-1.08,1.16
	c-0.02,0-0.04,0-0.06,0c-0.58,0.03-1.08-0.41-1.11-0.99c0-0.02,0-0.05,0-0.07c-0.06-0.61,0.39-1.15,1-1.21
	C218.05,369.31,218.07,369.31,218.09,369.31z"/>
<path class="st5" d="M206.5,370.13c-0.6,0.01-1.08-0.47-1.09-1.07c0-0.01,0-0.02,0-0.03c-0.04-0.58,0.4-1.09,0.99-1.13
	c0.02,0,0.04,0,0.06,0c0.63,0.08,1.1,0.61,1.11,1.24c0,0.55-0.46,1-1.01,0.99C206.54,370.13,206.52,370.13,206.5,370.13z"/>
<path class="st5" d="M253.32,406.2c0.03,0.6-0.43,1.1-1.03,1.13c-0.01,0-0.02,0-0.03,0c-0.56,0-1.03-0.44-1.08-1
	c-0.01-0.61,0.48-1.1,1.09-1.11c0,0,0.01,0,0.01,0c0.55-0.02,1.02,0.41,1.04,0.96C253.32,406.19,253.32,406.19,253.32,406.2z"/>
<path class="st5" d="M297,368c-0.59-0.02-1.05-0.52-1.03-1.11s0.52-1.05,1.11-1.03s1.05,0.52,1.03,1.11c0,0.01,0,0.02,0,0.03
	C298.07,367.58,297.58,368.02,297,368z"/>
<path class="st5" d="M294.06,387.69c-0.57-0.02-1.02-0.5-1-1.07c0.02-0.57,0.5-1.02,1.07-1.01l0,0c0.55,0,1,0.44,1.01,0.99
	c0,0.05,0,0.09-0.01,0.14c-0.03,0.55-0.49,0.98-1.05,0.95C294.08,387.69,294.07,387.69,294.06,387.69z"/>
<path class="st5" d="M256.83,391.25c-0.55-0.03-0.98-0.5-0.95-1.05s0.5-0.98,1.05-0.95c0.53,0.03,0.95,0.47,0.95,1
	c0,0.55-0.45,1-1,1C256.86,391.25,256.85,391.25,256.83,391.25z"/>
<path class="st5" d="M256.94,398.7c0.51,0.04,0.88,0.49,0.84,0.99c0,0,0,0,0,0.01c0,0.53-0.42,0.97-0.95,1
	c-0.52-0.17-0.81-0.74-0.64-1.26c0.11-0.34,0.4-0.6,0.75-0.67L256.94,398.7z"/>
<path class="st5" d="M242.6,388.29c0.76,0.45,1,0.77,0.81,1.26c-0.09,0.42-0.49,0.7-0.91,0.64c-0.43-0.01-0.78-0.33-0.83-0.75
	C241.58,388.89,241.76,388.64,242.6,388.29z"/>
<path class="st3" d="M235.63,209.12c-0.59-2.27-1.19-4.5-1.76-6.74l-7.62-30.21c-0.13-0.46-0.23-0.93-0.29-1.4
	c-0.02-0.4-0.02-0.8,0-1.2c0.67,0.08,0.76,0.53,0.87,0.89c0.45,1.39,0.9,2.78,1.28,4.19l8.9,33c0.1,0.39,0.21,0.77,0.3,1.07
	l11.91-1.17c0-0.48,0-1,0-1.61c-0.33-13.08-0.66-26.16-1-39.24c-0.06-2.15,0-4.3,0-6.44c0.03-0.43,0.08-0.86,0.17-1.29
	c0.6-0.29,0.88-0.11,1,0.33c0.08,0.36,0.14,0.74,0.15,1.11c0.15,3.1,0.32,6.19,0.41,9.29c0.29,10.29,0.54,20.57,0.81,30.86
	c0.05,2.08,0.11,4.16,0.16,6.23c0,0.27,0.05,0.54,0.08,0.94c4.56,0.14,9.1,0.71,13.56,1.71c0.14-0.43,0.27-0.8,0.37-1.18
	c2.67-10.18,5.33-20.36,8-30.53c0.49-1.84,1.06-3.66,1.61-5.49c0.12-0.4,0.22-0.85,0.74-1c0.3,0.47,0.35,1.07,0.12,1.58
	c-0.79,3.45-1.56,6.91-2.41,10.35c-2.13,8.56-4.3,17.11-6.45,25.66c-0.07,0.29-0.13,0.59-0.22,1c1.83,0.58,3.64,1.11,5.42,1.73
	s3.5,1.35,5.35,2.07c0.2-0.32,0.42-0.65,0.61-1c4.78-8.45,9.56-16.9,14.33-25.35c0.56-1,1.16-1.93,1.77-2.87
	c0.23-0.29,0.49-0.55,0.78-0.78c0.26,0.47,0.22,1.05-0.12,1.47c-0.85,1.7-1.7,3.41-2.61,5.09c-4.18,7.73-8.37,15.45-12.58,23.16
	c-0.18,0.33-0.34,0.66-0.48,0.92l10.46,6.39c0.15-0.18,0.42-0.47,0.66-0.78c7.65-9.8,15.31-19.6,23-29.4c1.33-1.69,2.71-3.33,4.09-5
	c0.3-0.36,0.59-0.87,1.27-0.68c0.04,0.48-0.14,0.96-0.49,1.3c-1.16,1.64-2.32,3.28-3.54,4.88c-7.6,10.01-15.2,19.96-22.8,29.85
	l-0.76,1l7.52,7.17l1.09-0.81c6.72-5.24,13.44-10.47,20.16-15.7c0.72-0.56,1.49-1.08,2.25-1.59c0.47-0.32,0.48-0.3,1.13-0.2
	c0.09,0.53-0.33,0.79-0.65,1.06c-1.41,1.22-2.83,2.46-4.29,3.62c-5.92,4.72-11.85,9.42-17.78,14.1l-0.95,0.77
	c0.27,0.37,0.5,0.69,0.75,1c3.23,3.97,5.9,8.37,7.91,13.07c0.42,0.83,0.31,1.83-0.3,2.53c-3.52,4.57-7.75,8.55-12.52,11.8
	c-7.67,5.25-16.25,9.02-25.31,11.09c-8.51,2.04-17.27,2.83-26,2.35c-13.39-0.6-26.47-4.25-38.24-10.67c-5-2.8-9.65-6.19-13.86-10.08
	c-1.19-0.85-1.59-2.44-0.95-3.76c2.41-6.68,6.02-12.87,10.65-18.26l0.84-1c-0.37-0.31-0.68-0.56-1-0.81
	c-6.21-4.89-12.42-9.78-18.64-14.66c-1.07-0.84-2.1-1.74-3.12-2.64c-0.27-0.28-0.5-0.59-0.71-0.92c0.61-0.4,1-0.07,1.33,0.17
	c1.25,0.88,2.52,1.75,3.73,2.68c6.19,4.76,12.37,9.52,18.54,14.29c0.29,0.23,0.59,0.45,0.85,0.64l7.84-6.92l-0.77-1
	c-8-10.38-16.03-20.76-24.08-31.13c-0.85-1.1-1.65-2.25-2.45-3.39c-0.21-0.37-0.4-0.76-0.56-1.16c0.63-0.27,0.91,0.08,1.17,0.37
	c0.6,0.65,1.19,1.31,1.74,2c7.63,9.6,15.25,19.2,22.88,28.81c1,1.26,2,2.53,3,3.79l0.54,0.63l10.71-6c-0.17-0.32-0.37-0.7-0.58-1.08
	c-4.84-8.81-9.67-17.62-14.5-26.43c-0.41-0.74-0.78-1.51-1.13-2.29c-0.11-0.32-0.2-0.66-0.25-1l0.23-0.16
	c0.23,0.14,0.44,0.31,0.62,0.51c0.43,0.61,0.85,1.24,1.22,1.89l15.41,26.85c0.22,0.38,0.45,0.75,0.64,1.07L235.63,209.12z
	 M305.5,243.67l0.18-0.15c-0.19-0.39-0.37-0.78-0.58-1.16c-6.42-12.33-16.95-22.03-29.76-27.43c-9.83-4.29-20.58-6.02-31.26-5.05
	c-10.1,0.79-19.86,4.05-28.4,9.5c-9.98,6.21-17.76,15.38-22.25,26.24c-0.18,0.42-0.33,0.86-0.55,1.46c0.33-0.14,0.46-0.18,0.57-0.24
	c0.9-0.61,1.79-1.24,2.72-1.82c5.82-3.56,12.09-6.32,18.65-8.2c10.18-2.98,20.7-4.64,31.3-4.95c11.86-0.49,23.74,0.57,35.33,3.13
	c8.21,1.71,16.14,4.57,23.55,8.48C305.16,243.55,305.33,243.62,305.5,243.67z M278.5,236.15c0.34,5.13-0.71,10.26-3.04,14.85
	c-4.74,9.21-14.1,15.13-24.46,15.47c-6.5,0.25-12.88-1.83-18-5.85c-7.71-6-11.29-14-11.23-23.78c-0.4,0.07-0.7,0.1-1,0.17
	c-5.34,1.27-10.56,3.01-15.59,5.19c-4.14,1.77-8.05,4.02-11.67,6.7c-0.29,0.22-0.55,0.46-0.82,0.69c0.07,0.12,0.15,0.24,0.24,0.36
	c0.36,0.36,0.73,0.72,1.1,1.06c3.24,2.93,6.76,5.53,10.52,7.75c11.77,6.87,25.01,10.8,38.62,11.46c6.74,0.44,13.5,0.11,20.16-1
	c8.84-1.4,17.37-4.31,25.22-8.59c6.43-3.49,12.14-8.16,16.82-13.78c0.25-0.3,0.48-0.63,0.77-1c-8.67-4.58-17.97-7.85-27.6-9.7H278.5
	z M223.82,236.33c-0.79,10.04,4.27,19.64,13,24.67c9.64,5.58,21.74,4.56,30.3-2.56c4.11-3.38,7.08-7.95,8.5-13.08
	c0.93-3.11,1.24-6.37,0.9-9.6c-3.57-0.66-7.06-1.18-10.68-1.52c0.02,0.3,0.05,0.6,0.1,0.9c1.99,8.54-3.32,17.07-11.86,19.06
	c-8.54,1.99-17.07-3.32-19.06-11.86c-0.52-2.23-0.55-4.55-0.09-6.8c0.07-0.31,0.08-0.63,0.14-1.07c-3.77,0.42-7.51,1.05-11.22,1.86
	L223.82,236.33z M237.28,234.22c-1.65,3.64-1.2,10.94,4.42,15.43c5.2,4.14,12.57,4.14,17.77,0c4.66-3.74,6.4-10.05,4.3-15.65
	c-8.8-0.75-17.66-0.67-26.45,0.22L237.28,234.22z"/>
<path class="st5" d="M305.5,243.67l0.18-0.15c-0.19-0.39-0.37-0.78-0.58-1.16c-6.42-12.33-16.95-22.03-29.76-27.43
	c-9.83-4.29-20.58-6.02-31.26-5.05c-10.1,0.79-19.86,4.05-28.4,9.5c-9.98,6.21-17.76,15.38-22.25,26.24
	c-0.18,0.42-0.33,0.86-0.55,1.46c0.33-0.14,0.46-0.18,0.57-0.24c0.9-0.61,1.79-1.24,2.72-1.82c5.82-3.56,12.09-6.32,18.65-8.2
	c10.18-2.98,20.7-4.64,31.3-4.95c11.86-0.49,23.74,0.57,35.33,3.13c8.21,1.71,16.14,4.57,23.55,8.48
	C305.16,243.55,305.33,243.62,305.5,243.67z"/>
<line class="st6" x1="69.29" y1="177.7" x2="122.17" y2="190.16"/>
<line class="st6" x1="90.46" y1="125.58" x2="137.11" y2="151.64"/>
<line class="st6" x1="128.83" y1="84.3" x2="162.77" y2="123.67"/>
<line class="st6" x1="187.02" y1="54.16" x2="202.37" y2="102.49"/>
<line class="st6" x1="334.7" y1="61.56" x2="306.82" y2="105.03"/>
<line class="st6" x1="384.93" y1="95.4" x2="344.65" y2="129.61"/>
<line class="st6" x1="417.09" y1="140.71" x2="366.54" y2="160.02"/>
<line class="st6" x1="429.02" y1="189.19" x2="375.14" y2="197.72"/>
<line class="st6" x1="257.57" y1="43.27" x2="256.6" y2="93.68"/>
<path class="st2" d="M371.24,320.11c1.86,15.09,5.8,23.16,6.17,32.64s-2.08,33.63,7.16,46.66s12.14,15.09,12.14,15.09l-1.21,21.31
	c7.59,6.51,17.26,10.08,27.26,10.09c17.08,0.17,27-7.16,27-7.16s-2.65-43.27,6.45-63.09s13.44-29.5,12.88-40.24l-0.58-10.77
	c0,0,5.79-23.52,1.44-33.72c-3.45-8.08-24.1-18.65-32.18-22.55l-1-2.6c0,0-17.1-29.46-21.34-28.92s-3.7,16.73-1,22.88l0.21,0.47
	c-1.75-0.37-3.55-0.48-5.34-0.34c-1.16,0-2.24,0.59-2.87,1.57c-2.56,4.95,8.13,14.5,16.47,20c0.91,2.41,1.5,4,1.5,4l1.24,18.5
	c-1.37-0.54-2.73-1-4.05-1.47c-4.82-1.59-9.19-2.41-12.05-1.64c-0.35,0.1-0.68,0.24-1,0.41c-5.45,2.8,4.11,13,11.81,19.63
	c-3.25,8.47-7.65,17-12.26,17.22c-9.21,0.43-15.43-19-17.12-30.22s-5.66-37.19-11.82-36.49S369.37,305,371.24,320.11z
	 M448.94,315.41c0,0-0.92-0.55-2.5-1.44l-0.49-3l-1-17.33l3.83,2.1L448.94,315.41z"/>
<path class="st3" d="M408.6,301.22c0.68,0.47,1.44,0.81,2.25,1c1.6,0.45,12.52,4.05,10.84,0.27c-4.82-1.59-9.19-2.41-12.05-1.64
	C409.28,300.94,408.93,301.06,408.6,301.22z"/>
<path class="st3" d="M448.34,368.26c-2.61-3.07-5.47-5.91-8.55-8.51c-1.53-1.3-3.15-2.47-4.87-3.5c-1.73-1-3.57-1.79-5.49-2.35
	c-7.64-2.65-15.4-4.9-23.27-6.75c-2-0.43-4-0.8-5.93-1c-1-0.12-2-0.19-3-0.19c-0.9-0.06-1.8,0.13-2.61,0.54
	c-0.71,0.42-1.08,1.24-0.94,2.05c0.11,0.92,0.4,1.81,0.87,2.61c0.98,1.7,2.21,3.25,3.65,4.59c1.42,1.38,2.98,2.6,4.66,3.65
	c0.83,0.53,1.7,1,2.59,1.42l2.75,1.32c3.66,1.79,7.25,3.68,10.77,5.78l0,0l0.09,0.06l0.07,0.08l15.89,18l-0.89,0.8L418.07,369
	l0.16,0.13l0,0c-3.42-2.08-7-4-10.6-5.8l-2.72-1.33c-0.94-0.45-1.84-0.96-2.72-1.52c-1.75-1.11-3.38-2.41-4.85-3.87
	c-1.52-1.44-2.81-3.1-3.84-4.93c-0.55-0.96-0.89-2.02-1-3.12c-0.06-0.61,0.04-1.21,0.29-1.77c0.26-0.57,0.69-1.04,1.22-1.37
	c0.26-0.16,0.53-0.3,0.82-0.4c0.27-0.08,0.55-0.14,0.83-0.19c0.53-0.08,1.07-0.12,1.61-0.12c1.04,0.01,2.07,0.09,3.1,0.22
	c2,0.27,4,0.67,6,1.12c7.89,1.93,15.68,4.27,23.33,7c1.97,0.6,3.86,1.43,5.63,2.48c1.76,1.06,3.44,2.27,5,3.61
	c3.09,2.65,5.96,5.56,8.58,8.68L448.34,368.26z"/>
<path class="st2" d="M440.88,360.14c0,0,3-11.42,3.68-11.65"/>
<path class="st3" d="M445.48,344.76c-0.71-2.39-1.67-4.69-2.87-6.87c-0.59-1.09-1.31-2.1-2.15-3c-0.91-0.82-1.92-1.54-3-2.13
	c-4.26-2.63-8.51-5.31-12.62-8.19c-4.16-2.84-8.11-5.98-11.8-9.4c-1.87-1.73-3.55-3.67-5-5.76c-0.76-1.08-1.35-2.27-1.77-3.52
	c-0.47-1.32-0.54-2.75-0.21-4.11l0,0v-0.11l0.07-0.09c1.16-1.29,2.77-2.08,4.5-2.23c1.58-0.17,3.17-0.1,4.73,0.2
	c3,0.64,5.91,1.65,8.67,3c5.49,2.54,10.94,5.16,16.34,7.86c5.4,2.71,10.78,5.46,16,8.57c1.29,0.79,2.57,1.61,3.81,2.5
	c0.63,0.46,1.21,0.98,1.73,1.56c0.48,0.59,0.91,1.22,1.31,1.87c1.64,2.55,3.17,5.15,4.66,7.78l-0.33,0.19
	c-1.52-2.6-3.1-5.18-4.77-7.68c-0.4-0.63-0.83-1.24-1.3-1.82c-0.51-0.53-1.06-1-1.65-1.43c-1.23-0.85-2.5-1.64-3.8-2.4
	c-5.22-3-10.64-5.67-16.06-8.3s-10.92-5.14-16.43-7.59c-2.68-1.28-5.5-2.22-8.41-2.81c-1.41-0.26-2.86-0.3-4.28-0.12
	c-0.69,0.09-1.36,0.28-2,0.56c-0.3,0.14-0.58,0.3-0.85,0.49c-0.24,0.16-0.45,0.36-0.63,0.58l0.1-0.2l0,0
	c-0.28,1.08-0.23,2.22,0.13,3.27c0.36,1.13,0.88,2.21,1.55,3.19c1.37,2.04,2.95,3.93,4.72,5.64c3.59,3.45,7.44,6.62,11.5,9.5
	c4,2.94,8.22,5.68,12.43,8.39c1.11,0.64,2.13,1.4,3.06,2.28c0.85,0.95,1.58,2,2.18,3.13c1.17,2.23,2.11,4.57,2.78,7L445.48,344.76z"
	/>
<path class="st3" d="M442.56,270.91l-7.28-2.91c-2.44-1-4.86-2-7.3-2.88s-4.88-1.86-7.35-2.71c-1.23-0.44-2.47-0.85-3.71-1.22
	c-0.63-0.18-1.25-0.4-1.88-0.57s-1.26-0.33-1.89-0.51l0.06-0.39c2.63,0.29,5.23,0.79,7.78,1.52c2.56,0.69,5.05,1.56,7.52,2.48
	s4.91,1.93,7.3,3s4.76,2.23,7.07,3.52L442.56,270.91z"/>
<path class="st3" d="M445.8,294.75c-2.09-1-4.12-2-6.15-3.06s-4-2.17-6-3.29s-4-2.28-5.91-3.49s-3.9-2.4-5.77-3.79l0.28-0.41l3,1.55
	l3,1.58c2,1.05,4,2.15,6,3.26s4,2.24,5.95,3.42s3.92,2.35,5.83,3.62L445.8,294.75z"/>
<path class="st2" d="M414.67,366.21c0,0-14.92,14.29-9.67,34.85c0,0,2.47,9.83,5.06,14.94"/>
<path class="st3" d="M387.21,348.32c-0.45,0.45-0.95,0.85-1.48,1.19c-0.52,0.34-1.06,0.64-1.62,0.91c-0.55,0.28-1.13,0.52-1.73,0.7
	c-0.62,0.2-1.27,0.3-1.92,0.32c0.4-0.52,0.86-0.98,1.38-1.37c0.5-0.37,1.03-0.71,1.58-1c0.55-0.29,1.12-0.55,1.7-0.77
	c0.59-0.23,1.2-0.4,1.82-0.51L387.21,348.32z"/>
<path class="st3" d="M397.92,356.89c-1.31,0.22-2.66,0.53-4,0.88s-2.63,0.77-3.91,1.23c-2.58,0.91-5.02,2.18-7.24,3.79l-0.32-0.4
	c2.17-1.79,4.59-3.24,7.18-4.32c1.29-0.55,2.6-1.05,3.93-1.49s2.67-0.84,4.06-1.16L397.92,356.89z"/>
<path class="st3" d="M403.65,348.51l-5.6-1c-0.92-0.11-1.82-0.38-2.65-0.79c-0.27-0.12-0.48-0.36-0.56-0.65
	c-0.02-0.35,0.2-0.67,0.54-0.78c0.33-0.09,0.67-0.11,1-0.06c2.87,0.27,6.23,0.13,9,0.91c0.79,0.22,2.12,0.78,1.67,1.82
	S404.46,348.65,403.65,348.51z"/>
<path class="st3" d="M409.4,259.86c0.04,0.11,0.09,0.22,0.16,0.32c0.76,0.83,1.8,1.34,2.92,1.44l7.6,1.54
	c0.67,0.13,3.33,0.83,3-0.41c-0.08-0.19-0.22-0.34-0.4-0.45C417.83,260.72,412.63,259.44,409.4,259.86z"/>
<path class="st3" d="M433.73,426.9c3.98,1.61,8.51-0.31,10.12-4.29s-0.31-8.51-4.29-10.12c-0.11-0.04-0.22-0.08-0.32-0.12
	c-1.11-0.42-2.31-0.59-3.49-0.47c2.91,3.14,2.73,8.05-0.41,10.97c-1.24,1.15-2.83,1.87-4.52,2.03
	C431.62,425.78,432.62,426.46,433.73,426.9z"/>
<polygon class="st4" points="444.17,398.74 436.34,398.32 439.88,405.52 "/>
<polygon class="st4" points="418.75,441.07 426.58,441.49 423.04,434.29 "/>
<path class="st2" d="M386.82,421.25c-0.44,2.43,17.84,7,35.27,10.1c12.3,2.18,25.28,3.79,32,3.69c2.77-0.05,4.47-0.38,4.59-1.09
	c0.2-1.1-3.42-2.64-9-4.28v0.42c5.63,1.64,8.79,3,8.66,3.8c-0.29,1.58-15.2,0.8-36.15-2.91s-35.24-8.07-35-9.67
	c0-0.15,0.38-0.73,4.1-0.78c1.26,0,2.91,0,5.06,0.16v-0.37C390.21,419.93,387,420.24,386.82,421.25z"/>
<path class="st1" d="M155.58,358.94c-3.66-0.79-6.49-3.7-7.16-7.39c-0.17-1.02-0.43-2.03-0.79-3l0,0c-0.36,0.99-0.62,2.01-0.79,3.05
	c-0.68,3.69-3.52,6.61-7.19,7.39l-1.53,0.34c0.65,0.25,1.32,0.46,2,0.63c3.49,0.91,6.13,3.77,6.76,7.32
	c0.17,0.96,0.42,1.91,0.76,2.83l0,0c0.34-0.92,0.59-1.87,0.76-2.83c0.63-3.55,3.28-6.41,6.77-7.32c0.68-0.17,1.35-0.38,2-0.63
	L155.58,358.94z"/>
</svg>
