<svg id="圖層_1" data-name="圖層 1" xmlns="http://www.w3.org/2000/svg" xmlns:xlink="http://www.w3.org/1999/xlink" viewBox="0 0 300 450"><defs><style>.cls-1,.cls-27{fill:none;}.cls-14,.cls-2{fill:#231815;}.cls-19,.cls-3,.cls-4{fill:#3e3a39;}.cls-14,.cls-18,.cls-19,.cls-26,.cls-27,.cls-3,.cls-5,.cls-7{stroke:#c8b17d;stroke-miterlimit:10;}.cls-5{fill:#6a6969;}.cls-6{opacity:0.98;}.cls-7{fill:#d7d5c1;stroke-width:2px;}.cls-8{fill:#c8b17d;}.cls-9{fill:#7f4f21;}.cls-10{fill:#fbe2e3;}.cls-11{fill:#6a3906;}.cls-12,.cls-26{fill:#393332;}.cls-13{fill:#806e9f;}.cls-15{fill:#251b3a;}.cls-16{fill:#d2bb87;}.cls-17{fill:#eec073;}.cls-18,.cls-24{fill:#595757;}.cls-18,.cls-19{stroke-width:0.75px;}.cls-20{clip-path:url(#clip-path);}.cls-21{fill:#3c3736;}.cls-22{fill:#12031c;}.cls-23{clip-path:url(#clip-path-2);}.cls-25{fill:#352f2d;}</style><clipPath id="clip-path"><path class="cls-1" d="M114.58,152.48a17.06,17.06,0,0,0-9,13.88c-.93,5.85,2.23,12.12,6.54,16,4.63,4.19,13.22,4.21,18.79,2.24,6.63-2.35,9.67-8.06,10.51-14.47C143.26,156.29,127.16,145.75,114.58,152.48Z"/></clipPath><clipPath id="clip-path-2"><path class="cls-1" d="M176.6,152.48a17,17,0,0,0-9,13.88c-.92,5.85,2.23,12.12,6.54,16,4.63,4.19,13.22,4.21,18.79,2.24,6.63-2.35,9.67-8.06,10.52-14.47C205.27,156.29,189.17,145.75,176.6,152.48Z"/></clipPath></defs><rect class="cls-2" x="-72.17" y="0.72" width="450.78" height="450.78"/><path class="cls-3" d="M356.23,266.34c-4-13.39-10.92-25.74-17.73-37.85-7.52-13.39-16.62-27.79-15-43.81,1.48-14.46,9-27.69,14.83-40.74,6-13.41,10.36-27.47,10.61-42.27C349.4,75.1,334.88,50.6,310,40.29c-27.61-11.44-52.5.79-79.73,6.23-28.83,5.77-62.38,4.29-89.3-8.35-12.42-5.84-23.5-14-37.21-16.7s-28.51-1.19-41.92,3c-21.78,6.83-42.61,22-51.31,43.72C-.33,95.34,13.9,120.58,25.8,144.55c12.7,25.55-19,44.46-36,57.15C-31.53,217.62-49.8,240.6-52.6,268c-2.77,27,13.58,46.69,36.79,58,11.65,5.66,24.43,8.77,35.8,15,12.5,6.88,19.93,17.47,26.81,29.62,14.14,25,35.22,44.93,62.57,55.15,26,9.74,55.56,8,80.79-3.3,26-11.66,43.07-33.09,65.94-48.93,12.88-8.92,24.87-9.86,40-10,14.33-.1,27.69-4.76,38.29-14.54,21.61-19.94,30.08-54.73,21.8-82.67C352.62,254.14,362.35,287,356.23,266.34Z"/><path class="cls-4" d="M-6.63,106.65c-8.64-8-21.72-7.48-27.64,3.39-4.2,7.71-4.12,18.22-2.53,27.3a70.33,70.33,0,0,0,.79,9.19c1.33,9.1,5.32,17.74,13.28,22.79A14.24,14.24,0,0,0-4.2,166.67C.51,161,2,153.74,2.89,146.62,4.61,133.33,3.8,116.3-6.63,106.65Z"/><path class="cls-4" d="M202.48,30.08c1.2,1.41-.49-.64-.57-.75a4.74,4.74,0,0,0-.69-.65,11.78,11.78,0,0,0-1.57-1.11c-.39-.22-2.21-1.16-1-.51a17.11,17.11,0,0,0-6.52-2.1c-3.76-.5-7.16,2.44-8.35,5.74a6.09,6.09,0,0,0,1.58,6,6.23,6.23,0,0,0,1.35,1,8.91,8.91,0,0,0,3.26,2.74c4.45,2,10.5,2.74,13.52-2C205.1,35.76,204.39,32.31,202.48,30.08Z"/><path class="cls-4" d="M201.91,29.33l0,0S201.9,29.31,201.91,29.33Z"/><path class="cls-4" d="M229.05,29.34a4.65,4.65,0,0,1-.45-.75,3.55,3.55,0,0,0-2.39-4.06l-.82-.3c-2-.74-3.87.82-4.52,2.57a8.13,8.13,0,0,0-.07,3.44,3.68,3.68,0,0,0,3.61,3.61,3.38,3.38,0,0,0,2.44-1,6,6,0,0,0,.86-.22C229,32.22,230,30.58,229.05,29.34Z"/><path class="cls-4" d="M27.67,379.76c-1.45-6.91-6.5-12.2-11.36-17-8.67-8.49-32.07-26.86-39.24-6.55-3.36,9.53,2.07,18.46,9.83,25.57a56.64,56.64,0,0,0,6.64,6.29c5.9,4.86,12.51,8.69,20.21,9.32,3.46.87,6.9.71,10.14-2.06a6,6,0,0,0,1.93-3.16A17,17,0,0,0,27.67,379.76Z"/><path class="cls-4" d="M292.22,380.54a10.43,10.43,0,0,0-14.44-2.68,25.59,25.59,0,0,0-4.36,4c-.17.1-.34.19-.51.3A9.9,9.9,0,0,0,269.5,394c3,7.15,10.94,8.25,17.29,4.87a14.09,14.09,0,0,0,6.28-7.57C294.21,388.4,293.92,383.09,292.22,380.54Z"/><path class="cls-4" d="M49.54,410.72c-1.53-2.7-3.84-4.63-5.32-7.15-2.72-4.63-10.25-5-12.86,0-1.93,3.73-1.38,7.31.3,11a10,10,0,0,0,4.22,4.39c2.79,3.45,6,5.78,10.92,6.26,2.89.27,5.19-2.6,5.24-5.24A18,18,0,0,0,49.54,410.72Z"/><path class="cls-5" d="M258.9,237.08c-28.36-29.36,45.26-87.61,36.54-126-5.06-22.26-26.72-34-48.36-28.17-15.57,4.17-32.25,41.13-45.75,37.76-12.91-3.23-21.42-26.19-33.56-33.17-19.15-11-43.89-12.57-62.75.13-20.38,13.73-21,37.72-16.78,59.7,4.43,23.37,23.39,33.86-3.09,48.76C41.24,220.8,6.2,265.86,39.76,315.43,70,360.1,126.7,367.72,165,331.47c37.06-35.07,47,14.23,88.22,9.32,20.65-2.46,37.33-18.78,41.18-39,6.15-32.43-16.46-44.95-35.52-64.68Z"/><path class="cls-5" d="M59.42,70c-6.75,1.5-10.28,7.74-12.16,13.81a53.18,53.18,0,0,0-1.58,6.36,43,43,0,0,0-1.58,6.63c-1,6.47.63,14.61,7.71,16.87C64,117.62,71.92,101.64,73.26,91.85S73,67,59.42,70Z"/><path class="cls-5" d="M211.32,91.6c-.6-6.52-6.2-12.56-12.78-12.94-4.28-.26-8.24,2.79-8.18,7.24a8.78,8.78,0,0,0,.75,3.26,16.87,16.87,0,0,0,5.18,8,9.86,9.86,0,0,0,9.36,2.5A7.7,7.7,0,0,0,211.32,91.6Z"/><path class="cls-5" d="M309.31,59.14A6.38,6.38,0,0,0,302,62.52a3.25,3.25,0,0,0-.39.35c-3.72,3.81-.51,9.06,2.33,12.26,2.65,3,7.1,5.92,11.27,5.51,2.3-.23,4.86-1.5,5.32-4C321.88,69.1,316.93,60.92,309.31,59.14Z"/><path class="cls-5" d="M309.64,205.66a11.19,11.19,0,0,0-4.85-5.53,5.83,5.83,0,0,0-1.83-1.61c-3.68-2-8.26,2.1-5.9,5.9.31.5.68,1.08,1.11,1.66,0,1.42,1.09,2.76,1.86,3.87a18.44,18.44,0,0,0,3.5,4,3.87,3.87,0,0,0,5.92-.76,6.44,6.44,0,0,0,1.34-3.82A9.41,9.41,0,0,0,309.64,205.66Z"/><path class="cls-5" d="M328.34,257.74c-3.51-8.05-11.06-17.26-20.67-16.88-18.91.74-10.41,24.8-1.22,36,4.08,5.6,9.82,10,15.78,12,3.43,1.12,6.55-.79,8.49-3.45C336.07,278,331.57,265.12,328.34,257.74Z"/><path class="cls-5" d="M202.3,355.14c-7.85-2.57-17.51.28-24.06,5.23a20.17,20.17,0,0,0-11.47,7.73c-5,6.84-5.06,16.88,2,22.22,5.44,4.13,13.5,3.13,19.67,1.65,7.23-1.74,14.76-5.61,19.84-11.07C216.33,372.21,213.75,358.89,202.3,355.14Z"/><path class="cls-5" d="M-24,269.53c-4.52,4.6-2.74,10.74-.1,15.92,1.75,11.3,12.58,23.25,22.27,12.69S-11.71,257.05-24,269.53Z"/><path class="cls-5" d="M1.7,234.4a9.27,9.27,0,0,0-2.15-4.2A1.88,1.88,0,0,0-.66,230a7.6,7.6,0,0,0-.84-1c-.41-.32-.82-.64-1.24-.95,1.1.83.33.12.11-.07-3-2.6-8.61-2-9.5,2.5a21.53,21.53,0,0,0-.26,6.26,7.73,7.73,0,0,0,.64,2.33,4.53,4.53,0,0,0,.22,1.22c1.15,3.5,4.11,5.07,7.59,5.45,1.71.19,3.18-1.06,4.08-2.34A11.42,11.42,0,0,0,1.7,234.4Z"/><g class="cls-6"><path class="cls-7" d="M234.35,72.62c-11.68-18.87-29.13-31.8-50.13-38.57-12.85-4.14-26.19-6.23-39.65-4.63a105,105,0,0,0-36,11.54,153.77,153.77,0,0,0-16.72,9.95c-3.78,2.64-8.12,5.57-10.48,9.62a.65.65,0,0,0-.09.39,133.08,133.08,0,0,0-17.79,28c-5.2,11.44-6.44,23.74-6.74,36.18-.58,24,8.69,47.19,24.6,65,15.09,16.88,37.08,29,59.55,31.94,13.25,1.73,27.65.15,40.49-3.36a74.23,74.23,0,0,0,16.8-7.12c5.13-2.86,10.74-5.23,15.15-9.18a10.54,10.54,0,0,0,1.22-1.39c17.1-14.5,28.23-34.9,34-56.58C254.89,120.23,247.19,93.37,234.35,72.62Z"/><path class="cls-8" d="M110.94,58.41c1-1.86,1.39-5.68-1.23-6.52-4.94-1.58-10.44,2.25-14.32,6.93A20.52,20.52,0,0,0,89,69.21a3.82,3.82,0,0,0,3.25,4.85c3.25.48,6.83-2.93,9-4.88C104.88,66,108.57,62.65,110.94,58.41Z"/><path class="cls-8" d="M73.69,112.48c.88-2.28,3.25-8.7-1.18-8.78-2.24,0-3.94,3.41-4.58,6.36a17,17,0,0,0-.78,3.33c-.27,2-1.11,4.68.74,6.17C71.4,122.39,73,114.27,73.69,112.48Z"/><path class="cls-8" d="M83.79,121c-.69-1.5-3.16-5.79-5.44-3.44a8.77,8.77,0,0,0-2.06,3.6c-2.33,5.37-.59,12.84,1,18.06,1.45,4.74,5.16,11.71,10.41,13a1,1,0,0,0,1.21-.68c1.48-3.91-.12-8.43-1.09-12.27C86.29,133.25,86.42,126.63,83.79,121Z"/><path class="cls-8" d="M71.41,157.6a.72.72,0,0,0-1.07.62c0,.32,0,.64,0,1-.47,3,1.81,7.57,5.11,7.43a.8.8,0,0,0,.78-.59C76.76,162.7,74.15,159.22,71.41,157.6Z"/><path class="cls-8" d="M102.65,89.66A7.22,7.22,0,0,0,100.1,94c-.12.73,0,1.62.8,1.89a2.77,2.77,0,0,0,2.41-.84,10.76,10.76,0,0,0,1.91-2.67c.45-.8,1.18-2.07.56-3C105,88.27,103.68,88.76,102.65,89.66Z"/><path class="cls-8" d="M189.06,50.9c-1.82-1.12-6.05-3.33-7.2-.27-.81,2.15,3.79,5.4,5.52,5.61l.09,0c.47.32.95.63,1.46.92,1.45.86,3,1.53,4.39.24C195.6,55.24,190.53,51.8,189.06,50.9Z"/><path class="cls-8" d="M213.22,80c2.59,4.06,5.79,7.68,10.33,9.51a1,1,0,0,0,1.24-.71c1.77-4.42-1.11-8.87-3.39-12.54-3.09-5-5.93-9.63-10.81-13.09C208.87,62,205,60.66,205,64.23c0,1.34.87,2.83,1.6,4.13C207.64,72.6,210.91,76.4,213.22,80Z"/><path class="cls-8" d="M238.5,97.18a.82.82,0,0,0-1.09-.29,2.86,2.86,0,0,0-1.19,3,15,15,0,0,0,.32,3.36c.24,1.53.92,3.09,2.64,3.21,1.55.11,1.84-2,1.89-3.12C241.17,100.92,239.92,99,238.5,97.18Z"/><path class="cls-8" d="M212.1,164.88c2.21-.44,3.63-4,4-5.94a2.92,2.92,0,0,0-1-3.12c-1-.64-2.15.29-2.72,1.16a14.59,14.59,0,0,0-2.73,4.7C209,163.65,209.89,165.32,212.1,164.88Z"/><path class="cls-8" d="M214.89,170.54a42.6,42.6,0,0,0-10.7,10.07c-3.68,4.7-7.7,9.61-9.16,15.5-.69,2.78.33,5.52,3.41,5.52,1.89,0,3.83-1.51,5.36-2.39a69.48,69.48,0,0,0,7.86-5.32,64.4,64.4,0,0,0,14-14.37c2-2.89,5.8-8.51,2.78-12C224.93,163.45,219.48,166.39,214.89,170.54Z"/><path class="cls-8" d="M236,129.06c-2.32-.77-4.59,2.36-6.28,5.67-2.27,3.14-3.43,6.88-5.35,10.39-1.07,1.95-2.78,6.37-.95,8.37,4,4.28,8.62-6.56,10.17-9.07C235.39,141.52,242.13,131.09,236,129.06Z"/><path class="cls-8" d="M123.33,188.54c-2.43-2.35-24.2-19.34-26.47-12.69-1.13,3.31,3,7.14,5.4,9.32,1.52,2.71,4.23,4.75,6.79,6.5a59.08,59.08,0,0,0,14.61,7.45c2.14.69,6.89.9,6.53-2.47C129.84,193.43,125.48,190.6,123.33,188.54Z"/><path class="cls-8" d="M149.12,207c-2-1.41-4.48-1.94-6.79-2.48-2.12-.5-11.63-2.62-10.44,2.38.51,2.16,3,3.15,4.85,3.92a21.92,21.92,0,0,0,6.38,1.71l.3.06c2.36.38,6.18,1.05,7.85-1.2C152.49,209.73,150.24,207.79,149.12,207Z"/><path class="cls-8" d="M96.05,188.23a1.52,1.52,0,0,0-1.82,1.31s0,.07,0,.11a.42.42,0,0,0-.24.45c.56,2.92,4.38,5.61,7,6.42a2.1,2.1,0,0,0,2.79-1.15c.46-1.11-.3-2.3-1-3.13C101.37,190.38,98.48,188.43,96.05,188.23Z"/><path class="cls-8" d="M134,194.53a2.53,2.53,0,0,0,.38.87.26.26,0,0,0,.08.37c.31.22.64.45,1,.67l.26.18a6.48,6.48,0,0,0,4.58,1.24c.82-.15,2.32-.7,1.61-1.81-.57-.91-2.11-1.25-3.06-1.53a16.23,16.23,0,0,0-4.25-.76A.61.61,0,0,0,134,194.53Z"/><path class="cls-8" d="M181,186.23c-2.27-.14-4.53,1.08-6.4,2.24-1.44.88-4.16,2.92-3.48,4.87a.55.55,0,0,0,.14.22,2.55,2.55,0,0,0,1.58,1.79c3.27,1.08,7.68-1.18,10.48-2.79a4,4,0,0,0,2.17-4.18C185.21,186.56,182.41,186.32,181,186.23Z"/><path class="cls-8" d="M192.88,155.8c-1.76-1-3.45,1.51-4.2,2.74a.42.42,0,0,0-.06.21,7.19,7.19,0,0,0-.64.89,2.72,2.72,0,0,0-.21,2.86c1.36,1.79,3.84-.27,4.67-1.52S194.84,156.94,192.88,155.8Z"/><path class="cls-8" d="M209.85,111.3a2.29,2.29,0,0,0,2.57,1.09c1.36-.24,1.62-1.89,1.65-3,0-2.09-1-6.86-3.85-6.73-1.81.08-1.63,2.55-1.09,4.33A7.53,7.53,0,0,0,209.85,111.3Z"/><path class="cls-8" d="M141,63.41a8.32,8.32,0,0,0,3.34-2c.77-.7,1.74-1.76,1.65-2.88-.11-1.4-1.77-1.64-2.88-1.66-1.7,0-3.12,1.26-4.34,2.28a.32.32,0,0,0,0,.44A5,5,0,0,0,138,61a2.07,2.07,0,0,0,.3,2.15C138.94,63.86,140.16,63.65,141,63.41Z"/><path class="cls-8" d="M173.23,90.29c1,.49,3,.54,3.09-1,.07-1.16-1.3-2.07-2.17-2.58a5.07,5.07,0,0,0-3.84-.8.61.61,0,0,0-.36.88.65.65,0,0,0,.32.32A5.75,5.75,0,0,0,173.23,90.29Z"/><path class="cls-8" d="M112.92,148.37a11.94,11.94,0,0,0,2.14,2.5,13,13,0,0,0,2.69,2.16c.91.54,2.28.89,3-.13.85-1.18.32-3.07-.23-4.27a11.14,11.14,0,0,0-4.2-4.86c-1.22-.75-3.5-1.12-4.37.37S112.11,147.19,112.92,148.37Z"/><path class="cls-8" d="M112.74,130.62a6,6,0,0,0,1.51,3.6c.76.81,2.5,1.34,3.26.32s-.41-2.72-.88-3.5a8.79,8.79,0,0,0-2.91-3.23.79.79,0,0,0-1.14.47,2.28,2.28,0,0,0,0,2.21A.44.44,0,0,0,112.74,130.62Z"/><path class="cls-8" d="M133.92,154.51a.7.7,0,0,0,.48-.84,8,8,0,0,0-2.88-3.79c-1.08-.92-2.37-1.76-3.79-1.11-2.19,1,1.31,4.61,2.83,5.13A4.65,4.65,0,0,0,133.92,154.51Z"/></g><path class="cls-9" d="M287.57,415.51h0c-.31-1.93-2.58-3.65-3.88-4.92-2.34-2.27-4.72-4.5-7.2-6.63-4.35-3.76-8.64-7.59-13.33-10.92a.71.71,0,0,0-.72-.71c-21.28-.89-42.75-.18-64.05-.16-15,0-30.12-.32-45.17-.05-15-.27-30.14.06-45.16.05-21.3,0-42.77-.73-64.06.16a.71.71,0,0,0-.71.71c-4.7,3.33-9,7.16-13.34,10.92-2.47,2.13-4.85,4.36-7.19,6.63-1.31,1.27-3.58,3-3.89,4.92h0a4.62,4.62,0,0,0,.3,2.81c.22.67.65,1.9,1.38,2.23a.57.57,0,0,0,.41.24c11.52,1.29,23.58.39,35.15.4q18.47,0,36.93,0l37.3,0,14.69,0c2.72.15,5.46.11,8.19.06s5.48.09,8.19-.06l14.7,0,37.3,0q18.47,0,36.92,0c11.58,0,23.64.89,35.15-.4a.59.59,0,0,0,.42-.24c.73-.33,1.16-1.56,1.38-2.23A4.69,4.69,0,0,0,287.57,415.51Z"/><path class="cls-10" d="M281.11,391.2c0-6.37.42-12.92-.16-19.27a.82.82,0,0,0-1.23-.69c-11.76-.93-23.82-.23-35.61-.26q-17.07,0-34.15,0c-18.85,0-37.86-.62-56.74-.05-18.87-.57-37.88.05-56.73.05q-17.08,0-34.16,0c-11.78,0-23.85-.67-35.6.26a.83.83,0,0,0-1.24.69c-.57,6.35-.17,12.9-.15,19.27s-.15,12.84.42,19.21c-.09,1.14,1.38,2,2.49,1.82a.45.45,0,0,0,.11,0c11.75,1.19,24,.23,35.86.23,12.57,0,25.13-.05,37.7-.05h34.9c5.41.39,10.91.39,16.4.29,5.5.1,11,.1,16.41-.29h34.9c12.56,0,25.13.06,37.69.05,11.82,0,24.11,1,35.87-.23a.45.45,0,0,0,.11,0c1.1.18,2.58-.68,2.48-1.82C281.26,404,281.08,397.6,281.11,391.2Z"/><path class="cls-9" d="M289.69,374.1a19.29,19.29,0,0,0-2.9-4.73c-2.25-2.87-4.11-6-6.18-9-4-5.74-7.82-11.53-11.77-17.27-6.94-10.1-13.83-20.43-22.18-29.4a.69.69,0,0,0-.61-1c-9.39-.84-19.09-.23-28.51-.23H164.35c-3.69-.2-7.42-.17-11.13-.1s-7.43-.1-11.12.1H88.91c-9.43,0-19.12-.61-28.51.23a.7.7,0,0,0-.62,1c-8.35,9-15.24,19.3-22.17,29.4-4,5.74-7.81,11.53-11.77,17.27-2.07,3-3.94,6.09-6.18,9a19.29,19.29,0,0,0-2.9,4.73c-.53.41-.49,1.19-.39,1.89a7.75,7.75,0,0,0,.49,1.62,6.51,6.51,0,0,0,.55,1.3.61.61,0,0,0,.6.61c12.82.65,25.78.14,38.61.15,13.49,0,27,.07,40.46.09,13.21,0,26.41.07,39.62.06l5.07,0q5.72.11,11.45.07t11.46-.07l5.07,0c13.21,0,26.41,0,39.61-.06,13.49,0,27-.09,40.46-.09,12.84,0,25.8.5,38.62-.15a.61.61,0,0,0,.6-.61,5.94,5.94,0,0,0,.54-1.3,7.23,7.23,0,0,0,.5-1.62C290.17,375.29,290.22,374.51,289.69,374.1Z"/><path class="cls-11" d="M289,378.91a5.94,5.94,0,0,0,.54-1.3,7.23,7.23,0,0,0,.5-1.62c.09-.7.14-1.48-.39-1.89l-.12-.26c-21.75-.46-43.57,0-65.33,0H81c-21.28,0-42.82-.89-64.12,0a1.86,1.86,0,0,0-.1.2c-.53.41-.49,1.19-.39,1.89a7.75,7.75,0,0,0,.49,1.62,6.51,6.51,0,0,0,.55,1.3.61.61,0,0,0,.6.61c12.82.65,25.78.14,38.61.15,13.49,0,27,.07,40.46.09,13.21,0,26.41.07,39.62.06l5.07,0q5.72.11,11.45.07t11.46-.07l5.07,0c13.21,0,26.41,0,39.61-.06,13.49,0,27-.09,40.46-.09,12.84,0,25.8.5,38.62-.15A.61.61,0,0,0,289,378.91Z"/><path class="cls-11" d="M285.9,420.55c.73-.33,1.16-1.56,1.38-2.23a7,7,0,0,0,.41-1.91c-21.13-.4-42.32,0-63.45,0H81c-20.64,0-41.54-.84-62.22,0a6.94,6.94,0,0,0,.41,1.9c.22.67.65,1.9,1.38,2.23a.57.57,0,0,0,.41.24c11.52,1.29,23.58.39,35.15.4q18.47,0,36.93,0l37.3,0,14.69,0c2.72.15,5.46.11,8.19.06s5.48.09,8.19-.06l14.7,0,37.3,0q18.47,0,36.92,0c11.58,0,23.64.89,35.15-.4A.59.59,0,0,0,285.9,420.55Z"/><path class="cls-12" d="M247.31,419.82c-2.64-2.36-6.58-3.19-9.74-4.53-6.58-2.79-4.75-10.68-3.46-16.23a.81.81,0,0,0-.56-1,17.46,17.46,0,0,0-4.68-.13c-3.65-.37-7.55,0-11.11.11-5.23.13-10.58.19-15.78.69a.54.54,0,0,0-.52.54c-1.28,2.16-.41,6.44-.15,8.66a20.1,20.1,0,0,0,3.94,9.91c2,2.63,4.94,3.85,7.94,4.93,6.47,2.31,10.07,5.49,10.29,12.54a.23.23,0,0,0,.07.41h.06a.35.35,0,0,0,.37.06c4.7.52,11.08-6.72,9.89-11.44,2.81.89,5.7,1.5,8.23,3.09,3,1.84,5.33,5.51,6.56,8.71a.84.84,0,0,0,1.51.19l.43-.78C253.82,430.55,251.49,423.54,247.31,419.82Z"/><path class="cls-13" d="M92.44,386.77q30.44.15,60.85.16t60.64,0c20.2,0,40.45.38,60.63-.59a.37.37,0,0,0,0-.74c-19.59-.94-39.25-.55-58.85-.59q-30.32-.06-60.63,0t-60.85.16q-15.21.07-30.43.14c-10.14,0-20.39-.37-30.5.34a.36.36,0,0,0,0,.72C52.86,387.67,72.83,386.68,92.44,386.77Z"/><path class="cls-13" d="M276.84,398.19c-6.92-1.05-14.28-.38-21.27-.37l-25.16,0-50.27.08q-50.12.09-100.22.54a.22.22,0,0,0,0,.44q49.21.39,98.43.53l50.27.08,25.15,0c7.57,0,15.58.77,23.07-.36A.53.53,0,0,0,276.84,398.19Z"/><path class="cls-13" d="M197.65,404c-12.28-1.72-25.26-.63-37.64-.63H118.89c-26.81,0-53.69-.48-80.46.72a.23.23,0,0,0,0,.45c26.77,1.2,53.65.71,80.46.71l39.34,0c13,0,26.57,1.17,39.42-.63C198,404.61,198,404.05,197.65,404Z"/><path class="cls-13" d="M48.7,394a.09.09,0,0,0,0,.17c53.84,1.06,107.86,1.54,161.69.31a.39.39,0,0,0,0-.78C156.56,392.44,102.54,392.93,48.7,394Z"/><path class="cls-13" d="M250.6,389.23a.3.3,0,0,0,0-.59c-26.33-1.32-52.85-.5-79.21-.47q-20.73,0-41.45.08c-13.79,0-27.7-.37-41.46.57a.12.12,0,0,0,0,.23c13.16.9,26.47.53,39.65.57l41.46.08C196.55,389.73,223.67,390.57,250.6,389.23Z"/><path class="cls-14" d="M85.47,326.84a108.92,108.92,0,0,1-4.93-17c-.58-3-.45-8.25-2.51-11.13a.84.84,0,0,0-.65-.85l-.17-.06a4.45,4.45,0,0,0-.48-.38,1.09,1.09,0,0,0-.89-.18c-4.54-2.23-7.55-7.64-10-11.75-3.91-6.51-4.35-13.64-3.7-21,1.24-14,8.35-26.49,10.25-40.28a51.45,51.45,0,0,0-7.21-34.78c-4.93-7.87-12-16.5-22.19-15.94-8.21.45-15.73,6.27-13.75,15.17,1.24,5.57,4.43,10.16,6.89,15.22,3,6.26,4.79,13.13,6.14,19.93,2.81,14.26,2.13,28.79.57,43.14-.72,6.59-1.64,13.12-1.5,19.76A53.07,53.07,0,0,0,45.58,305c6,15.05,22.2,26.57,38.93,23.51A1.38,1.38,0,0,0,85.47,326.84Z"/><path class="cls-15" d="M118.12,333.66c-1.86-4.47-4.06-8.78-5.85-13.28a130,130,0,0,0-12.78-24.67c-1.67-2.5-8.42-14.82-12.92-12.18-3.25,1.9-3.41,8.25-2.57,12.68.22,2,.57,3.93.87,5.77,1.43,8.79,6.6,16.59,10.94,24.16a42.43,42.43,0,0,0,15.94,16.29c3.42,1.9,8.46,3.73,8.46-1.85C120.21,338.17,119,335.81,118.12,333.66Z"/><path class="cls-15" d="M188.33,333.66c1.86-4.47,4.06-8.78,5.84-13.28A130.58,130.58,0,0,1,207,295.71c1.66-2.5,8.42-14.82,12.91-12.18,3.26,1.9,3.42,8.25,2.58,12.68-.22,2-.58,3.93-.88,5.77-1.42,8.79-6.59,16.59-10.93,24.16a42.5,42.5,0,0,1-15.94,16.29c-3.42,1.9-8.46,3.73-8.46-1.85C186.24,338.17,187.44,335.81,188.33,333.66Z"/><path class="cls-2" d="M198.53,237.52c-.22-3.66-.07-8.84-4.64-9.63a215.89,215.89,0,0,0-22.39-2.62c-5.54-.37-12-1.54-17.36.31a.76.76,0,0,0-.84-.11l-.08,0-.07,0a.76.76,0,0,0-.84.11c-5.4-1.85-11.82-.68-17.36-.31a215.89,215.89,0,0,0-22.39,2.62c-4.57.79-4.42,6-4.65,9.63a112.2,112.2,0,0,0,1.24,25.76c2.74,16,7,31.89,14.84,46.2,3.86,7,8.72,13.32,13.3,19.88s8.86,13.75,14.07,20.1a.83.83,0,0,0,1.14.21h0a1.35,1.35,0,0,0,.62.18h.19a1.39,1.39,0,0,0,.62-.18h0a.85.85,0,0,0,1.15-.21c5.21-6.35,9.38-13.39,14.07-20.1s9.43-12.85,13.29-19.88c7.86-14.31,12.1-30.17,14.85-46.2A111.64,111.64,0,0,0,198.53,237.52Z"/><path class="cls-16" d="M151.64,225.88l-.19.11a.92.92,0,0,0-.61-.25c-2.39-.11-4.69,1.16-7.21,1.2-3.92.05-7.85.11-11.76,0a260.39,260.39,0,0,1-28.19-2.29,1,1,0,0,0-1,1.31C95.36,238.18,83,249.05,75,260.77c-8.21,12-13.33,24.69-12.86,39.33.44,13.66,6,22.73,15.12,32.52C81.7,337.41,90.51,342,96.69,344a27.87,27.87,0,0,0,7.73,1.34c2.48.1,6.35-.51,8.52.87a1.06,1.06,0,0,0,.82.16.72.72,0,0,0,.9-1l0-.07a1.17,1.17,0,0,0-.51-1.06l-.07,0c-2.89-5.17-7.57-9.62-10.92-14.47a54.08,54.08,0,0,1-8.28-19.25c-3.11-14,0-28.59,7.52-40.65,6.11-9.84,15.16-17.63,24.32-24.54,7.88-6,16.67-11,24.07-17.52h.09a1,1,0,0,0,.95-.91c.11-.11.23-.21.35-.31A.42.42,0,0,0,151.64,225.88Z"/><path class="cls-16" d="M154.57,225.88l.19.11a.93.93,0,0,1,.62-.25c2.38-.11,4.68,1.16,7.2,1.2,3.92.05,7.85.11,11.77,0a260.41,260.41,0,0,0,28.18-2.29,1,1,0,0,1,1,1.31c7.3,12.23,19.65,23.1,27.7,34.82,8.21,12,13.33,24.69,12.86,39.33-.44,13.66-6,22.73-15.12,32.52-4.48,4.79-13.29,9.38-19.47,11.39a27.81,27.81,0,0,1-7.73,1.34c-2.48.1-6.35-.51-8.52.87a1.06,1.06,0,0,1-.82.16.72.72,0,0,1-.9-1l0-.07a1.17,1.17,0,0,1,.51-1.06l.07,0c2.89-5.17,7.57-9.62,10.92-14.47a54.28,54.28,0,0,0,8.29-19.25c3.1-14,0-28.59-7.53-40.65-6.11-9.84-15.16-17.63-24.32-24.54-7.88-6-16.67-11-24.07-17.52h-.08a1,1,0,0,1-1-.91c-.11-.11-.23-.21-.35-.31A.42.42,0,0,1,154.57,225.88Z"/><path class="cls-12" d="M55.91,221.6a1.09,1.09,0,0,0,1.59.65c4.53-2.27,5.4-11,4.81-16.86,1.5,2.27,2.08,5.2,3.71,7.46a1.22,1.22,0,0,0,1.89.25,19.39,19.39,0,0,0,4-6.49,50.2,50.2,0,0,0-6.79-17.25c-4.93-7.87-12-16.5-22.19-15.94-8.21.45-15.73,6.27-13.75,15.17,1.24,5.57,4.43,10.16,6.89,15.22A75.35,75.35,0,0,1,41.68,221a.72.72,0,0,0,.28-.16c5.38-4.7,5.61-13,5.5-19.79C53.53,206.38,53.74,214.22,55.91,221.6Z"/><path class="cls-17" d="M94.57,214.51a37.11,37.11,0,0,0-3.09-6c-1.51-2.8-2.6-5.77-3.89-8.67-1.47-3.31-3.78-5.57-6.67-3.62-5,.62-9.65,6.16-6.84,11,3.74,6.51,12.64,9.42,19.85,8.38A.91.91,0,0,0,94.57,214.51Z"/><path class="cls-17" d="M211.88,214.51a37.11,37.11,0,0,1,3.09-6c1.5-2.8,2.6-5.77,3.89-8.67,1.47-3.31,3.78-5.57,6.67-3.62,5,.62,9.65,6.16,6.84,11-3.74,6.51-12.64,9.42-19.85,8.38A.91.91,0,0,1,211.88,214.51Z"/><path class="cls-17" d="M149.27,232.9h-.17l.2-.1a.88.88,0,0,0,.34-1.32.47.47,0,0,0-.24-.28,1,1,0,0,0-1-.18,18,18,0,0,0-20.14,15.84c-.39,4.24.68,9.32,4.61,11.75,3.75,2.32,8.64,2.18,11.52-1.57,3.53-4.58,2.86-10.33,4.13-15.68C148.82,240.24,153.34,233.14,149.27,232.9Zm-3.38,1.27c-1.94,1.67-3.23,4.62-4.11,6.58-.43,1-.71,2-1.05,3-1.44,7.17-6.33,4.39-3.37-1.39a10,10,0,0,1,1.48-3.18C140.51,236.47,143.15,235.25,145.89,234.17Z"/><path class="cls-17" d="M157.86,241.37c1.27,5.35.59,11.1,4.12,15.68,2.89,3.75,7.78,3.89,11.53,1.57,3.93-2.43,5-7.51,4.61-11.75A18,18,0,0,0,158,231a1,1,0,0,0-1,.18.47.47,0,0,0-.24.28.88.88,0,0,0,.34,1.32l.19.1h-.17C153.08,233.14,157.59,240.24,157.86,241.37Zm9.72-2.16a10,10,0,0,1,1.48,3.18c3,5.78-1.94,8.56-3.38,1.39-.33-1-.61-2.07-1-3-.88-2-2.18-4.91-4.12-6.58C163.26,235.25,165.91,236.47,167.58,239.21Z"/><path class="cls-17" d="M162.24,228.64a1.25,1.25,0,0,0-1.52-.87c-3.74.83-7.32.62-11.09.89-1.39.11-4.1-.43-5.23.7-.73.73-.52,2,.09,3.17a8.44,8.44,0,0,0,.54,1.58c1.25,2.75,4.48,4.27,7.27,4.74C157.92,239.81,163.85,234.49,162.24,228.64Z"/><path class="cls-14" d="M233.24,175.34a60.48,60.48,0,0,0-5-18.65,43.31,43.31,0,0,0-6.53-9.88,22.2,22.2,0,0,0,1.2-10.95c-1.31-8.75-6.86-16.78-5.62-25.61a.44.44,0,0,0-.12-.38.27.27,0,0,0-.36-.15c-6.6,2.08-12.08,5.66-17.47,9.93a61.75,61.75,0,0,0-10.73,10.42,162.17,162.17,0,0,0-19.72-2.61c-4.25-.39-8.38-.31-12.6-.32-1-.07-2-.06-3.05,0s-2,0-3,0c-4.22,0-8.36-.07-12.6.32a161.91,161.91,0,0,0-19.72,2.61,61.75,61.75,0,0,0-10.73-10.42c-5.39-4.27-10.87-7.85-17.47-9.93a.27.27,0,0,0-.36.15.41.41,0,0,0-.12.38c1.24,8.83-4.31,16.86-5.62,25.61a22.2,22.2,0,0,0,1.2,10.95,43.31,43.31,0,0,0-6.53,9.88,60.5,60.5,0,0,0-5,18.65c-1.18,12.34,2.71,27,10.57,36.59,8.27,10,20.63,14.76,33.07,17.69a113.83,113.83,0,0,0,19.35,2.8c5.47.31,11.45.8,17,0,5.59.8,11.57.31,17,0a113.71,113.71,0,0,0,19.34-2.8c12.45-2.93,24.8-7.64,33.07-17.69C230.54,202.37,234.43,187.68,233.24,175.34Z"/><path class="cls-18" d="M93.64,119.14c-.06-.35-.64-.27-.63.09.28,6.11-2.35,11.73-3.63,17.62-.51,2.36-.1,5.63,2.19,7,3.17,1.94,7.92,1.35,10-1.25,6.33-4.6-5.28-19.24-7.91-23.36A.62.62,0,0,1,93.64,119.14Z"/><path class="cls-18" d="M217.06,136.85c-1.27-5.89-3.9-11.51-3.63-17.62,0-.36-.56-.44-.62-.09a.53.53,0,0,0,0,.13c-2.63,4.12-14.24,18.76-7.92,23.36,2.08,2.6,6.83,3.19,10,1.25C217.17,142.48,217.57,139.21,217.06,136.85Z"/><path class="cls-19" d="M174.13,121.61c-7.74-1.69-16.25-1.59-24.14-1.55-5.13,0-12.21-.17-17.56,1.9-4,.47-8.08,1.66-9.5,4.45-2.17,4.25.68,8.42,4.09,11,5.26,4,13.55,4.72,19.88,5a93.27,93.27,0,0,0,25.55-2c5.33-1.24,10.81-4.2,11.74-10S178.49,122.56,174.13,121.61Z"/><path class="cls-19" d="M167,116.47c-2.62-4.19-4.78-9-7.91-12.8-.94-1.15-3-4.32-4.82-4.24a.49.49,0,0,0-.53,0c-5.7,4.15-9.78,11.4-13.7,17.15-3.2,4.67-8.4,9.59-2.59,14.18,5.19,4.1,13.61,3.44,19.74,3.24,2.61-.09,8.08-.46,11.23-2.41C175.1,130.23,169.43,120.28,167,116.47Z"/><path class="cls-8" d="M168.46,131.64c5.7-1.21,2.33-8.72-.25-13.23-4.32,1.84-9.32,2.32-13.87,2.41a52.7,52.7,0,0,1-10.5-.82,31.4,31.4,0,0,1-5.17-1.42c-3,4.08-6.18,8.27-1.18,12.23,5.19,4.1,13.61,3.44,19.74,3.24C159.84,134,165.31,133.59,168.46,131.64Z"/><path class="cls-10" d="M114.58,152.48a17.06,17.06,0,0,0-9,13.88c-.93,5.85,2.23,12.12,6.54,16,4.63,4.19,13.22,4.21,18.79,2.24,6.63-2.35,9.67-8.06,10.51-14.47C143.26,156.29,127.16,145.75,114.58,152.48Z"/><g class="cls-20"><path class="cls-21" d="M143.28,154.87c-2.57-6-15.41-12.61-20.51-6.55-6,2.31-9.31,9.81-7.94,16.28,2.06,9.71,11.82,14.22,21,11.42C144.33,173.43,146.37,162.1,143.28,154.87Z"/><path class="cls-22" d="M131.29,153.69a4.66,4.66,0,0,0-4.22,1.21c-2.72.94-3.15,5.48-1.82,7.74,1.93,3.28,7.75,4,10,.73C138,159.42,135.93,154.68,131.29,153.69Z"/><path class="cls-10" d="M126.45,155.92a4,4,0,0,0-4.22.61,1.5,1.5,0,0,1-.13.11c-1.61.51-2.39,3.07-1.72,4.59a4.65,4.65,0,0,0,7,1.64C129.81,161,129.07,157.1,126.45,155.92Z"/></g><path class="cls-10" d="M176.6,152.48a17,17,0,0,0-9,13.88c-.92,5.85,2.23,12.12,6.54,16,4.63,4.19,13.22,4.21,18.79,2.24,6.63-2.35,9.67-8.06,10.52-14.47C205.27,156.29,189.17,145.75,176.6,152.48Z"/><g class="cls-23"><path class="cls-21" d="M205.29,154.87c-2.57-6-15.41-12.61-20.51-6.55-5.95,2.31-9.31,9.81-7.94,16.28,2.06,9.71,11.82,14.22,21,11.42C206.34,173.43,208.38,162.1,205.29,154.87Z"/><path class="cls-22" d="M193.31,153.69a4.67,4.67,0,0,0-4.23,1.21c-2.72.94-3.15,5.48-1.82,7.74,1.93,3.28,7.75,4,10,.73C200.06,159.42,197.94,154.68,193.31,153.69Z"/><path class="cls-10" d="M188.46,155.92a4,4,0,0,0-4.22.61,1.5,1.5,0,0,1-.13.11c-1.61.51-2.39,3.07-1.72,4.59a4.65,4.65,0,0,0,7,1.64C191.82,161,191.08,157.1,188.46,155.92Z"/></g><path class="cls-24" d="M173.42,180.75c-3.27-12.35-17.73-18.94-29-13.71a20.32,20.32,0,0,0-11.82,15.37c-.05.33-.08.69-.1,1.05a13.22,13.22,0,0,0,1.18,8.68c3,5.36,11.39,5.83,16.57,6.08,6.27.31,13.6-.36,19.31-3.29C174.93,192.16,174.81,186,173.42,180.75Z"/><path class="cls-25" d="M154.82,170.94a12.41,12.41,0,0,0-1.61,0,12.56,12.56,0,0,0-1.62,0c-2.49-.08-5.29.53-5.05,2.79s2.75,4.34,4.42,5.67a3.46,3.46,0,0,0,4.5,0c1.67-1.33,4.17-3.42,4.41-5.67S157.32,170.86,154.82,170.94Z"/><path class="cls-25" d="M245.93,199.68c-24.81-9.65-52.68-12-79.07-13.2-1.11,0-1.09,1.64,0,1.71,13.19.93,26.18,1.9,39.33,3.58a204.31,204.31,0,0,1,21.27,3.86c6.08,1.43,13.1,3.43,18.32,4.61A.29.29,0,0,0,245.93,199.68Z"/><path class="cls-25" d="M250.44,190.8c-13.26-4.68-28.07-5.73-42-6.76a388.48,388.48,0,0,0-44.75-.79.82.82,0,0,0,0,1.64c13.8.43,27.55,0,41.37.73,15.31.85,30.12,3.22,45.23,5.69A.26.26,0,0,0,250.44,190.8Z"/><path class="cls-25" d="M167,182a586.9,586.9,0,0,1,79.79.08c.35,0,.39-.5.08-.58a82.25,82.25,0,0,0-17.26-1.83c-6.53-.13-13.06-.4-19.59-.49-14.34-.2-28.71.13-43,1C165.84,180.32,165.83,182.1,167,182Z"/><path class="cls-25" d="M139.59,186.48c-26.39,1.16-54.27,3.55-79.08,13.2a.29.29,0,0,0,.15.56c5.22-1.18,12.25-3.18,18.32-4.61a204,204,0,0,1,21.28-3.86c13.14-1.68,26.13-2.65,39.33-3.58C140.68,188.12,140.7,186.43,139.59,186.48Z"/><path class="cls-25" d="M142.74,183.25A388.3,388.3,0,0,0,98,184c-13.93,1-28.74,2.08-42,6.76a.26.26,0,0,0,.14.51c15.11-2.47,29.92-4.84,45.23-5.69,13.81-.77,27.57-.3,41.36-.73A.82.82,0,0,0,142.74,183.25Z"/><path class="cls-25" d="M59.69,182.11a586.76,586.76,0,0,1,79.78-.08c1.15.07,1.14-1.71,0-1.78-14.3-.91-28.68-1.24-43-1-6.53.09-13.06.36-19.59.49a82.25,82.25,0,0,0-17.26,1.83C59.3,181.61,59.34,182.14,59.69,182.11Z"/><path class="cls-8" d="M152.87,231.2h-.06c-8.71-.5-16.48-1.74-24.52-5.29-6.79-3-14.35-7-19.92-12-1.15-1-1.84-1.5-3.49-1.17a41.81,41.81,0,0,1-10.18.59c-7.75-.36-19.87-2.44-20.56-12,0-.14.09-1-.49.28-2.23,4.75,4,12.37,8.47,16.93a60.83,60.83,0,0,0,19.95,13.5c8.52,3.45,18.31,4.55,27.37,4.12,14.09-.68,20.06-1.81,23.91-3.3A.91.91,0,0,0,152.87,231.2Z"/><path class="cls-8" d="M153.58,231.2h.06c8.71-.5,16.47-1.74,24.52-5.29,6.79-3,14.35-7,19.92-12,1.15-1,1.83-1.5,3.49-1.17a41.73,41.73,0,0,0,10.17.59c7.76-.36,19.88-2.44,20.57-12,0-.14-.1-1,.49.28,2.23,4.75-4,12.37-8.47,16.93a60.83,60.83,0,0,1-20,13.5c-8.52,3.45-18.32,4.55-27.38,4.12-14.08-.68-20.06-1.81-23.91-3.3A.91.91,0,0,1,153.58,231.2Z"/><path class="cls-14" d="M124.54,342.56c-.38-1.81-1.8-3.36-2.82-4.86a38.56,38.56,0,0,1-4.07-8.85c-.29-.81-1.72-1-1.88,0-.3,2,.37,4.38-.1,6.37a6.66,6.66,0,0,1-2.92-3.18.9.9,0,0,0-1.67.45,19.78,19.78,0,0,0,.42,3.26c-1.77-2-3.34-4.21-5-6.34a.74.74,0,0,0-1.35.57,33.48,33.48,0,0,0,1.11,4.85c-1.82-1.37-3.67-2.71-5.38-4.23-2.91-2.61-5.55-5-9.1-6.65a23.68,23.68,0,0,0-18.59-.57C67.29,325.67,63,329,61.94,335.19c-.76,4.48,2.86,10.89,7.28,10.79,2.25,3.59,6.06,6.17,10.25,4.7a9.07,9.07,0,0,0,5.84,3.83c3.56.8,7.45,0,11-.63,4.57-.84,9.12-1.7,13.72-2.41s14.08-1.48,14.07-7.73A1.09,1.09,0,0,0,124.54,342.56Z"/><path class="cls-14" d="M181.91,342.56c.38-1.81,1.8-3.36,2.82-4.86a39,39,0,0,0,4.07-8.85c.28-.81,1.72-1,1.88,0,.3,2-.38,4.38.1,6.37a6.59,6.59,0,0,0,2.91-3.18.91.91,0,0,1,1.68.45,18.78,18.78,0,0,1-.43,3.26c1.77-2,3.35-4.21,5-6.34a.74.74,0,0,1,1.34.57,32.16,32.16,0,0,1-1.1,4.85c1.82-1.37,3.67-2.71,5.38-4.23,2.91-2.61,5.54-5,9.1-6.65a23.66,23.66,0,0,1,18.58-.57c5.93,2.29,10.24,5.62,11.29,11.81.76,4.48-2.86,10.89-7.28,10.79-2.26,3.59-6.06,6.17-10.25,4.7a9.07,9.07,0,0,1-5.85,3.83c-3.55.8-7.44,0-10.95-.63-4.58-.84-9.12-1.7-13.72-2.41s-14.08-1.48-14.07-7.73A1.08,1.08,0,0,1,181.91,342.56Z"/><path class="cls-26" d="M153.46,340.94c-1.7-6.51-4.85-12.2-8.48-17.82-7.45-11.53-16.66-21.58-21.69-34.54a84.07,84.07,0,0,1-4.94-21.23c-.38-3.37-.56-6.76-.74-10.14a35.85,35.85,0,0,1,.14-4.75,77.51,77.51,0,0,0-15.39,17.36,56,56,0,0,0-8.54,33.71c.42,1,.84,1.92,1.27,2.87a136.53,136.53,0,0,0,10.34,18.33c3.9,5.95,8.56,11.47,12.13,17.63-1.09.9-2.11,1.67-3,2.52a1.15,1.15,0,0,1,.05.41l0,.07a.72.72,0,0,1-.9,1,1.14,1.14,0,0,1-.45,0,8.39,8.39,0,0,0-1.25,3.06,12.36,12.36,0,0,0,2.12,9.61c3.1,4.24,9.65,4.92,14.79,4.17a22.52,22.52,0,0,0,4.55,1.77c4.43,1.06,9.61-1.24,11.51-5.13,3.36.28,7-1.57,9.13-5.45S154.5,344.9,153.46,340.94Z"/><path class="cls-2" d="M154.16,354.41c2.18-3.94.34-9.51-.7-13.47a48,48,0,0,0-3.63-9.46l-.35-.29c-2.53-2.06-4.66-4.19-7-6.43a1.06,1.06,0,0,0-1.79.74c.1,2.09.55,4.12.84,6.17a67.12,67.12,0,0,1-7-6.45,1,1,0,0,0-1.73.46,36.51,36.51,0,0,0-.4,5.31,12.9,12.9,0,0,1-5.31-6.88,1,1,0,0,0-1.9,0,14.79,14.79,0,0,0-1.06,7.25,19.91,19.91,0,0,0,1.52,4.73c-3.4-1.5-6.89-4-7-7.88,0-.77-1.22-1.25-1.57-.43a37.15,37.15,0,0,0-2.6,9.78c1.07,1.57,2.1,3.16,3,4.8-2.55,2.12-4.75,3.44-5.5,7.08a12.36,12.36,0,0,0,2.12,9.61c3.1,4.24,9.65,4.92,14.79,4.17a22.52,22.52,0,0,0,4.55,1.77c4.43,1.06,9.61-1.24,11.51-5.13C148.39,360.14,152,358.29,154.16,354.41Z"/><path class="cls-12" d="M192.45,346.38a.72.72,0,0,1-.9-1l0-.07a1.16,1.16,0,0,1,.27-.84c-.76-.69-1.62-1.34-2.52-2.09,3.57-6.16,8.23-11.68,12.13-17.63a137.64,137.64,0,0,0,10.34-18.33c.13-.3.26-.61.4-.91a55.68,55.68,0,0,0-8.36-35.67A76.71,76.71,0,0,0,189.2,253.1a31.33,31.33,0,0,1,.08,4.11c-.17,3.38-.35,6.77-.73,10.14a84.09,84.09,0,0,1-5,21.23c-5,13-14.23,23-21.68,34.54-3.63,5.62-6.78,11.31-8.48,17.82-1,4-2.89,9.53-.71,13.47s5.77,5.73,9.14,5.45c1.9,3.89,7.08,6.19,11.51,5.13a22.75,22.75,0,0,0,4.55-1.77c5.13.75,11.69.07,14.78-4.17a12.33,12.33,0,0,0,2.13-9.61,8.56,8.56,0,0,0-1.41-3.3,1.19,1.19,0,0,0-.16.08A1.06,1.06,0,0,1,192.45,346.38Z"/><path class="cls-27" d="M192.45,346.38a.72.72,0,0,1-.9-1l0-.07a1.16,1.16,0,0,1,.27-.84c-.76-.69-1.62-1.34-2.52-2.09,3.57-6.16,8.23-11.68,12.13-17.63a137.64,137.64,0,0,0,10.34-18.33c.13-.3.26-.61.4-.91a55.68,55.68,0,0,0-8.36-35.67A76.71,76.71,0,0,0,189.2,253.1a31.33,31.33,0,0,1,.08,4.11c-.17,3.38-.35,6.77-.73,10.14a84.09,84.09,0,0,1-5,21.23c-5,13-14.23,23-21.68,34.54-3.63,5.62-6.78,11.31-8.48,17.82-1,4-2.89,9.53-.71,13.47s5.77,5.73,9.14,5.45c1.9,3.89,7.08,6.19,11.51,5.13a22.75,22.75,0,0,0,4.55-1.77c5.13.75,11.69.07,14.78-4.17a12.33,12.33,0,0,0,2.13-9.61,8.56,8.56,0,0,0-1.41-3.3,1.19,1.19,0,0,0-.16.08A1.06,1.06,0,0,1,192.45,346.38Z"/><path class="cls-2" d="M189.79,327.78c-.35-.82-1.55-.34-1.57.43-.13,3.92-3.61,6.38-7,7.88a20.38,20.38,0,0,0,1.52-4.73,14.79,14.79,0,0,0-1.06-7.25,1,1,0,0,0-1.9,0,12.9,12.9,0,0,1-5.31,6.88,38,38,0,0,0-.4-5.31,1,1,0,0,0-1.73-.46,67.12,67.12,0,0,1-7,6.45c.29-2.05.73-4.08.84-6.17a1.06,1.06,0,0,0-1.79-.74c-2.35,2.24-4.48,4.37-7,6.43l-.35.29a48.55,48.55,0,0,0-3.62,9.46c-1,4-2.89,9.53-.71,13.47s5.77,5.73,9.14,5.45c1.9,3.89,7.08,6.19,11.51,5.13a22.75,22.75,0,0,0,4.55-1.77c5.13.75,11.69.07,14.78-4.17a12.33,12.33,0,0,0,2.13-9.61c-.75-3.64-3-5-5.5-7.08.95-1.64,2-3.23,3-4.8A37.54,37.54,0,0,0,189.79,327.78Z"/><path class="cls-16" d="M89.87,353.65c-5.18-1.36-10-2.74-10.49-9-.31-4.13,2.32-8.68,6.35-9.91.25-.08.31-.53,0-.57-5.69-.8-8.41,5.69-8.43,10.48,0,6.78,6.35,10.82,12.57,9.44A.23.23,0,0,0,89.87,353.65Z"/><path class="cls-16" d="M77.19,349.72c-1.69-.81-3.43-1.11-4.91-2.37-2.08-1.77-2.55-5.18-2.14-7.71.59-3.66,1.88-9,6-10a.24.24,0,0,0,0-.45c-5.52-1.41-7.54,6.54-8.19,10.52-.82,4.95,3,12.84,9.1,10.72C77.39,350.35,77.52,349.88,77.19,349.72Z"/><path class="cls-16" d="M82.73,322.86c-4.78-3.2-13.09,0-16.91,3.39a15.07,15.07,0,0,0-4.5,9.4c-.17,3.94,1.31,5.65,3.92,8.3.12.12.37,0,.3-.17-.89-2.36-2.27-4.2-2.33-6.83-.09-3.79,2.75-8,5.63-10.23a16.35,16.35,0,0,1,6.62-2.65c2.39-.52,4.83.12,7.17-.5A.39.39,0,0,0,82.73,322.86Z"/><path class="cls-16" d="M216.28,353.65c5.18-1.36,10-2.74,10.49-9,.32-4.13-2.31-8.68-6.34-9.91-.26-.08-.31-.53,0-.57,5.68-.8,8.41,5.69,8.42,10.48,0,6.78-6.35,10.82-12.57,9.44A.24.24,0,0,1,216.28,353.65Z"/><path class="cls-16" d="M229,349.72c1.69-.81,3.42-1.11,4.9-2.37,2.08-1.77,2.55-5.18,2.14-7.71-.59-3.66-1.87-9-6-10a.23.23,0,0,1,0-.45c5.52-1.41,7.53,6.54,8.19,10.52.81,4.95-3,12.84-9.11,10.72C228.77,350.35,228.63,349.88,229,349.72Z"/><path class="cls-16" d="M223.43,322.86c4.78-3.2,13.08,0,16.9,3.39a15.07,15.07,0,0,1,4.5,9.4c.17,3.94-1.31,5.65-3.92,8.3-.12.12-.37,0-.3-.17.89-2.36,2.27-4.2,2.33-6.83.1-3.79-2.75-8-5.63-10.23a16.35,16.35,0,0,0-6.62-2.65c-2.39-.52-4.83.12-7.17-.5A.39.39,0,0,1,223.43,322.86Z"/><path class="cls-16" d="M150.56,357.37a29.14,29.14,0,0,1-3.95.82,6.66,6.66,0,0,1-4.61-2c-2.32-2.08-2-5.77-2.13-8.58,0-.29-.45-.47-.59-.16-1.57,3.65-1.21,7.76,1.85,10.54,2.37,2.16,8.09,3.49,9.8-.17A.33.33,0,0,0,150.56,357.37Z"/><path class="cls-16" d="M142.29,362c-2,.5-3.6,1.48-5.7,1.61-2.93.18-5.29-1.19-7.27-3.26-3.3-3.46-2.39-8.24-1.7-12.47a.38.38,0,0,0-.7-.29c-3.41,4.48-2.3,11,1.5,14.91,3.44,3.53,11.31,4.94,14.06-.25A.17.17,0,0,0,142.29,362Z"/><path class="cls-16" d="M124.54,362.85c-5.11-1.19-9.13-3.6-10.77-8.83-1.78-5.62,2-11.07,7.17-12.76a.4.4,0,0,0,0-.77c-6.44-1.42-10,6.43-9.93,11.7.08,6.68,6.95,12.61,13.53,11.09A.23.23,0,0,0,124.54,362.85Z"/><path class="cls-16" d="M155.59,357.37a29.14,29.14,0,0,0,3.95.82,6.63,6.63,0,0,0,4.61-2c2.32-2.08,2-5.77,2.13-8.58,0-.29.46-.47.59-.16,1.57,3.65,1.22,7.76-1.85,10.54-2.37,2.16-8.08,3.49-9.8-.17A.33.33,0,0,1,155.59,357.37Z"/><path class="cls-16" d="M163.87,362c2,.5,3.59,1.48,5.69,1.61,2.94.18,5.29-1.19,7.27-3.26,3.31-3.46,2.39-8.24,1.71-12.47a.38.38,0,0,1,.69-.29c3.42,4.48,2.3,11-1.49,14.91-3.45,3.53-11.32,4.94-14.06-.25A.17.17,0,0,1,163.87,362Z"/><path class="cls-16" d="M181.62,362.85c5.1-1.19,9.12-3.6,10.77-8.83,1.77-5.62-2-11.07-7.18-12.76a.4.4,0,0,1,0-.77c6.44-1.42,10,6.43,9.93,11.7-.07,6.68-6.95,12.61-13.52,11.09A.23.23,0,0,1,181.62,362.85Z"/></svg>