<svg xmlns="http://www.w3.org/2000/svg" viewBox="0 0 384 384"><defs><style>.cls-1{fill:#cfb886;}</style></defs><g id="圖層_3" data-name="圖層 3"><path class="cls-1" d="M204.89,336.47a6.36,6.36,0,0,1-6.37-6.37V242.65a197.41,197.41,0,0,0-60.47,4.22c-46.84,10.9-80.41,38-99.79,80.55a6.37,6.37,0,0,1-12.06-1.48c-.63-3.43-14.94-84.46,33.24-140.28,29.5-34.18,75.76-51,137.48-50V53.9a6.37,6.37,0,0,1,10.63-4.73L358.16,184.69a6.37,6.37,0,0,1,.11,9.37l-149,140.67A6.37,6.37,0,0,1,204.89,336.47ZM182.08,229.16a163.54,163.54,0,0,1,23.81,1.52,6.37,6.37,0,0,1,5.37,6.29v78.35L344.5,189.54,209.66,68.2v74a6.37,6.37,0,0,1-6.6,6.37c-61-2.2-106.08,13.06-134,45.38-30.27,35.07-33.39,82.5-32.3,109.19,27.23-43.87,67.81-61.69,98.83-68.83A209.19,209.19,0,0,1,182.08,229.16Z"/></g></svg>