<?xml version="1.0" encoding="utf-8"?>
<!-- Generator: Adobe Illustrator 25.0.0, SVG Export Plug-In . SVG Version: 6.00 Build 0)  -->
<svg version="1.1" id="圖層_1" xmlns="http://www.w3.org/2000/svg" xmlns:xlink="http://www.w3.org/1999/xlink" x="0px" y="0px"
	 viewBox="0 0 383.35 383.35" style="enable-background:new 0 0 383.35 383.35;" xml:space="preserve">
<style type="text/css">
	.st0{fill:none;stroke:#CFB886;stroke-width:7;stroke-miterlimit:10;}
</style>
<circle class="st0" cx="191.67" cy="191.67" r="183.67"/>
<g>
	<path class="st0" d="M314.07,193.13c-2.58,3.01-5.02,6.15-7.77,9c-18.59,19.27-39.2,35.91-63.34,47.82
		c-17.74,8.75-36.33,14.04-56.34,12.97c-14.58-0.78-28.34-4.8-41.54-10.81c-25.21-11.47-46.56-28.29-65.91-47.84
		c-2.85-2.89-5.59-5.89-8.29-8.93c-2.14-2.4-2.15-4.9,0-7.29c20.98-23.29,44.76-42.95,73.32-56.4
		c32.39-15.25,64.97-14.74,97.52-0.78c28.55,12.25,51.38,31.82,70.23,56.26c0.77,1,1.42,2.09,2.13,3.13
		C314.07,191.22,314.07,192.17,314.07,193.13z"/>
	<path class="st0" d="M191.61,232.42c-22.54-0.04-40.68-18.22-40.68-40.75c0-22.63,18.3-40.85,40.92-40.74
		c22.55,0.11,40.62,18.31,40.56,40.86C232.35,214.33,214.14,232.46,191.61,232.42z"/>
</g>
</svg>
