<svg xmlns="http://www.w3.org/2000/svg" viewBox="0 0 384 384"><defs><style>.cls-1{fill:#cfb886;}</style></defs><g id="圖層_3" data-name="圖層 3"><path class="cls-1" d="M21.4,129.15c1.3-6.82,2-13.85,4-20.43C36.73,72.77,59.71,48.18,96.75,38.53c18.09-4.71,36.06-2.39,53.36,4.71a93.66,93.66,0,0,1,41.41,32.7c.75-.85,1.41-1.52,2-2.26C212.27,49.66,237,37,267.35,36.35c19.33-.44,36.88,5.89,52.34,17.36C341.6,70,355.35,91.65,360.3,118.55c3.79,20.62.86,40.84-5.26,60.65-8.84,28.64-24.47,53.46-43.9,76-32.75,37.94-72.13,67.62-115.71,92a7.18,7.18,0,0,1-7.54,0C140.5,320.51,97.9,288,64,245.11c-18.88-23.91-33.12-50.25-39.44-80.37-1.13-5.41-1.66-10.94-2.5-16.41-.16-1.08-.43-2.15-.65-3.22Zm329.22,3.78c-.55-26.51-12.84-51.56-37.61-70.14-13.39-10-28.7-15.54-45.51-15.08-30.27.83-53.57,14.38-69.76,40-3.85,6.09-8.4,6.13-12.15,0a79.13,79.13,0,0,0-19.16-21.9c-20.23-15.66-43-22-68.06-16-35,8.41-62.18,41.36-65.13,77.31-1.67,20.27,2,39.71,9.22,58.56C52,210.61,66.82,232.3,84.61,252c30.36,33.61,66,60.63,105.17,83.09a4.55,4.55,0,0,0,3.82,0,445.45,445.45,0,0,0,76.13-54.35c22.48-20,42.69-41.91,58-68C341.43,189.46,350,164.6,350.62,132.93Z"/></g></svg>