<svg xmlns="http://www.w3.org/2000/svg" viewBox="0 0 384 384"><defs><style>.cls-1{fill:#cfb886;}</style></defs><g id="圖層_3" data-name="圖層 3"><path class="cls-1" d="M327.89,193.8q0,65.28,0,130.56c0,16.23-12.23,28.57-27.71,27.61a34.83,34.83,0,0,1-12.94-3.79q-42.62-21.21-85-43c-7.14-3.69-13.38-3.68-20.55,0-28.18,14.56-56.54,28.78-84.91,43-20.72,10.39-40.7-2-40.7-25.18q0-129.72,0-259.42C56.11,44.72,68.81,32,87.73,32Q192,32,296.26,32c19,0,31.62,12.69,31.63,31.68Q327.92,128.73,327.89,193.8Zm-12-.11q0-64.86,0-129.71c0-12.69-7.22-20-19.78-20H87.61c-12.1,0-19.53,7.38-19.54,19.39q0,130.14,0,260.28a21.62,21.62,0,0,0,.42,5.09c2.34,9.8,12.38,14.15,21.93,9.36,28.86-14.5,57.75-28.95,86.44-43.77,10.42-5.39,20.09-5.28,30.46.08q42.48,21.93,85.35,43.11a21.16,21.16,0,0,0,11.37,2.16c7.55-.95,11.87-7.31,11.87-15.84Q316,258.76,315.93,193.69Z"/></g></svg>