<svg xmlns="http://www.w3.org/2000/svg" viewBox="0 0 384 384"><defs><style>.cls-1{fill:#cfb886;}</style></defs><g id="圖層_3" data-name="圖層 3"><path class="cls-1" d="M268,346.49H66.65a2.78,2.78,0,0,0-.76-.43c-14.19-1.76-28.33-14.85-28.26-34.47.23-63.2.08-126.4.09-189.6,0-20.48,14.21-34.76,34.6-34.77q78.5,0,157,0h3.52c-1.3,1.36-2.09,2.22-2.91,3q-39.21,39.22-78.44,78.42A33.53,33.53,0,0,0,143,182.33c-3.8,11.73-7.86,23.38-11.66,35.11a35,35,0,0,0-1.9,9.09c-.85,19.07,17.4,32.68,35.85,26.76,12-3.85,24-8,36-11.9a36,36,0,0,0,14.64-9.13q39-39.19,78.18-78.25c.78-.78,1.6-1.51,2.83-2.67V262.15c0,17.09.08,34.17,0,51.25a33,33,0,0,1-23.16,31.52C271.85,345.51,269.91,346,268,346.49Z"/><path class="cls-1" d="M346.37,72.75c-1.3,4.49-4.23,7.82-7.53,11-3.91,3.74-7.64,7.66-11.18,11.24L290.14,57.39c5-5.39,10-11.75,16-17,5.15-4.51,13.08-3.55,18.21,1.29q9.3,8.79,18.05,18.13c1.77,1.88,2.7,4.56,4,6.88Z"/><path class="cls-1" d="M275.58,70.37c12.75,12.75,25.36,25.38,38.21,38.24-.44.46-1.15,1.26-1.9,2q-54.52,54.54-109.12,109a19.92,19.92,0,0,1-7.29,4.46c-11.53,4.06-23.2,7.75-34.76,11.71-4,1.36-7.55,1.21-10.58-1.85s-3.09-6.64-1.74-10.6c4-11.86,7.88-23.79,12-35.64a15,15,0,0,1,3.38-5.55Q218.83,126.91,274,71.77C274.59,71.22,275.2,70.72,275.58,70.37Z"/></g></svg>