<svg id="圖層_1" data-name="圖層 1" xmlns="http://www.w3.org/2000/svg" viewBox="0 0 300 300"><defs><style>.cls-1,.cls-2,.cls-3{fill:none;stroke-linecap:round;stroke-linejoin:round;}.cls-1,.cls-2{stroke:#bf9d50;}.cls-1{stroke-width:2.3px;}.cls-2,.cls-3{stroke-width:1.31px;}.cls-3{stroke:#fff;}</style></defs><path class="cls-1" d="M108.5,149.59l13.23,13.23c0-9.77,6.66-17.71,14.88-17.71h0a57.11,57.11,0,0,0,54.95-41.59,24.41,24.41,0,0,0-6.25-23.84h0a24.37,24.37,0,0,0-23.84-6.25,57.08,57.08,0,0,0-41.59,54.95h0c0,8.22-7.94,14.87-17.72,14.87l13.24,13.24Z"/><path class="cls-2" d="M126.18,121.61a17.21,17.21,0,0,1,17.22,17.21"/><path class="cls-2" d="M153.92,82.58a28.48,28.48,0,0,1,28.49,28.5"/><line class="cls-1" x1="98.65" y1="139.74" x2="125.26" y2="166.35"/><path class="cls-1" d="M177.6,139.47a5.4,5.4,0,0,0-6.54-4.77,6.63,6.63,0,0,0-5.37,7l.26,1.64c1.07,10.72-6.87,21-17.72,23.05s-20.52-5-21.59-15.76"/><path class="cls-1" d="M125.53,87.4a5.41,5.41,0,0,1,4.77,6.54,6.63,6.63,0,0,1-7,5.37l-1.64-.26c-10.72-1.07-21,6.87-23.05,17.72s5,20.52,15.76,21.59"/><path class="cls-2" d="M102.81,266.9a54.58,54.58,0,0,1,0-109.15"/><path class="cls-2" d="M278.28,265.78a26.67,26.67,0,0,0-37.71,0,26.67,26.67,0,0,1-37.71,0,26.67,26.67,0,0,0-37.71,0,26.67,26.67,0,0,1-37.71,0"/><path class="cls-2" d="M278.28,278.55a26.67,26.67,0,0,0-37.71,0,26.67,26.67,0,0,1-37.71,0,26.67,26.67,0,0,0-37.71,0,26.67,26.67,0,0,1-37.71,0"/><path class="cls-2" d="M101.79,213.23a23.62,23.62,0,0,1,0-47.24"/><path class="cls-2" d="M94.36,277.23a57.48,57.48,0,0,1-57.48-57.47"/><path class="cls-2" d="M95.23,150.68a11,11,0,0,1-11-11"/><path class="cls-2" d="M111.12,194.33a19.37,19.37,0,0,1,0-27.42"/><path class="cls-2" d="M102.81,266.9a23.22,23.22,0,1,0-23.22-23.22"/><path class="cls-2" d="M39.81,169.77a22.48,22.48,0,0,1,0,31.78"/><path class="cls-2" d="M39.81,169.77a9.56,9.56,0,1,0,0,13.53"/><path class="cls-1" d="M171.7,39.51a13.51,13.51,0,1,1,0-19.1"/><path class="cls-1" d="M152.59,39.51a13.51,13.51,0,0,1,0-19.1"/><path class="cls-1" d="M171.7,20.41a8,8,0,1,1-11.3,11.3"/><path class="cls-1" d="M174.05,25.27A30.69,30.69,0,0,0,204.73,56a30.69,30.69,0,0,1,30.68,30.68"/><path class="cls-1" d="M235.41,86.63a61.36,61.36,0,0,0-61.36-61.36"/><path class="cls-1" d="M161.88,43.46h8.26a16.07,16.07,0,0,1,16.07,16.08,16.08,16.08,0,0,0,16.08,16.07,16.07,16.07,0,0,1,16.07,16.08V96"/><path class="cls-1" d="M202.53,75.63a4.46,4.46,0,1,1-4.46,4.46"/><path class="cls-1" d="M202.53,75.63a4.46,4.46,0,1,1,0,8.92"/><path class="cls-1" d="M186.36,62.17a3.91,3.91,0,1,1-3.91-3.91"/><path class="cls-1" d="M186.36,62.17a3.91,3.91,0,1,1-7.82,0"/><path class="cls-1" d="M228.69,84.54a10.34,10.34,0,1,1-10.34,10.33"/><path class="cls-1" d="M163.59,43.75v2.47a22.06,22.06,0,0,1-2.24,9.68h0a2.48,2.48,0,0,0,2.24,3.56h0"/><path class="cls-1" d="M165.77,61.73a5.2,5.2,0,0,0,5.2,5.21h.77"/><path class="cls-1" d="M163.59,59.47a2.19,2.19,0,0,1,2.18,2.18"/><path class="cls-1" d="M171.93,66.93a5,5,0,0,1,5,5"/><path class="cls-1" d="M234.53,258c-.86-.18-1.73-.36-2.59-.57-37.91-8.93-66.07-42.32-66.07-82.14"/><path class="cls-1" d="M165.88,191.21a77.82,77.82,0,0,1-36,65.7"/><path class="cls-2" d="M218.38,164.44a45,45,0,0,1-45,45"/><path class="cls-2" d="M217.2,137.49a51.16,51.16,0,0,1-35.58-14.34"/><line class="cls-1" x1="218.38" y1="92.62" x2="218.38" y2="235.1"/><line class="cls-1" x1="165.87" y1="191.21" x2="165.87" y2="147.95"/><path class="cls-1" d="M234.54,258a24.24,24.24,0,0,1-16.16-22.86"/><circle class="cls-2" cx="36.88" cy="212.33" r="1.94"/><path class="cls-2" d="M133.58,224.58a1.94,1.94,0,1,0-1.94,1.94A1.93,1.93,0,0,0,133.58,224.58Z"/><circle class="cls-2" cx="252.99" cy="251.38" r="1.78"/><circle class="cls-2" cx="115.18" cy="283.1" r="1.94"/><path class="cls-2" d="M75.52,154.1A1.94,1.94,0,1,0,73.59,156,1.92,1.92,0,0,0,75.52,154.1Z"/><line class="cls-3" x1="110.63" y1="51.91" x2="110.63" y2="71.38"/><line class="cls-3" x1="100.9" y1="61.65" x2="120.37" y2="61.65"/><line class="cls-3" x1="105.19" y1="56.22" x2="116.06" y2="67.07"/><line class="cls-3" x1="105.19" y1="67.07" x2="116.06" y2="56.22"/><line class="cls-3" x1="139" y1="185.97" x2="139" y2="205.44"/><line class="cls-3" x1="129.27" y1="195.7" x2="148.72" y2="195.7"/><line class="cls-3" x1="133.56" y1="190.27" x2="144.43" y2="201.13"/><line class="cls-3" x1="133.56" y1="201.13" x2="144.43" y2="190.27"/><circle class="cls-3" cx="240.16" cy="26.66" r="5.9"/><circle class="cls-3" cx="241.3" cy="161.88" r="5.9"/><path class="cls-3" d="M34.88,278.55a5.9,5.9,0,0,0-5.89,5.9,5.9,5.9,0,0,0-5.9-5.9,5.91,5.91,0,0,0,5.9-5.9A5.9,5.9,0,0,0,34.88,278.55Z"/><path class="cls-3" d="M67.33,118.77a5.9,5.9,0,0,0-5.9,5.89,5.89,5.89,0,0,0-5.89-5.89,5.9,5.9,0,0,0,5.89-5.9A5.91,5.91,0,0,0,67.33,118.77Z"/></svg>