<?xml version="1.0" encoding="utf-8"?>
<!-- Generator: Adobe Illustrator 25.0.0, SVG Export Plug-In . SVG Version: 6.00 Build 0)  -->
<svg version="1.1" id="GRAPHIC_ELEMENTS" xmlns="http://www.w3.org/2000/svg" xmlns:xlink="http://www.w3.org/1999/xlink" x="0px"
	 y="0px" viewBox="0 0 312.47 341.82" style="enable-background:new 0 0 312.47 341.82;" xml:space="preserve">
<style type="text/css">
	.st0{fill:none;stroke:#BF9D50;stroke-width:1.0186;stroke-linecap:round;stroke-linejoin:round;stroke-miterlimit:10;}
	.st1{fill:none;stroke:#BF9D50;stroke-width:1.7825;stroke-linecap:round;stroke-linejoin:round;stroke-miterlimit:10;}
	.st2{fill:none;stroke:#FFFFFF;stroke-width:1.0186;stroke-linecap:round;stroke-linejoin:round;stroke-miterlimit:10;}
</style>
<g>
	<g>
		<g>
			<g>
				<line class="st0" x1="230.46" y1="273.54" x2="40.73" y2="83.81"/>
				<g>
					<g>
						<g>
							<g>
								<g>
									<g>
										<path class="st0" d="M217.17,184.7c-7.44-4.93-17.13-8.89-29.64-11.96"/>
										<path class="st0" d="M239.6,239.28c0.25-15.96-1.62-28.99-7.77-39.43"/>
										<path class="st0" d="M239.08,270.35c-1.26-2.73-1.09-5.83-0.83-8.74c0.06-0.69,0.12-1.37,0.18-2.05"/>
									</g>
									<g>
										<path class="st1" d="M215.78,189.78c-0.39-0.3-0.79-0.59-1.19-0.88l-0.47-0.35l-0.49-0.33l-0.97-0.67l-1-0.64l-0.5-0.32
											l-0.51-0.31c-2.71-1.66-5.56-3.19-8.53-4.56c-2.96-1.39-6.02-2.65-9.13-3.83c-4.98-1.89-10.1-3.55-15.3-5.14"/>
										<path class="st1" d="M234.84,242.61c-0.03-2.9-0.1-5.77-0.24-8.63c-0.17-3.29-0.42-6.55-0.83-9.74
											c-0.1-0.8-0.22-1.59-0.33-2.39l-0.19-1.18c-0.06-0.39-0.13-0.79-0.21-1.17c-0.28-1.56-0.62-3.1-1-4.62
											c-0.38-1.52-0.83-3-1.32-4.45c-0.49-1.46-1.06-2.87-1.69-4.25c-0.31-0.69-0.65-1.36-0.98-2.04
											c-0.36-0.66-0.71-1.33-1.1-1.97c-0.45-0.75-0.91-1.5-1.4-2.22"/>
										<path class="st1" d="M242.46,256.67l-0.07,0.51l-0.38,2.55l-0.4,2.54c-0.13,0.81-0.25,1.58-0.33,2.33
											c-0.08,0.74-0.12,1.45-0.11,2.12c0.01,0.67,0.07,1.3,0.2,1.89c0.04,0.15,0.06,0.3,0.11,0.44l0.06,0.22l0.08,0.19
											c0.05,0.13,0.09,0.26,0.15,0.39c0.06,0.12,0.13,0.24,0.19,0.36c0.27,0.46,0.58,0.91,1,1.24c0.42,0.34,0.9,0.61,1.45,0.79
											c0.55,0.17,1.16,0.24,1.78,0.21c0.63-0.02,1.27-0.2,1.89-0.47c0.15-0.07,0.32-0.13,0.47-0.21l0.45-0.26
											c0.3-0.18,0.59-0.4,0.86-0.63c0.54-0.47,1-1.02,1.34-1.64c0.17-0.31,0.31-0.63,0.39-0.97c0.04-0.17,0.08-0.34,0.1-0.52
											c0.02-0.09,0.02-0.17,0.02-0.26c0.01-0.09,0.01-0.17,0-0.26c-0.01-0.35-0.08-0.71-0.2-1.07
											c-0.13-0.35-0.31-0.69-0.54-1.01c-0.46-0.62-1.16-1.12-2.02-1.25c0.43-0.08,0.88-0.05,1.32,0.07
											c0.44,0.12,0.86,0.34,1.24,0.62c0.76,0.56,1.35,1.38,1.66,2.35c0.04,0.12,0.08,0.24,0.1,0.37
											c0.03,0.13,0.06,0.26,0.07,0.38c0.04,0.25,0.05,0.5,0.05,0.76c0,0.51-0.07,1.02-0.19,1.51c-0.24,0.99-0.7,1.9-1.28,2.72
											c-0.29,0.41-0.61,0.8-0.97,1.15l-0.55,0.53c-0.19,0.17-0.4,0.32-0.6,0.48c-0.84,0.61-1.79,1.12-2.83,1.41
											c-0.26,0.09-0.52,0.14-0.79,0.2c-0.27,0.05-0.54,0.11-0.82,0.13c-0.28,0.02-0.56,0.05-0.84,0.06
											c-0.28-0.01-0.56-0.02-0.85-0.04c-1.13-0.11-2.26-0.44-3.31-0.98c-0.25-0.14-0.51-0.29-0.76-0.45
											c-0.24-0.16-0.47-0.35-0.71-0.52c-0.24-0.17-0.45-0.38-0.66-0.59c-0.21-0.21-0.43-0.41-0.6-0.64
											c-0.18-0.23-0.37-0.46-0.55-0.69c-0.16-0.24-0.31-0.48-0.47-0.73l-0.23-0.37l-0.19-0.37c-0.13-0.25-0.24-0.5-0.35-0.75
											c-0.43-1.02-0.71-2.07-0.9-3.09c-0.18-1.02-0.27-2.02-0.31-2.99c-0.04-0.96-0.03-1.89-0.01-2.78l0.05-2.56l0.04-2.41"/>
										<path class="st1" d="M232.95,192.53c1.06,1.35,2.04,2.76,2.94,4.21c0.51,0.81,0.97,1.64,1.44,2.47
											c0.44,0.84,0.89,1.68,1.27,2.55c1.61,3.43,2.79,7.01,3.66,10.6c0.86,3.59,1.41,7.2,1.73,10.78
											c0.32,3.58,0.43,7.14,0.39,10.67c0,0.88-0.04,1.76-0.05,2.64c-0.03,0.88-0.07,1.75-0.11,2.63
											c-0.06,1.18-0.13,2.36-0.22,3.54"/>
										<path class="st1" d="M180.94,169.13c1.23,0.13,2.46,0.27,3.69,0.43c3.44,0.45,6.88,1.04,10.3,1.79
											c6.84,1.51,13.66,3.64,20.17,6.93l0.61,0.3l0.6,0.32l1.21,0.65l1.19,0.69l0.6,0.35l0.59,0.37
											c0.39,0.25,0.78,0.49,1.17,0.74l1.15,0.78c0.17,0.11,0.33,0.23,0.5,0.35"/>
										<path class="st1" d="M248.96,267.45c-0.98,0-1.77-0.79-1.77-1.77s0.79-1.77,1.77-1.77"/>
									</g>
									<g>
										
											<rect x="217.58" y="188.57" transform="matrix(0.7071 -0.7071 0.7071 0.7071 -69.0799 214.7935)" class="st1" width="14.31" height="4.43"/>
										<g>
											<path class="st1" d="M234.78,190.7c-0.94-0.94-2.47-0.94-3.41,0l0,0l-6.71,6.71l0,0c-0.94,0.94-0.94,2.47,0,3.41
												L234.78,190.7z"/>
											
												<rect x="222.48" y="192.08" transform="matrix(0.7071 -0.7071 0.7071 0.7071 -70.1665 217.1764)" class="st1" width="9.18" height="2.41"/>
										</g>
										<g>
											<path class="st1" d="M224.82,180.74c0.94,0.94,0.94,2.47,0,3.41h0l-6.71,6.71l0,0c-0.94,0.94-2.47,0.94-3.41,0
												L224.82,180.74z"/>
											
												<rect x="217.65" y="187.24" transform="matrix(0.7071 -0.7071 0.7071 0.7071 -68.1633 212.3404)" class="st1" width="9.18" height="2.41"/>
										</g>
									</g>
									<g>
										<rect x="231.95" y="247.44" class="st1" width="14.31" height="4.43"/>
										<g>
											<path class="st1" d="M246.26,256.69c0-1.33-1.08-2.41-2.41-2.41l0,0h-9.49l0,0c-1.33,0-2.41,1.08-2.41,2.41H246.26z"/>
											<rect x="234.39" y="251.86" class="st1" width="9.18" height="2.41"/>
										</g>
										<g>
											<path class="st1" d="M246.26,242.61c0,1.33-1.08,2.41-2.41,2.41l0,0h-9.49l0,0c-1.33,0-2.41-1.08-2.41-2.41H246.26z"/>
											<rect x="234.39" y="245.02" class="st1" width="9.18" height="2.41"/>
										</g>
									</g>
									<g>
										<g>
											<path class="st1" d="M174.31,168.48c-7.9,7.9,0.87,15.75,0.87,15.75c-3.1-7.87,4.93-14.32,4.93-14.32
												c0.25-0.25,0.47-0.52,0.67-0.8c1.61-2.3,1.39-5.49-0.67-7.55c-0.3-0.3-0.62-0.55-0.95-0.78"/>
											<path class="st1" d="M174.37,165.59c0.78,0.78,0.78,2.04,0,2.82"/>
										</g>
										<path class="st1" d="M182.13,177.28c1.92,1.92,1.92,5.03,0,6.96c-1.92,1.92-5.03,1.92-6.96,0"/>
									</g>
								</g>
							</g>
							<path class="st1" d="M178.32,161.62l6.25-6.25l0,0c2.52,2.52,2.52,6.61,0,9.14l-3.01,3.01"/>
						</g>
						<path class="st1" d="M237,273c-3.07-0.75-6.69,0.92-7.74,3.57l-0.03-0.03c0.04-3.75,2.53-6.91,5.93-7.96"/>
						<g>
							<line class="st0" x1="229.54" y1="270.23" x2="233.72" y2="274.4"/>
							<line class="st0" x1="227.21" y1="272.57" x2="231.38" y2="276.74"/>
							<line class="st0" x1="228.38" y1="271.4" x2="232.55" y2="275.57"/>
						</g>
					</g>
					<g>
						<g>
							<g>
								<g>
									<g>
										<path class="st0" d="M129.68,97.21c4.93,7.44,8.89,17.13,11.96,29.64"/>
										<path class="st0" d="M75.1,74.78c15.97-0.25,28.99,1.62,39.43,7.77"/>
										<path class="st0" d="M44.03,75.3c2.73,1.26,5.83,1.09,8.74,0.83c0.69-0.06,1.37-0.12,2.05-0.18"/>
									</g>
									<g>
										<path class="st1" d="M124.6,98.6c0.3,0.39,0.59,0.79,0.88,1.19l0.35,0.47l0.33,0.49l0.67,0.97l0.64,1l0.32,0.5l0.31,0.51
											c1.66,2.71,3.19,5.56,4.56,8.53c1.39,2.96,2.65,6.02,3.83,9.13c1.89,4.98,3.55,10.1,5.14,15.3"/>
										<path class="st1" d="M71.77,79.54c2.9,0.03,5.77,0.1,8.63,0.24c3.29,0.17,6.55,0.42,9.74,0.83
											c0.8,0.1,1.59,0.22,2.39,0.33l1.18,0.19c0.39,0.06,0.79,0.13,1.17,0.21c1.56,0.28,3.1,0.62,4.62,1
											c1.52,0.38,3,0.83,4.45,1.32c1.46,0.49,2.87,1.06,4.25,1.69c0.69,0.31,1.36,0.65,2.04,0.98c0.66,0.36,1.33,0.71,1.97,1.1
											c0.75,0.45,1.5,0.91,2.22,1.4"/>
										<path class="st1" d="M57.71,71.92l-0.51,0.07l-2.55,0.38l-2.54,0.4c-0.81,0.13-1.58,0.25-2.33,0.33
											c-0.74,0.08-1.45,0.12-2.12,0.11c-0.67-0.01-1.3-0.07-1.89-0.2c-0.15-0.04-0.3-0.06-0.44-0.11l-0.22-0.06l-0.19-0.08
											c-0.13-0.05-0.26-0.09-0.39-0.15c-0.12-0.06-0.24-0.13-0.36-0.19c-0.46-0.27-0.91-0.58-1.24-1
											c-0.34-0.42-0.61-0.9-0.79-1.45c-0.17-0.55-0.24-1.16-0.21-1.78c0.02-0.63,0.2-1.27,0.47-1.89
											c0.07-0.15,0.13-0.32,0.21-0.47l0.26-0.45c0.18-0.3,0.4-0.59,0.63-0.86c0.47-0.54,1.02-1,1.64-1.34
											c0.31-0.17,0.63-0.31,0.97-0.39c0.17-0.04,0.34-0.08,0.52-0.1c0.09-0.02,0.17-0.02,0.26-0.02c0.09-0.01,0.17-0.01,0.26,0
											c0.35,0.01,0.71,0.08,1.07,0.2c0.35,0.13,0.69,0.31,1.01,0.54c0.62,0.46,1.12,1.16,1.25,2.02
											c0.08-0.43,0.05-0.88-0.07-1.32c-0.12-0.44-0.34-0.86-0.62-1.24c-0.56-0.76-1.38-1.35-2.35-1.66
											c-0.12-0.04-0.24-0.08-0.37-0.1c-0.13-0.03-0.26-0.06-0.38-0.07c-0.25-0.04-0.5-0.05-0.76-0.05
											c-0.51,0-1.02,0.07-1.51,0.19c-0.99,0.24-1.9,0.7-2.72,1.28c-0.41,0.29-0.8,0.61-1.15,0.97l-0.53,0.55
											c-0.17,0.19-0.32,0.4-0.48,0.6c-0.61,0.84-1.12,1.79-1.41,2.83c-0.09,0.26-0.14,0.52-0.2,0.79
											c-0.05,0.27-0.11,0.54-0.13,0.82c-0.02,0.28-0.05,0.56-0.06,0.84c0.01,0.28,0.02,0.56,0.04,0.85
											c0.11,1.13,0.44,2.26,0.98,3.31c0.14,0.25,0.29,0.51,0.45,0.76c0.16,0.24,0.35,0.47,0.52,0.71
											c0.17,0.24,0.38,0.45,0.59,0.66c0.21,0.21,0.41,0.43,0.64,0.6c0.23,0.18,0.46,0.37,0.69,0.55
											c0.24,0.16,0.48,0.31,0.73,0.47l0.37,0.23l0.37,0.19c0.25,0.13,0.5,0.24,0.75,0.35c1.02,0.43,2.07,0.71,3.09,0.9
											c1.02,0.18,2.02,0.27,2.99,0.31c0.96,0.04,1.89,0.03,2.78,0.01l2.56-0.05l2.41-0.04"/>
										<path class="st1" d="M121.85,81.43c-1.35-1.06-2.76-2.04-4.21-2.94c-0.81-0.51-1.64-0.97-2.47-1.44
											c-0.84-0.44-1.68-0.89-2.55-1.27c-3.43-1.61-7.01-2.79-10.6-3.66c-3.59-0.86-7.2-1.41-10.78-1.73
											c-3.58-0.32-7.14-0.43-10.67-0.39c-0.88,0-1.76,0.04-2.64,0.05c-0.88,0.03-1.75,0.07-2.63,0.11
											c-1.18,0.06-2.36,0.13-3.54,0.22"/>
										<path class="st1" d="M145.25,133.45c-0.13-1.23-0.27-2.46-0.43-3.69c-0.45-3.44-1.04-6.88-1.79-10.3
											c-1.51-6.84-3.64-13.66-6.93-20.17l-0.3-0.61l-0.32-0.6l-0.65-1.21l-0.69-1.19l-0.35-0.6l-0.37-0.59
											c-0.25-0.39-0.49-0.78-0.74-1.17l-0.78-1.15c-0.11-0.17-0.23-0.33-0.35-0.5"/>
										<path class="st1" d="M46.93,65.42c0,0.98,0.79,1.77,1.77,1.77s1.77-0.79,1.77-1.77"/>
									</g>
									<g>
										
											<rect x="116.44" y="87.43" transform="matrix(0.7071 -0.7071 0.7071 0.7071 -27.1857 113.6519)" class="st1" width="14.31" height="4.43"/>
										<g>
											<path class="st1" d="M123.68,79.6c0.94,0.94,0.94,2.47,0,3.41l0,0l-6.71,6.71l0,0c-0.94,0.94-2.47,0.94-3.41,0
												L123.68,79.6z"/>
											
												<rect x="116.5" y="86.1" transform="matrix(0.7071 -0.7071 0.7071 0.7071 -26.2691 111.1987)" class="st1" width="9.18" height="2.41"/>
										</g>
										<g>
											<path class="st1" d="M133.64,89.56c-0.94-0.94-2.47-0.94-3.41,0l0,0l-6.71,6.71l0,0c-0.94,0.94-0.94,2.47,0,3.41
												L133.64,89.56z"/>
											
												<rect x="121.34" y="90.94" transform="matrix(0.7071 -0.7071 0.7071 0.7071 -28.2723 116.0347)" class="st1" width="9.18" height="2.41"/>
										</g>
									</g>
									<g>
										
											<rect x="57.57" y="73.06" transform="matrix(6.123234e-17 -1 1 6.123234e-17 -10.5464 140.0084)" class="st1" width="14.31" height="4.43"/>
										<g>
											<path class="st1" d="M57.69,68.12c1.33,0,2.41,1.08,2.41,2.41l0,0v9.49l0,0c0,1.33-1.08,2.41-2.41,2.41V68.12z"/>
											
												<rect x="56.72" y="74.19" transform="matrix(6.123234e-17 -1 1 6.123234e-17 -14.086 136.7089)" class="st1" width="9.18" height="2.41"/>
										</g>
										<g>
											<path class="st1" d="M71.77,68.12c-1.33,0-2.41,1.08-2.41,2.41l0,0v9.49l0,0c0,1.33,1.08,2.41,2.41,2.41V68.12z"/>
											
												<rect x="63.56" y="74.19" transform="matrix(6.123234e-17 -1 1 6.123234e-17 -7.2468 143.548)" class="st1" width="9.18" height="2.41"/>
										</g>
									</g>
									<g>
										<g>
											<path class="st1" d="M145.9,140.07c-7.9,7.9-15.75-0.87-15.75-0.87c7.87,3.1,14.32-4.93,14.32-4.93
												c0.25-0.25,0.52-0.47,0.8-0.67c2.3-1.61,5.49-1.39,7.55,0.67c0.3,0.3,0.55,0.62,0.77,0.95"/>
											<path class="st1" d="M148.79,140.01c-0.78-0.78-2.04-0.78-2.82,0"/>
										</g>
										<path class="st1" d="M137.1,132.26c-1.92-1.92-5.03-1.92-6.96,0c-1.92,1.92-1.92,5.03,0,6.96"/>
									</g>
								</g>
							</g>
							<path class="st1" d="M152.76,136.06l6.25-6.25l0,0c-2.52-2.52-6.61-2.52-9.14,0l-3.01,3.01"/>
						</g>
						<path class="st1" d="M41.38,77.39c0.75,3.07-0.92,6.69-3.57,7.74l0.03,0.03c3.75-0.04,6.91-2.53,7.96-5.93"/>
						<g>
							<line class="st0" x1="44.15" y1="84.84" x2="39.98" y2="80.66"/>
							<line class="st0" x1="41.82" y1="87.17" x2="37.64" y2="83"/>
							<line class="st0" x1="42.98" y1="86" x2="38.81" y2="81.83"/>
						</g>
					</g>
				</g>
				<g>
					<path class="st1" d="M159.63,139.72l-0.81-0.81c-0.65-0.65-1.71-0.65-2.36,0l-4.61,4.61c-0.65,0.65-0.65,1.71,0,2.36l0.81,0.81
						c0.65,0.65,1.71,0.65,2.36,0l4.61-4.61C160.28,141.43,160.28,140.38,159.63,139.72z"/>
					<path class="st1" d="M162.79,142.89l-0.81-0.81c-0.65-0.65-1.71-0.65-2.36,0l-4.61,4.61c-0.65,0.65-0.65,1.71,0,2.36l0.81,0.81
						c0.65,0.65,1.71,0.65,2.36,0l4.61-4.61C163.45,144.6,163.45,143.54,162.79,142.89z"/>
					<path class="st1" d="M165.96,146.06l-0.81-0.81c-0.65-0.65-1.71-0.65-2.36,0l-4.61,4.61c-0.65,0.65-0.65,1.71,0,2.36l0.81,0.81
						c0.65,0.65,1.71,0.65,2.36,0l4.61-4.61C166.61,147.77,166.61,146.71,165.96,146.06z"/>
					<path class="st1" d="M169.13,149.23l-0.81-0.81c-0.65-0.65-1.71-0.65-2.36,0l-4.61,4.61c-0.65,0.65-0.65,1.71,0,2.36l0.81,0.81
						c0.65,0.65,1.71,0.65,2.36,0l4.61-4.61C169.78,150.94,169.78,149.88,169.13,149.23z"/>
					<path class="st1" d="M172.3,152.4l-0.81-0.81c-0.65-0.65-1.71-0.65-2.36,0l-4.61,4.61c-0.65,0.65-0.65,1.71,0,2.36l0.81,0.81
						c0.65,0.65,1.71,0.65,2.36,0l4.61-4.61C172.95,154.1,172.95,153.05,172.3,152.4z"/>
					<path class="st1" d="M175.47,155.57l-0.81-0.81c-0.65-0.65-1.71-0.65-2.36,0l-4.61,4.61c-0.65,0.65-0.65,1.71,0,2.36l0.81,0.81
						c0.65,0.65,1.71,0.65,2.36,0l4.61-4.61C176.12,157.27,176.12,156.22,175.47,155.57z"/>
					<path class="st1" d="M175.47,155.57l-0.81-0.81c-0.65-0.65-1.71-0.65-2.36,0l-4.61,4.61c-0.65,0.65-0.65,1.71,0,2.36l0.81,0.81
						c0.65,0.65,1.71,0.65,2.36,0l4.61-4.61C176.12,157.27,176.12,156.22,175.47,155.57z"/>
					<path class="st1" d="M178.64,158.73l-0.81-0.81c-0.65-0.65-1.71-0.65-2.36,0l-4.61,4.61c-0.65,0.65-0.65,1.71,0,2.36l0.81,0.81
						c0.65,0.65,1.71,0.65,2.36,0l4.61-4.61C179.29,160.44,179.29,159.39,178.64,158.73z"/>
					<path class="st1" d="M156.46,136.56l-0.81-0.81c-0.65-0.65-1.71-0.65-2.36,0l-4.61,4.61c-0.65,0.65-0.65,1.71,0,2.36l0.81,0.81
						c0.65,0.65,1.71,0.65,2.36,0l4.61-4.61C157.11,138.26,157.11,137.21,156.46,136.56z"/>
				</g>
			</g>
			<g>
				<g>
					<line class="st1" x1="205.56" y1="108.82" x2="76.61" y2="237.77"/>
					<polygon class="st1" points="210.61,103.77 209.56,108.61 205.2,109.18 205.77,104.82 					"/>
					<line class="st0" x1="220.28" y1="94.1" x2="210.61" y2="103.77"/>
					<path class="st1" d="M209.8,108.37c1.14-1.14,2.99-1.14,4.13,0l6.64-14.57l-14.57,6.64c1.14,1.14,1.14,2.99,0,4.13"/>
					<g>
						<g>
							<line class="st0" x1="206.52" y1="110.51" x2="203.87" y2="107.86"/>
						</g>
						<g>
							<line class="st0" x1="205.9" y1="111.13" x2="203.25" y2="108.48"/>
						</g>
						<g>
							<line class="st0" x1="205.28" y1="111.75" x2="202.63" y2="109.1"/>
						</g>
						<g>
							<line class="st0" x1="204.66" y1="112.37" x2="202.01" y2="109.72"/>
						</g>
						<g>
							<line class="st0" x1="204.04" y1="112.99" x2="201.39" y2="110.34"/>
						</g>
					</g>
				</g>
				<g>
					<g>
						<line class="st0" x1="94.3" y1="221.71" x2="92.68" y2="220.08"/>
					</g>
					<g>
						<line class="st0" x1="93.68" y1="222.33" x2="92.06" y2="220.7"/>
					</g>
					<g>
						<line class="st0" x1="93.06" y1="222.95" x2="91.43" y2="221.32"/>
					</g>
					<g>
						<line class="st0" x1="92.44" y1="223.57" x2="90.81" y2="221.94"/>
					</g>
					<g>
						<line class="st0" x1="91.82" y1="224.19" x2="90.19" y2="222.56"/>
					</g>
				</g>
				<g>
					<polyline class="st1" points="91.53,222.86 80.14,223.89 70.48,233.56 81.86,232.52 					"/>
					<polyline class="st1" points="91.53,222.86 90.49,234.24 80.82,243.9 81.86,232.52 					"/>
				</g>
			</g>
		</g>
		<g>
			<line class="st2" x1="159.24" y1="92.14" x2="159.24" y2="107.23"/>
			<line class="st2" x1="151.69" y1="99.68" x2="166.78" y2="99.68"/>
			<line class="st2" x1="155.03" y1="95.47" x2="163.44" y2="103.89"/>
			<line class="st2" x1="155.03" y1="103.89" x2="163.44" y2="95.47"/>
		</g>
		<g>
			<line class="st2" x1="31.27" y1="123.81" x2="31.27" y2="138.9"/>
			<line class="st2" x1="23.72" y1="131.35" x2="38.81" y2="131.35"/>
			<line class="st2" x1="27.06" y1="127.14" x2="35.48" y2="135.56"/>
			<line class="st2" x1="27.06" y1="135.56" x2="35.48" y2="127.14"/>
		</g>
		<g>
			<line class="st2" x1="135.66" y1="218.37" x2="135.66" y2="233.46"/>
			<line class="st2" x1="128.12" y1="225.92" x2="143.21" y2="225.92"/>
			<line class="st2" x1="131.45" y1="221.71" x2="139.87" y2="230.13"/>
			<line class="st2" x1="131.45" y1="230.13" x2="139.87" y2="221.71"/>
		</g>
		<path class="st2" d="M216.43,70.81c-2.52,0-4.57,2.05-4.57,4.57c0-2.52-2.05-4.57-4.57-4.57c2.52,0,4.57-2.05,4.57-4.57
			C211.86,68.76,213.91,70.81,216.43,70.81z"/>
		<path class="st2" d="M199.02,271.92c-2.52,0-4.57,2.05-4.57,4.57c0-2.52-2.05-4.57-4.57-4.57c2.52,0,4.57-2.05,4.57-4.57
			C194.45,269.87,196.5,271.92,199.02,271.92z"/>
		<path class="st2" d="M72.72,262.07c-2.52,0-4.57,2.05-4.57,4.57c0-2.52-2.05-4.57-4.57-4.57c2.52,0,4.57-2.05,4.57-4.57
			C68.15,260.03,70.2,262.07,72.72,262.07z"/>
		<circle class="st2" cx="90.19" cy="163.8" r="4.57"/>
		<path class="st2" d="M229.71,160.79c-2.52,0-4.57,2.05-4.57,4.57c0-2.52-2.05-4.57-4.57-4.57c2.52,0,4.57-2.05,4.57-4.57
			C225.14,158.75,227.19,160.79,229.71,160.79z"/>
	</g>
</g>
</svg>
