<svg id="圖層_1" data-name="圖層 1" xmlns="http://www.w3.org/2000/svg" viewBox="0 0 300 300"><defs><style>.cls-1,.cls-2,.cls-3,.cls-4{fill:none;stroke-linecap:round;stroke-linejoin:round;}.cls-1,.cls-2,.cls-3{stroke:#bf9d50;}.cls-1,.cls-4{stroke-width:1.21px;}.cls-2{stroke-width:2.11px;}.cls-3{stroke-width:2.11px;}.cls-4{stroke:#fff;}</style></defs><line class="cls-1" x1="256.94" y1="278.03" x2="32.03" y2="53.12"/><path class="cls-1" d="M241.19,172.72c-8.82-5.85-20.31-10.54-35.14-14.18"/><path class="cls-1" d="M267.77,237.42c.3-18.92-1.92-34.37-9.21-46.74"/><path class="cls-1" d="M267.16,274.25c-1.5-3.24-1.29-6.91-1-10.36.08-.82.15-1.63.22-2.43"/><path class="cls-2" d="M239.54,178.74c-.46-.36-.94-.7-1.41-1l-.56-.42-.58-.39-1.15-.79-1.19-.76-.59-.38-.6-.37a97.38,97.38,0,0,0-10.11-5.4c-3.51-1.65-7.14-3.15-10.83-4.54-5.9-2.24-12-4.21-18.13-6.1"/><path class="cls-2" d="M262.13,241.37c0-3.44-.12-6.84-.28-10.23-.2-3.9-.5-7.77-1-11.55-.12-1-.26-1.89-.39-2.83l-.22-1.4c-.07-.46-.16-.94-.25-1.39-.33-1.85-.74-3.67-1.19-5.48s-1-3.55-1.56-5.27a51.35,51.35,0,0,0-2-5c-.36-.82-.77-1.61-1.16-2.42s-.84-1.57-1.3-2.33-1.08-1.78-1.66-2.63"/><path class="cls-2" d="M271.16,258l-.08.61-.45,3-.47,3c-.16,1-.3,1.87-.39,2.76a18.35,18.35,0,0,0-.13,2.52,11.41,11.41,0,0,0,.23,2.24c.05.17.07.35.13.52l.07.26.1.22c.06.16.11.31.18.47l.22.42a5,5,0,0,0,1.19,1.47,5.12,5.12,0,0,0,1.72.94,6.14,6.14,0,0,0,4.35-.31c.17-.08.38-.15.55-.25l.54-.31a8,8,0,0,0,1-.74,7.06,7.06,0,0,0,1.58-1.95,4.28,4.28,0,0,0,.47-1.15c0-.2.09-.4.12-.61a1.67,1.67,0,0,0,0-.31,1.61,1.61,0,0,0,0-.31,4.45,4.45,0,0,0-.24-1.27,5.16,5.16,0,0,0-.64-1.2,3.71,3.71,0,0,0-2.39-1.48,3.45,3.45,0,0,1,1.56.09,4.5,4.5,0,0,1,1.47.73,5.57,5.57,0,0,1,2,2.79,2.11,2.11,0,0,1,.12.43,4,4,0,0,1,.08.46,5.3,5.3,0,0,1,.06.9,7.69,7.69,0,0,1-.22,1.79,9.54,9.54,0,0,1-1.52,3.22,9.4,9.4,0,0,1-1.15,1.36l-.65.63c-.23.2-.48.38-.71.57a10.68,10.68,0,0,1-3.36,1.67,7.62,7.62,0,0,1-.94.24,7.83,7.83,0,0,1-1,.15c-.33,0-.66.06-1,.07l-1,0a10.86,10.86,0,0,1-3.92-1.16c-.3-.17-.61-.35-.91-.54s-.55-.41-.84-.61a7.36,7.36,0,0,1-.78-.7,7.19,7.19,0,0,1-.71-.76c-.21-.28-.44-.55-.65-.82s-.37-.57-.56-.87l-.27-.43-.23-.44c-.15-.3-.28-.6-.41-.89a18.27,18.27,0,0,1-1.07-3.66,27.79,27.79,0,0,1-.37-3.55c0-1.14,0-2.24,0-3.29l.06-3L262,258"/><path class="cls-2" d="M259.89,182a55.1,55.1,0,0,1,3.49,5c.6,1,1.15,1.94,1.7,2.93s1.06,2,1.51,3a66.11,66.11,0,0,1,4.34,12.57A88.49,88.49,0,0,1,273,218.29a124.81,124.81,0,0,1,.46,12.64c0,1-.05,2.09-.06,3.13s-.08,2.08-.13,3.12c-.07,1.4-.15,2.8-.26,4.2"/><path class="cls-2" d="M198.24,154.26c1.46.16,2.91.32,4.37.51,4.08.53,8.16,1.23,12.21,2.12a100.8,100.8,0,0,1,23.91,8.22l.72.35.72.38,1.43.77,1.41.82.71.42.7.44,1.39.87,1.36.93.59.41"/><path class="cls-2" d="M278.87,270.81a2.1,2.1,0,0,1,0-4.2"/><rect class="cls-3" x="241.67" y="177.31" width="16.96" height="5.25" transform="translate(-53.97 229.59) rotate(-45)"/><path class="cls-2" d="M262.06,179.83a2.87,2.87,0,0,0-4,0h0l-8,8h0a2.87,2.87,0,0,0,0,4Z"/><rect class="cls-3" x="247.48" y="181.47" width="10.88" height="2.86" transform="translate(-55.25 232.41) rotate(-45)"/><path class="cls-2" d="M250.25,168a2.86,2.86,0,0,1,0,4h0l-7.95,8h0a2.87,2.87,0,0,1-4,0Z"/><rect class="cls-3" x="241.75" y="175.73" width="10.88" height="2.86" transform="translate(-52.87 226.68) rotate(-45)"/><rect class="cls-2" x="258.71" y="247.09" width="16.96" height="5.25"/><path class="cls-2" d="M275.67,258.06a2.86,2.86,0,0,0-2.86-2.86H261.56a2.86,2.86,0,0,0-2.85,2.86Z"/><rect class="cls-2" x="261.6" y="252.33" width="10.88" height="2.86"/><path class="cls-2" d="M275.67,241.37a2.86,2.86,0,0,1-2.86,2.85H261.56a2.86,2.86,0,0,1-2.85-2.85Z"/><rect class="cls-2" x="261.6" y="244.22" width="10.88" height="2.86"/><path class="cls-2" d="M190.38,153.49c-9.37,9.37,1,18.67,1,18.67-3.67-9.33,5.84-17,5.84-17a7.9,7.9,0,0,0,.8-.95,7,7,0,0,0-.8-9,8.13,8.13,0,0,0-1.12-.93"/><path class="cls-2" d="M190.45,150.07a2.37,2.37,0,0,1,0,3.34"/><path class="cls-2" d="M199.65,163.92a5.83,5.83,0,0,1-8.25,8.25"/><path class="cls-2" d="M195.13,145.36l7.41-7.41h0a7.67,7.67,0,0,1,0,10.84L199,152.35"/><path class="cls-2" d="M264.69,277.39c-3.64-.89-7.93,1.09-9.17,4.23l0,0a10,10,0,0,1,7-9.44"/><line class="cls-1" x1="255.85" y1="274.11" x2="260.8" y2="279.05"/><line class="cls-1" x1="253.09" y1="276.88" x2="258.03" y2="281.82"/><line class="cls-1" x1="254.47" y1="275.49" x2="259.42" y2="280.44"/><path class="cls-1" d="M137.47,69c5.85,8.82,10.54,20.3,14.18,35.13"/><path class="cls-1" d="M72.78,42.42c18.93-.3,34.36,1.92,46.74,9.21"/><path class="cls-1" d="M35.94,43c3.24,1.49,6.92,1.29,10.37,1l2.43-.21"/><path class="cls-2" d="M131.45,70.66c.36.46.7.93,1.05,1.41l.41.55.39.58.8,1.15.75,1.19.38.59.37.61A98.34,98.34,0,0,1,141,86.85c1.64,3.51,3.14,7.13,4.54,10.82,2.24,5.9,4.21,12,6.09,18.14"/><path class="cls-2" d="M68.83,48.06c3.44,0,6.84.12,10.23.29,3.9.2,7.76.49,11.54,1,1,.12,1.89.26,2.84.39l1.4.23c.46.07.93.15,1.38.25,1.85.33,3.68.73,5.48,1.18s3.56,1,5.27,1.57a50.32,50.32,0,0,1,5,2c.82.37,1.61.77,2.42,1.16s1.58.84,2.34,1.3,1.77,1.08,2.63,1.66"/><path class="cls-2" d="M52.16,39l-.6.08-3,.45-3,.48c-1,.15-1.87.29-2.76.39a22.12,22.12,0,0,1-2.51.13A11.31,11.31,0,0,1,38,40.32c-.18,0-.36-.07-.52-.13l-.26-.07L37,40a4.28,4.28,0,0,1-.46-.17l-.43-.23a5.27,5.27,0,0,1-1.47-1.18,5.61,5.61,0,0,1-.94-1.72,6.12,6.12,0,0,1-.24-2.11A6,6,0,0,1,34,32.37c.09-.18.16-.38.25-.56l.31-.53a6.69,6.69,0,0,1,.75-1,7.05,7.05,0,0,1,1.94-1.59,4.54,4.54,0,0,1,1.15-.46,4,4,0,0,1,.62-.12,1.05,1.05,0,0,1,.31,0h.3a4.82,4.82,0,0,1,1.27.24,5,5,0,0,1,1.2.64,3.72,3.72,0,0,1,1.48,2.4,3.49,3.49,0,0,0-.08-1.57,4.52,4.52,0,0,0-.74-1.47,5.54,5.54,0,0,0-2.78-2c-.15,0-.29-.09-.44-.12a4.3,4.3,0,0,0-.45-.08,5.37,5.37,0,0,0-.9-.06,7.64,7.64,0,0,0-1.79.23,9.47,9.47,0,0,0-3.23,1.51A10.74,10.74,0,0,0,31.82,29l-.63.66c-.2.22-.38.47-.57.71A10.53,10.53,0,0,0,29,33.68c-.11.31-.16.62-.24.94a7.83,7.83,0,0,0-.15,1c0,.33-.06.66-.07,1s0,.66.05,1a11,11,0,0,0,1.16,3.93c.16.29.34.6.53.9s.42.56.62.84a5.74,5.74,0,0,0,.7.78,6.33,6.33,0,0,0,.76.71l.81.66L34,46l.44.28.44.22c.29.16.59.29.89.42a17.25,17.25,0,0,0,3.66,1.06,26,26,0,0,0,3.54.37c1.14,0,2.24,0,3.3,0l3-.06,2.86,0"/><path class="cls-2" d="M128.19,50.3a55,55,0,0,0-5-3.48c-1-.61-1.94-1.15-2.93-1.71s-2-1.06-3-1.51a66.69,66.69,0,0,0-12.56-4.33,87.56,87.56,0,0,0-12.78-2.05c-4.25-.38-8.47-.51-12.65-.47-1,0-2.09,0-3.13.06L73,36.94c-1.4.07-2.8.16-4.19.26"/><path class="cls-2" d="M155.93,112q-.23-2.19-.51-4.38-.79-6.12-2.12-12.21a101.21,101.21,0,0,0-8.21-23.91l-.36-.72-.38-.71-.77-1.44-.82-1.41-.41-.71-.44-.7c-.3-.46-.58-.92-.88-1.38L140.11,63c-.13-.2-.28-.39-.42-.59"/><path class="cls-2" d="M39.38,31.32a2.1,2.1,0,0,0,4.2,0"/><rect class="cls-3" x="121.78" y="57.42" width="16.96" height="5.25" transform="translate(-4.3 109.7) rotate(-45)"/><path class="cls-2" d="M130.36,48.13a2.85,2.85,0,0,1,0,4h0l-8,8h0a2.87,2.87,0,0,1-4,0Z"/><rect class="cls-3" x="121.85" y="55.84" width="10.88" height="2.86" transform="translate(-3.21 106.78) rotate(-45)"/><path class="cls-2" d="M142.17,59.94a2.85,2.85,0,0,0-4,0h0l-8,8h0a2.88,2.88,0,0,0,0,4Z"/><rect class="cls-3" x="127.59" y="61.58" width="10.88" height="2.86" transform="translate(-5.59 112.52) rotate(-45)"/><rect class="cls-2" x="57.86" y="34.53" width="5.25" height="16.96"/><path class="cls-2" d="M52.14,34.52A2.86,2.86,0,0,1,55,37.38h0V48.63h0a2.86,2.86,0,0,1-2.85,2.86Z"/><rect class="cls-2" x="55" y="37.71" width="2.86" height="10.88"/><path class="cls-2" d="M68.83,34.52A2.86,2.86,0,0,0,66,37.38h0V48.63h0a2.86,2.86,0,0,0,2.86,2.86Z"/><rect class="cls-2" x="63.11" y="37.71" width="2.86" height="10.88"/><path class="cls-2" d="M156.7,119.81c-9.36,9.37-18.67-1-18.67-1,9.33,3.68,17-5.84,17-5.84a6.6,6.6,0,0,1,1-.8,7,7,0,0,1,8.94.8,6.84,6.84,0,0,1,.92,1.12"/><path class="cls-2" d="M160.13,119.74a2.38,2.38,0,0,0-3.35,0"/><path class="cls-2" d="M146.27,110.56a5.83,5.83,0,0,0-8.25,8.25"/><path class="cls-2" d="M164.83,115.06l7.41-7.41h0a7.66,7.66,0,0,0-10.83,0l-3.57,3.57"/><path class="cls-2" d="M32.8,45.51c.89,3.64-1.09,7.93-4.23,9.18l0,0a10,10,0,0,0,9.43-7"/><line class="cls-1" x1="36.09" y1="54.34" x2="31.14" y2="49.39"/><line class="cls-1" x1="33.33" y1="57.11" x2="28.37" y2="52.16"/><line class="cls-1" x1="34.7" y1="55.72" x2="29.76" y2="50.78"/><path class="cls-2" d="M173,119.4l-1-1a2,2,0,0,0-2.8,0l-5.46,5.46a2,2,0,0,0,0,2.8l1,1a2,2,0,0,0,2.79,0L173,122.2A2,2,0,0,0,173,119.4Z"/><path class="cls-2" d="M176.72,123.16l-1-1a2,2,0,0,0-2.79,0l-5.47,5.46a2,2,0,0,0,0,2.8l1,1a2,2,0,0,0,2.8,0l5.46-5.47A1.94,1.94,0,0,0,176.72,123.16Z"/><path class="cls-2" d="M180.48,126.91l-1-1a2,2,0,0,0-2.8,0l-5.46,5.47a2,2,0,0,0,0,2.8l1,1a2,2,0,0,0,2.8,0l5.46-5.47A2,2,0,0,0,180.48,126.91Z"/><path class="cls-2" d="M184.24,130.67l-1-1a2,2,0,0,0-2.8,0L175,135.18a2,2,0,0,0,0,2.79l1,1a2,2,0,0,0,2.79,0l5.47-5.46A2,2,0,0,0,184.24,130.67Z"/><path class="cls-2" d="M188,134.43l-1-1a2,2,0,0,0-2.8,0l-5.47,5.46a2,2,0,0,0,0,2.8l1,1a2,2,0,0,0,2.8,0l5.47-5.46A2,2,0,0,0,188,134.43Z"/><path class="cls-2" d="M191.75,138.19l-1-1a2,2,0,0,0-2.79,0l-5.47,5.46a2,2,0,0,0,0,2.8l1,1a2,2,0,0,0,2.8,0l5.46-5.46A2,2,0,0,0,191.75,138.19Z"/><path class="cls-2" d="M191.75,138.19l-1-1a2,2,0,0,0-2.79,0l-5.47,5.46a2,2,0,0,0,0,2.8l1,1a2,2,0,0,0,2.8,0l5.46-5.46A2,2,0,0,0,191.75,138.19Z"/><path class="cls-2" d="M195.51,141.93l-1-1a2,2,0,0,0-2.8,0l-5.46,5.47a2,2,0,0,0,0,2.8l1,1a2,2,0,0,0,2.8,0l5.46-5.47A2,2,0,0,0,195.51,141.93Z"/><path class="cls-2" d="M169.22,115.65l-1-1a2,2,0,0,0-2.8,0L160,120.16a2,2,0,0,0,0,2.8l1,1a2,2,0,0,0,2.8,0l5.46-5.47A2,2,0,0,0,169.22,115.65Z"/><line class="cls-2" x1="227.42" y1="82.77" x2="74.57" y2="235.63"/><polygon class="cls-2" points="233.41 76.78 232.16 82.52 227 83.2 227.67 78.03 233.41 76.78"/><line class="cls-1" x1="244.87" y1="65.32" x2="233.41" y2="76.78"/><path class="cls-2" d="M232.45,82.24a3.46,3.46,0,0,1,4.89,0L245.22,65l-17.28,7.87a3.44,3.44,0,0,1,0,4.89"/><line class="cls-1" x1="228.56" y1="84.77" x2="225.42" y2="81.63"/><line class="cls-1" x1="227.83" y1="85.51" x2="224.68" y2="82.37"/><line class="cls-1" x1="227.09" y1="86.24" x2="223.95" y2="83.1"/><line class="cls-1" x1="226.36" y1="86.98" x2="223.21" y2="83.84"/><line class="cls-1" x1="225.62" y1="87.71" x2="222.48" y2="84.57"/><line class="cls-1" x1="95.54" y1="216.59" x2="93.61" y2="214.66"/><line class="cls-1" x1="94.8" y1="217.33" x2="92.88" y2="215.39"/><line class="cls-1" x1="94.07" y1="218.06" x2="92.13" y2="216.13"/><line class="cls-1" x1="93.33" y1="218.8" x2="91.4" y2="216.86"/><line class="cls-1" x1="92.6" y1="219.53" x2="90.66" y2="217.6"/><polyline class="cls-2" points="92.25 217.95 78.75 219.18 67.3 230.64 80.79 229.41"/><polyline class="cls-2" points="92.25 217.95 91.02 231.44 79.56 242.89 80.79 229.41"/><line class="cls-4" x1="172.52" y1="63" x2="172.52" y2="80.89"/><line class="cls-4" x1="163.57" y1="71.94" x2="181.45" y2="71.94"/><line class="cls-4" x1="167.52" y1="66.94" x2="177.49" y2="76.93"/><line class="cls-4" x1="167.52" y1="76.93" x2="177.49" y2="66.94"/><line class="cls-4" x1="20.82" y1="100.54" x2="20.82" y2="118.43"/><line class="cls-4" x1="11.87" y1="109.48" x2="29.76" y2="109.48"/><line class="cls-4" x1="15.83" y1="104.49" x2="25.81" y2="114.47"/><line class="cls-4" x1="15.83" y1="114.47" x2="25.81" y2="104.49"/><line class="cls-4" x1="144.56" y1="212.63" x2="144.56" y2="230.52"/><line class="cls-4" x1="135.63" y1="221.58" x2="153.51" y2="221.58"/><line class="cls-4" x1="139.57" y1="216.59" x2="149.55" y2="226.57"/><line class="cls-4" x1="139.57" y1="226.57" x2="149.55" y2="216.59"/><path class="cls-4" d="M240.31,37.71a5.42,5.42,0,0,0-5.42,5.42,5.42,5.42,0,0,0-5.42-5.42,5.42,5.42,0,0,0,5.42-5.41A5.42,5.42,0,0,0,240.31,37.71Z"/><path class="cls-4" d="M219.67,276.11a5.42,5.42,0,0,0-5.42,5.42,5.42,5.42,0,0,0-5.41-5.42,5.42,5.42,0,0,0,5.41-5.42A5.42,5.42,0,0,0,219.67,276.11Z"/><path class="cls-4" d="M70,264.43a5.42,5.42,0,0,0-5.41,5.42,5.42,5.42,0,0,0-5.42-5.42A5.42,5.42,0,0,0,64.54,259,5.41,5.41,0,0,0,70,264.43Z"/><circle class="cls-4" cx="90.66" cy="147.94" r="5.42"/><path class="cls-4" d="M256.05,144.38a5.42,5.42,0,0,0-5.42,5.41,5.42,5.42,0,0,0-5.41-5.41,5.42,5.42,0,0,0,5.41-5.42A5.42,5.42,0,0,0,256.05,144.38Z"/></svg>