<?xml version="1.0" encoding="utf-8"?>
<!-- Generator: Adobe Illustrator 25.0.0, SVG Export Plug-In . SVG Version: 6.00 Build 0)  -->
<svg version="1.1" id="GRAPHIC_ELEMENTS" xmlns="http://www.w3.org/2000/svg" xmlns:xlink="http://www.w3.org/1999/xlink" x="0px"
	 y="0px" viewBox="0 0 320.85 310.99" style="enable-background:new 0 0 320.85 310.99;" xml:space="preserve">
<style type="text/css">
	.st0{fill:none;stroke:#BF9D50;stroke-width:1.7825;stroke-linecap:round;stroke-linejoin:round;stroke-miterlimit:10;}
	.st1{fill:none;stroke:#BF9D50;stroke-width:1.0186;stroke-linecap:round;stroke-linejoin:round;stroke-miterlimit:10;}
	.st2{fill:none;stroke:#FFFFFF;stroke-width:1.0186;stroke-linecap:round;stroke-linejoin:round;stroke-miterlimit:10;}
</style>
<g>
	<g>
		<g>
			<g>
				<g>
					<g>
						<path class="st0" d="M120.17,145.77l10.26,10.26c0-7.58,5.16-13.73,11.53-13.73l0,0c20.27,0,37.36-13.64,42.59-32.24
							c1.85-6.58-0.01-13.65-4.84-18.48l0,0l0,0c-2.03-2.03-4.45-3.53-7.07-4.46c-3.61-1.28-7.59-1.46-11.41-0.38
							c-18.6,5.23-32.24,22.31-32.24,42.59l0,0c0,6.37-6.15,11.53-13.73,11.53l10.26,10.26L120.17,145.77z"/>
					</g>
					<path class="st1" d="M133.88,124.08c7.37,0,13.34,5.97,13.34,13.34"/>
					<path class="st1" d="M155.38,93.83c6.86,0,12.99,3.13,17.04,8.04c3.15,3.82,5.04,8.71,5.04,14.05"/>
					<line class="st0" x1="112.54" y1="138.14" x2="133.16" y2="158.76"/>
					<g>
						<g>
							<path class="st0" d="M173.73,137.93c-0.25-2.52-2.52-4.17-5.07-3.7c-2.55,0.47-4.41,2.9-4.16,5.41l0.2,1.27
								c0.83,8.31-5.32,16.31-13.73,17.87c-8.42,1.56-15.91-3.91-16.74-12.22"/>
						</g>
						<g>
							<g>
								<path class="st0" d="M133.37,97.57c2.52,0.25,4.17,2.52,3.7,5.07c-0.47,2.55-2.9,4.41-5.41,4.16l-1.27-0.2
									c-8.31-0.83-16.31,5.32-17.87,13.73c-1.56,8.42,3.91,15.91,12.22,16.74"/>
							</g>
						</g>
					</g>
				</g>
			</g>
			<path class="st1" d="M115.76,236.7c-23.36,0-42.3-18.94-42.3-42.3c0-23.36,18.94-42.3,42.3-42.3"/>
			<path class="st1" d="M251.77,235.83c-8.07-8.07-21.16-8.07-29.23,0c-8.07,8.07-21.16,8.07-29.23,0c-8.07-8.07-21.16-8.07-29.23,0
				c-8.07,8.07-21.16,8.07-29.23,0"/>
			<path class="st1" d="M251.77,245.73c-8.07-8.07-21.16-8.07-29.23,0c-8.07,8.07-21.16,8.07-29.23,0c-8.07-8.07-21.16-8.07-29.23,0
				c-8.07,8.07-21.16,8.07-29.23,0"/>
			<path class="st1" d="M114.97,195.1c-10.11,0-18.31-8.2-18.31-18.31s8.2-18.31,18.31-18.31"/>
			<path class="st1" d="M109.21,244.71c-24.6,0-44.55-19.95-44.55-44.55"/>
			<path class="st1" d="M109.89,146.62c-4.69,0-8.49-3.8-8.49-8.49"/>
			<path class="st1" d="M122.2,180.45c-5.87-5.87-5.87-15.38,0-21.25"/>
			<path class="st1" d="M115.76,236.7c9.94,0,18-8.06,18-18c0-9.94-8.06-18-18-18c-9.94,0-18,8.06-18,18"/>
			<path class="st1" d="M66.93,161.41c6.8,6.8,6.8,17.83,0,24.64"/>
			<path class="st1" d="M66.93,161.41c-2.9-2.9-7.59-2.9-10.48,0c-2.9,2.9-2.9,7.59,0,10.49c2.9,2.9,7.59,2.9,10.48,0"/>
			<g>
				<g>
					<g>
						<g>
							<path class="st0" d="M169.16,60.45c-4.09,4.09-10.72,4.09-14.81,0c-4.09-4.09-4.09-10.72,0-14.81
								c4.09-4.09,10.72-4.09,14.81,0"/>
							<g>
								<path class="st0" d="M154.35,60.45c-4.09-4.09-4.09-10.72,0-14.81"/>
								<path class="st0" d="M169.16,45.64c2.42,2.42,2.42,6.34,0,8.76c-2.42,2.42-6.34,2.42-8.76,0"/>
							</g>
						</g>
						<path class="st0" d="M170.98,49.41c0,13.13,10.65,23.78,23.78,23.78c13.13,0,23.78,10.65,23.78,23.78"/>
						<path class="st0" d="M218.54,96.97c0-26.27-21.29-47.56-47.56-47.56"/>
						<g>
							<path class="st0" d="M161.55,63.51h6.4c6.88,0,12.46,5.58,12.46,12.46s5.58,12.46,12.46,12.46c6.88,0,12.46,5.58,12.46,12.46
								v3.35"/>
							<g>
								<path class="st0" d="M193.06,88.44c1.91,0,3.46,1.55,3.46,3.46c0,1.91-1.55,3.46-3.46,3.46c-1.91,0-3.46-1.55-3.46-3.46"/>
								<g>
									<path class="st0" d="M193.06,88.44c1.91,0,3.46,1.55,3.46,3.46c0,1.91-1.55,3.46-3.46,3.46"/>
									<path class="st0" d="M189.61,91.9"/>
								</g>
							</g>
							<g>
								<path class="st0" d="M180.52,78.01c0,1.67-1.36,3.03-3.03,3.03c-1.67,0-3.03-1.36-3.03-3.03c0-1.67,1.36-3.03,3.03-3.03"/>
								<g>
									<path class="st0" d="M180.52,78.01c0,1.67-1.36,3.03-3.03,3.03c-1.67,0-3.03-1.36-3.03-3.03"/>
									<path class="st0" d="M177.49,74.97"/>
								</g>
							</g>
							<path class="st0" d="M213.33,95.35c4.42,0,8.01,3.58,8.01,8.01c0,4.42-3.58,8.01-8.01,8.01c-4.42,0-8.01-3.58-8.01-8.01"/>
						</g>
					</g>
					<g>
						<g>
							<g>
								<path class="st0" d="M162.87,63.73v1.92c0,2.6-0.59,5.17-1.73,7.5l0,0c-0.62,1.28,0.31,2.76,1.73,2.76l0,0"/>
							</g>
							<path class="st0" d="M164.56,77.67c0,2.23,1.81,4.04,4.03,4.04h0.6"/>
							<path class="st0" d="M162.87,75.92c0.93,0,1.69,0.76,1.69,1.69"/>
						</g>
						<path class="st0" d="M169.34,81.7c2.15,0,3.89,1.74,3.89,3.89"/>
					</g>
				</g>
				<g>
					<g>
						<g>
							<path class="st0" d="M217.86,229.8c-0.67-0.14-1.34-0.28-2.01-0.44c-29.38-6.92-51.21-32.8-51.21-63.67"/>
						</g>
					</g>
					<g>
						<g>
							<path class="st0" d="M164.65,178.03c0,21.41-11.14,40.21-27.94,50.93"/>
						</g>
					</g>
					<path class="st1" d="M205.34,157.28c0,19.25-15.6,34.85-34.85,34.85"/>
					<path class="st1" d="M204.43,136.39c-10.71,0-20.43-4.23-27.58-11.11"/>
					<line class="st0" x1="205.34" y1="101.61" x2="205.34" y2="212.05"/>
					<line class="st0" x1="164.64" y1="178.03" x2="164.64" y2="144.5"/>
					<path class="st0" d="M217.87,229.76c-7.3-2.57-12.53-9.53-12.53-17.72"/>
				</g>
			</g>
			<circle class="st1" cx="64.66" cy="194.4" r="1.5"/>
			<path class="st1" d="M139.61,203.9c0-0.83-0.67-1.5-1.5-1.5c-0.83,0-1.5,0.67-1.5,1.5c0,0.83,0.67,1.5,1.5,1.5
				C138.94,205.4,139.61,204.73,139.61,203.9z"/>
			<circle class="st1" cx="232.17" cy="224.67" r="1.38"/>
			<circle class="st1" cx="125.35" cy="249.26" r="1.5"/>
			<path class="st1" d="M94.61,149.27c0-0.83-0.67-1.5-1.5-1.5c-0.83,0-1.5,0.67-1.5,1.5c0,0.83,0.67,1.5,1.5,1.5
				C93.94,150.77,94.61,150.1,94.61,149.27z"/>
		</g>
		<g>
			<line class="st2" x1="121.82" y1="70.06" x2="121.82" y2="85.15"/>
			<line class="st2" x1="114.28" y1="77.61" x2="129.37" y2="77.61"/>
			<line class="st2" x1="117.61" y1="73.4" x2="126.03" y2="81.81"/>
			<line class="st2" x1="117.61" y1="81.81" x2="126.03" y2="73.4"/>
		</g>
		<g>
			<line class="st2" x1="143.81" y1="173.97" x2="143.81" y2="189.06"/>
			<line class="st2" x1="136.27" y1="181.51" x2="151.35" y2="181.51"/>
			<line class="st2" x1="139.6" y1="177.3" x2="148.02" y2="185.72"/>
			<line class="st2" x1="139.6" y1="185.72" x2="148.02" y2="177.3"/>
		</g>
		<circle class="st2" cx="222.22" cy="50.49" r="4.57"/>
		<circle class="st2" cx="223.11" cy="155.3" r="4.57"/>
		<path class="st2" d="M63.11,245.73c-2.52,0-4.57,2.05-4.57,4.57c0-2.52-2.05-4.57-4.57-4.57c2.52,0,4.57-2.05,4.57-4.57
			C58.54,243.68,60.58,245.73,63.11,245.73z"/>
		<path class="st2" d="M88.26,121.88c-2.52,0-4.57,2.05-4.57,4.57c0-2.52-2.05-4.57-4.57-4.57c2.52,0,4.57-2.05,4.57-4.57
			C83.69,119.83,85.74,121.88,88.26,121.88z"/>
	</g>
</g>
</svg>
