<svg id="圖層_1" data-name="圖層 1" xmlns="http://www.w3.org/2000/svg" viewBox="0 0 384 384"><defs><style>.cls-1{fill:#cfb886;}</style></defs><path class="cls-1" d="M201.82,381.25H179.76c-1.19-.22-2.37-.5-3.56-.67-8-1.13-16.1-1.73-24-3.45-45.92-10-83.32-33.54-111.75-71.14A186.23,186.23,0,0,1,5.26,224.64C4.06,217.8,3.4,210.87,2.48,204V181.92c.3-2.65.61-5.3.91-7.94,4.5-40.52,20-76.27,47.29-106.58,29-32.17,64.93-52.26,107.67-59.83,7.09-1.25,14.27-2,21.41-2.93h22.06a20.57,20.57,0,0,0,2.84.61c29.46,2.08,57,10.5,82.16,25.91,48.78,29.9,78.8,73,89.34,129.39,1.32,7.06,2,14.24,2.94,21.37V204c-.57,4.84-1,9.69-1.73,14.51-5,33.48-17.51,63.76-38.51,90.43-29.66,37.66-68.24,60.59-115.27,69.36C216.4,379.62,209.08,380.28,201.82,381.25Zm131.58-86.4C381.74,230,381.54,123.8,303.09,58,229-4.18,118,5.06,55.19,81.4-6,155.71,11.81,248.86,48.44,294.57a150.33,150.33,0,0,1,33.75-55.08,153,153,0,0,1,53.88-36.15c-37-35-33.1-87.7-3.29-118C161.9,55.77,209,52.9,242.16,79.51A77.88,77.88,0,0,1,271.42,131c3.92,28.31-5.4,52.23-25.88,72.32C288.16,221.13,317.3,251.47,333.4,294.85Zm-142.33,74c5.48-.32,11.37-.41,17.21-1.05q67.86-7.53,113.75-58.16c1.68-1.84,1.8-3.35,1.09-5.53q-21.54-66.36-86.9-90.65a7.45,7.45,0,0,0-5.39.38Q190.89,234.76,151,214a7.94,7.94,0,0,0-5.72-.46c-43.63,16.13-72.5,46.47-86.83,90.71a4.88,4.88,0,0,0,1.22,5.51C94.82,348.32,138.63,367.64,191.07,368.87Zm-.31-157.41a68.94,68.94,0,0,0,69.1-68.76c.2-37.69-31.08-68.93-69-68.95s-69.22,31.15-69.1,68.88A68.93,68.93,0,0,0,190.76,211.46Z"/></svg>