<svg id="圖層_1" data-name="圖層 1" xmlns="http://www.w3.org/2000/svg" xmlns:xlink="http://www.w3.org/1999/xlink" viewBox="0 0 200 200"><defs><style>.cls-1,.cls-24{fill:none;}.cls-2{clip-path:url(#clip-path);}.cls-11,.cls-3{fill:#231815;}.cls-4{clip-path:url(#clip-path-2);}.cls-5,.cls-6{fill:#3e3a39;}.cls-11,.cls-16,.cls-23,.cls-24,.cls-5,.cls-7{stroke:#c8b17d;}.cls-11,.cls-13,.cls-15,.cls-16,.cls-23,.cls-24,.cls-5,.cls-7{stroke-miterlimit:10;}.cls-11,.cls-23,.cls-24,.cls-5,.cls-7{stroke-width:0.58px;}.cls-7{fill:#6a6969;}.cls-8{fill:#fbe2e3;}.cls-9{fill:#7f4f21;}.cls-10{fill:#6a3906;}.cls-12{fill:#251b3a;}.cls-13{fill:#666464;}.cls-13,.cls-15{stroke:#d2bb87;}.cls-14,.cls-23{fill:#393332;}.cls-15{fill:#898989;}.cls-16,.cls-21{fill:#595757;}.cls-16{stroke-width:0.43px;}.cls-17{clip-path:url(#clip-path-3);}.cls-18{fill:#3c3736;}.cls-19{fill:#12031c;}.cls-20{clip-path:url(#clip-path-4);}.cls-22{fill:#352f2d;}.cls-25{fill:#d2bb87;}</style><clipPath id="clip-path"><rect class="cls-1" x="-219.7" y="0.3" width="200" height="200"/></clipPath><clipPath id="clip-path-2"><rect class="cls-1" x="0.09" y="0.3" width="200" height="200"/></clipPath><clipPath id="clip-path-3"><path class="cls-1" d="M77.83,70.93a9.82,9.82,0,0,0-5.18,8c-.53,3.37,1.29,7,3.77,9.22,2.67,2.41,7.61,2.43,10.82,1.29,3.82-1.35,5.57-4.64,6.06-8.33C94.35,73.12,85.07,67.05,77.83,70.93Z"/></clipPath><clipPath id="clip-path-4"><path class="cls-1" d="M113.55,70.93a9.8,9.8,0,0,0-5.18,8c-.54,3.37,1.28,7,3.76,9.22,2.67,2.41,7.62,2.43,10.83,1.29,3.81-1.35,5.56-4.64,6-8.33C130.06,73.12,120.79,67.05,113.55,70.93Z"/></clipPath></defs><g class="cls-2"><rect class="cls-3" x="-249.51" y="-16.48" width="259.62" height="259.62"/></g><g class="cls-4"><rect class="cls-3" x="-29.73" y="-16.48" width="259.62" height="259.62"/><path class="cls-5" d="M217,136.5c-2.29-7.71-6.29-14.82-10.21-21.79-4.34-7.72-9.58-16-8.64-25.24.85-8.32,5.19-16,8.54-23.46,3.45-7.73,6-15.83,6.11-24.35.27-15.3-8.1-29.41-22.41-35.35-15.9-6.59-30.23.46-45.91,3.59-16.61,3.32-35.93,2.47-51.43-4.81C85.9,1.73,79.52-3,71.62-4.53A49.46,49.46,0,0,0,47.48-2.79C34.93,1.14,22.94,9.9,17.93,22.39c-6.28,15.63,1.91,30.16,8.77,44C34,81.07,15.78,92,6,99.27c-12.3,9.17-22.83,22.41-24.44,38.19C-20,153-10.64,164.35,2.73,170.84c6.72,3.26,14.07,5,20.62,8.65,7.2,4,11.48,10.06,15.44,17.06,8.15,14.39,20.29,25.88,36,31.77,15,5.6,32,4.62,46.53-1.9,15-6.72,24.8-19.06,38-28.19,7.42-5.13,14.32-5.67,23.06-5.74a32.18,32.18,0,0,0,22-8.37C216.9,172.63,221.78,152.6,217,136.5,214.93,129.48,220.53,148.4,217,136.5Z"/><path class="cls-6" d="M8,44.53c-5-4.6-12.51-4.3-15.92,1.95-2.42,4.44-2.37,10.5-1.45,15.73A38.92,38.92,0,0,0-8.9,67.5c.76,5.24,3.06,10.22,7.65,13.12A8.19,8.19,0,0,0,9.42,79.1c2.71-3.26,3.55-7.45,4.08-11.55C14.49,59.89,14,50.09,8,44.53Z"/><path class="cls-6" d="M5.91,23.4a17.72,17.72,0,0,0-1.32-3.34s-.14-.62-.09-.1a6.46,6.46,0,0,0-.18-1.07,4.15,4.15,0,0,0-1.84-2.26,3.18,3.18,0,0,0-3.82.5,5.06,5.06,0,0,0-1.4,2,7.18,7.18,0,0,0-1.58,5.29c.32,3.1,1.86,5.9,5.29,6.15A5.22,5.22,0,0,0,5.31,28,5.68,5.68,0,0,0,5.91,23.4Z"/><path class="cls-6" d="M128.45.43c.7.81-.28-.37-.32-.43a2.79,2.79,0,0,0-.4-.37,6.82,6.82,0,0,0-.9-.65c-.23-.12-1.28-.66-.6-.29a10,10,0,0,0-3.76-1.21c-2.16-.29-4.12,1.41-4.81,3.31a3.51,3.51,0,0,0,.91,3.44,3.46,3.46,0,0,0,.78.57,5,5,0,0,0,1.88,1.58c2.56,1.13,6,1.58,7.79-1.18A4.12,4.12,0,0,0,128.45.43Z"/><path class="cls-6" d="M128.13,0l0,0Z"/><path class="cls-6" d="M143.76,0a3.52,3.52,0,0,1-.26-.43,2,2,0,0,0-1.38-2.34l-.47-.18a2.14,2.14,0,0,0-2.6,1.48,4.6,4.6,0,0,0,0,2,2.12,2.12,0,0,0,2.08,2.07,1.94,1.94,0,0,0,1.4-.57,3.29,3.29,0,0,0,.5-.12A1.31,1.31,0,0,0,143.76,0Z"/><path class="cls-6" d="M27.77,201.83c-.83-4-3.74-7-6.54-9.78-5-4.89-18.47-15.47-22.6-3.77C-3.3,193.77-.18,198.91,4.29,203a32.77,32.77,0,0,0,3.83,3.62c3.39,2.8,7.2,5,11.64,5.37a6.07,6.07,0,0,0,5.84-1.19A3.4,3.4,0,0,0,26.71,209,9.71,9.71,0,0,0,27.77,201.83Z"/><path class="cls-6" d="M180.14,202.28a6,6,0,0,0-8.32-1.54,14.14,14.14,0,0,0-2.5,2.27l-.3.18a5.71,5.71,0,0,0-2,6.82c1.72,4.12,6.3,4.75,10,2.81a7.88,7.88,0,0,0,3.13-10.54Z"/><path class="cls-7" d="M161,119.65C144.62,102.74,187,69.2,182,47.08c-2.92-12.82-15.39-19.57-27.86-16.23-9,2.41-18.57,23.69-26.35,21.75-7.43-1.86-12.33-15.08-19.33-19.1-11-6.34-25.27-7.24-36.14.07C60.58,41.48,60.26,55.3,62.66,68,65.21,81.42,76.13,87.45,60.88,96c-25.29,14.24-45.47,40.19-26.14,68.74,17.42,25.72,50.07,30.11,72.14,9.23,21.35-20.19,27.05,8.2,50.81,5.37a27.89,27.89,0,0,0,23.72-22.48C185,138.22,171.93,131,161,119.65Z"/><path class="cls-7" d="M46.06,23.44c-3.89.87-5.92,4.46-7,8a29.61,29.61,0,0,0-.91,3.66,23.75,23.75,0,0,0-.91,3.82c-.58,3.73.36,8.41,4.44,9.72,7,2.25,11.58-7,12.35-12.59S53.89,21.7,46.06,23.44Z"/><path class="cls-7" d="M133.55,35.86c-.35-3.75-3.57-7.23-7.36-7.45a4.26,4.26,0,0,0-4.71,4.17,4.94,4.94,0,0,0,.43,1.88,9.65,9.65,0,0,0,3,4.63,5.7,5.7,0,0,0,5.39,1.44A4.45,4.45,0,0,0,133.55,35.86Z"/><path class="cls-7" d="M190,17.17a3.67,3.67,0,0,0-4.22,1.95,1.37,1.37,0,0,0-.22.2c-2.14,2.19-.3,5.22,1.34,7.06s4.09,3.41,6.49,3.17a3.23,3.23,0,0,0,3.07-2.33A8.93,8.93,0,0,0,190,17.17Z"/><path class="cls-7" d="M190.17,101.56a6.4,6.4,0,0,0-2.79-3.19,3.37,3.37,0,0,0-1-.93c-2.12-1.15-4.76,1.21-3.4,3.4.18.29.39.63.64,1a4.46,4.46,0,0,0,1.07,2.23,10.75,10.75,0,0,0,2,2.29,2.22,2.22,0,0,0,3.4-.44,3.7,3.7,0,0,0,.77-2.21A5.08,5.08,0,0,0,190.17,101.56Z"/><path class="cls-7" d="M201,131.55c-2-4.64-6.38-9.94-11.91-9.72-10.89.43-6,14.28-.71,20.73a19,19,0,0,0,9.09,6.9c2,.64,3.78-.46,4.9-2C205.4,143.24,202.8,135.8,201,131.55Z"/><path class="cls-7" d="M128.35,187.65c-4.52-1.48-10.08.16-13.85,3a11.59,11.59,0,0,0-6.61,4.45c-2.87,3.94-2.91,9.72,1.14,12.8,3.13,2.38,7.77,1.8,11.33,1a23.45,23.45,0,0,0,11.42-6.38C136.43,197.48,135,189.81,128.35,187.65Z"/><path class="cls-7" d="M-2,138.34c-2.61,2.65-1.58,6.19-.06,9.17,1,6.51,7.25,13.39,12.83,7.31S5.09,131.15-2,138.34Z"/><path class="cls-7" d="M12.82,118.11a5.29,5.29,0,0,0-1.24-2.42l-.12-.14A4.2,4.2,0,0,0,11,115c-.23-.19-.47-.37-.71-.55.64.48.19.07.06,0-1.7-1.5-4.95-1.14-5.47,1.44a12.79,12.79,0,0,0-.15,3.6,4.77,4.77,0,0,0,.37,1.35,2.71,2.71,0,0,0,.13.7c.66,2,2.36,2.92,4.37,3.14a2.7,2.7,0,0,0,2.35-1.35A6.57,6.57,0,0,0,12.82,118.11Z"/><path class="cls-8" d="M173.74,208.42c0-3.67.24-7.45-.09-11.1a.48.48,0,0,0-.71-.4c-6.77-.53-13.72-.13-20.51-.15l-19.67,0c-10.85,0-21.8-.35-32.67,0-10.88-.32-21.82,0-32.68,0l-19.67,0c-6.79,0-13.74-.38-20.51.15a.48.48,0,0,0-.71.4c-.33,3.65-.1,7.43-.09,11.1s-.08,7.39.25,11.06c-.06.65.79,1.15,1.43,1.05l.06,0c6.77.68,13.85.13,20.66.13,7.23,0,14.47,0,21.71,0h20.1c3.11.23,6.28.22,9.45.17s6.33.06,9.45-.17h20.09l21.72,0c6.8,0,13.88.55,20.65-.13l.06,0c.64.1,1.49-.4,1.44-1.05C173.83,215.81,173.72,212.1,173.74,208.42Z"/><path class="cls-9" d="M178.68,198.57a11.19,11.19,0,0,0-1.67-2.73c-1.29-1.65-2.36-3.44-3.56-5.16-2.28-3.3-4.5-6.64-6.77-10-4-5.81-8-11.76-12.78-16.93a.39.39,0,0,0-.35-.55c-5.41-.49-11-.14-16.42-.14H106.49c-2.12-.12-4.27-.1-6.4-.06s-4.29-.06-6.41.06H63.05c-5.43,0-11-.35-16.43.14a.4.4,0,0,0-.35.55c-4.81,5.17-8.78,11.12-12.77,16.93-2.27,3.31-4.5,6.65-6.78,10-1.19,1.72-2.27,3.51-3.56,5.16a11.51,11.51,0,0,0-1.67,2.73c-.3.23-.28.68-.22,1.09a3.83,3.83,0,0,0,.28.93,3.53,3.53,0,0,0,.32.75.34.34,0,0,0,.34.35c7.38.37,14.85.08,22.24.08q11.65,0,23.3.06c7.61,0,15.21,0,22.82,0h2.92c2.2,0,4.4,0,6.6,0s4.4,0,6.59,0h2.93c7.6,0,15.21,0,22.81,0l23.3-.06c7.4,0,14.86.29,22.24-.08a.35.35,0,0,0,.35-.35,3.49,3.49,0,0,0,.31-.75,4.36,4.36,0,0,0,.29-.93C179,199.25,179,198.8,178.68,198.57Z"/><path class="cls-10" d="M178.31,201.34a3.49,3.49,0,0,0,.31-.75,4.36,4.36,0,0,0,.29-.93c.05-.41.08-.86-.23-1.09a1,1,0,0,0-.07-.15c-12.52-.27-25.09,0-37.62,0H58.48c-12.26,0-24.66-.51-36.93,0l-.06.12c-.3.23-.28.68-.22,1.09a3.83,3.83,0,0,0,.28.93,3.53,3.53,0,0,0,.32.75.34.34,0,0,0,.34.35c7.38.37,14.85.08,22.24.08q11.65,0,23.3.06c7.61,0,15.21,0,22.82,0h2.92c2.2,0,4.4,0,6.6,0s4.4,0,6.59,0h2.93c7.6,0,15.21,0,22.81,0l23.3-.06c7.4,0,14.86.29,22.24-.08A.35.35,0,0,0,178.31,201.34Z"/><path class="cls-11" d="M61.07,171.35a61.21,61.21,0,0,1-2.84-9.82c-.34-1.75-.27-4.75-1.45-6.41a.49.49,0,0,0-.37-.49l-.1,0a2.92,2.92,0,0,0-.28-.21.63.63,0,0,0-.51-.11c-2.61-1.28-4.35-4.4-5.77-6.77-2.26-3.75-2.51-7.85-2.13-12.1.71-8.06,4.81-15.26,5.9-23.2a29.65,29.65,0,0,0-4.15-20c-2.84-4.53-6.92-9.51-12.78-9.19-4.73.26-9.06,3.62-7.92,8.75.71,3.2,2.55,5.85,4,8.76A46.84,46.84,0,0,1,36.17,112c1.62,8.21,1.23,16.58.33,24.85a88.4,88.4,0,0,0-.86,11.38,30.53,30.53,0,0,0,2.45,10.59c3.47,8.67,12.78,15.3,22.42,13.54A.8.8,0,0,0,61.07,171.35Z"/><path class="cls-12" d="M79.87,175.27c-1.07-2.57-2.34-5.05-3.37-7.64a74.48,74.48,0,0,0-7.36-14.21c-1-1.44-4.85-8.54-7.44-7-1.87,1.1-2,4.76-1.48,7.31.12,1.14.33,2.26.5,3.32.82,5.06,3.8,9.55,6.3,13.92a24.47,24.47,0,0,0,9.18,9.38c2,1.09,4.87,2.15,4.87-1.07A11,11,0,0,0,79.87,175.27Z"/><path class="cls-12" d="M120.31,175.27c1.07-2.57,2.34-5.05,3.36-7.64A74.52,74.52,0,0,1,131,153.42c1-1.44,4.84-8.54,7.43-7,1.88,1.1,2,4.76,1.49,7.31-.13,1.14-.33,2.26-.51,3.32-.82,5.06-3.8,9.55-6.29,13.92a24.5,24.5,0,0,1-9.19,9.38c-2,1.09-4.87,2.15-4.87-1.07A10.87,10.87,0,0,1,120.31,175.27Z"/><path class="cls-3" d="M126.18,119.9c-.13-2.1,0-5.09-2.67-5.54a124.28,124.28,0,0,0-12.9-1.51c-3.19-.21-6.89-.89-10,.18a.43.43,0,0,0-.48-.07l0,0,0,0a.43.43,0,0,0-.48.07c-3.11-1.07-6.81-.39-10-.18a123.77,123.77,0,0,0-12.89,1.51c-2.64.45-2.55,3.44-2.68,5.54a64.64,64.64,0,0,0,.71,14.84c1.58,9.24,4,18.37,8.55,26.61a126.81,126.81,0,0,0,7.66,11.45c2.7,3.87,5.1,7.92,8.1,11.57a.48.48,0,0,0,.66.13h0a.81.81,0,0,0,.36.1h.11a.75.75,0,0,0,.36-.1h0a.48.48,0,0,0,.66-.13c3-3.65,5.4-7.7,8.11-11.57a128.85,128.85,0,0,0,7.65-11.45c4.52-8.24,7-17.37,8.55-26.61A64.08,64.08,0,0,0,126.18,119.9Z"/><path class="cls-13" d="M99.17,113.2l-.1.06a.59.59,0,0,0-.36-.14c-1.37-.06-2.69.67-4.15.69-2.25,0-4.52.06-6.77,0a152.14,152.14,0,0,1-16.24-1.33.56.56,0,0,0-.59.76c-4.2,7.05-11.31,13.3-15.95,20.06S47.33,147.52,47.6,156c.26,7.86,3.44,13.09,8.72,18.73,2.57,2.75,7.65,5.4,11.2,6.56A16.56,16.56,0,0,0,72,182c1.43.05,3.66-.29,4.91.5a.56.56,0,0,0,.47.09.41.41,0,0,0,.52-.58l0-.05a.63.63,0,0,0-.29-.6l0,0c-1.67-3-4.36-5.54-6.29-8.33a31,31,0,0,1-.44-34.5c3.52-5.67,8.74-10.16,14-14.14,4.54-3.43,9.6-6.31,13.86-10.09h0a.56.56,0,0,0,.55-.53,1.71,1.71,0,0,0,.2-.18C99.66,113.39,99.4,113.07,99.17,113.2Z"/><path class="cls-13" d="M100.86,113.2l.11.06a.56.56,0,0,1,.36-.14c1.37-.06,2.69.67,4.15.69,2.25,0,4.52.06,6.77,0a152.14,152.14,0,0,0,16.24-1.33.55.55,0,0,1,.58.76c4.21,7.05,11.32,13.3,16,20.06s7.68,14.22,7.4,22.65c-.25,7.86-3.43,13.09-8.71,18.73-2.58,2.75-7.65,5.4-11.21,6.56a16.42,16.42,0,0,1-4.45.77c-1.43.05-3.66-.29-4.91.5a.56.56,0,0,1-.47.09.41.41,0,0,1-.52-.58l0-.05a.65.65,0,0,1,.3-.6l0,0c1.66-3,4.36-5.54,6.28-8.33a31.12,31.12,0,0,0,4.78-11.09,31.63,31.63,0,0,0-4.33-23.41c-3.53-5.67-8.74-10.16-14-14.14-4.54-3.43-9.6-6.31-13.86-10.09h0a.56.56,0,0,1-.55-.53,1.71,1.71,0,0,1-.2-.18C100.38,113.39,100.63,113.07,100.86,113.2Z"/><path class="cls-14" d="M44,110.74a.63.63,0,0,0,.92.37c2.6-1.31,3.11-6.35,2.77-9.71.86,1.31,1.19,3,2.13,4.3a.7.7,0,0,0,1.09.14,11.07,11.07,0,0,0,2.33-3.74,28.91,28.91,0,0,0-3.91-9.93c-2.84-4.53-6.92-9.51-12.78-9.19-4.73.26-9.06,3.62-7.92,8.75.71,3.2,2.55,5.85,4,8.76a43.72,43.72,0,0,1,3.2,9.9.54.54,0,0,0,.16-.1c3.11-2.7,3.23-7.5,3.17-11.39C42.67,102,42.79,106.48,44,110.74Z"/><path class="cls-13" d="M66.31,106.65a23.08,23.08,0,0,0-1.78-3.46c-.87-1.61-1.5-3.32-2.24-5-.85-1.91-2.18-3.21-3.85-2.09-2.86.36-5.55,3.55-3.93,6.37,2.15,3.74,7.28,5.42,11.43,4.82A.53.53,0,0,0,66.31,106.65Z"/><path class="cls-13" d="M133.87,106.65a21.36,21.36,0,0,1,1.78-3.46c.87-1.61,1.49-3.32,2.24-5,.85-1.91,2.18-3.21,3.84-2.09,2.86.36,5.56,3.55,3.94,6.37-2.16,3.74-7.28,5.42-11.43,4.82A.53.53,0,0,1,133.87,106.65Z"/><path class="cls-13" d="M97.81,117.25a.33.33,0,0,0-.1,0l.12-.06a.51.51,0,0,0,.19-.76.25.25,0,0,0-.14-.16.56.56,0,0,0-.55-.1,10.34,10.34,0,0,0-11.6,9.12c-.22,2.44.39,5.37,2.66,6.77a4.9,4.9,0,0,0,6.63-.91c2-2.63,1.65-5.94,2.38-9C97.55,121.47,100.15,117.38,97.81,117.25Zm-2,.73a11.13,11.13,0,0,0-2.37,3.79c-.24.55-.41,1.17-.6,1.74-.83,4.13-3.65,2.53-1.94-.8a5.88,5.88,0,0,1,.85-1.83A7.52,7.52,0,0,1,95.86,118Z"/><path class="cls-13" d="M102.76,122.12c.73,3.09.34,6.4,2.37,9a4.91,4.91,0,0,0,6.64.91c2.26-1.4,2.88-4.33,2.65-6.77a10.33,10.33,0,0,0-11.6-9.12.56.56,0,0,0-.55.1.28.28,0,0,0-.14.16.51.51,0,0,0,.2.76l.11.06a.33.33,0,0,0-.1,0C100,117.38,102.6,121.47,102.76,122.12Zm5.59-1.24a5.69,5.69,0,0,1,.86,1.83c1.7,3.33-1.12,4.93-1.95.8a17.87,17.87,0,0,0-.6-1.74,11,11,0,0,0-2.37-3.79A7.48,7.48,0,0,1,108.35,120.88Z"/><path class="cls-15" d="M105.28,114.79a.73.73,0,0,0-.88-.5,42.65,42.65,0,0,1-6.38.51c-.8.06-2.37-.24-3,.41a1.58,1.58,0,0,0,.06,1.82,4.08,4.08,0,0,0,.31.91,5.54,5.54,0,0,0,4.19,2.73C102.79,121.23,106.21,118.16,105.28,114.79Z"/><path class="cls-11" d="M146.17,84.09a34.64,34.64,0,0,0-2.89-10.74,24.75,24.75,0,0,0-3.76-5.69,12.76,12.76,0,0,0,.69-6.31c-.75-5-4-9.66-3.24-14.75a.25.25,0,0,0-.07-.22.14.14,0,0,0-.2-.08A31.29,31.29,0,0,0,126.63,52a35.32,35.32,0,0,0-6.17,6,93.66,93.66,0,0,0-11.36-1.51c-2.45-.22-4.83-.17-7.26-.18-.57,0-1.16,0-1.75,0s-1.18,0-1.76,0c-2.43,0-4.81,0-7.25.18A93.39,93.39,0,0,0,79.72,58a35.72,35.72,0,0,0-6.18-6A31.35,31.35,0,0,0,63.48,46.3a.16.16,0,0,0-.21.08.28.28,0,0,0-.07.22c.72,5.09-2.48,9.71-3.24,14.75a12.76,12.76,0,0,0,.7,6.31,24.76,24.76,0,0,0-3.77,5.69A34.92,34.92,0,0,0,54,84.09c-.68,7.11,1.56,15.57,6.09,21.07,4.76,5.79,11.88,8.51,19,10.19A65.6,65.6,0,0,0,90.28,117a50.24,50.24,0,0,0,9.81,0,50.24,50.24,0,0,0,9.81,0A65.48,65.48,0,0,0,121,115.35c7.17-1.68,14.28-4.4,19-10.19C144.62,99.66,146.86,91.2,146.17,84.09Z"/><path class="cls-16" d="M65.77,51.73a.18.18,0,0,0-.36,0c.16,3.53-1.36,6.76-2.09,10.15-.3,1.37-.06,3.25,1.26,4a4.69,4.69,0,0,0,5.75-.71c3.65-2.66-3-11.09-4.55-13.46A.2.2,0,0,1,65.77,51.73Z"/><path class="cls-16" d="M136.86,61.92c-.74-3.39-2.25-6.62-2.09-10.15,0-.2-.33-.25-.36,0a.15.15,0,0,0,0,.07c-1.52,2.37-8.2,10.8-4.56,13.46a4.7,4.7,0,0,0,5.76.71C136.91,65.17,137.15,63.29,136.86,61.92Z"/><path class="cls-8" d="M77.83,70.93a9.82,9.82,0,0,0-5.18,8c-.53,3.37,1.29,7,3.77,9.22,2.67,2.41,7.61,2.43,10.82,1.29,3.82-1.35,5.57-4.64,6.06-8.33C94.35,73.12,85.07,67.05,77.83,70.93Z"/><g class="cls-17"><path class="cls-18" d="M94.36,72.3c-1.48-3.47-8.88-7.26-11.81-3.77-3.43,1.33-5.37,5.65-4.57,9.38,1.18,5.59,6.8,8.19,12.09,6.57C95,83,96.14,76.47,94.36,72.3Z"/><path class="cls-19" d="M87.46,71.63a2.68,2.68,0,0,0-2.44.69c-1.56.54-1.81,3.16-1,4.46,1.11,1.89,4.46,2.29,5.77.42A3.49,3.49,0,0,0,87.46,71.63Z"/><path class="cls-8" d="M84.67,72.91a2.3,2.3,0,0,0-2.43.35l-.08.07a2.13,2.13,0,0,0-1,2.64,2.68,2.68,0,0,0,4,.94A2.41,2.41,0,0,0,84.67,72.91Z"/></g><path class="cls-8" d="M113.55,70.93a9.8,9.8,0,0,0-5.18,8c-.54,3.37,1.28,7,3.76,9.22,2.67,2.41,7.62,2.43,10.83,1.29,3.81-1.35,5.56-4.64,6-8.33C130.06,73.12,120.79,67.05,113.55,70.93Z"/><g class="cls-20"><path class="cls-18" d="M130.08,72.3c-1.48-3.47-8.88-7.26-11.82-3.77-3.43,1.33-5.36,5.65-4.57,9.38,1.19,5.59,6.81,8.19,12.09,6.57C130.68,83,131.85,76.47,130.08,72.3Z"/><path class="cls-19" d="M123.17,71.63a2.66,2.66,0,0,0-2.43.69c-1.57.54-1.82,3.16-1,4.46,1.11,1.89,4.47,2.29,5.77.42A3.49,3.49,0,0,0,123.17,71.63Z"/><path class="cls-8" d="M120.38,72.91a2.3,2.3,0,0,0-2.43.35l-.07.07a2.12,2.12,0,0,0-1,2.64,2.68,2.68,0,0,0,4.05.94A2.41,2.41,0,0,0,120.38,72.91Z"/></g><path class="cls-21" d="M111.72,87.21A12.33,12.33,0,0,0,95,79.31a11.73,11.73,0,0,0-6.81,8.85c0,.2,0,.4-.05.61a7.61,7.61,0,0,0,.68,5c1.73,3.09,6.56,3.36,9.54,3.5,3.61.18,7.84-.21,11.12-1.89C112.59,93.78,112.52,90.23,111.72,87.21Z"/><path class="cls-22" d="M101,81.56a43.25,43.25,0,0,0-1.86,0c-1.44,0-3.05.3-2.91,1.61s1.58,2.5,2.54,3.26a1.74,1.74,0,0,0,1.3.48,1.72,1.72,0,0,0,1.29-.48c1-.76,2.41-2,2.54-3.26S102.44,81.51,101,81.56Z"/><path class="cls-22" d="M153.48,98.11c-14.29-5.56-30.34-6.93-45.54-7.6-.64,0-.63.94,0,1,7.6.53,15.08,1.09,22.65,2a118.42,118.42,0,0,1,12.26,2.23c3.5.82,7.54,2,10.55,2.65A.17.17,0,0,0,153.48,98.11Z"/><path class="cls-22" d="M156.08,93c-7.64-2.7-16.17-3.3-24.19-3.89a223.81,223.81,0,0,0-25.77-.46.48.48,0,0,0,0,.95c7.95.24,15.87,0,23.82.41A245.09,245.09,0,0,1,156,93.29.15.15,0,0,0,156.08,93Z"/><path class="cls-22" d="M108,87.94a338.75,338.75,0,0,1,46,0c.2,0,.22-.29,0-.33a47.31,47.31,0,0,0-9.94-1.06c-3.76-.07-7.52-.23-11.28-.28q-12.39-.18-24.77.6C107.35,87,107.35,88,108,87.94Z"/><path class="cls-22" d="M92.23,90.51c-15.19.67-31.25,2-45.54,7.6a.17.17,0,0,0,.09.32c3-.68,7-1.83,10.55-2.65a118.24,118.24,0,0,1,12.25-2.23c7.57-1,15-1.52,22.65-2C92.86,91.45,92.87,90.48,92.23,90.51Z"/><path class="cls-22" d="M94.05,88.65a223.81,223.81,0,0,0-25.77.46c-8,.59-16.55,1.19-24.18,3.89a.15.15,0,0,0,.08.29A245.23,245.23,0,0,1,70.23,90c8-.44,15.88-.17,23.82-.41A.48.48,0,0,0,94.05,88.65Z"/><path class="cls-22" d="M46.21,88a338.9,338.9,0,0,1,46,0c.66,0,.65-1,0-1-8.24-.52-16.52-.72-24.78-.6-3.76.05-7.52.21-11.28.28a47.31,47.31,0,0,0-9.94,1.06C46,87.7,46,88,46.21,88Z"/><path class="cls-15" d="M99.88,116.27h0a39.12,39.12,0,0,1-14.12-3,45.53,45.53,0,0,1-11.48-6.9,2,2,0,0,0-2-.68,23.49,23.49,0,0,1-5.86.34c-4.46-.2-11.44-1.4-11.84-6.87,0-.09.05-.56-.28.15C53,102,56.55,106.4,59.14,109a34.81,34.81,0,0,0,11.49,7.77,37.84,37.84,0,0,0,15.76,2.37c8.12-.39,11.56-1,13.77-1.89A.52.52,0,0,0,99.88,116.27Z"/><path class="cls-15" d="M100.29,116.27h0a39.17,39.17,0,0,0,14.13-3,45.47,45.47,0,0,0,11.47-6.9,2,2,0,0,1,2-.68,23.49,23.49,0,0,0,5.86.34c4.47-.2,11.45-1.4,11.85-6.87,0-.09-.06-.56.28.15,1.28,2.74-2.3,7.13-4.88,9.76a34.91,34.91,0,0,1-11.49,7.77,37.91,37.91,0,0,1-15.77,2.37c-8.11-.39-11.55-1-13.77-1.89A.52.52,0,0,1,100.29,116.27Z"/><path class="cls-11" d="M83.57,180.4a8.71,8.71,0,0,0-1.63-2.8,22.15,22.15,0,0,1-2.34-5.09c-.17-.47-1-.6-1.08,0-.18,1.15.21,2.52-.06,3.67a3.87,3.87,0,0,1-1.68-1.84.52.52,0,0,0-1,.26,11.8,11.8,0,0,0,.25,1.88c-1-1.16-1.93-2.42-2.87-3.65a.42.42,0,0,0-.77.33,19.24,19.24,0,0,0,.63,2.79c-1-.79-2.11-1.56-3.09-2.44a22.33,22.33,0,0,0-5.24-3.83A13.69,13.69,0,0,0,54,169.35c-3.41,1.32-5.89,3.24-6.5,6.81-.44,2.58,1.65,6.27,4.2,6.21,1.29,2.07,3.49,3.56,5.9,2.71a5.21,5.21,0,0,0,3.37,2.2,15.84,15.84,0,0,0,6.31-.36c2.63-.48,5.25-1,7.9-1.38s8.1-.86,8.1-4.46A.64.64,0,0,0,83.57,180.4Z"/><path class="cls-11" d="M116.61,180.4a8.87,8.87,0,0,1,1.62-2.8,22.61,22.61,0,0,0,2.35-5.09c.16-.47,1-.6,1.08,0,.17,1.15-.22,2.52,0,3.67a3.89,3.89,0,0,0,1.69-1.84.52.52,0,0,1,1,.26,11.79,11.79,0,0,1-.24,1.88c1-1.16,1.92-2.42,2.86-3.65a.43.43,0,0,1,.78.33,20.71,20.71,0,0,1-.64,2.79c1-.79,2.11-1.56,3.1-2.44a21.92,21.92,0,0,1,5.24-3.83,13.67,13.67,0,0,1,10.7-.33c3.42,1.32,5.9,3.24,6.5,6.81.44,2.58-1.65,6.27-4.19,6.21-1.3,2.07-3.49,3.56-5.9,2.71a5.23,5.23,0,0,1-3.37,2.2,15.82,15.82,0,0,1-6.31-.36c-2.63-.48-5.25-1-7.9-1.38s-8.11-.86-8.11-4.46A.62.62,0,0,1,116.61,180.4Z"/><path class="cls-23" d="M100.22,179.47a35.33,35.33,0,0,0-4.88-10.26c-4.29-6.64-9.6-12.43-12.49-19.9A48.93,48.93,0,0,1,80,137.09c-.22-1.94-.32-3.9-.42-5.85a19.16,19.16,0,0,1,.08-2.73,44.66,44.66,0,0,0-8.87,10,32.2,32.2,0,0,0-4.92,19.41c.24.56.49,1.11.74,1.65a77.69,77.69,0,0,0,6,10.56c2.25,3.43,4.93,6.61,7,10.16-.63.52-1.22,1-1.72,1.45a.6.6,0,0,1,0,.23l0,.05a.41.41,0,0,1-.52.58.57.57,0,0,1-.26,0,4.86,4.86,0,0,0-.72,1.77,7.15,7.15,0,0,0,1.22,5.53c1.79,2.44,5.56,2.83,8.52,2.4a13.15,13.15,0,0,0,2.62,1,6.09,6.09,0,0,0,6.63-2.95,5.62,5.62,0,0,0,5.26-3.14C101.88,185,100.82,181.75,100.22,179.47Z"/><path class="cls-3" d="M100.63,187.23c1.25-2.27.19-5.48-.41-7.76A28.15,28.15,0,0,0,98.14,174l-.21-.17c-1.46-1.18-2.68-2.41-4-3.7a.61.61,0,0,0-1,.43c.06,1.2.32,2.37.49,3.55a39,39,0,0,1-4-3.71.59.59,0,0,0-1,.26,21,21,0,0,0-.23,3.06,7.49,7.49,0,0,1-3.06-4,.58.58,0,0,0-1.1,0,8.4,8.4,0,0,0-.6,4.17,11.41,11.41,0,0,0,.87,2.73c-2-.87-4-2.28-4-4.54,0-.45-.7-.72-.9-.25a21.49,21.49,0,0,0-1.5,5.64c.62.9,1.21,1.81,1.76,2.76-1.47,1.22-2.74,2-3.17,4.08a7.15,7.15,0,0,0,1.22,5.53c1.79,2.44,5.56,2.83,8.52,2.4a13.15,13.15,0,0,0,2.62,1,6.09,6.09,0,0,0,6.63-2.95A5.62,5.62,0,0,0,100.63,187.23Z"/><path class="cls-14" d="M122.68,182.6a.41.41,0,0,1-.52-.58l0-.05a.68.68,0,0,1,.16-.48c-.44-.4-.93-.77-1.45-1.2,2.06-3.55,4.74-6.73,7-10.16a77.75,77.75,0,0,0,6-10.56c.08-.17.15-.34.23-.52a32.09,32.09,0,0,0-4.81-20.54,44,44,0,0,0-8.44-9.63,20.66,20.66,0,0,1,0,2.36c-.11,1.95-.21,3.91-.43,5.85a48.07,48.07,0,0,1-2.85,12.22c-2.89,7.47-8.2,13.26-12.49,19.9a35.33,35.33,0,0,0-4.88,10.26c-.6,2.28-1.66,5.49-.4,7.76a5.61,5.61,0,0,0,5.26,3.14,6.09,6.09,0,0,0,6.63,2.95,13.38,13.38,0,0,0,2.62-1c3,.43,6.73,0,8.51-2.4a7.07,7.07,0,0,0,1.22-5.53,4.61,4.61,0,0,0-.81-1.9l-.09,0A.56.56,0,0,1,122.68,182.6Z"/><path class="cls-24" d="M122.68,182.6a.41.41,0,0,1-.52-.58l0-.05a.68.68,0,0,1,.16-.48c-.44-.4-.93-.77-1.45-1.2,2.06-3.55,4.74-6.73,7-10.16a77.75,77.75,0,0,0,6-10.56c.08-.17.15-.34.23-.52a32.09,32.09,0,0,0-4.81-20.54,44,44,0,0,0-8.44-9.63,20.66,20.66,0,0,1,0,2.36c-.11,1.95-.21,3.91-.43,5.85a48.07,48.07,0,0,1-2.85,12.22c-2.89,7.47-8.2,13.26-12.49,19.9a35.33,35.33,0,0,0-4.88,10.26c-.6,2.28-1.66,5.49-.4,7.76a5.61,5.61,0,0,0,5.26,3.14,6.09,6.09,0,0,0,6.63,2.95,13.38,13.38,0,0,0,2.62-1c3,.43,6.73,0,8.51-2.4a7.07,7.07,0,0,0,1.22-5.53,4.61,4.61,0,0,0-.81-1.9l-.09,0A.56.56,0,0,1,122.68,182.6Z"/><path class="cls-3" d="M121.15,171.89c-.2-.47-.9-.2-.91.25-.07,2.26-2.08,3.67-4,4.54a11.87,11.87,0,0,0,.87-2.73,8.52,8.52,0,0,0-.61-4.17.57.57,0,0,0-1.09,0,7.49,7.49,0,0,1-3.06,4,21,21,0,0,0-.24-3.06.59.59,0,0,0-1-.26,38.89,38.89,0,0,1-4,3.71c.16-1.18.42-2.35.48-3.55a.61.61,0,0,0-1-.43c-1.35,1.29-2.58,2.52-4,3.7l-.2.17a27.54,27.54,0,0,0-2.09,5.45c-.6,2.28-1.66,5.49-.4,7.76a5.61,5.61,0,0,0,5.26,3.14,6.09,6.09,0,0,0,6.63,2.95,13.38,13.38,0,0,0,2.62-1c3,.43,6.73,0,8.51-2.4a7.07,7.07,0,0,0,1.22-5.53c-.43-2.1-1.7-2.86-3.16-4.08.54-.95,1.14-1.86,1.75-2.76A21.47,21.47,0,0,0,121.15,171.89Z"/><path class="cls-25" d="M63.6,186.79c-3-.78-5.77-1.58-6-5.18a5.66,5.66,0,0,1,3.65-5.71c.15,0,.18-.3,0-.33-3.27-.46-4.84,3.28-4.85,6,0,3.9,3.66,6.23,7.24,5.44A.14.14,0,0,0,63.6,186.79Z"/><path class="cls-25" d="M56.29,184.52a11.47,11.47,0,0,1-2.82-1.36,5,5,0,0,1-1.24-4.44c.35-2.11,1.09-5.2,3.48-5.75a.14.14,0,0,0,0-.26c-3.18-.81-4.34,3.77-4.72,6.06-.46,2.86,1.76,7.4,5.25,6.18A.24.24,0,0,0,56.29,184.52Z"/><path class="cls-25" d="M59.48,169.06c-2.75-1.85-7.53,0-9.73,1.95a8.67,8.67,0,0,0-2.59,5.41c-.1,2.27.75,3.26,2.25,4.78.07.07.22,0,.18-.1-.51-1.35-1.31-2.41-1.35-3.93-.05-2.18,1.59-4.62,3.25-5.89a9.54,9.54,0,0,1,3.81-1.53c1.38-.3,2.78.07,4.13-.28A.22.22,0,0,0,59.48,169.06Z"/><path class="cls-25" d="M136.4,186.79c3-.78,5.77-1.58,6-5.18a5.66,5.66,0,0,0-3.66-5.71c-.15,0-.18-.3,0-.33,3.27-.46,4.85,3.28,4.86,6,0,3.9-3.66,6.23-7.25,5.44A.14.14,0,0,1,136.4,186.79Z"/><path class="cls-25" d="M143.71,184.52a11.71,11.71,0,0,0,2.83-1.36,5,5,0,0,0,1.23-4.44c-.34-2.11-1.08-5.2-3.48-5.75a.14.14,0,0,1,0-.26c3.18-.81,4.34,3.77,4.72,6.06.47,2.86-1.75,7.4-5.24,6.18A.24.24,0,0,1,143.71,184.52Z"/><path class="cls-25" d="M140.52,169.06c2.75-1.85,7.54,0,9.73,1.95a8.63,8.63,0,0,1,2.6,5.41c.09,2.27-.76,3.26-2.26,4.78-.07.07-.21,0-.17-.1.51-1.35,1.3-2.41,1.34-3.93.05-2.18-1.58-4.62-3.25-5.89a9.5,9.5,0,0,0-3.8-1.53c-1.38-.3-2.79.07-4.14-.28A.23.23,0,0,1,140.52,169.06Z"/><path class="cls-25" d="M98.55,188.93a16,16,0,0,1-2.27.47,3.84,3.84,0,0,1-2.66-1.13c-1.33-1.2-1.16-3.32-1.22-4.94,0-.17-.27-.28-.34-.1a5.18,5.18,0,0,0,1.06,6.08c1.37,1.24,4.66,2,5.65-.1A.2.2,0,0,0,98.55,188.93Z"/><path class="cls-25" d="M93.79,191.62a16.81,16.81,0,0,1-3.28.92,5.24,5.24,0,0,1-4.19-1.87c-1.9-2-1.38-4.75-1-7.19a.22.22,0,0,0-.4-.17c-2,2.59-1.33,6.35.86,8.59,2,2,6.52,2.85,8.1-.14A.1.1,0,0,0,93.79,191.62Z"/><path class="cls-25" d="M83.56,192.09c-2.93-.68-5.25-2.08-6.2-5.09a6,6,0,0,1,4.14-7.35.23.23,0,0,0,0-.44c-3.71-.82-5.76,3.71-5.73,6.74,0,3.84,4,7.26,7.79,6.38A.12.12,0,0,0,83.56,192.09Z"/><path class="cls-25" d="M101.45,188.93a15.9,15.9,0,0,0,2.28.47,3.79,3.79,0,0,0,2.65-1.13c1.34-1.2,1.16-3.32,1.23-4.94,0-.17.26-.28.34-.1a5.18,5.18,0,0,1-1.07,6.08c-1.36,1.24-4.65,2-5.64-.1A.19.19,0,0,1,101.45,188.93Z"/><path class="cls-25" d="M106.22,191.62a16.61,16.61,0,0,0,3.28.92,5.22,5.22,0,0,0,4.18-1.87c1.91-2,1.38-4.75,1-7.19a.22.22,0,0,1,.4-.17c2,2.59,1.32,6.35-.86,8.59-2,2-6.52,2.85-8.1-.14A.1.1,0,0,1,106.22,191.62Z"/><path class="cls-25" d="M116.44,192.09c2.94-.68,5.25-2.08,6.2-5.09a6,6,0,0,0-4.13-7.35.23.23,0,0,1,0-.44c3.71-.82,5.76,3.71,5.72,6.74,0,3.84-4,7.26-7.79,6.38A.13.13,0,0,1,116.44,192.09Z"/></g></svg>