<svg xmlns="http://www.w3.org/2000/svg" viewBox="0 0 384 384"><defs><style>.cls-1{fill:#cfb886;}</style></defs><g id="圖層_3" data-name="圖層 3"><path class="cls-1" d="M99.48,342.05a6,6,0,0,1-6-6V286.46H77.12A45.61,45.61,0,0,1,31.57,240.9V87.5A45.6,45.6,0,0,1,77.12,42H306.88A45.6,45.6,0,0,1,352.43,87.5V240.9a45.61,45.61,0,0,1-45.55,45.56H179.39L103,340.94A6.07,6.07,0,0,1,99.48,342.05ZM77.12,54A33.59,33.59,0,0,0,43.57,87.5V240.9a33.59,33.59,0,0,0,33.55,33.56H99.48a6,6,0,0,1,6,6v44L174,275.57a6.06,6.06,0,0,1,3.49-1.11H306.88a33.59,33.59,0,0,0,33.55-33.56V87.5A33.59,33.59,0,0,0,306.88,54Z"/></g></svg>