<svg xmlns="http://www.w3.org/2000/svg" viewBox="0 0 384 384"><defs><style>.cls-1{fill:#cfb886;}</style></defs><g id="圖層_3" data-name="圖層 3"><path class="cls-1" d="M331.27,320.29H52.73a21.4,21.4,0,0,1-19-10.8,18.41,18.41,0,0,1,.7-19L173.75,73.33a22.12,22.12,0,0,1,36.5,0L349.53,290.49a18.41,18.41,0,0,1,.7,19A21.4,21.4,0,0,1,331.27,320.29ZM192,75.44a9.77,9.77,0,0,0-8.38,4.23L44.35,296.82a6.65,6.65,0,0,0-.28,7,9.64,9.64,0,0,0,8.66,4.7H331.27a9.64,9.64,0,0,0,8.66-4.7,6.65,6.65,0,0,0-.28-7L200.38,79.67A9.77,9.77,0,0,0,192,75.44Z"/><path class="cls-1" d="M192,233.89a7,7,0,0,1-7-7V158.12a7,7,0,0,1,14,0v68.79A7,7,0,0,1,192,233.89Z"/><circle class="cls-1" cx="192" cy="258.01" r="10.35"/></g></svg>