<svg xmlns="http://www.w3.org/2000/svg" viewBox="0 0 384 384"><defs><style>.cls-1{fill:#d89482;}</style></defs><g id="圖層_3" data-name="圖層 3"><path class="cls-1" d="M360.3,118.55c-4.95-26.9-18.7-48.57-40.61-64.84-15.46-11.47-33-17.8-52.34-17.36C237,37,212.27,49.66,193.5,73.68c-.57.74-1.23,1.41-2,2.26a93.66,93.66,0,0,0-41.41-32.7c-17.3-7.1-35.27-9.42-53.36-4.71-37,9.65-60,34.24-71.33,70.19-2.07,6.58-2.72,13.61-4,20.43v16c.22,1.07.49,2.14.65,3.22.84,5.47,1.37,11,2.5,16.41C30.87,194.86,45.11,221.2,64,245.11c33.91,42.93,76.51,75.4,123.9,102a7.18,7.18,0,0,0,7.54,0c43.58-24.36,83-54,115.71-92,19.43-22.5,35.06-47.32,43.9-76C361.16,159.39,364.09,139.17,360.3,118.55Z"/></g></svg>