<svg xmlns="http://www.w3.org/2000/svg" viewBox="0 0 384 384"><defs><style>.cls-1{fill:#cfb886;}</style></defs><g id="圖層_3" data-name="圖層 3"><path class="cls-1" d="M104,359.9c-3.81-.79-7.67-1.37-11.41-2.42-23.88-6.73-39-25.14-40-50.21-1.08-25.91,1.76-51.43,11.6-75.69,6.36-15.65,15.59-29.2,31.05-37.47a61.2,61.2,0,0,1,30.49-7.32c3.37.07,6.93,1.78,10,3.46,5,2.7,9.57,6.05,14.39,9q42,26,84.09-.06c3.89-2.41,7.86-4.74,11.51-7.48,6.7-5,14.08-5.65,22-4.48,21.74,3.2,37.09,15.1,47.45,34.1,9.24,17,13.4,35.37,15.25,54.35a269.32,269.32,0,0,1,1.28,29.38c-.35,29.24-20.42,51-49.5,54.2a12.83,12.83,0,0,0-2.13.61Z"/><path class="cls-1" d="M270.7,105.35c.3,44.16-36.15,80.8-80.55,80.92s-81-36.47-81-80.51a80.77,80.77,0,0,1,80.41-81C234.22,24.43,270.43,60.4,270.7,105.35Z"/></g></svg>