<svg id="圖層_1" data-name="圖層 1" xmlns="http://www.w3.org/2000/svg" viewBox="0 0 368 368"><defs><style>.cls-1{fill:#dfaf47;}.cls-2{stroke:#000;stroke-miterlimit:10;}</style></defs><rect class="cls-1" x="-0.2" width="368" height="368"/><path d="M182.93,209.57a13.83,13.83,0,0,1,10.38,4.52,15.76,15.76,0,0,1,0,21.64,14.05,14.05,0,0,1-20.63,0,15.76,15.76,0,0,1,0-21.64A13.69,13.69,0,0,1,182.93,209.57Z"/><path class="cls-2" d="M328.56,229.31H247.71A48.93,48.93,0,0,0,247,224l57.32-15.58-.88-3.54-57.26,15.55a50.65,50.65,0,0,0-2.63-7.48l88.13-58.7-1.88-3.09L242,209.68a56.29,56.29,0,0,0-6-9.09l24.41-25.51-2.48-2.59-24.26,25.35a62.72,62.72,0,0,0-6.59-6.22l36.21-56.74-2.92-2-36.12,56.6a64.84,64.84,0,0,0-5.87-3.81L233.9,143.5l-3.28-1.32L215.24,184a65.34,65.34,0,0,0-8-3.38l6-25.15-3.4-.89-6,25a67.89,67.89,0,0,0-8.49-1.91l3-47-3.5-.24-3,46.74a65.79,65.79,0,0,0-7.06-.39v-89h-3.5v89.06c-1.79.08-3.56.24-5.31.46l-3-46.89-3.5.24,3,47.18a66.77,66.77,0,0,0-8.42,2.07l-6.07-25.34-3.4.89L160.83,181a66.71,66.71,0,0,0-8.79,4l-14.66-39.83-3.28,1.31L149,186.88a64,64,0,0,0-6.06,4.28L107.63,135.9l-2.92,2,35.44,55.54a60.56,60.56,0,0,0-6.47,6.75l-23.61-24.68-2.48,2.6,23.89,25a55.1,55.1,0,0,0-4.41,7.26L38.2,151.17l-1.88,3.09,89.2,59.41a50.66,50.66,0,0,0-2.41,7.13L64.56,204.89l-.88,3.54,58.65,15.94a47.66,47.66,0,0,0-.65,4.94H42.76V233H125l.07-1.74c1.22-28,28-50.83,59.62-50.83s58.41,22.8,59.63,50.83l.07,1.74h84.17Z"/></svg>