<svg id="圖層_1" data-name="圖層 1" xmlns="http://www.w3.org/2000/svg" viewBox="0 0 331 195.4"><defs><style>.cls-1{fill:#fff;}</style></defs><path class="cls-1" d="M4.52,195c5.34-1.72,6.82-5.38,7.09-10.32.88-16.42.44-32.85,1.1-49.26.23-5.87-4.12-6.45-8-8,10.11-3.1,13.28-1.72,17.46,7.33Q32.56,157.34,43.06,180c.61,1.3.79,3,2.93,3.87,2.38-5.37,4.78-10.72,7.13-16.1q7.22-16.53,14.4-33.09c3.7-8.47,3.72-8.49,13.18-8.29,1.38,0,3-.55,4.2.74-9.18,3-9.25,3-8.84,13.4.56,13.92,1.31,27.85,1.86,41.78.39,9.77.3,9.78,10.08,13H63.46c3-2.05,6.89-1.29,7.88-4.78.86-3,.23-6.06.1-9.1-.53-12.6-1-25.19-1.55-37.78,0-1.28.35-2.65-1.16-4.61-8.26,19-16.32,37.56-24.39,56.11l-1.87.28L16.8,139.14c-1.72,2.29-1.36,4.36-1.39,6.29-.16,12-.17,24.07-.46,36.1-.15,6.25-.2,12.14,7.85,13.49Z"/><path class="cls-1" d="M282.17,169.12c0-14.14,11.12-24.75,25.72-24.62,13,.12,23,11,23.11,25.11.11,14.35-10.7,25.24-25.11,25.28C292.2,194.94,282.14,184,282.17,169.12Zm7.73-2.86c0,8.44,2.26,16,8.71,21.83,7.54,6.78,19.21,5.13,22.61-3.61,4.15-10.7,3.14-21.29-4-30.66-4.43-5.85-12.24-8.12-18.43-5.72-6.48,2.52-8.53,8-8.92,14.43C289.83,163.77,289.9,165,289.9,166.26Z"/><path class="cls-1" d="M164.72,157.37c-1.76-5.47-4.61-8.2-8.58-9.22-3.58-.92-7.68-1.74-9.92,2.49-2.12,4-.88,7.73,2.36,10.62a41.6,41.6,0,0,0,6.2,4.1c2.3,1.38,4.74,2.55,7,4,4.58,2.81,7.27,6.76,6.66,12.35s-3.77,9.53-8.87,11.82a19.45,19.45,0,0,1-9.72,1.49c-8.79-.73-11.25-3.91-10-13.19,2.65.2,2.76,2.74,3.85,4.22,2.58,3.51,5.66,6,10.26,6,3.17,0,6.39.11,8.14-3.18,1.85-3.49,1-6.83-1.1-9.94a12.8,12.8,0,0,0-4.66-4c-2.19-1.18-4.39-2.32-6.58-3.49-8.32-4.45-11.2-9.73-9.17-16.8,1.79-6.22,8.82-10.53,16.84-9.91C163.55,145.16,168.3,146,164.72,157.37Z"/><path class="cls-1" d="M228.86,155.2c5-2.34,8.81-4.18,12.67-5.93,2.1-.94,3.65-.18,4.46,1.93.65,1.7,1.16,3.45,2,6.07,2.43-2.56,4.37-4.92,6.64-6.9,2.85-2.49,6.15-3.45,9.75-1.46,2.09,1.16,4.1,2.63,2.9,5.35s-3.43,2.36-5.8,1.37c-6.43-2.69-9.09-1.81-12.87,3.66-1.28,1.86-1.37,3.84-1.37,5.92,0,6.42-.06,12.85,0,19.28.09,7.42,1.14,8.53,8.43,9.44.78.1,1.68-.11,2.47,1.3H234.6c6.71-1.22,6.67-6.33,6.68-11.4,0-6.63.09-13.26,0-19.9-.14-8.45-1.07-9.19-9.21-8C231.51,156,230.93,155.66,228.86,155.2Z"/><path class="cls-1" d="M214.36,188.73A20.41,20.41,0,0,1,203,194.28c-9.05,1.41-13.86-2.65-14-11.74-.1-8.7,0-17.4,0-26.09,0-3.81-.47-7.3-6-7.41,4.75-2,9.17-3.71,10.1-9,.85.34,1.45.42,1.49.61,1.52,7.87,1.63,7.95,10,6.83.82-.11,1.62-.37,2.45-.43,1.78-.14,3.75-1.07,5.18.76a2.54,2.54,0,0,1,.07,2.94c-1.35,2.06-3.29,1-5.06.77-2.47-.27-4.94-.42-7.4-.7-3.55-.4-4.78,1.26-4.72,4.67.12,7.66-.08,15.33.06,23,.19,10.25,5.09,13.67,15,10.73C211.29,188.83,212.35,187.89,214.36,188.73Z"/><path class="cls-1" d="M125.18,193.86c-7.13,1.38-13.61.81-20.61.32,7-1.2,7.21-6.19,7.22-11.27,0-7,.18-14.09-.09-21.12-.29-7.59-1.75-8.48-9.07-6.43,2.3-3.25,7.53-6,14.45-7.46,1.63,3.32.58,6.86.64,10.27.15,8.28.11,16.57,0,24.85C117.7,188.18,117.48,193.32,125.18,193.86Z"/><path class="cls-1" d="M113.85,94.59a10.72,10.72,0,0,1,8.06,3.51,12.25,12.25,0,0,1,0,16.81,10.92,10.92,0,0,1-16,0,12.25,12.25,0,0,1,0-16.81A10.62,10.62,0,0,1,113.85,94.59Z"/><path class="cls-1" d="M164.16,109.92a40.37,40.37,0,0,0-.55-4.12l44.51-12.09L207.43,91,163,103a40.82,40.82,0,0,0-2-5.81l68.43-45.59-1.46-2.4L159.7,94.67a44,44,0,0,0-4.64-7l19-19.81-1.93-2L153.25,85.49a46,46,0,0,0-5.12-4.83l28.12-44.07L174,35,145.94,79a51.57,51.57,0,0,0-4.56-3l12.05-32.73-2.54-1L138.94,74.71a52.12,52.12,0,0,0-6.18-2.63l4.67-19.53-2.64-.69-4.64,19.38a52.94,52.94,0,0,0-6.59-1.48l2.32-36.47-2.71-.19-2.32,36.3a52.2,52.2,0,0,0-5.48-.3V0h-2.72V69.16c-1.39.06-2.77.19-4.13.36L106.2,33.1l-2.72.19,2.34,36.64a52,52,0,0,0-6.54,1.61L94.57,51.86l-2.64.69,4.76,19.89a50.91,50.91,0,0,0-6.83,3.13L78.48,44.63l-2.55,1L87.46,77a49.1,49.1,0,0,0-4.7,3.33L55.38,37.39,53.11,39,80.63,82.09a46.78,46.78,0,0,0-5,5.24L57.27,68.17l-1.93,2L73.9,89.57a42.85,42.85,0,0,0-3.43,5.64l-69-46L0,51.64,69.27,97.78a39.52,39.52,0,0,0-1.87,5.53L21.93,91l-.69,2.76,45.55,12.38c-.23,1.26-.4,2.54-.51,3.83H5v2.85H68.86l.06-1.36c1-21.77,21.72-39.47,46.3-39.47s45.35,17.7,46.3,39.47l.06,1.36H331v-2.85Z"/></svg>