<svg id="圖層_1" data-name="圖層 1" xmlns="http://www.w3.org/2000/svg" xmlns:xlink="http://www.w3.org/1999/xlink" viewBox="0 0 200 200"><defs><style>.cls-1,.cls-25{fill:none;}.cls-2{clip-path:url(#clip-path);}.cls-10,.cls-3{fill:#231815;}.cls-16,.cls-4,.cls-5{fill:#3e3a39;}.cls-10,.cls-15,.cls-16,.cls-24,.cls-25,.cls-4,.cls-6{stroke:#c8b17d;stroke-miterlimit:10;}.cls-10,.cls-24,.cls-25,.cls-4,.cls-6{stroke-width:0.58px;}.cls-6{fill:#6a6969;}.cls-7{fill:#fbe2e3;}.cls-8{fill:#7f4f21;}.cls-9{fill:#6a3906;}.cls-11{fill:#251b3a;}.cls-12{fill:#d2bb87;}.cls-13,.cls-24{fill:#393332;}.cls-14{fill:#eec073;}.cls-15,.cls-22{fill:#595757;}.cls-15,.cls-16{stroke-width:0.43px;}.cls-17{fill:#c8b17d;}.cls-18{clip-path:url(#clip-path-2);}.cls-19{fill:#3c3736;}.cls-20{fill:#12031c;}.cls-21{clip-path:url(#clip-path-3);}.cls-23{fill:#352f2d;}.cls-26{clip-path:url(#clip-path-4);}</style><clipPath id="clip-path"><rect class="cls-1" x="0.3" y="0.3" width="200" height="200"/></clipPath><clipPath id="clip-path-2"><path class="cls-1" d="M78.05,70.93a9.82,9.82,0,0,0-5.18,8c-.53,3.37,1.28,7,3.76,9.22,2.68,2.41,7.62,2.43,10.83,1.29,3.82-1.35,5.57-4.64,6.05-8.33C94.57,73.12,85.29,67.05,78.05,70.93Z"/></clipPath><clipPath id="clip-path-3"><path class="cls-1" d="M113.77,70.93a9.83,9.83,0,0,0-5.19,8c-.53,3.37,1.29,7,3.77,9.22,2.67,2.41,7.61,2.43,10.82,1.29,3.82-1.35,5.57-4.64,6.06-8.33C130.28,73.12,121,67.05,113.77,70.93Z"/></clipPath><clipPath id="clip-path-4"><rect class="cls-1" x="220.09" y="0.3" width="200" height="200"/></clipPath></defs><g class="cls-2"><rect class="cls-3" x="-29.51" y="-16.48" width="259.62" height="259.62"/><path class="cls-4" d="M217.22,136.5c-2.28-7.71-6.29-14.82-10.2-21.79-4.34-7.72-9.58-16-8.64-25.24.85-8.32,5.18-16,8.54-23.46,3.45-7.73,6-15.83,6.11-24.35.26-15.3-8.1-29.41-22.41-35.35-15.9-6.59-30.24.46-45.92,3.59-16.6,3.32-35.93,2.47-51.43-4.81C86.11,1.73,79.73-3,71.84-4.53A49.46,49.46,0,0,0,47.7-2.79C35.15,1.14,23.16,9.9,18.14,22.39c-6.27,15.63,1.92,30.16,8.78,44C34.23,81.07,16,92,6.2,99.27c-12.3,9.17-22.83,22.41-24.44,38.19C-19.83,153-10.42,164.35,3,170.84c6.71,3.26,14.07,5,20.62,8.65,7.2,4,11.48,10.06,15.44,17.06,8.14,14.39,20.29,25.88,36,31.77,15,5.6,32,4.62,46.53-1.9,15-6.72,24.8-19.06,38-28.19,7.42-5.13,14.32-5.67,23.06-5.74a32.19,32.19,0,0,0,22-8.37c12.45-11.49,17.32-31.52,12.55-47.62Z"/><path class="cls-5" d="M8.24,44.53c-5-4.6-12.51-4.3-15.92,1.95C-10.1,50.92-10,57-9.14,62.21a40.59,40.59,0,0,0,.45,5.29C-7.92,72.74-5.62,77.72-1,80.62A8.19,8.19,0,0,0,9.63,79.1c2.72-3.26,3.56-7.45,4.09-11.55C14.71,59.89,14.25,50.09,8.24,44.53Z"/><path class="cls-5" d="M6.12,23.4A16.46,16.46,0,0,0,4.8,20.06s-.14-.62-.08-.1a6.46,6.46,0,0,0-.18-1.07A4.15,4.15,0,0,0,2.7,16.63a3.18,3.18,0,0,0-3.82.5,5,5,0,0,0-1.4,2,7.14,7.14,0,0,0-1.59,5.29c.33,3.1,1.87,5.9,5.29,6.15A5.24,5.24,0,0,0,5.53,28,5.68,5.68,0,0,0,6.12,23.4Z"/><path class="cls-5" d="M128.67.43c.7.81-.28-.37-.32-.43a2.79,2.79,0,0,0-.4-.37A6.3,6.3,0,0,0,127-1c-.22-.12-1.27-.66-.6-.29a9.9,9.9,0,0,0-3.75-1.21c-2.16-.29-4.12,1.41-4.81,3.31a3.49,3.49,0,0,0,.91,3.44,3.25,3.25,0,0,0,.78.57,5,5,0,0,0,1.88,1.58c2.56,1.13,6,1.58,7.78-1.18A4.12,4.12,0,0,0,128.67.43Z"/><path class="cls-5" d="M128.35,0l0,0Z"/><path class="cls-5" d="M144,0a2.59,2.59,0,0,1-.26-.43,2,2,0,0,0-1.38-2.34l-.47-.18a2.15,2.15,0,0,0-2.61,1.48,4.6,4.6,0,0,0,0,2A2.11,2.11,0,0,0,141.3,2.6,2,2,0,0,0,142.71,2a3.6,3.6,0,0,0,.5-.12A1.31,1.31,0,0,0,144,0Z"/><path class="cls-5" d="M28,201.83c-.83-4-3.74-7-6.54-9.78-5-4.89-18.47-15.47-22.6-3.77C-3.09,193.77,0,198.91,4.51,203a33.53,33.53,0,0,0,3.82,3.62c3.4,2.8,7.21,5,11.65,5.37a6.07,6.07,0,0,0,5.84-1.19A3.46,3.46,0,0,0,26.93,209,9.76,9.76,0,0,0,28,201.83Z"/><path class="cls-5" d="M180.36,202.28a6,6,0,0,0-8.32-1.54,14.2,14.2,0,0,0-2.51,2.27c-.09.06-.2.11-.29.18a5.7,5.7,0,0,0-2,6.82c1.72,4.12,6.3,4.75,10,2.81a7.88,7.88,0,0,0,3.13-10.54Z"/><path class="cls-6" d="M161.17,119.65c-16.34-16.91,26.07-50.45,21-72.57-2.91-12.82-15.38-19.57-27.85-16.23-9,2.41-18.58,23.69-26.35,21.75-7.43-1.86-12.33-15.08-19.33-19.1-11-6.34-25.28-7.24-36.14.07C60.8,41.48,60.48,55.3,62.88,68,65.43,81.42,76.35,87.45,61.1,96,35.81,110.28,15.62,136.23,35,164.78,52.38,190.5,85,194.89,107.1,174c21.35-20.19,27,8.2,50.81,5.37a27.88,27.88,0,0,0,23.71-22.48c3.55-18.68-9.47-25.88-20.45-37.25Z"/><path class="cls-6" d="M46.28,23.44c-3.89.87-5.92,4.46-7,8a31.65,31.65,0,0,0-.9,3.66,23.75,23.75,0,0,0-.91,3.82c-.59,3.73.36,8.41,4.44,9.72,7,2.25,11.58-7,12.35-12.59S54.11,21.7,46.28,23.44Z"/><path class="cls-6" d="M133.76,35.86c-.34-3.75-3.56-7.23-7.36-7.45a4.26,4.26,0,0,0-4.7,4.17,4.92,4.92,0,0,0,.42,1.88,9.74,9.74,0,0,0,3,4.63,5.7,5.7,0,0,0,5.39,1.44A4.44,4.44,0,0,0,133.76,35.86Z"/><path class="cls-6" d="M190.2,17.17A3.66,3.66,0,0,0,186,19.12a1.37,1.37,0,0,0-.22.2c-2.14,2.19-.3,5.22,1.34,7.06s4.09,3.41,6.49,3.17a3.21,3.21,0,0,0,3.06-2.33A8.91,8.91,0,0,0,190.2,17.17Z"/><path class="cls-6" d="M190.39,101.56a6.4,6.4,0,0,0-2.79-3.19,3.37,3.37,0,0,0-1-.93c-2.12-1.15-4.76,1.21-3.4,3.4.18.29.39.63.63,1a4.57,4.57,0,0,0,1.08,2.23,11,11,0,0,0,2,2.29,2.23,2.23,0,0,0,3.41-.44,3.7,3.7,0,0,0,.77-2.21A5.39,5.39,0,0,0,190.39,101.56Z"/><path class="cls-6" d="M201.16,131.55c-2-4.64-6.37-9.94-11.9-9.72-10.89.43-6,14.28-.71,20.73a19,19,0,0,0,9.09,6.9c2,.64,3.77-.46,4.89-2C205.61,143.24,203,135.8,201.16,131.55Z"/><path class="cls-6" d="M128.57,187.65c-4.52-1.48-10.09.16-13.85,3a11.56,11.56,0,0,0-6.61,4.45c-2.87,3.94-2.92,9.72,1.14,12.8,3.13,2.38,7.77,1.8,11.32,1A23.44,23.44,0,0,0,132,202.48C136.65,197.48,135.17,189.81,128.57,187.65Z"/><path class="cls-6" d="M-1.76,138.34c-2.6,2.65-1.57,6.19-.05,9.17C-.8,154,5.43,160.9,11,154.82S5.31,131.15-1.76,138.34Z"/><path class="cls-6" d="M13,118.11a5.49,5.49,0,0,0-1.24-2.42l-.12-.14a4.2,4.2,0,0,0-.49-.55c-.23-.19-.47-.37-.71-.55.63.48.19.07.06,0-1.7-1.5-5-1.14-5.47,1.44a12.08,12.08,0,0,0-.15,3.6,4.46,4.46,0,0,0,.37,1.35,2.34,2.34,0,0,0,.13.7c.66,2,2.36,2.92,4.37,3.14a2.72,2.72,0,0,0,2.35-1.35A6.61,6.61,0,0,0,13,118.11Z"/><path class="cls-7" d="M174,208.42c0-3.67.24-7.45-.09-11.1a.48.48,0,0,0-.71-.4c-6.77-.53-13.72-.13-20.51-.15l-19.67,0c-10.86,0-21.8-.35-32.68,0-10.87-.32-21.82,0-32.67,0l-19.67,0c-6.79,0-13.74-.38-20.51.15a.48.48,0,0,0-.71.4c-.33,3.65-.1,7.43-.09,11.1s-.09,7.39.24,11.06c-.05.65.8,1.15,1.44,1.05l.06,0c6.77.68,13.85.13,20.66.13,7.23,0,14.47,0,21.71,0H90.85c3.12.23,6.29.22,9.45.17s6.34.06,9.45-.17h20.1c7.24,0,14.48,0,21.71,0,6.81,0,13.89.55,20.66-.13l.06,0c.64.1,1.49-.4,1.43-1.05C174,215.81,173.94,212.1,174,208.42Z"/><path class="cls-8" d="M178.9,198.57a11.19,11.19,0,0,0-1.67-2.73c-1.29-1.65-2.37-3.44-3.56-5.16-2.28-3.3-4.5-6.64-6.78-10-4-5.81-8-11.76-12.77-16.93a.4.4,0,0,0-.35-.55c-5.41-.49-11-.14-16.43-.14H106.71c-2.12-.12-4.27-.1-6.41-.06s-4.28-.06-6.4.06H63.26c-5.43,0-11-.35-16.42.14a.39.39,0,0,0-.35.55c-4.81,5.17-8.78,11.12-12.77,16.93-2.28,3.31-4.5,6.65-6.78,10-1.19,1.72-2.27,3.51-3.56,5.16a11.19,11.19,0,0,0-1.67,2.73c-.31.23-.28.68-.23,1.09a4.36,4.36,0,0,0,.29.93,3.49,3.49,0,0,0,.31.75.35.35,0,0,0,.35.35c7.38.37,14.85.08,22.24.08q11.65,0,23.3.06c7.61,0,15.21,0,22.82,0h2.92c2.19,0,4.39,0,6.59,0s4.4,0,6.6,0h2.92c7.61,0,15.21,0,22.82,0q11.66,0,23.3-.06c7.39,0,14.86.29,22.24-.08a.35.35,0,0,0,.35-.35,3.49,3.49,0,0,0,.31-.75,3.83,3.83,0,0,0,.28-.93C179.18,199.25,179.21,198.8,178.9,198.57Z"/><path class="cls-9" d="M178.53,201.34a3.49,3.49,0,0,0,.31-.75,3.83,3.83,0,0,0,.28-.93c.06-.41.09-.86-.22-1.09l-.07-.15c-12.53-.27-25.09,0-37.62,0H58.7c-12.26,0-24.67-.51-36.94,0a.61.61,0,0,1-.05.12c-.31.23-.28.68-.23,1.09a4.36,4.36,0,0,0,.29.93,3.49,3.49,0,0,0,.31.75.35.35,0,0,0,.35.35c7.38.37,14.85.08,22.24.08q11.65,0,23.3.06c7.61,0,15.21,0,22.82,0h2.92c2.19,0,4.39,0,6.59,0s4.4,0,6.6,0h2.92c7.61,0,15.21,0,22.82,0q11.66,0,23.3-.06c7.39,0,14.86.29,22.24-.08A.35.35,0,0,0,178.53,201.34Z"/><path class="cls-10" d="M61.28,171.35a63.34,63.34,0,0,1-2.84-9.82c-.33-1.75-.26-4.75-1.44-6.41a.49.49,0,0,0-.37-.49l-.1,0a2.92,2.92,0,0,0-.28-.21.63.63,0,0,0-.51-.11c-2.62-1.28-4.35-4.4-5.77-6.77-2.26-3.75-2.51-7.85-2.13-12.1.71-8.06,4.81-15.26,5.9-23.2a29.65,29.65,0,0,0-4.15-20C46.75,87.64,42.67,82.66,36.8,83c-4.73.26-9,3.62-7.91,8.75.71,3.2,2.55,5.85,4,8.76A46.84,46.84,0,0,1,36.39,112c1.62,8.21,1.23,16.58.33,24.85a86.65,86.65,0,0,0-.86,11.38,30.31,30.31,0,0,0,2.45,10.59c3.47,8.67,12.78,15.3,22.42,13.54A.79.79,0,0,0,61.28,171.35Z"/><path class="cls-11" d="M80.08,175.27c-1.07-2.57-2.33-5.05-3.36-7.64a74.52,74.52,0,0,0-7.37-14.21c-.95-1.44-4.84-8.54-7.43-7-1.88,1.1-2,4.76-1.49,7.31.13,1.14.34,2.26.51,3.32.82,5.06,3.8,9.55,6.3,13.92a24.47,24.47,0,0,0,9.18,9.38c2,1.09,4.87,2.15,4.87-1.07A10.87,10.87,0,0,0,80.08,175.27Z"/><path class="cls-11" d="M120.52,175.27c1.07-2.57,2.34-5.05,3.37-7.64a74.48,74.48,0,0,1,7.36-14.21c1-1.44,4.85-8.54,7.44-7,1.87,1.1,2,4.76,1.49,7.31-.13,1.14-.34,2.26-.51,3.32-.82,5.06-3.8,9.55-6.3,13.92a24.47,24.47,0,0,1-9.18,9.38c-2,1.09-4.87,2.15-4.87-1.07A11,11,0,0,1,120.52,175.27Z"/><path class="cls-3" d="M126.4,119.9c-.13-2.1,0-5.09-2.67-5.54a124.28,124.28,0,0,0-12.9-1.51c-3.19-.21-6.89-.89-10,.18a.43.43,0,0,0-.48-.07l0,0,0,0a.43.43,0,0,0-.48.07c-3.11-1.07-6.81-.39-10-.18a124.28,124.28,0,0,0-12.9,1.51c-2.63.45-2.54,3.44-2.67,5.54a64.08,64.08,0,0,0,.71,14.84c1.58,9.24,4,18.37,8.55,26.61a126.81,126.81,0,0,0,7.66,11.45c2.7,3.87,5.1,7.92,8.1,11.57a.48.48,0,0,0,.66.13h0a.78.78,0,0,0,.36.1h.11a.81.81,0,0,0,.36-.1h0a.48.48,0,0,0,.66-.13c3-3.65,5.4-7.7,8.1-11.57a126.81,126.81,0,0,0,7.66-11.45c4.52-8.24,7-17.37,8.55-26.61A64.08,64.08,0,0,0,126.4,119.9Z"/><path class="cls-12" d="M99.39,113.2l-.1.06a.59.59,0,0,0-.36-.14c-1.37-.06-2.7.67-4.15.69-2.26,0-4.52.06-6.78,0a151.74,151.74,0,0,1-16.23-1.33.56.56,0,0,0-.59.76c-4.2,7.05-11.31,13.3-16,20.06S47.55,147.52,47.82,156c.25,7.86,3.43,13.09,8.71,18.73,2.58,2.75,7.65,5.4,11.21,6.56a16.49,16.49,0,0,0,4.46.77c1.43.05,3.65-.29,4.91.5a.55.55,0,0,0,.47.09.41.41,0,0,0,.51-.58l0-.05a.65.65,0,0,0-.29-.6l0,0c-1.67-3-4.36-5.54-6.29-8.33a30.92,30.92,0,0,1-4.77-11.09A31.58,31.58,0,0,1,71,138.51c3.52-5.67,8.73-10.16,14-14.14,4.54-3.43,9.6-6.31,13.86-10.09h.05a.56.56,0,0,0,.55-.53l.2-.18C99.88,113.39,99.62,113.07,99.39,113.2Z"/><path class="cls-12" d="M101.08,113.2l.11.06a.56.56,0,0,1,.35-.14c1.38-.06,2.7.67,4.16.69,2.25,0,4.51.06,6.77,0a151.74,151.74,0,0,0,16.23-1.33.55.55,0,0,1,.59.76c4.21,7.05,11.32,13.3,16,20.06s7.67,14.22,7.4,22.65c-.25,7.86-3.43,13.09-8.71,18.73-2.58,2.75-7.65,5.4-11.21,6.56a16.43,16.43,0,0,1-4.46.77c-1.42.05-3.65-.29-4.9.5a.56.56,0,0,1-.47.09.41.41,0,0,1-.52-.58l0-.05a.65.65,0,0,1,.3-.6l0,0c1.66-3,4.35-5.54,6.28-8.33a31.12,31.12,0,0,0,4.78-11.09,31.63,31.63,0,0,0-4.34-23.41c-3.52-5.67-8.73-10.16-14-14.14-4.54-3.43-9.61-6.31-13.87-10.09h0a.57.57,0,0,1-.55-.53l-.2-.18C100.59,113.39,100.85,113.07,101.08,113.2Z"/><path class="cls-13" d="M44.25,110.74a.64.64,0,0,0,.93.37c2.6-1.31,3.1-6.35,2.77-9.71.86,1.31,1.19,3,2.13,4.3a.7.7,0,0,0,1.09.14,11.23,11.23,0,0,0,2.33-3.74,29.11,29.11,0,0,0-3.91-9.93C46.75,87.64,42.67,82.66,36.8,83c-4.73.26-9,3.62-7.91,8.75.71,3.2,2.55,5.85,4,8.76a43.72,43.72,0,0,1,3.2,9.9.54.54,0,0,0,.16-.1c3.1-2.7,3.23-7.5,3.17-11.39C42.89,102,43,106.48,44.25,110.74Z"/><path class="cls-14" d="M66.52,106.65a21.36,21.36,0,0,0-1.78-3.46c-.86-1.61-1.49-3.32-2.24-5-.84-1.91-2.18-3.21-3.84-2.09-2.86.36-5.56,3.55-3.94,6.37,2.16,3.74,7.28,5.42,11.43,4.82A.53.53,0,0,0,66.52,106.65Z"/><path class="cls-14" d="M134.08,106.65a22.24,22.24,0,0,1,1.79-3.46c.86-1.61,1.49-3.32,2.24-5,.84-1.91,2.18-3.21,3.84-2.09,2.86.36,5.55,3.55,3.94,6.37-2.16,3.74-7.28,5.42-11.44,4.82A.54.54,0,0,1,134.08,106.65Z"/><path class="cls-14" d="M98,117.25a.34.34,0,0,0-.1,0l.11-.06a.51.51,0,0,0,.2-.76.25.25,0,0,0-.14-.16.56.56,0,0,0-.55-.1A10.33,10.33,0,0,0,86,125.29c-.22,2.44.39,5.37,2.65,6.77a4.91,4.91,0,0,0,6.64-.91c2-2.63,1.65-5.94,2.38-9C97.77,121.47,100.37,117.38,98,117.25Zm-2,.73a11.13,11.13,0,0,0-2.37,3.79,17.87,17.87,0,0,0-.6,1.74c-.83,4.13-3.65,2.53-1.94-.8a5.66,5.66,0,0,1,.85-1.83A7.48,7.48,0,0,1,96.08,118Z"/><path class="cls-14" d="M103,122.12c.73,3.09.34,6.4,2.37,9a4.91,4.91,0,0,0,6.64.91c2.26-1.4,2.87-4.33,2.65-6.77a10.33,10.33,0,0,0-11.6-9.12.56.56,0,0,0-.55.1.25.25,0,0,0-.14.16.51.51,0,0,0,.2.76l.11.06a.33.33,0,0,0-.1,0C100.22,117.38,102.82,121.47,103,122.12Zm5.59-1.24a5.66,5.66,0,0,1,.85,1.83c1.71,3.33-1.11,4.93-1.94.8a17.87,17.87,0,0,0-.6-1.74,11,11,0,0,0-2.37-3.79A7.48,7.48,0,0,1,108.57,120.88Z"/><path class="cls-14" d="M105.5,114.79a.73.73,0,0,0-.88-.5,42.68,42.68,0,0,1-6.39.51c-.79.06-2.36-.24-3,.41-.42.41-.3,1.17.06,1.82a4.08,4.08,0,0,0,.31.91,5.52,5.52,0,0,0,4.18,2.73C103,121.23,106.43,118.16,105.5,114.79Z"/><path class="cls-10" d="M146.39,84.09a34.92,34.92,0,0,0-2.89-10.74,25.07,25.07,0,0,0-3.76-5.69,12.76,12.76,0,0,0,.69-6.31c-.76-5-4-9.66-3.24-14.75a.28.28,0,0,0-.07-.22.16.16,0,0,0-.21-.08A31.35,31.35,0,0,0,126.85,52a35.72,35.72,0,0,0-6.18,6,93.49,93.49,0,0,0-11.35-1.51c-2.45-.22-4.83-.17-7.26-.18-.58,0-1.16,0-1.76,0s-1.18,0-1.75,0c-2.43,0-4.81,0-7.26.18A93.23,93.23,0,0,0,79.94,58a35.72,35.72,0,0,0-6.18-6A31.35,31.35,0,0,0,63.7,46.3a.15.15,0,0,0-.21.08.25.25,0,0,0-.07.22c.71,5.09-2.48,9.71-3.24,14.75a12.76,12.76,0,0,0,.69,6.31,25.07,25.07,0,0,0-3.76,5.69,34.92,34.92,0,0,0-2.89,10.74c-.68,7.11,1.55,15.57,6.09,21.07,4.76,5.79,11.87,8.51,19,10.19A65.48,65.48,0,0,0,90.49,117a50.24,50.24,0,0,0,9.81,0,50.24,50.24,0,0,0,9.81,0,65.45,65.45,0,0,0,11.15-1.62c7.17-1.68,14.28-4.4,19-10.19C144.83,99.66,147.07,91.2,146.39,84.09Z"/><path class="cls-15" d="M66,51.73a.18.18,0,0,0-.36,0c.15,3.53-1.36,6.76-2.09,10.15-.3,1.37-.06,3.25,1.26,4a4.69,4.69,0,0,0,5.75-.71c3.64-2.66-3-11.09-4.56-13.46Z"/><path class="cls-15" d="M137.07,61.92c-.73-3.39-2.25-6.62-2.09-10.15a.18.18,0,0,0-.36,0,.2.2,0,0,1,0,.07c-1.51,2.37-8.2,10.8-4.55,13.46a4.69,4.69,0,0,0,5.75.71C137.13,65.17,137.37,63.29,137.07,61.92Z"/><path class="cls-16" d="M112.35,53.15c-4.46-1-9.36-.92-13.91-.89-3,0-7-.1-10.11,1.09-2.31.27-4.65,1-5.47,2.56-1.26,2.45.39,4.85,2.35,6.32,3,2.28,7.8,2.72,11.46,2.91A53.44,53.44,0,0,0,111.38,64c3.07-.71,6.22-2.42,6.76-5.77S114.86,53.69,112.35,53.15Z"/><path class="cls-16" d="M108.26,50.18c-1.51-2.41-2.75-5.15-4.55-7.36-.54-.67-1.74-2.5-2.78-2.45a.3.3,0,0,0-.31,0C97.34,42.79,95,47,92.73,50.28,90.89,53,87.9,55.8,91.24,58.45c3,2.36,7.84,2,11.37,1.86,1.5-.05,4.66-.27,6.47-1.39C112.9,58.11,109.64,52.38,108.26,50.18Z"/><path class="cls-17" d="M109.08,58.92c3.28-.7,1.34-5-.14-7.61a21.94,21.94,0,0,1-8,1.38,30.62,30.62,0,0,1-6-.47,18.35,18.35,0,0,1-3-.82c-1.74,2.35-3.56,4.77-.68,7.05s7.84,2,11.37,1.86C104.11,60.26,107.27,60,109.08,58.92Z"/><path class="cls-7" d="M78.05,70.93a9.82,9.82,0,0,0-5.18,8c-.53,3.37,1.28,7,3.76,9.22,2.68,2.41,7.62,2.43,10.83,1.29,3.82-1.35,5.57-4.64,6.05-8.33C94.57,73.12,85.29,67.05,78.05,70.93Z"/><g class="cls-18"><path class="cls-19" d="M94.58,72.3C93.1,68.83,85.7,65,82.76,68.53c-3.42,1.33-5.36,5.65-4.57,9.38,1.19,5.59,6.81,8.19,12.1,6.57C95.18,83,96.36,76.47,94.58,72.3Z"/><path class="cls-20" d="M87.67,71.63a2.67,2.67,0,0,0-2.43.69c-1.56.54-1.81,3.16-1,4.46,1.11,1.89,4.47,2.29,5.78.42A3.5,3.5,0,0,0,87.67,71.63Z"/><path class="cls-7" d="M84.89,72.91a2.29,2.29,0,0,0-2.43.35l-.08.07a2.11,2.11,0,0,0-1,2.64,2.68,2.68,0,0,0,4,.94A2.41,2.41,0,0,0,84.89,72.91Z"/></g><path class="cls-7" d="M113.77,70.93a9.83,9.83,0,0,0-5.19,8c-.53,3.37,1.29,7,3.77,9.22,2.67,2.41,7.61,2.43,10.82,1.29,3.82-1.35,5.57-4.64,6.06-8.33C130.28,73.12,121,67.05,113.77,70.93Z"/><g class="cls-21"><path class="cls-19" d="M130.29,72.3c-1.48-3.47-8.87-7.26-11.81-3.77-3.43,1.33-5.36,5.65-4.57,9.38,1.18,5.59,6.81,8.19,12.09,6.57C130.9,83,132.07,76.47,130.29,72.3Z"/><path class="cls-20" d="M123.39,71.63a2.68,2.68,0,0,0-2.44.69c-1.56.54-1.81,3.16-1,4.46,1.11,1.89,4.46,2.29,5.77.42A3.49,3.49,0,0,0,123.39,71.63Z"/><path class="cls-7" d="M120.6,72.91a2.3,2.3,0,0,0-2.43.35l-.08.07a2.13,2.13,0,0,0-1,2.64,2.68,2.68,0,0,0,4.05.94A2.41,2.41,0,0,0,120.6,72.91Z"/></g><path class="cls-22" d="M111.93,87.21a12.32,12.32,0,0,0-16.72-7.9,11.73,11.73,0,0,0-6.81,8.85,6,6,0,0,0-.05.61,7.61,7.61,0,0,0,.68,5c1.73,3.09,6.55,3.36,9.54,3.5,3.61.18,7.83-.21,11.12-1.89C112.81,93.78,112.73,90.23,111.93,87.21Z"/><path class="cls-23" d="M101.22,81.56a43.25,43.25,0,0,0-1.86,0c-1.43,0-3,.3-2.9,1.61S98,85.67,99,86.43a1.72,1.72,0,0,0,1.29.48,1.74,1.74,0,0,0,1.3-.48c1-.76,2.4-2,2.54-3.26S102.66,81.51,101.22,81.56Z"/><path class="cls-23" d="M153.7,98.11c-14.29-5.56-30.34-6.93-45.54-7.6-.64,0-.63.94,0,1,7.6.53,15.08,1.09,22.65,2a118.24,118.24,0,0,1,12.25,2.23c3.5.82,7.55,2,10.55,2.65A.17.17,0,0,0,153.7,98.11Z"/><path class="cls-23" d="M156.29,93c-7.63-2.7-16.16-3.3-24.18-3.89a223.81,223.81,0,0,0-25.77-.46.48.48,0,0,0,0,.95c8,.24,15.87,0,23.82.41a245.23,245.23,0,0,1,26.05,3.28A.15.15,0,0,0,156.29,93Z"/><path class="cls-23" d="M108.22,87.94a338.9,338.9,0,0,1,46,0c.2,0,.22-.29,0-.33a47.31,47.31,0,0,0-9.94-1.06c-3.76-.07-7.52-.23-11.28-.28-8.26-.12-16.54.08-24.78.6C107.57,87,107.56,88,108.22,87.94Z"/><path class="cls-23" d="M92.45,90.51c-15.2.67-31.25,2-45.54,7.6a.17.17,0,0,0,.09.32c3-.68,7-1.83,10.55-2.65A117.76,117.76,0,0,1,69.8,93.55c7.57-1,15-1.52,22.65-2C93.08,91.45,93.09,90.48,92.45,90.51Z"/><path class="cls-23" d="M94.27,88.65a223.81,223.81,0,0,0-25.77.46C60.48,89.7,52,90.3,44.31,93a.15.15,0,0,0,.09.29A245.23,245.23,0,0,1,70.45,90c8-.44,15.87-.17,23.82-.41A.48.48,0,0,0,94.27,88.65Z"/><path class="cls-23" d="M46.43,88a338.9,338.9,0,0,1,46,0c.65,0,.65-1,0-1q-12.37-.78-24.78-.6c-3.76.05-7.52.21-11.28.28a47.31,47.31,0,0,0-9.94,1.06C46.21,87.7,46.23,88,46.43,88Z"/><path class="cls-17" d="M100.1,116.27h0a39.22,39.22,0,0,1-14.13-3,45.47,45.47,0,0,1-11.47-6.9,2,2,0,0,0-2-.68,23.49,23.49,0,0,1-5.86.34c-4.46-.2-11.45-1.4-11.85-6.87,0-.09.06-.56-.27.15-1.29,2.74,2.29,7.13,4.87,9.76a35,35,0,0,0,11.49,7.77,37.91,37.91,0,0,0,15.77,2.37c8.11-.39,11.55-1,13.77-1.89A.52.52,0,0,0,100.1,116.27Z"/><path class="cls-17" d="M100.51,116.27h0a39.22,39.22,0,0,0,14.13-3,45.47,45.47,0,0,0,11.47-6.9,2,2,0,0,1,2-.68A23.49,23.49,0,0,0,134,106c4.46-.2,11.44-1.4,11.84-6.87,0-.09,0-.56.28.15,1.29,2.74-2.29,7.13-4.87,9.76a35,35,0,0,1-11.49,7.77A37.91,37.91,0,0,1,114,119.17c-8.11-.39-11.55-1-13.77-1.89A.52.52,0,0,1,100.51,116.27Z"/><path class="cls-10" d="M83.79,180.4a8.71,8.71,0,0,0-1.63-2.8,22.15,22.15,0,0,1-2.34-5.09c-.17-.47-1-.6-1.09,0-.17,1.15.22,2.52,0,3.67A3.82,3.82,0,0,1,77,174.34a.52.52,0,0,0-1,.26,10.76,10.76,0,0,0,.25,1.88c-1-1.16-1.93-2.42-2.87-3.65a.42.42,0,0,0-.77.33,19.24,19.24,0,0,0,.63,2.79c-1-.79-2.11-1.56-3.1-2.44a21.92,21.92,0,0,0-5.24-3.83,13.67,13.67,0,0,0-10.7-.33c-3.42,1.32-5.89,3.24-6.5,6.81-.44,2.58,1.65,6.27,4.19,6.21,1.3,2.07,3.49,3.56,5.9,2.71a5.23,5.23,0,0,0,3.37,2.2,15.82,15.82,0,0,0,6.31-.36c2.64-.48,5.26-1,7.9-1.38s8.11-.86,8.11-4.46A.64.64,0,0,0,83.79,180.4Z"/><path class="cls-10" d="M116.82,180.4a8.71,8.71,0,0,1,1.63-2.8,22.15,22.15,0,0,0,2.34-5.09c.17-.47,1-.6,1.08,0,.18,1.15-.21,2.52.06,3.67a3.87,3.87,0,0,0,1.68-1.84.52.52,0,0,1,1,.26,10.76,10.76,0,0,1-.25,1.88c1-1.16,1.93-2.42,2.87-3.65a.42.42,0,0,1,.77.33,19.24,19.24,0,0,1-.63,2.79c1-.79,2.11-1.56,3.09-2.44a22.18,22.18,0,0,1,5.25-3.83,13.67,13.67,0,0,1,10.7-.33c3.41,1.32,5.89,3.24,6.5,6.81.44,2.58-1.65,6.27-4.19,6.21-1.3,2.07-3.49,3.56-5.91,2.71a5.18,5.18,0,0,1-3.36,2.2,15.82,15.82,0,0,1-6.31-.36c-2.64-.48-5.26-1-7.9-1.38s-8.11-.86-8.11-4.46A.64.64,0,0,1,116.82,180.4Z"/><path class="cls-24" d="M100.44,179.47a35.33,35.33,0,0,0-4.88-10.26c-4.29-6.64-9.6-12.43-12.49-19.9a48.07,48.07,0,0,1-2.85-12.22c-.22-1.94-.32-3.9-.43-5.85a22.63,22.63,0,0,1,.08-2.73,44.86,44.86,0,0,0-8.86,10,32.2,32.2,0,0,0-4.92,19.41c.24.56.49,1.11.73,1.65a77.75,77.75,0,0,0,6,10.56c2.24,3.43,4.93,6.61,7,10.16-.63.52-1.22,1-1.73,1.45a.61.61,0,0,1,0,.23l0,.05a.41.41,0,0,1-.51.58.57.57,0,0,1-.26,0,4.86,4.86,0,0,0-.72,1.77,7.07,7.07,0,0,0,1.22,5.53c1.78,2.44,5.56,2.83,8.51,2.4a13.2,13.2,0,0,0,2.63,1,6.09,6.09,0,0,0,6.63-2.95,5.62,5.62,0,0,0,5.26-3.14C102.1,185,101,181.75,100.44,179.47Z"/><path class="cls-3" d="M100.85,187.23c1.25-2.27.19-5.48-.41-7.76A27.54,27.54,0,0,0,98.35,174l-.2-.17c-1.46-1.18-2.69-2.41-4-3.7a.61.61,0,0,0-1,.43c.06,1.2.32,2.37.48,3.55a38.89,38.89,0,0,1-4-3.71.59.59,0,0,0-1,.26,21,21,0,0,0-.24,3.06,7.54,7.54,0,0,1-3.06-4,.57.57,0,0,0-1.09,0,8.52,8.52,0,0,0-.61,4.17,11.91,11.91,0,0,0,.88,2.73c-2-.87-4-2.28-4-4.54,0-.45-.7-.72-.91-.25A21.47,21.47,0,0,0,78,177.53c.61.9,1.21,1.81,1.76,2.76-1.47,1.22-2.74,2-3.17,4.08a7.07,7.07,0,0,0,1.22,5.53c1.78,2.44,5.56,2.83,8.51,2.4a13.2,13.2,0,0,0,2.63,1,6.09,6.09,0,0,0,6.63-2.95A5.62,5.62,0,0,0,100.85,187.23Z"/><path class="cls-13" d="M122.9,182.6a.41.41,0,0,1-.52-.58l0-.05a.68.68,0,0,1,.16-.48c-.44-.4-.94-.77-1.46-1.2,2.06-3.55,4.75-6.73,7-10.16A76.63,76.63,0,0,0,134,159.57l.24-.52a32,32,0,0,0-4.82-20.54,43.73,43.73,0,0,0-8.44-9.63,18.6,18.6,0,0,1,0,2.36c-.1,1.95-.2,3.91-.42,5.85a48.07,48.07,0,0,1-2.85,12.22c-2.89,7.47-8.2,13.26-12.49,19.9a35.33,35.33,0,0,0-4.88,10.26c-.6,2.28-1.66,5.49-.41,7.76a5.62,5.62,0,0,0,5.26,3.14,6.09,6.09,0,0,0,6.63,2.95,13.43,13.43,0,0,0,2.63-1c2.95.43,6.73,0,8.51-2.4a7.11,7.11,0,0,0,1.22-5.53,4.61,4.61,0,0,0-.81-1.9.25.25,0,0,0-.09,0A.56.56,0,0,1,122.9,182.6Z"/><path class="cls-25" d="M122.9,182.6a.41.41,0,0,1-.52-.58l0-.05a.68.68,0,0,1,.16-.48c-.44-.4-.94-.77-1.46-1.2,2.06-3.55,4.75-6.73,7-10.16A76.63,76.63,0,0,0,134,159.57l.24-.52a32,32,0,0,0-4.82-20.54,43.73,43.73,0,0,0-8.44-9.63,18.6,18.6,0,0,1,0,2.36c-.1,1.95-.2,3.91-.42,5.85a48.07,48.07,0,0,1-2.85,12.22c-2.89,7.47-8.2,13.26-12.49,19.9a35.33,35.33,0,0,0-4.88,10.26c-.6,2.28-1.66,5.49-.41,7.76a5.62,5.62,0,0,0,5.26,3.14,6.09,6.09,0,0,0,6.63,2.95,13.43,13.43,0,0,0,2.63-1c2.95.43,6.73,0,8.51-2.4a7.11,7.11,0,0,0,1.22-5.53,4.61,4.61,0,0,0-.81-1.9.25.25,0,0,0-.09,0A.56.56,0,0,1,122.9,182.6Z"/><path class="cls-3" d="M121.36,171.89c-.2-.47-.89-.2-.9.25-.07,2.26-2.08,3.67-4,4.54a11.91,11.91,0,0,0,.88-2.73,8.52,8.52,0,0,0-.61-4.17.58.58,0,0,0-1.1,0,7.48,7.48,0,0,1-3,4,21,21,0,0,0-.24-3.06.59.59,0,0,0-1-.26,39,39,0,0,1-4,3.71c.17-1.18.43-2.35.49-3.55a.61.61,0,0,0-1-.43c-1.35,1.29-2.58,2.52-4,3.7l-.2.17a27.54,27.54,0,0,0-2.09,5.45c-.6,2.28-1.66,5.49-.41,7.76a5.62,5.62,0,0,0,5.26,3.14,6.09,6.09,0,0,0,6.63,2.95,13.43,13.43,0,0,0,2.63-1c2.95.43,6.73,0,8.51-2.4a7.11,7.11,0,0,0,1.22-5.53c-.43-2.1-1.7-2.86-3.17-4.08.55-.95,1.14-1.86,1.76-2.76A21.11,21.11,0,0,0,121.36,171.89Z"/><path class="cls-12" d="M63.82,186.79c-3-.78-5.77-1.58-6-5.18a5.64,5.64,0,0,1,3.65-5.71c.15,0,.18-.3,0-.33-3.27-.46-4.84,3.28-4.85,6,0,3.9,3.66,6.23,7.24,5.44A.14.14,0,0,0,63.82,186.79Z"/><path class="cls-12" d="M56.51,184.52a11.71,11.71,0,0,1-2.83-1.36,5,5,0,0,1-1.23-4.44c.34-2.11,1.08-5.2,3.48-5.75a.14.14,0,0,0,0-.26c-3.18-.81-4.34,3.77-4.72,6.06-.47,2.86,1.76,7.4,5.25,6.18A.24.24,0,0,0,56.51,184.52Z"/><path class="cls-12" d="M59.7,169.06c-2.75-1.85-7.54,0-9.73,1.95a8.57,8.57,0,0,0-2.59,5.41c-.1,2.27.75,3.26,2.25,4.78.07.07.21,0,.17-.1-.51-1.35-1.3-2.41-1.34-3.93-.05-2.18,1.59-4.62,3.25-5.89a9.48,9.48,0,0,1,3.81-1.53c1.37-.3,2.78.07,4.13-.28A.22.22,0,0,0,59.7,169.06Z"/><path class="cls-12" d="M136.62,186.79c3-.78,5.77-1.58,6-5.18A5.66,5.66,0,0,0,139,175.9c-.15,0-.18-.3,0-.33,3.27-.46,4.84,3.28,4.85,6,0,3.9-3.66,6.23-7.24,5.44A.14.14,0,0,1,136.62,186.79Z"/><path class="cls-12" d="M143.93,184.52a11.47,11.47,0,0,0,2.82-1.36,5,5,0,0,0,1.24-4.44c-.34-2.11-1.08-5.2-3.48-5.75a.14.14,0,0,1,0-.26c3.18-.81,4.34,3.77,4.72,6.06.47,2.86-1.76,7.4-5.25,6.18A.24.24,0,0,1,143.93,184.52Z"/><path class="cls-12" d="M140.74,169.06c2.75-1.85,7.53,0,9.73,1.95a8.57,8.57,0,0,1,2.59,5.41c.1,2.27-.75,3.26-2.25,4.78-.07.07-.21,0-.18-.1.52-1.35,1.31-2.41,1.35-3.93.05-2.18-1.59-4.62-3.25-5.89a9.48,9.48,0,0,0-3.81-1.53c-1.38-.3-2.78.07-4.13-.28A.22.22,0,0,1,140.74,169.06Z"/><path class="cls-12" d="M98.77,188.93a16,16,0,0,1-2.27.47,3.8,3.8,0,0,1-2.66-1.13c-1.34-1.2-1.16-3.32-1.22-4.94,0-.17-.27-.28-.34-.1a5.17,5.17,0,0,0,1.06,6.08c1.36,1.24,4.66,2,5.65-.1A.2.2,0,0,0,98.77,188.93Z"/><path class="cls-12" d="M94,191.62a16.71,16.71,0,0,1-3.27.92,5.22,5.22,0,0,1-4.19-1.87c-1.91-2-1.38-4.75-1-7.19a.22.22,0,0,0-.4-.17c-2,2.59-1.33,6.35.86,8.59,2,2,6.51,2.85,8.09-.14A.1.1,0,0,0,94,191.62Z"/><path class="cls-12" d="M83.78,192.09c-2.94-.68-5.25-2.08-6.2-5.09a6,6,0,0,1,4.13-7.35.23.23,0,0,0,0-.44C78,178.39,76,182.92,76,186c.05,3.84,4,7.26,7.79,6.38A.12.12,0,0,0,83.78,192.09Z"/><path class="cls-12" d="M101.67,188.93a16,16,0,0,0,2.27.47,3.84,3.84,0,0,0,2.66-1.13c1.33-1.2,1.16-3.32,1.22-4.94,0-.17.27-.28.34-.1a5.18,5.18,0,0,1-1.06,6.08c-1.36,1.24-4.66,2-5.65-.1A.2.2,0,0,1,101.67,188.93Z"/><path class="cls-12" d="M106.43,191.62a17,17,0,0,0,3.28.92,5.24,5.24,0,0,0,4.19-1.87c1.9-2,1.38-4.75,1-7.19a.22.22,0,0,1,.4-.17c2,2.59,1.33,6.35-.86,8.59-2,2-6.51,2.85-8.1-.14A.1.1,0,0,1,106.43,191.62Z"/><path class="cls-12" d="M116.66,192.09c2.94-.68,5.25-2.08,6.2-5.09a6,6,0,0,0-4.13-7.35.23.23,0,0,1,0-.44c3.71-.82,5.75,3.71,5.72,6.74,0,3.84-4,7.26-7.79,6.38A.12.12,0,0,1,116.66,192.09Z"/></g><g class="cls-26"><rect class="cls-3" x="190.27" y="-16.48" width="259.62" height="259.62"/></g></svg>